solid SIOST-Standoff-Label
facet normal -0.0 1.0 -0.0
  outer loop
    vertex 2.6679499999999963 19.999999999999996 0.9999999999999999
    vertex 62.4 19.999999999999996 0.0
    vertex 2.6679499999999963 19.999999999999996 0.0
  endloop
endfacet
facet normal -0.0 1.0 -0.0
  outer loop
    vertex 62.4 19.999999999999996 0.0
    vertex 2.6679499999999963 19.999999999999996 0.9999999999999999
    vertex 62.4 19.999999999999996 0.9999999999999999
  endloop
endfacet
facet normal 0.0 -1.0 0.0
  outer loop
    vertex 62.4 0.0 1.0000000000000002
    vertex 2.6679499999999963 0.0 0.0
    vertex 62.4 0.0 0.0
  endloop
endfacet
facet normal 0.0 -1.0 0.0
  outer loop
    vertex 2.6679499999999963 0.0 0.0
    vertex 62.4 0.0 1.0000000000000002
    vertex 2.667949999999997 0.0 0.9999999999999999
  endloop
endfacet
facet normal 1.0 -0.0 -0.0
  outer loop
    vertex 62.4 19.999999999999996 0.0
    vertex 62.4 0.0 1.0000000000000002
    vertex 62.4 0.0 0.0
  endloop
endfacet
facet normal 1.0 -0.0 -0.0
  outer loop
    vertex 62.4 0.0 1.0000000000000002
    vertex 62.4 19.999999999999996 0.0
    vertex 62.4 19.999999999999996 0.9999999999999999
  endloop
endfacet
facet normal -1.0 -1.6391858239147025e-17 -3.216961227913292e-17
  outer loop
    vertex 2.6679499999999963 19.999999999999996 0.9999999999999999
    vertex 2.6679499999999963 0.0 0.0
    vertex 2.667949999999997 0.0 0.9999999999999999
  endloop
endfacet
facet normal -1.0 -1.6391858239147025e-17 -3.216961227913292e-17
  outer loop
    vertex 2.6679499999999963 0.0 0.0
    vertex 2.6679499999999963 19.999999999999996 0.9999999999999999
    vertex 2.6679499999999963 19.999999999999996 0.0
  endloop
endfacet
facet normal -0.9238795325112849 0.3826834323650944 0.0
  outer loop
    vertex 61.859110991546885 2.6394171458769753 1.0000000000000002
    vertex 61.739230484541324 2.35 0.0
    vertex 61.739230484541324 2.35 1.0000000000000002
  endloop
endfacet
facet normal -0.9238795325112849 0.3826834323650944 0.0
  outer loop
    vertex 61.739230484541324 2.35 0.0
    vertex 61.859110991546885 2.6394171458769753 1.0000000000000002
    vertex 61.859110991546885 2.6394171458769753 0.0
  endloop
endfacet
facet normal -0.7933533402912305 0.6087614290087268 0.0
  outer loop
    vertex 61.739230484541324 2.35 1.0000000000000002
    vertex 61.54852813742385 2.1014718625761435 0.0
    vertex 61.54852813742385 2.1014718625761435 1.0000000000000002
  endloop
endfacet
facet normal -0.7933533402912305 0.6087614290087268 0.0
  outer loop
    vertex 61.54852813742385 2.1014718625761435 0.0
    vertex 61.739230484541324 2.35 1.0000000000000002
    vertex 61.739230484541324 2.35 0.0
  endloop
endfacet
facet normal -0.6087614290087259 0.7933533402912314 -0.0
  outer loop
    vertex 61.3 1.9107695154586741 1.0000000000000002
    vertex 61.54852813742385 2.1014718625761435 0.0
    vertex 61.3 1.9107695154586741 0.0
  endloop
endfacet
facet normal -0.6087614290087259 0.7933533402912314 -0.0
  outer loop
    vertex 61.54852813742385 2.1014718625761435 0.0
    vertex 61.3 1.9107695154586741 1.0000000000000002
    vertex 61.54852813742385 2.1014718625761435 1.0000000000000002
  endloop
endfacet
facet normal -0.38268343236509694 0.9238795325112839 -0.0
  outer loop
    vertex 61.01058285412303 1.7908890084531184 1.0000000000000002
    vertex 61.3 1.9107695154586741 0.0
    vertex 61.01058285412303 1.7908890084531184 0.0
  endloop
endfacet
facet normal -0.38268343236509694 0.9238795325112839 -0.0
  outer loop
    vertex 61.3 1.9107695154586741 0.0
    vertex 61.01058285412303 1.7908890084531184 1.0000000000000002
    vertex 61.3 1.9107695154586741 1.0000000000000002
  endloop
endfacet
facet normal -0.13052619222004935 0.9914448613738107 -0.0
  outer loop
    vertex 60.7 1.7500000000000002 1.0000000000000002
    vertex 61.01058285412303 1.7908890084531184 0.0
    vertex 60.7 1.7500000000000002 0.0
  endloop
endfacet
facet normal -0.13052619222004935 0.9914448613738107 -0.0
  outer loop
    vertex 61.01058285412303 1.7908890084531184 0.0
    vertex 60.7 1.7500000000000002 1.0000000000000002
    vertex 61.01058285412303 1.7908890084531184 1.0000000000000002
  endloop
endfacet
facet normal 0.13052619222005163 0.9914448613738105 -0.0
  outer loop
    vertex 60.38941714587697 1.790889008453119 1.0000000000000002
    vertex 60.7 1.7500000000000002 0.0
    vertex 60.38941714587697 1.790889008453119 0.0
  endloop
endfacet
facet normal 0.13052619222005163 0.9914448613738105 -0.0
  outer loop
    vertex 60.7 1.7500000000000002 0.0
    vertex 60.38941714587697 1.790889008453119 1.0000000000000002
    vertex 60.7 1.7500000000000002 1.0000000000000002
  endloop
endfacet
facet normal 0.3826834323650959 0.9238795325112843 -0.0
  outer loop
    vertex 60.1 1.9107695154586744 1.0000000000000002
    vertex 60.38941714587697 1.790889008453119 0.0
    vertex 60.1 1.9107695154586744 0.0
  endloop
endfacet
facet normal 0.3826834323650959 0.9238795325112843 -0.0
  outer loop
    vertex 60.38941714587697 1.790889008453119 0.0
    vertex 60.1 1.9107695154586744 1.0000000000000002
    vertex 60.38941714587697 1.790889008453119 1.0000000000000002
  endloop
endfacet
facet normal 0.6087614290087259 0.7933533402912314 -0.0
  outer loop
    vertex 59.85147186257615 2.1014718625761435 1.0000000000000002
    vertex 60.1 1.9107695154586744 0.0
    vertex 59.85147186257615 2.1014718625761435 0.0
  endloop
endfacet
facet normal 0.6087614290087259 0.7933533402912314 -0.0
  outer loop
    vertex 60.1 1.9107695154586744 0.0
    vertex 59.85147186257615 2.1014718625761435 1.0000000000000002
    vertex 60.1 1.9107695154586744 1.0000000000000002
  endloop
endfacet
facet normal 0.7933533402912307 0.6087614290087263 -0.0
  outer loop
    vertex 59.660769515458675 2.350000000000001 0.0
    vertex 59.85147186257615 2.1014718625761435 1.0000000000000002
    vertex 59.85147186257615 2.1014718625761435 0.0
  endloop
endfacet
facet normal 0.7933533402912307 0.6087614290087263 -0.0
  outer loop
    vertex 59.85147186257615 2.1014718625761435 1.0000000000000002
    vertex 59.660769515458675 2.350000000000001 0.0
    vertex 59.660769515458675 2.350000000000001 1.0000000000000002
  endloop
endfacet
facet normal 0.9238795325112849 0.3826834323650944 -0.0
  outer loop
    vertex 59.54088900845312 2.6394171458769757 0.0
    vertex 59.660769515458675 2.350000000000001 1.0000000000000002
    vertex 59.660769515458675 2.350000000000001 0.0
  endloop
endfacet
facet normal 0.9238795325112849 0.3826834323650944 -0.0
  outer loop
    vertex 59.660769515458675 2.350000000000001 1.0000000000000002
    vertex 59.54088900845312 2.6394171458769757 0.0
    vertex 59.54088900845312 2.6394171458769757 1.0000000000000002
  endloop
endfacet
facet normal 0.9914448613738114 0.1305261922200448 -0.0
  outer loop
    vertex 59.50000000000001 2.9500000000000006 0.0
    vertex 59.54088900845312 2.6394171458769757 1.0000000000000002
    vertex 59.54088900845312 2.6394171458769757 0.0
  endloop
endfacet
facet normal 0.9914448613738114 0.1305261922200448 -0.0
  outer loop
    vertex 59.54088900845312 2.6394171458769757 1.0000000000000002
    vertex 59.50000000000001 2.9500000000000006 0.0
    vertex 59.50000000000001 2.9500000000000006 1.0000000000000002
  endloop
endfacet
facet normal 0.9914448613738114 -0.13052619222004466 -0.0
  outer loop
    vertex 59.54088900845312 3.2605828541230255 0.0
    vertex 59.50000000000001 2.9500000000000006 1.0000000000000002
    vertex 59.50000000000001 2.9500000000000006 0.0
  endloop
endfacet
facet normal 0.9914448613738114 -0.13052619222004466 -0.0
  outer loop
    vertex 59.50000000000001 2.9500000000000006 1.0000000000000002
    vertex 59.54088900845312 3.2605828541230255 0.0
    vertex 59.54088900845312 3.2605828541230255 1.0000000000000002
  endloop
endfacet
facet normal 0.9238795325112849 -0.3826834323650944 -0.0
  outer loop
    vertex 59.660769515458675 3.5500000000000007 0.0
    vertex 59.54088900845312 3.2605828541230255 1.0000000000000002
    vertex 59.54088900845312 3.2605828541230255 0.0
  endloop
endfacet
facet normal 0.9238795325112849 -0.3826834323650944 -0.0
  outer loop
    vertex 59.54088900845312 3.2605828541230255 1.0000000000000002
    vertex 59.660769515458675 3.5500000000000007 0.0
    vertex 59.660769515458675 3.5500000000000007 1.0000000000000002
  endloop
endfacet
facet normal 0.7933533402912314 -0.6087614290087258 -0.0
  outer loop
    vertex 59.85147186257615 3.798528137423858 0.0
    vertex 59.660769515458675 3.5500000000000007 1.0000000000000002
    vertex 59.660769515458675 3.5500000000000007 0.0
  endloop
endfacet
facet normal 0.7933533402912314 -0.6087614290087258 -0.0
  outer loop
    vertex 59.660769515458675 3.5500000000000007 1.0000000000000002
    vertex 59.85147186257615 3.798528137423858 0.0
    vertex 59.85147186257615 3.798528137423858 1.0000000000000002
  endloop
endfacet
facet normal 0.6087614290087265 -0.7933533402912306 0.0
  outer loop
    vertex 60.1 3.989230484541328 1.0000000000000002
    vertex 59.85147186257615 3.798528137423858 0.0
    vertex 60.1 3.989230484541328 0.0
  endloop
endfacet
facet normal 0.6087614290087265 -0.7933533402912306 0.0
  outer loop
    vertex 59.85147186257615 3.798528137423858 0.0
    vertex 60.1 3.989230484541328 1.0000000000000002
    vertex 59.85147186257615 3.798528137423858 1.0000000000000002
  endloop
endfacet
facet normal 0.38268343236509694 -0.9238795325112839 0.0
  outer loop
    vertex 60.38941714587697 4.109110991546884 1.0000000000000002
    vertex 60.1 3.989230484541328 0.0
    vertex 60.38941714587697 4.109110991546884 0.0
  endloop
endfacet
facet normal 0.38268343236509694 -0.9238795325112839 0.0
  outer loop
    vertex 60.1 3.989230484541328 0.0
    vertex 60.38941714587697 4.109110991546884 1.0000000000000002
    vertex 60.1 3.989230484541328 1.0000000000000002
  endloop
endfacet
facet normal 0.1305261922200472 -0.9914448613738112 0.0
  outer loop
    vertex 60.7 4.150000000000001 1.0000000000000002
    vertex 60.38941714587697 4.109110991546884 0.0
    vertex 60.7 4.150000000000001 0.0
  endloop
endfacet
facet normal 0.1305261922200472 -0.9914448613738112 0.0
  outer loop
    vertex 60.38941714587697 4.109110991546884 0.0
    vertex 60.7 4.150000000000001 1.0000000000000002
    vertex 60.38941714587697 4.109110991546884 1.0000000000000002
  endloop
endfacet
facet normal -0.1305261922200472 -0.9914448613738112 0.0
  outer loop
    vertex 61.01058285412303 4.109110991546884 1.0000000000000002
    vertex 60.7 4.150000000000001 0.0
    vertex 61.01058285412303 4.109110991546884 0.0
  endloop
endfacet
facet normal -0.1305261922200472 -0.9914448613738112 0.0
  outer loop
    vertex 60.7 4.150000000000001 0.0
    vertex 61.01058285412303 4.109110991546884 1.0000000000000002
    vertex 60.7 4.150000000000001 1.0000000000000002
  endloop
endfacet
facet normal -0.38268343236509694 -0.9238795325112839 0.0
  outer loop
    vertex 61.3 3.989230484541328 1.0000000000000002
    vertex 61.01058285412303 4.109110991546884 0.0
    vertex 61.3 3.989230484541328 0.0
  endloop
endfacet
facet normal -0.38268343236509694 -0.9238795325112839 0.0
  outer loop
    vertex 61.01058285412303 4.109110991546884 0.0
    vertex 61.3 3.989230484541328 1.0000000000000002
    vertex 61.01058285412303 4.109110991546884 1.0000000000000002
  endloop
endfacet
facet normal -0.6087614290087294 -0.7933533402912286 0.0
  outer loop
    vertex 61.54852813742385 3.798528137423857 1.0000000000000002
    vertex 61.3 3.989230484541328 0.0
    vertex 61.54852813742385 3.798528137423857 0.0
  endloop
endfacet
facet normal -0.6087614290087294 -0.7933533402912286 0.0
  outer loop
    vertex 61.3 3.989230484541328 0.0
    vertex 61.54852813742385 3.798528137423857 1.0000000000000002
    vertex 61.3 3.989230484541328 1.0000000000000002
  endloop
endfacet
facet normal -0.7933533402912314 -0.6087614290087258 0.0
  outer loop
    vertex 61.54852813742385 3.798528137423857 1.0000000000000002
    vertex 61.739230484541324 3.549999999999999 0.0
    vertex 61.739230484541324 3.549999999999999 1.0000000000000002
  endloop
endfacet
facet normal -0.7933533402912314 -0.6087614290087258 0.0
  outer loop
    vertex 61.739230484541324 3.549999999999999 0.0
    vertex 61.54852813742385 3.798528137423857 1.0000000000000002
    vertex 61.54852813742385 3.798528137423857 0.0
  endloop
endfacet
facet normal -0.9238795325112846 -0.3826834323650952 0.0
  outer loop
    vertex 61.739230484541324 3.549999999999999 1.0000000000000002
    vertex 61.859110991546885 3.260582854123025 0.0
    vertex 61.859110991546885 3.260582854123025 1.0000000000000002
  endloop
endfacet
facet normal -0.9238795325112846 -0.3826834323650952 0.0
  outer loop
    vertex 61.859110991546885 3.260582854123025 0.0
    vertex 61.739230484541324 3.549999999999999 1.0000000000000002
    vertex 61.739230484541324 3.549999999999999 0.0
  endloop
endfacet
facet normal -0.9914448613738114 -0.1305261922200448 0.0
  outer loop
    vertex 61.859110991546885 3.260582854123025 1.0000000000000002
    vertex 61.9 2.95 0.0
    vertex 61.9 2.95 1.0000000000000002
  endloop
endfacet
facet normal -0.9914448613738114 -0.1305261922200448 0.0
  outer loop
    vertex 61.9 2.95 0.0
    vertex 61.859110991546885 3.260582854123025 1.0000000000000002
    vertex 61.859110991546885 3.260582854123025 0.0
  endloop
endfacet
facet normal -0.9914448613738114 0.13052619222004466 0.0
  outer loop
    vertex 61.9 2.95 1.0000000000000002
    vertex 61.859110991546885 2.6394171458769753 0.0
    vertex 61.859110991546885 2.6394171458769753 1.0000000000000002
  endloop
endfacet
facet normal -0.9914448613738114 0.13052619222004466 0.0
  outer loop
    vertex 61.859110991546885 2.6394171458769753 0.0
    vertex 61.9 2.95 1.0000000000000002
    vertex 61.9 2.95 0.0
  endloop
endfacet
facet normal 0.0 0.0 -1.0
  outer loop
    vertex 62.4 19.999999999999996 0.0
    vertex 2.6679499999999963 0.0 0.0
    vertex 2.6679499999999963 19.999999999999996 0.0
  endloop
endfacet
facet normal 0.0 0.0 -1.0
  outer loop
    vertex 2.6679499999999963 0.0 0.0
    vertex 62.4 19.999999999999996 0.0
    vertex 59.550000000000004 18.4 2.114974861910923e-15
  endloop
endfacet
facet normal 0.0 0.0 -1.0
  outer loop
    vertex 2.6679499999999963 0.0 0.0
    vertex 59.550000000000004 18.4 2.114974861910923e-15
    vertex 59.50000000000001 2.9500000000000006 0.0
  endloop
endfacet
facet normal 0.0 0.0 -1.0
  outer loop
    vertex 59.50000000000001 2.9500000000000006 0.0
    vertex 59.550000000000004 18.4 2.114974861910923e-15
    vertex 59.54088900845312 3.2605828541230255 0.0
  endloop
endfacet
facet normal 0.0 0.0 -1.0
  outer loop
    vertex 59.550000000000004 18.4 2.114974861910923e-15
    vertex 62.4 19.999999999999996 0.0
    vertex 61.85 18.4 2.114974861910923e-15
  endloop
endfacet
facet normal 0.0 0.0 -1.0
  outer loop
    vertex 61.85 18.4 2.114974861910923e-15
    vertex 62.4 19.999999999999996 0.0
    vertex 61.85 6.499999999999999 2.114974861910923e-15
  endloop
endfacet
facet normal 0.0 0.0 -1.0
  outer loop
    vertex 61.85 6.499999999999999 2.114974861910923e-15
    vertex 62.4 19.999999999999996 0.0
    vertex 61.859110991546885 3.260582854123025 0.0
  endloop
endfacet
facet normal 0.0 0.0 -1.0
  outer loop
    vertex 61.859110991546885 3.260582854123025 0.0
    vertex 62.4 19.999999999999996 0.0
    vertex 61.9 2.95 0.0
  endloop
endfacet
facet normal 0.0 0.0 -1.0
  outer loop
    vertex 2.6679499999999963 0.0 0.0
    vertex 59.85147186257615 2.1014718625761435 0.0
    vertex 62.4 0.0 0.0
  endloop
endfacet
facet normal 0.0 0.0 -1.0
  outer loop
    vertex 59.85147186257615 2.1014718625761435 0.0
    vertex 2.6679499999999963 0.0 0.0
    vertex 59.660769515458675 2.350000000000001 0.0
  endloop
endfacet
facet normal 0.0 0.0 -1.0
  outer loop
    vertex 59.660769515458675 2.350000000000001 0.0
    vertex 2.6679499999999963 0.0 0.0
    vertex 59.54088900845312 2.6394171458769757 0.0
  endloop
endfacet
facet normal 0.0 0.0 -1.0
  outer loop
    vertex 59.54088900845312 2.6394171458769757 0.0
    vertex 2.6679499999999963 0.0 0.0
    vertex 59.50000000000001 2.9500000000000006 0.0
  endloop
endfacet
facet normal 0.0 0.0 -1.0
  outer loop
    vertex 62.4 0.0 0.0
    vertex 59.85147186257615 2.1014718625761435 0.0
    vertex 60.1 1.9107695154586744 0.0
  endloop
endfacet
facet normal 0.0 0.0 -1.0
  outer loop
    vertex 62.4 0.0 0.0
    vertex 60.1 1.9107695154586744 0.0
    vertex 60.38941714587697 1.790889008453119 0.0
  endloop
endfacet
facet normal 0.0 0.0 -1.0
  outer loop
    vertex 62.4 0.0 0.0
    vertex 60.38941714587697 1.790889008453119 0.0
    vertex 60.7 1.7500000000000002 0.0
  endloop
endfacet
facet normal 0.0 0.0 -1.0
  outer loop
    vertex 62.4 0.0 0.0
    vertex 60.7 1.7500000000000002 0.0
    vertex 61.01058285412303 1.7908890084531184 0.0
  endloop
endfacet
facet normal 0.0 0.0 -1.0
  outer loop
    vertex 62.4 0.0 0.0
    vertex 61.01058285412303 1.7908890084531184 0.0
    vertex 61.3 1.9107695154586741 0.0
  endloop
endfacet
facet normal 0.0 0.0 -1.0
  outer loop
    vertex 62.4 0.0 0.0
    vertex 61.3 1.9107695154586741 0.0
    vertex 61.54852813742385 2.1014718625761435 0.0
  endloop
endfacet
facet normal 0.0 0.0 -1.0
  outer loop
    vertex 62.4 0.0 0.0
    vertex 61.54852813742385 2.1014718625761435 0.0
    vertex 61.739230484541324 2.35 0.0
  endloop
endfacet
facet normal 0.0 0.0 -1.0
  outer loop
    vertex 62.4 0.0 0.0
    vertex 61.739230484541324 2.35 0.0
    vertex 61.859110991546885 2.6394171458769753 0.0
  endloop
endfacet
facet normal 0.0 0.0 -1.0
  outer loop
    vertex 62.4 0.0 0.0
    vertex 61.859110991546885 2.6394171458769753 0.0
    vertex 61.9 2.95 0.0
  endloop
endfacet
facet normal 0.0 0.0 -1.0
  outer loop
    vertex 62.4 0.0 0.0
    vertex 61.9 2.95 0.0
    vertex 62.4 19.999999999999996 0.0
  endloop
endfacet
facet normal 0.0 0.0 -1.0
  outer loop
    vertex 59.54088900845312 3.2605828541230255 0.0
    vertex 59.550000000000004 6.499999999999999 2.114974861910923e-15
    vertex 59.660769515458675 3.5500000000000007 0.0
  endloop
endfacet
facet normal 0.0 0.0 -1.0
  outer loop
    vertex 59.550000000000004 6.499999999999999 2.114974861910923e-15
    vertex 59.54088900845312 3.2605828541230255 0.0
    vertex 59.550000000000004 18.4 2.114974861910923e-15
  endloop
endfacet
facet normal 0.0 0.0 -1.0
  outer loop
    vertex 59.660769515458675 3.5500000000000007 0.0
    vertex 59.550000000000004 6.499999999999999 2.114974861910923e-15
    vertex 61.85 6.499999999999999 2.114974861910923e-15
  endloop
endfacet
facet normal 0.0 0.0 -1.0
  outer loop
    vertex 59.660769515458675 3.5500000000000007 0.0
    vertex 61.85 6.499999999999999 2.114974861910923e-15
    vertex 59.85147186257615 3.798528137423858 0.0
  endloop
endfacet
facet normal 0.0 0.0 -1.0
  outer loop
    vertex 59.85147186257615 3.798528137423858 0.0
    vertex 61.85 6.499999999999999 2.114974861910923e-15
    vertex 60.1 3.989230484541328 0.0
  endloop
endfacet
facet normal 0.0 0.0 -1.0
  outer loop
    vertex 60.1 3.989230484541328 0.0
    vertex 61.85 6.499999999999999 2.114974861910923e-15
    vertex 60.38941714587697 4.109110991546884 0.0
  endloop
endfacet
facet normal 0.0 0.0 -1.0
  outer loop
    vertex 60.38941714587697 4.109110991546884 0.0
    vertex 61.85 6.499999999999999 2.114974861910923e-15
    vertex 60.7 4.150000000000001 0.0
  endloop
endfacet
facet normal 0.0 0.0 -1.0
  outer loop
    vertex 60.7 4.150000000000001 0.0
    vertex 61.85 6.499999999999999 2.114974861910923e-15
    vertex 61.01058285412303 4.109110991546884 0.0
  endloop
endfacet
facet normal 0.0 0.0 -1.0
  outer loop
    vertex 61.01058285412303 4.109110991546884 0.0
    vertex 61.85 6.499999999999999 2.114974861910923e-15
    vertex 61.3 3.989230484541328 0.0
  endloop
endfacet
facet normal 0.0 0.0 -1.0
  outer loop
    vertex 61.3 3.989230484541328 0.0
    vertex 61.85 6.499999999999999 2.114974861910923e-15
    vertex 61.54852813742385 3.798528137423857 0.0
  endloop
endfacet
facet normal 0.0 0.0 -1.0
  outer loop
    vertex 61.54852813742385 3.798528137423857 0.0
    vertex 61.85 6.499999999999999 2.114974861910923e-15
    vertex 61.739230484541324 3.549999999999999 0.0
  endloop
endfacet
facet normal 0.0 0.0 -1.0
  outer loop
    vertex 61.739230484541324 3.549999999999999 0.0
    vertex 61.85 6.499999999999999 2.114974861910923e-15
    vertex 61.859110991546885 3.260582854123025 0.0
  endloop
endfacet
facet normal -5.220651571968361e-18 1.0365575850517692e-17 1.0
  outer loop
    vertex 59.660769515458675 3.5500000000000007 1.0000000000000002
    vertex 59.550000000000004 6.499999999999999 1.0000000000000002
    vertex 59.54088900845312 3.2605828541230255 1.0000000000000002
  endloop
endfacet
facet normal -5.220651571968361e-18 1.0365575850517692e-17 1.0
  outer loop
    vertex 59.550000000000004 6.499999999999999 1.0000000000000002
    vertex 59.660769515458675 3.5500000000000007 1.0000000000000002
    vertex 61.85 6.499999999999999 1.0000000000000002
  endloop
endfacet
facet normal -5.220651571968361e-18 1.0365575850517692e-17 1.0
  outer loop
    vertex 61.85 6.499999999999999 1.0000000000000002
    vertex 59.660769515458675 3.5500000000000007 1.0000000000000002
    vertex 59.85147186257615 3.798528137423858 1.0000000000000002
  endloop
endfacet
facet normal -5.220651571968361e-18 1.0365575850517692e-17 1.0
  outer loop
    vertex 61.85 6.499999999999999 1.0000000000000002
    vertex 59.85147186257615 3.798528137423858 1.0000000000000002
    vertex 60.1 3.989230484541328 1.0000000000000002
  endloop
endfacet
facet normal -5.220651571968361e-18 1.0365575850517692e-17 1.0
  outer loop
    vertex 61.85 6.499999999999999 1.0000000000000002
    vertex 60.1 3.989230484541328 1.0000000000000002
    vertex 60.38941714587697 4.109110991546884 1.0000000000000002
  endloop
endfacet
facet normal -5.220651571968361e-18 1.0365575850517692e-17 1.0
  outer loop
    vertex 61.85 6.499999999999999 1.0000000000000002
    vertex 60.38941714587697 4.109110991546884 1.0000000000000002
    vertex 60.7 4.150000000000001 1.0000000000000002
  endloop
endfacet
facet normal -5.220651571968361e-18 1.0365575850517692e-17 1.0
  outer loop
    vertex 61.85 6.499999999999999 1.0000000000000002
    vertex 60.7 4.150000000000001 1.0000000000000002
    vertex 61.01058285412303 4.109110991546884 1.0000000000000002
  endloop
endfacet
facet normal -5.220651571968361e-18 1.0365575850517692e-17 1.0
  outer loop
    vertex 61.85 6.499999999999999 1.0000000000000002
    vertex 61.01058285412303 4.109110991546884 1.0000000000000002
    vertex 61.3 3.989230484541328 1.0000000000000002
  endloop
endfacet
facet normal -5.220651571968361e-18 1.0365575850517692e-17 1.0
  outer loop
    vertex 61.85 6.499999999999999 1.0000000000000002
    vertex 61.3 3.989230484541328 1.0000000000000002
    vertex 61.54852813742385 3.798528137423857 1.0000000000000002
  endloop
endfacet
facet normal -5.220651571968361e-18 1.0365575850517692e-17 1.0
  outer loop
    vertex 61.85 6.499999999999999 1.0000000000000002
    vertex 61.54852813742385 3.798528137423857 1.0000000000000002
    vertex 61.739230484541324 3.549999999999999 1.0000000000000002
  endloop
endfacet
facet normal -5.220651571968361e-18 1.0365575850517692e-17 1.0
  outer loop
    vertex 61.85 6.499999999999999 1.0000000000000002
    vertex 61.739230484541324 3.549999999999999 1.0000000000000002
    vertex 61.859110991546885 3.260582854123025 1.0000000000000002
  endloop
endfacet
facet normal -5.220651571968361e-18 1.0365575850517692e-17 1.0
  outer loop
    vertex 61.85 6.499999999999999 1.0000000000000002
    vertex 61.859110991546885 3.260582854123025 1.0000000000000002
    vertex 61.85 18.4 1.0000000000000002
  endloop
endfacet
facet normal -5.220651571968361e-18 1.0365575850517692e-17 1.0
  outer loop
    vertex 2.667949999999997 0.0 0.9999999999999999
    vertex 59.54088900845312 2.6394171458769757 1.0000000000000002
    vertex 59.50000000000001 2.9500000000000006 1.0000000000000002
  endloop
endfacet
facet normal -5.220651571968361e-18 1.0365575850517692e-17 1.0
  outer loop
    vertex 59.54088900845312 2.6394171458769757 1.0000000000000002
    vertex 2.667949999999997 0.0 0.9999999999999999
    vertex 59.660769515458675 2.350000000000001 1.0000000000000002
  endloop
endfacet
facet normal -5.220651571968361e-18 1.0365575850517692e-17 1.0
  outer loop
    vertex 59.660769515458675 2.350000000000001 1.0000000000000002
    vertex 2.667949999999997 0.0 0.9999999999999999
    vertex 59.85147186257615 2.1014718625761435 1.0000000000000002
  endloop
endfacet
facet normal -5.220651571968361e-18 1.0365575850517692e-17 1.0
  outer loop
    vertex 59.85147186257615 2.1014718625761435 1.0000000000000002
    vertex 2.667949999999997 0.0 0.9999999999999999
    vertex 62.4 0.0 1.0000000000000002
  endloop
endfacet
facet normal -5.220651571968361e-18 1.0365575850517692e-17 1.0
  outer loop
    vertex 59.85147186257615 2.1014718625761435 1.0000000000000002
    vertex 62.4 0.0 1.0000000000000002
    vertex 60.1 1.9107695154586744 1.0000000000000002
  endloop
endfacet
facet normal -5.220651571968361e-18 1.0365575850517692e-17 1.0
  outer loop
    vertex 60.1 1.9107695154586744 1.0000000000000002
    vertex 62.4 0.0 1.0000000000000002
    vertex 60.38941714587697 1.790889008453119 1.0000000000000002
  endloop
endfacet
facet normal -5.220651571968361e-18 1.0365575850517692e-17 1.0
  outer loop
    vertex 60.38941714587697 1.790889008453119 1.0000000000000002
    vertex 62.4 0.0 1.0000000000000002
    vertex 60.7 1.7500000000000002 1.0000000000000002
  endloop
endfacet
facet normal -5.220651571968361e-18 1.0365575850517692e-17 1.0
  outer loop
    vertex 60.7 1.7500000000000002 1.0000000000000002
    vertex 62.4 0.0 1.0000000000000002
    vertex 61.01058285412303 1.7908890084531184 1.0000000000000002
  endloop
endfacet
facet normal -5.220651571968361e-18 1.0365575850517692e-17 1.0
  outer loop
    vertex 61.01058285412303 1.7908890084531184 1.0000000000000002
    vertex 62.4 0.0 1.0000000000000002
    vertex 61.3 1.9107695154586741 1.0000000000000002
  endloop
endfacet
facet normal -5.220651571968361e-18 1.0365575850517692e-17 1.0
  outer loop
    vertex 61.3 1.9107695154586741 1.0000000000000002
    vertex 62.4 0.0 1.0000000000000002
    vertex 61.54852813742385 2.1014718625761435 1.0000000000000002
  endloop
endfacet
facet normal -5.220651571968361e-18 1.0365575850517692e-17 1.0
  outer loop
    vertex 61.54852813742385 2.1014718625761435 1.0000000000000002
    vertex 62.4 0.0 1.0000000000000002
    vertex 61.739230484541324 2.35 1.0000000000000002
  endloop
endfacet
facet normal -5.220651571968361e-18 1.0365575850517692e-17 1.0
  outer loop
    vertex 61.739230484541324 2.35 1.0000000000000002
    vertex 62.4 0.0 1.0000000000000002
    vertex 61.859110991546885 2.6394171458769753 1.0000000000000002
  endloop
endfacet
facet normal -5.220651571968361e-18 1.0365575850517692e-17 1.0
  outer loop
    vertex 61.859110991546885 2.6394171458769753 1.0000000000000002
    vertex 62.4 0.0 1.0000000000000002
    vertex 61.9 2.95 1.0000000000000002
  endloop
endfacet
facet normal -5.220651571968361e-18 1.0365575850517692e-17 1.0
  outer loop
    vertex 2.667949999999997 0.0 0.9999999999999999
    vertex 62.4 19.999999999999996 0.9999999999999999
    vertex 2.6679499999999963 19.999999999999996 0.9999999999999999
  endloop
endfacet
facet normal -5.220651571968361e-18 1.0365575850517692e-17 1.0
  outer loop
    vertex 62.4 19.999999999999996 0.9999999999999999
    vertex 2.667949999999997 0.0 0.9999999999999999
    vertex 59.550000000000004 18.4 1.0000000000000002
  endloop
endfacet
facet normal -5.220651571968361e-18 1.0365575850517692e-17 1.0
  outer loop
    vertex 59.550000000000004 18.4 1.0000000000000002
    vertex 2.667949999999997 0.0 0.9999999999999999
    vertex 59.50000000000001 2.9500000000000006 1.0000000000000002
  endloop
endfacet
facet normal -5.220651571968361e-18 1.0365575850517692e-17 1.0
  outer loop
    vertex 59.550000000000004 18.4 1.0000000000000002
    vertex 59.50000000000001 2.9500000000000006 1.0000000000000002
    vertex 59.54088900845312 3.2605828541230255 1.0000000000000002
  endloop
endfacet
facet normal -5.220651571968361e-18 1.0365575850517692e-17 1.0
  outer loop
    vertex 59.550000000000004 18.4 1.0000000000000002
    vertex 59.54088900845312 3.2605828541230255 1.0000000000000002
    vertex 59.550000000000004 6.499999999999999 1.0000000000000002
  endloop
endfacet
facet normal -5.220651571968361e-18 1.0365575850517692e-17 1.0
  outer loop
    vertex 62.4 19.999999999999996 0.9999999999999999
    vertex 59.550000000000004 18.4 1.0000000000000002
    vertex 61.85 18.4 1.0000000000000002
  endloop
endfacet
facet normal -5.220651571968361e-18 1.0365575850517692e-17 1.0
  outer loop
    vertex 62.4 19.999999999999996 0.9999999999999999
    vertex 61.85 18.4 1.0000000000000002
    vertex 61.859110991546885 3.260582854123025 1.0000000000000002
  endloop
endfacet
facet normal -5.220651571968361e-18 1.0365575850517692e-17 1.0
  outer loop
    vertex 62.4 19.999999999999996 0.9999999999999999
    vertex 61.859110991546885 3.260582854123025 1.0000000000000002
    vertex 61.9 2.95 1.0000000000000002
  endloop
endfacet
facet normal -5.220651571968361e-18 1.0365575850517692e-17 1.0
  outer loop
    vertex 62.4 19.999999999999996 0.9999999999999999
    vertex 61.9 2.95 1.0000000000000002
    vertex 62.4 0.0 1.0000000000000002
  endloop
endfacet
facet normal 1.0 0.0 0.0
  outer loop
    vertex 59.550000000000004 18.4 2.114974861910923e-15
    vertex 59.550000000000004 6.499999999999999 1.0000000000000002
    vertex 59.550000000000004 6.499999999999999 2.114974861910923e-15
  endloop
endfacet
facet normal 1.0 0.0 0.0
  outer loop
    vertex 59.550000000000004 6.499999999999999 1.0000000000000002
    vertex 59.550000000000004 18.4 2.114974861910923e-15
    vertex 59.550000000000004 18.4 1.0000000000000002
  endloop
endfacet
facet normal -0.0 1.0 -0.0
  outer loop
    vertex 59.550000000000004 6.499999999999999 1.0000000000000002
    vertex 61.85 6.499999999999999 2.114974861910923e-15
    vertex 59.550000000000004 6.499999999999999 2.114974861910923e-15
  endloop
endfacet
facet normal -0.0 1.0 -0.0
  outer loop
    vertex 61.85 6.499999999999999 2.114974861910923e-15
    vertex 59.550000000000004 6.499999999999999 1.0000000000000002
    vertex 61.85 6.499999999999999 1.0000000000000002
  endloop
endfacet
facet normal -1.0 0.0 -0.0
  outer loop
    vertex 61.85 18.4 1.0000000000000002
    vertex 61.85 6.499999999999999 2.114974861910923e-15
    vertex 61.85 6.499999999999999 1.0000000000000002
  endloop
endfacet
facet normal -1.0 0.0 -0.0
  outer loop
    vertex 61.85 6.499999999999999 2.114974861910923e-15
    vertex 61.85 18.4 1.0000000000000002
    vertex 61.85 18.4 2.114974861910923e-15
  endloop
endfacet
facet normal -0.0 -1.0 -0.0
  outer loop
    vertex 61.85 18.4 1.0000000000000002
    vertex 59.550000000000004 18.4 2.114974861910923e-15
    vertex 61.85 18.4 2.114974861910923e-15
  endloop
endfacet
facet normal -0.0 -1.0 -0.0
  outer loop
    vertex 59.550000000000004 18.4 2.114974861910923e-15
    vertex 61.85 18.4 1.0000000000000002
    vertex 59.550000000000004 18.4 1.0000000000000002
  endloop
endfacet
endsolid SIOST-Standoff-Label
