solid SIOST-KBHood
facet normal -0.9914448613738114 -0.13052619222004477 -2.636577536672665e-15
  outer loop
    vertex 7.519333243660149 2.5829371405922537 6.00000000000002
    vertex 7.5499999999999865 2.350000000000086 1.5509815654013436e-14
    vertex 7.5499999999999865 2.34999999999999 6.000000000000017
  endloop
endfacet
facet normal -0.9914448613738114 -0.13052619222004477 -2.636577536672665e-15
  outer loop
    vertex 7.5499999999999865 2.350000000000086 1.5509815654013436e-14
    vertex 7.519333243660149 2.5829371405922537 6.00000000000002
    vertex 7.519333243660149 2.5829371405923554 1.973976537783528e-14
  endloop
endfacet
facet normal -0.9238795325112846 0.3826834323650949 5.895002520009564e-15
  outer loop
    vertex 7.519333243660149 2.1170628594077208 6.000000000000013
    vertex 7.429422863405981 1.9000000000000867 8.459899447643692e-15
    vertex 7.429422863405981 1.8999999999999853 6.000000000000009
  endloop
endfacet
facet normal -0.9238795325112846 0.3826834323650949 5.895002520009564e-15
  outer loop
    vertex 7.429422863405981 1.9000000000000867 8.459899447643692e-15
    vertex 7.519333243660149 2.1170628594077208 6.000000000000013
    vertex 7.519333243660149 2.1170628594078167 1.2689849171465539e-14
  endloop
endfacet
facet normal -0.38268343236509267 -0.9238795325112855 -1.548359894874852e-14
  outer loop
    vertex 6.882937140592257 3.2193332436602473 3.101963130802687e-14
    vertex 7.099999999999987 3.1294228634059835 6.000000000000029
    vertex 6.882937140592257 3.2193332436601514 6.00000000000003
  endloop
endfacet
facet normal -0.38268343236509267 -0.9238795325112855 -1.548359894874852e-14
  outer loop
    vertex 7.099999999999987 3.1294228634059835 6.000000000000029
    vertex 6.882937140592257 3.2193332436602473 3.101963130802687e-14
    vertex 7.099999999999987 3.1294228634060794 2.8199664825478976e-14
  endloop
endfacet
facet normal 0.6087614290087198 0.7933533402912358 1.3430269185392683e-14
  outer loop
    vertex 6.199999999999989 1.570577136593991 6.000000000000003
    vertex 6.0136038969320955 1.7136038969321938 4.229949723821846e-15
    vertex 6.0136038969320955 1.7136038969320924 6.000000000000005
  endloop
endfacet
facet normal 0.6087614290087198 0.7933533402912358 1.3430269185392683e-14
  outer loop
    vertex 6.0136038969320955 1.7136038969321938 4.229949723821846e-15
    vertex 6.199999999999989 1.570577136593991 6.000000000000003
    vertex 6.199999999999989 1.5705771365940924 2.8199664825478975e-15
  endloop
endfacet
facet normal 0.6087614290087203 -0.7933533402912356 -1.2847021412075766e-14
  outer loop
    vertex 39.01360389693229 2.9863961030678823 6.000000000000089
    vertex 39.20000000000019 3.1294228634060794 9.023892744153272e-14
    vertex 39.20000000000018 3.1294228634059835 6.000000000000091
  endloop
endfacet
facet normal 0.6087614290087203 -0.7933533402912356 -1.2847021412075766e-14
  outer loop
    vertex 39.20000000000019 3.1294228634060794 9.023892744153272e-14
    vertex 39.01360389693229 2.9863961030678823 6.000000000000089
    vertex 39.013603896932295 2.986396103067978 8.882894420025876e-14
  endloop
endfacet
facet normal 0.7933533402912363 -0.6087614290087192 -9.701585474781763e-15
  outer loop
    vertex 38.870577136594186 2.800000000000085 8.459899447643693e-14
    vertex 39.01360389693229 2.9863961030678823 6.000000000000089
    vertex 38.870577136594186 2.799999999999989 6.000000000000088
  endloop
endfacet
facet normal 0.7933533402912363 -0.6087614290087192 -9.701585474781763e-15
  outer loop
    vertex 39.01360389693229 2.9863961030678823 6.000000000000089
    vertex 38.870577136594186 2.800000000000085 8.459899447643693e-14
    vertex 39.013603896932295 2.986396103067978 8.882894420025876e-14
  endloop
endfacet
facet normal 0.7933533402912363 -0.6087614290087192 -9.701585474781763e-15
  outer loop
    vertex 5.870577136593994 2.800000000000085 2.255973186038318e-14
    vertex 6.0136038969320955 2.9863961030678823 6.000000000000027
    vertex 5.870577136593994 2.799999999999989 6.000000000000023
  endloop
endfacet
facet normal 0.7933533402912363 -0.6087614290087192 -9.701585474781763e-15
  outer loop
    vertex 6.0136038969320955 2.9863961030678823 6.000000000000027
    vertex 5.870577136593994 2.800000000000085 2.255973186038318e-14
    vertex 6.0136038969320955 2.986396103067978 2.5379698342931078e-14
  endloop
endfacet
facet normal 0.9238795325112849 0.3826834323650944 6.780161556822577e-15
  outer loop
    vertex 5.870577136593994 1.9000000000000867 7.049916206369744e-15
    vertex 5.780666756339826 2.1170628594077208 6.000000000000014
    vertex 5.870577136593994 1.8999999999999853 6.000000000000009
  endloop
endfacet
facet normal 0.9238795325112849 0.3826834323650944 6.780161556822577e-15
  outer loop
    vertex 5.780666756339826 2.1170628594077208 6.000000000000014
    vertex 5.870577136593994 1.9000000000000867 7.049916206369744e-15
    vertex 5.780666756339826 2.1170628594078167 1.127986593019159e-14
  endloop
endfacet
facet normal -0.9238795325112847 -0.3826834323650946 -6.78016155682258e-15
  outer loop
    vertex 7.429422863405981 2.799999999999989 6.000000000000024
    vertex 7.519333243660149 2.5829371405923554 1.973976537783528e-14
    vertex 7.519333243660149 2.5829371405922537 6.00000000000002
  endloop
endfacet
facet normal -0.9238795325112847 -0.3826834323650946 -6.78016155682258e-15
  outer loop
    vertex 7.519333243660149 2.5829371405923554 1.973976537783528e-14
    vertex 7.429422863405981 2.799999999999989 6.000000000000024
    vertex 7.429422863405981 2.800000000000085 2.3969715101657127e-14
  endloop
endfacet
facet normal -0.6087614290087198 -0.7933533402912358 -1.3430269185392683e-14
  outer loop
    vertex 7.099999999999987 3.1294228634060794 2.8199664825478976e-14
    vertex 7.28639610306788 2.9863961030678823 6.000000000000027
    vertex 7.099999999999987 3.1294228634059835 6.000000000000029
  endloop
endfacet
facet normal -0.6087614290087198 -0.7933533402912358 -1.3430269185392683e-14
  outer loop
    vertex 7.28639610306788 2.9863961030678823 6.000000000000027
    vertex 7.099999999999987 3.1294228634060794 2.8199664825478976e-14
    vertex 7.28639610306788 2.986396103067978 2.6789681584205025e-14
  endloop
endfacet
facet normal 0.13052619222005094 -0.9914448613738105 -1.6356691291631008e-14
  outer loop
    vertex 6.417062859407719 3.2193332436601514 6.00000000000003
    vertex 6.649999999999988 3.2500000000000844 3.101963130802687e-14
    vertex 6.649999999999988 3.2499999999999885 6.000000000000031
  endloop
endfacet
facet normal 0.13052619222005094 -0.9914448613738105 -1.6356691291631008e-14
  outer loop
    vertex 6.649999999999988 3.2500000000000844 3.101963130802687e-14
    vertex 6.417062859407719 3.2193332436601514 6.00000000000003
    vertex 6.417062859407719 3.2193332436602473 2.9609648066752924e-14
  endloop
endfacet
facet normal 0.3826834323650921 -0.923879532511286 -1.5116954070843466e-14
  outer loop
    vertex 6.199999999999989 3.1294228634059835 6.000000000000028
    vertex 6.417062859407719 3.2193332436602473 2.9609648066752924e-14
    vertex 6.417062859407719 3.2193332436601514 6.00000000000003
  endloop
endfacet
facet normal 0.3826834323650921 -0.923879532511286 -1.5116954070843466e-14
  outer loop
    vertex 6.417062859407719 3.2193332436602473 2.9609648066752924e-14
    vertex 6.199999999999989 3.1294228634059835 6.000000000000028
    vertex 6.199999999999989 3.1294228634060794 2.8199664825478976e-14
  endloop
endfacet
facet normal 0.9914448613738113 -0.13052619222004458 -1.6866848854506874e-15
  outer loop
    vertex 5.749999999999989 2.350000000000086 1.5509815654013436e-14
    vertex 5.780666756339826 2.5829371405922537 6.000000000000022
    vertex 5.749999999999989 2.34999999999999 6.000000000000016
  endloop
endfacet
facet normal 0.9914448613738113 -0.13052619222004458 -1.6866848854506874e-15
  outer loop
    vertex 5.780666756339826 2.5829371405922537 6.000000000000022
    vertex 5.749999999999989 2.350000000000086 1.5509815654013436e-14
    vertex 5.780666756339826 2.5829371405923554 1.8329782136561334e-14
  endloop
endfacet
facet normal 0.7933533402912365 0.6087614290087189 1.0461688771621495e-14
  outer loop
    vertex 6.0136038969320955 1.7136038969321938 4.229949723821846e-15
    vertex 5.870577136593994 1.8999999999999853 6.000000000000009
    vertex 6.0136038969320955 1.7136038969320924 6.000000000000005
  endloop
endfacet
facet normal 0.7933533402912365 0.6087614290087189 1.0461688771621495e-14
  outer loop
    vertex 5.870577136593994 1.8999999999999853 6.000000000000009
    vertex 6.0136038969320955 1.7136038969321938 4.229949723821846e-15
    vertex 5.870577136593994 1.9000000000000867 7.049916206369744e-15
  endloop
endfacet
facet normal -0.7933533402912359 0.6087614290087195 9.70158547478177e-15
  outer loop
    vertex 7.429422863405981 1.8999999999999853 6.000000000000009
    vertex 7.28639610306788 1.7136038969321938 5.639932965095795e-15
    vertex 7.28639610306788 1.7136038969320924 6.000000000000006
  endloop
endfacet
facet normal -0.7933533402912359 0.6087614290087195 9.70158547478177e-15
  outer loop
    vertex 7.28639610306788 1.7136038969321938 5.639932965095795e-15
    vertex 7.429422863405981 1.8999999999999853 6.000000000000009
    vertex 7.429422863405981 1.9000000000000867 8.459899447643692e-15
  endloop
endfacet
facet normal 0.6087614290087203 -0.7933533402912356 -1.2847021412075766e-14
  outer loop
    vertex 6.0136038969320955 2.9863961030678823 6.000000000000027
    vertex 6.199999999999989 3.1294228634060794 2.8199664825478976e-14
    vertex 6.199999999999989 3.1294228634059835 6.000000000000028
  endloop
endfacet
facet normal 0.6087614290087203 -0.7933533402912356 -1.2847021412075766e-14
  outer loop
    vertex 6.199999999999989 3.1294228634060794 2.8199664825478976e-14
    vertex 6.0136038969320955 2.9863961030678823 6.000000000000027
    vertex 6.0136038969320955 2.986396103067978 2.5379698342931078e-14
  endloop
endfacet
facet normal -0.6087614290087198 0.7933533402912358 1.2847021412075772e-14
  outer loop
    vertex 7.28639610306788 1.7136038969321938 5.639932965095795e-15
    vertex 7.099999999999987 1.570577136593991 6.000000000000003
    vertex 7.28639610306788 1.7136038969320924 6.000000000000006
  endloop
endfacet
facet normal -0.6087614290087198 0.7933533402912358 1.2847021412075772e-14
  outer loop
    vertex 7.099999999999987 1.570577136593991 6.000000000000003
    vertex 7.28639610306788 1.7136038969321938 5.639932965095795e-15
    vertex 7.099999999999987 1.5705771365940924 2.8199664825478975e-15
  endloop
endfacet
facet normal -0.9914448613738114 0.1305261922200443 1.6866848854506829e-15
  outer loop
    vertex 7.5499999999999865 2.34999999999999 6.000000000000017
    vertex 7.519333243660149 2.1170628594078167 1.2689849171465539e-14
    vertex 7.519333243660149 2.1170628594077208 6.000000000000013
  endloop
endfacet
facet normal -0.9914448613738114 0.1305261922200443 1.6866848854506829e-15
  outer loop
    vertex 7.519333243660149 2.1170628594078167 1.2689849171465539e-14
    vertex 7.5499999999999865 2.34999999999999 6.000000000000017
    vertex 7.5499999999999865 2.350000000000086 1.5509815654013436e-14
  endloop
endfacet
facet normal -0.793353340291237 -0.6087614290087181 -1.0461688771621485e-14
  outer loop
    vertex 7.28639610306788 2.9863961030678823 6.000000000000027
    vertex 7.429422863405981 2.800000000000085 2.3969715101657127e-14
    vertex 7.429422863405981 2.799999999999989 6.000000000000024
  endloop
endfacet
facet normal -0.793353340291237 -0.6087614290087181 -1.0461688771621485e-14
  outer loop
    vertex 7.429422863405981 2.800000000000085 2.3969715101657127e-14
    vertex 7.28639610306788 2.9863961030678823 6.000000000000027
    vertex 7.28639610306788 2.986396103067978 2.6789681584205025e-14
  endloop
endfacet
facet normal 0.9914448613738114 0.13052619222004477 2.636577536672665e-15
  outer loop
    vertex 5.780666756339826 2.1170628594078167 1.127986593019159e-14
    vertex 5.749999999999989 2.34999999999999 6.000000000000016
    vertex 5.780666756339826 2.1170628594077208 6.000000000000014
  endloop
endfacet
facet normal 0.9914448613738114 0.13052619222004477 2.636577536672665e-15
  outer loop
    vertex 5.749999999999989 2.34999999999999 6.000000000000016
    vertex 5.780666756339826 2.1170628594078167 1.127986593019159e-14
    vertex 5.749999999999989 2.350000000000086 1.5509815654013436e-14
  endloop
endfacet
facet normal -0.38268343236509267 0.9238795325112855 1.511695407084346e-14
  outer loop
    vertex 7.099999999999987 1.5705771365940924 2.8199664825478975e-15
    vertex 6.882937140592257 1.4806667563398286 6.000000000000002
    vertex 7.099999999999987 1.570577136593991 6.000000000000003
  endloop
endfacet
facet normal -0.38268343236509267 0.9238795325112855 1.511695407084346e-14
  outer loop
    vertex 6.882937140592257 1.4806667563398286 6.000000000000002
    vertex 7.099999999999987 1.5705771365940924 2.8199664825478975e-15
    vertex 6.882937140592257 1.4806667563399245 1.4099832412739487e-15
  endloop
endfacet
facet normal -0.13052619222005166 -0.9914448613738104 -1.648174703160429e-14
  outer loop
    vertex 6.649999999999988 3.2500000000000844 3.101963130802687e-14
    vertex 6.882937140592257 3.2193332436601514 6.00000000000003
    vertex 6.649999999999988 3.2499999999999885 6.000000000000031
  endloop
endfacet
facet normal -0.13052619222005166 -0.9914448613738104 -1.648174703160429e-14
  outer loop
    vertex 6.882937140592257 3.2193332436601514 6.00000000000003
    vertex 6.649999999999988 3.2500000000000844 3.101963130802687e-14
    vertex 6.882937140592257 3.2193332436602473 3.101963130802687e-14
  endloop
endfacet
facet normal 0.9238795325112849 -0.3826834323650944 -5.895002520009556e-15
  outer loop
    vertex 5.780666756339826 2.5829371405923554 1.8329782136561334e-14
    vertex 5.870577136593994 2.799999999999989 6.000000000000023
    vertex 5.780666756339826 2.5829371405922537 6.000000000000022
  endloop
endfacet
facet normal 0.9238795325112849 -0.3826834323650944 -5.895002520009556e-15
  outer loop
    vertex 5.870577136593994 2.799999999999989 6.000000000000023
    vertex 5.780666756339826 2.5829371405923554 1.8329782136561334e-14
    vertex 5.870577136593994 2.800000000000085 2.255973186038318e-14
  endloop
endfacet
facet normal -1.8675274718860168e-15 0.0 1.0
  outer loop
    vertex 0.4999999999999878 5.44999999999999 6.600000000000003
    vertex 45.80000000000018 4.649999999999986 6.600000000000088
    vertex 45.80000000000018 5.44999999999999 6.600000000000088
  endloop
endfacet
facet normal -1.8675274718860168e-15 0.0 1.0
  outer loop
    vertex 45.80000000000018 4.649999999999986 6.600000000000088
    vertex 0.4999999999999878 5.44999999999999 6.600000000000003
    vertex 0.4999999999999878 4.649999999999986 6.600000000000003
  endloop
endfacet
facet normal 0.38268343236509267 0.9238795325112855 1.548359894874852e-14
  outer loop
    vertex 6.417062859407719 1.4806667563398286 6.000000000000002
    vertex 6.199999999999989 1.5705771365940924 2.8199664825478975e-15
    vertex 6.199999999999989 1.570577136593991 6.000000000000003
  endloop
endfacet
facet normal 0.38268343236509267 0.9238795325112855 1.548359894874852e-14
  outer loop
    vertex 6.199999999999989 1.5705771365940924 2.8199664825478975e-15
    vertex 6.417062859407719 1.4806667563398286 6.000000000000002
    vertex 6.417062859407719 1.4806667563399245 1.4099832412739487e-15
  endloop
endfacet
facet normal 0.13052619222005166 0.9914448613738104 1.648174703160429e-14
  outer loop
    vertex 6.649999999999988 1.4500000000000877 1.4099832412739487e-15
    vertex 6.417062859407719 1.4806667563398286 6.000000000000002
    vertex 6.649999999999988 1.449999999999986 6.000000000000002
  endloop
endfacet
facet normal 0.13052619222005166 0.9914448613738104 1.648174703160429e-14
  outer loop
    vertex 6.417062859407719 1.4806667563398286 6.000000000000002
    vertex 6.649999999999988 1.4500000000000877 1.4099832412739487e-15
    vertex 6.417062859407719 1.4806667563399245 1.4099832412739487e-15
  endloop
endfacet
facet normal -0.1305261922200502 0.9914448613738107 1.6356691291631008e-14
  outer loop
    vertex 6.882937140592257 1.4806667563399245 1.4099832412739487e-15
    vertex 6.649999999999988 1.449999999999986 6.000000000000002
    vertex 6.882937140592257 1.4806667563398286 6.000000000000002
  endloop
endfacet
facet normal -0.1305261922200502 0.9914448613738107 1.6356691291631008e-14
  outer loop
    vertex 6.649999999999988 1.449999999999986 6.000000000000002
    vertex 6.882937140592257 1.4806667563399245 1.4099832412739487e-15
    vertex 6.649999999999988 1.4500000000000877 1.4099832412739487e-15
  endloop
endfacet
facet normal -0.7933533402912332 0.6087614290087234 9.701585474781833e-15
  outer loop
    vertex 40.429422863406174 1.8999999999999853 6.000000000000074
    vertex 40.28639610306808 1.7136038969321938 6.767919558114953e-14
    vertex 40.28639610306807 1.7136038969320924 6.000000000000068
  endloop
endfacet
facet normal -0.7933533402912332 0.6087614290087234 9.701585474781833e-15
  outer loop
    vertex 40.28639610306808 1.7136038969321938 6.767919558114953e-14
    vertex 40.429422863406174 1.8999999999999853 6.000000000000074
    vertex 40.42942286340618 1.9000000000000867 7.049916206369744e-14
  endloop
endfacet
facet normal 0.38268343236508773 -0.9238795325112875 -1.5116954070843492e-14
  outer loop
    vertex 39.20000000000018 3.1294228634059835 6.000000000000091
    vertex 39.41706285940792 3.2193332436602473 9.164891068280667e-14
    vertex 39.41706285940792 3.2193332436601514 6.000000000000092
  endloop
endfacet
facet normal 0.38268343236508773 -0.9238795325112875 -1.5116954070843492e-14
  outer loop
    vertex 39.41706285940792 3.2193332436602473 9.164891068280667e-14
    vertex 39.20000000000018 3.1294228634059835 6.000000000000091
    vertex 39.20000000000019 3.1294228634060794 9.023892744153272e-14
  endloop
endfacet
facet normal -0.7933533402912357 -0.6087614290087201 -1.0461688771621515e-14
  outer loop
    vertex 40.28639610306807 2.9863961030678823 6.000000000000089
    vertex 40.42942286340618 2.800000000000085 8.600897771771087e-14
    vertex 40.429422863406174 2.799999999999989 6.000000000000089
  endloop
endfacet
facet normal -0.7933533402912357 -0.6087614290087201 -1.0461688771621515e-14
  outer loop
    vertex 40.42942286340618 2.800000000000085 8.600897771771087e-14
    vertex 40.28639610306807 2.9863961030678823 6.000000000000089
    vertex 40.28639610306808 2.986396103067978 8.882894420025876e-14
  endloop
endfacet
facet normal -0.3826834323650895 0.9238795325112868 1.5116954070843482e-14
  outer loop
    vertex 40.100000000000186 1.5705771365940924 6.485922909860164e-14
    vertex 39.88293714059245 1.4806667563398286 6.000000000000064
    vertex 40.10000000000018 1.570577136593991 6.000000000000065
  endloop
endfacet
facet normal -0.3826834323650895 0.9238795325112868 1.5116954070843482e-14
  outer loop
    vertex 39.88293714059245 1.4806667563398286 6.000000000000064
    vertex 40.100000000000186 1.5705771365940924 6.485922909860164e-14
    vertex 39.88293714059245 1.4806667563399245 6.34492458573277e-14
  endloop
endfacet
facet normal 0.9914448613738106 0.13052619222005069 2.6365775366727626e-15
  outer loop
    vertex 38.780666756340025 2.1170628594078167 7.331912854624534e-14
    vertex 38.750000000000185 2.34999999999999 6.000000000000078
    vertex 38.78066675634002 2.1170628594077208 6.000000000000074
  endloop
endfacet
facet normal 0.9914448613738106 0.13052619222005069 2.6365775366727626e-15
  outer loop
    vertex 38.750000000000185 2.34999999999999 6.000000000000078
    vertex 38.780666756340025 2.1170628594078167 7.331912854624534e-14
    vertex 38.75000000000019 2.350000000000086 7.754907827006718e-14
  endloop
endfacet
facet normal 0.13052619222005166 0.9914448613738104 1.648174703160429e-14
  outer loop
    vertex 39.65000000000018 1.4500000000000877 6.203926261605374e-14
    vertex 39.41706285940791 1.4806667563398286 6.000000000000064
    vertex 39.65000000000018 1.449999999999986 6.000000000000066
  endloop
endfacet
facet normal 0.13052619222005166 0.9914448613738104 1.648174703160429e-14
  outer loop
    vertex 39.41706285940791 1.4806667563398286 6.000000000000064
    vertex 39.65000000000018 1.4500000000000877 6.203926261605374e-14
    vertex 39.41706285940792 1.4806667563399245 6.203926261605374e-14
  endloop
endfacet
facet normal 0.9914448613738105 -0.13052619222005046 -1.6866848854507852e-15
  outer loop
    vertex 38.75000000000019 2.350000000000086 7.754907827006718e-14
    vertex 38.78066675634002 2.5829371405922537 6.000000000000082
    vertex 38.750000000000185 2.34999999999999 6.000000000000078
  endloop
endfacet
facet normal 0.9914448613738105 -0.13052619222005046 -1.6866848854507852e-15
  outer loop
    vertex 38.78066675634002 2.5829371405922537 6.000000000000082
    vertex 38.75000000000019 2.350000000000086 7.754907827006718e-14
    vertex 38.780666756340025 2.5829371405923554 8.177902799388902e-14
  endloop
endfacet
facet normal -0.923879532511287 -0.3826834323650896 -6.780161556822498e-15
  outer loop
    vertex 40.429422863406174 2.799999999999989 6.000000000000089
    vertex 40.51933324366035 2.5829371405923554 8.177902799388902e-14
    vertex 40.51933324366034 2.5829371405922537 6.000000000000082
  endloop
endfacet
facet normal -0.923879532511287 -0.3826834323650896 -6.780161556822498e-15
  outer loop
    vertex 40.51933324366035 2.5829371405923554 8.177902799388902e-14
    vertex 40.429422863406174 2.799999999999989 6.000000000000089
    vertex 40.42942286340618 2.800000000000085 8.600897771771087e-14
  endloop
endfacet
facet normal -0.13052619222005096 0.9914448613738105 1.6356691291631005e-14
  outer loop
    vertex 39.88293714059245 1.4806667563398286 6.000000000000064
    vertex 39.65000000000018 1.4500000000000877 6.203926261605374e-14
    vertex 39.65000000000018 1.449999999999986 6.000000000000066
  endloop
endfacet
facet normal -0.13052619222005096 0.9914448613738105 1.6356691291631005e-14
  outer loop
    vertex 39.65000000000018 1.4500000000000877 6.203926261605374e-14
    vertex 39.88293714059245 1.4806667563398286 6.000000000000064
    vertex 39.88293714059245 1.4806667563399245 6.34492458573277e-14
  endloop
endfacet
facet normal 0.7933533402912365 0.6087614290087189 1.0461688771621495e-14
  outer loop
    vertex 39.013603896932295 1.7136038969321938 6.767919558114953e-14
    vertex 38.870577136594186 1.8999999999999853 6.000000000000073
    vertex 39.01360389693229 1.7136038969320924 6.000000000000068
  endloop
endfacet
facet normal 0.7933533402912365 0.6087614290087189 1.0461688771621495e-14
  outer loop
    vertex 38.870577136594186 1.8999999999999853 6.000000000000073
    vertex 39.013603896932295 1.7136038969321938 6.767919558114953e-14
    vertex 38.870577136594186 1.9000000000000867 7.049916206369744e-14
  endloop
endfacet
facet normal 0.923879532511287 -0.3826834323650892 -5.8950025200094696e-15
  outer loop
    vertex 38.780666756340025 2.5829371405923554 8.177902799388902e-14
    vertex 38.870577136594186 2.799999999999989 6.000000000000088
    vertex 38.78066675634002 2.5829371405922537 6.000000000000082
  endloop
endfacet
facet normal 0.923879532511287 -0.3826834323650892 -5.8950025200094696e-15
  outer loop
    vertex 38.870577136594186 2.799999999999989 6.000000000000088
    vertex 38.780666756340025 2.5829371405923554 8.177902799388902e-14
    vertex 38.870577136594186 2.800000000000085 8.459899447643693e-14
  endloop
endfacet
facet normal -0.6087614290087213 0.7933533402912347 1.2847021412075757e-14
  outer loop
    vertex 40.28639610306808 1.7136038969321938 6.767919558114953e-14
    vertex 40.10000000000018 1.570577136593991 6.000000000000065
    vertex 40.28639610306807 1.7136038969320924 6.000000000000068
  endloop
endfacet
facet normal -0.6087614290087213 0.7933533402912347 1.2847021412075757e-14
  outer loop
    vertex 40.10000000000018 1.570577136593991 6.000000000000065
    vertex 40.28639610306808 1.7136038969321938 6.767919558114953e-14
    vertex 40.100000000000186 1.5705771365940924 6.485922909860164e-14
  endloop
endfacet
facet normal 0.1305261922200517 -0.9914448613738105 -1.6356691291631005e-14
  outer loop
    vertex 39.41706285940792 3.2193332436601514 6.000000000000092
    vertex 39.65000000000018 3.2500000000000844 9.164891068280667e-14
    vertex 39.65000000000018 3.2499999999999885 6.000000000000095
  endloop
endfacet
facet normal 0.1305261922200517 -0.9914448613738105 -1.6356691291631005e-14
  outer loop
    vertex 39.65000000000018 3.2500000000000844 9.164891068280667e-14
    vertex 39.41706285940792 3.2193332436601514 6.000000000000092
    vertex 39.41706285940792 3.2193332436602473 9.164891068280667e-14
  endloop
endfacet
facet normal -0.9238795325112867 0.3826834323650898 5.895002520009478e-15
  outer loop
    vertex 40.51933324366034 2.1170628594077208 6.000000000000075
    vertex 40.42942286340618 1.9000000000000867 7.049916206369744e-14
    vertex 40.429422863406174 1.8999999999999853 6.000000000000074
  endloop
endfacet
facet normal -0.9238795325112867 0.3826834323650898 5.895002520009478e-15
  outer loop
    vertex 40.42942286340618 1.9000000000000867 7.049916206369744e-14
    vertex 40.51933324366034 2.1170628594077208 6.000000000000075
    vertex 40.51933324366035 2.1170628594078167 7.472911178751928e-14
  endloop
endfacet
facet normal -0.6087614290087213 -0.7933533402912347 -1.3430269185392669e-14
  outer loop
    vertex 40.100000000000186 3.1294228634060794 9.023892744153272e-14
    vertex 40.28639610306807 2.9863961030678823 6.000000000000089
    vertex 40.10000000000018 3.1294228634059835 6.0000000000000915
  endloop
endfacet
facet normal -0.6087614290087213 -0.7933533402912347 -1.3430269185392669e-14
  outer loop
    vertex 40.28639610306807 2.9863961030678823 6.000000000000089
    vertex 40.100000000000186 3.1294228634060794 9.023892744153272e-14
    vertex 40.28639610306808 2.986396103067978 8.882894420025876e-14
  endloop
endfacet
facet normal 0.923879532511287 0.3826834323650892 6.780161556822493e-15
  outer loop
    vertex 38.870577136594186 1.9000000000000867 7.049916206369744e-14
    vertex 38.78066675634002 2.1170628594077208 6.000000000000074
    vertex 38.870577136594186 1.8999999999999853 6.000000000000073
  endloop
endfacet
facet normal 0.923879532511287 0.3826834323650892 6.780161556822493e-15
  outer loop
    vertex 38.78066675634002 2.1170628594077208 6.000000000000074
    vertex 38.870577136594186 1.9000000000000867 7.049916206369744e-14
    vertex 38.780666756340025 2.1170628594078167 7.331912854624534e-14
  endloop
endfacet
facet normal 0.3826834323650906 0.9238795325112865 1.5483598948748536e-14
  outer loop
    vertex 39.41706285940791 1.4806667563398286 6.000000000000064
    vertex 39.20000000000019 1.5705771365940924 6.485922909860164e-14
    vertex 39.20000000000018 1.570577136593991 6.000000000000065
  endloop
endfacet
facet normal 0.3826834323650906 0.9238795325112865 1.5483598948748536e-14
  outer loop
    vertex 39.20000000000019 1.5705771365940924 6.485922909860164e-14
    vertex 39.41706285940791 1.4806667563398286 6.000000000000064
    vertex 39.41706285940792 1.4806667563399245 6.203926261605374e-14
  endloop
endfacet
facet normal 0.6087614290087198 0.7933533402912358 1.3430269185392683e-14
  outer loop
    vertex 39.20000000000018 1.570577136593991 6.000000000000065
    vertex 39.013603896932295 1.7136038969321938 6.767919558114953e-14
    vertex 39.01360389693229 1.7136038969320924 6.000000000000068
  endloop
endfacet
facet normal 0.6087614290087198 0.7933533402912358 1.3430269185392683e-14
  outer loop
    vertex 39.013603896932295 1.7136038969321938 6.767919558114953e-14
    vertex 39.20000000000018 1.570577136593991 6.000000000000065
    vertex 39.20000000000019 1.5705771365940924 6.485922909860164e-14
  endloop
endfacet
facet normal -0.9914448613738107 0.1305261922200502 1.6866848854507809e-15
  outer loop
    vertex 40.55000000000018 2.34999999999999 6.000000000000079
    vertex 40.51933324366035 2.1170628594078167 7.472911178751928e-14
    vertex 40.51933324366034 2.1170628594077208 6.000000000000075
  endloop
endfacet
facet normal -0.9914448613738107 0.1305261922200502 1.6866848854507809e-15
  outer loop
    vertex 40.51933324366035 2.1170628594078167 7.472911178751928e-14
    vertex 40.55000000000018 2.34999999999999 6.000000000000079
    vertex 40.55000000000018 2.350000000000086 7.895906151134113e-14
  endloop
endfacet
facet normal -0.9914448613738106 -0.13052619222005069 -2.6365775366727626e-15
  outer loop
    vertex 40.51933324366034 2.5829371405922537 6.000000000000082
    vertex 40.55000000000018 2.350000000000086 7.895906151134113e-14
    vertex 40.55000000000018 2.34999999999999 6.000000000000079
  endloop
endfacet
facet normal -0.9914448613738106 -0.13052619222005069 -2.6365775366727626e-15
  outer loop
    vertex 40.55000000000018 2.350000000000086 7.895906151134113e-14
    vertex 40.51933324366034 2.5829371405922537 6.000000000000082
    vertex 40.51933324366035 2.5829371405923554 8.177902799388902e-14
  endloop
endfacet
facet normal -0.3826834323650906 -0.9238795325112865 -1.5483598948748536e-14
  outer loop
    vertex 39.88293714059245 3.2193332436602473 9.164891068280667e-14
    vertex 40.10000000000018 3.1294228634059835 6.0000000000000915
    vertex 39.88293714059245 3.2193332436601514 6.000000000000092
  endloop
endfacet
facet normal -0.3826834323650906 -0.9238795325112865 -1.5483598948748536e-14
  outer loop
    vertex 40.10000000000018 3.1294228634059835 6.0000000000000915
    vertex 39.88293714059245 3.2193332436602473 9.164891068280667e-14
    vertex 40.100000000000186 3.1294228634060794 9.023892744153272e-14
  endloop
endfacet
facet normal -0.13052619222005166 -0.9914448613738104 -1.648174703160429e-14
  outer loop
    vertex 39.65000000000018 3.2500000000000844 9.164891068280667e-14
    vertex 39.88293714059245 3.2193332436601514 6.000000000000092
    vertex 39.65000000000018 3.2499999999999885 6.000000000000095
  endloop
endfacet
facet normal -0.13052619222005166 -0.9914448613738104 -1.648174703160429e-14
  outer loop
    vertex 39.88293714059245 3.2193332436601514 6.000000000000092
    vertex 39.65000000000018 3.2500000000000844 9.164891068280667e-14
    vertex 39.88293714059245 3.2193332436602473 9.164891068280667e-14
  endloop
endfacet
facet normal 0.13052619222001208 7.743501730746617e-15 -0.9914448613738156
  outer loop
    vertex 44.15057523079749 7.895906151134113e-14 0.09881510376166373
    vertex 43.40000000000018 3.9000000000000887 2.3969715101657127e-14
    vertex 44.1505752307975 3.9296445311285675 0.09881510376166514
  endloop
endfacet
facet normal 0.13052619222001208 7.743501730746617e-15 -0.9914448613738156
  outer loop
    vertex 43.40000000000018 3.9000000000000887 2.3969715101657127e-14
    vertex 44.15057523079749 7.895906151134113e-14 0.09881510376166373
    vertex 43.40000000000018 7.895906151134113e-14 -3.665956427312267e-14
  endloop
endfacet
facet normal 0.9914448613738106 2.9759743318149424e-16 -0.13052619222005096
  outer loop
    vertex 46.20118489623849 4.544827430760824 2.1494247692026502
    vertex 46.30000000000019 8.459899447643693e-14 2.899999999999961
    vertex 46.20118489623849 7.331912854624534e-14 2.1494247692026516
  endloop
endfacet
facet normal 0.9914448613738106 2.9759743318149424e-16 -0.13052619222005096
  outer loop
    vertex 46.30000000000019 8.459899447643693e-14 2.899999999999961
    vertex 46.20118489623849 4.544827430760824 2.1494247692026502
    vertex 46.30000000000019 4.7700000000000005 2.899999999999961
  endloop
endfacet
facet normal 0.9238795325112867 2.004382656004391e-17 -0.3826834323650898
  outer loop
    vertex 45.911473670975056 4.33500000000003 1.4499999999999642
    vertex 46.20118489623849 7.331912854624534e-14 2.1494247692026516
    vertex 45.911473670975056 7.331912854624534e-14 1.4499999999999649
  endloop
endfacet
facet normal 0.9238795325112867 2.004382656004391e-17 -0.3826834323650898
  outer loop
    vertex 46.20118489623849 7.331912854624534e-14 2.1494247692026516
    vertex 45.911473670975056 4.33500000000003 1.4499999999999642
    vertex 46.20118489623849 4.544827430760824 2.1494247692026502
  endloop
endfacet
facet normal 0.7933533402912344 -1.4113159765948794e-17 -0.6087614290087217
  outer loop
    vertex 45.45060966544118 7.895906151134113e-14 0.8493903345589737
    vertex 45.911473670975056 4.33500000000003 1.4499999999999642
    vertex 45.911473670975056 7.331912854624534e-14 1.4499999999999649
  endloop
endfacet
facet normal 0.7933533402912344 -1.4113159765948794e-17 -0.6087614290087217
  outer loop
    vertex 45.911473670975056 4.33500000000003 1.4499999999999642
    vertex 45.45060966544118 7.895906151134113e-14 0.8493903345589737
    vertex 45.45060966544118 4.154817100367744 0.849390334558973
  endloop
endfacet
facet normal 0.6087614290087202 4.8613558654531723e-17 -0.7933533402912357
  outer loop
    vertex 44.850000000000186 7.895906151134113e-14 0.38852632902508966
    vertex 45.45060966544118 4.154817100367744 0.849390334558973
    vertex 45.45060966544118 7.895906151134113e-14 0.8493903345589737
  endloop
endfacet
facet normal 0.6087614290087202 4.8613558654531723e-17 -0.7933533402912357
  outer loop
    vertex 45.45060966544118 4.154817100367744 0.849390334558973
    vertex 44.850000000000186 7.895906151134113e-14 0.38852632902508966
    vertex 44.850000000000186 4.016557898707591 0.3885263290250904
  endloop
endfacet
facet normal 0.3826834323650885 1.2734937479216634e-16 -0.9238795325112874
  outer loop
    vertex 44.15057523079749 7.895906151134113e-14 0.09881510376166373
    vertex 44.850000000000186 4.016557898707591 0.3885263290250904
    vertex 44.850000000000186 7.895906151134113e-14 0.38852632902508966
  endloop
endfacet
facet normal 0.3826834323650885 1.2734937479216634e-16 -0.9238795325112874
  outer loop
    vertex 44.850000000000186 4.016557898707591 0.3885263290250904
    vertex 44.15057523079749 7.895906151134113e-14 0.09881510376166373
    vertex 44.1505752307975 3.9296445311285675 0.09881510376166514
  endloop
endfacet
facet normal -0.9914448613738108 1.4293610299147895e-17 -0.13052619222004844
  outer loop
    vertex -1.127986593019159e-14 4.7700000000000395 2.900000000000004
    vertex 0.09881510376168912 -1.127986593019159e-14 2.1494247692026924
    vertex -1.127986593019159e-14 -1.127986593019159e-14 2.900000000000004
  endloop
endfacet
facet normal -0.9914448613738108 1.4293610299147895e-17 -0.13052619222004844
  outer loop
    vertex 0.09881510376168912 -1.127986593019159e-14 2.1494247692026924
    vertex -1.127986593019159e-14 4.7700000000000395 2.900000000000004
    vertex 0.09881510376168912 4.544827430760858 2.1494247692026933
  endloop
endfacet
facet normal -0.13052619222005196 -6.143785038307087e-16 -0.9914448613738104
  outer loop
    vertex 2.8999999999999893 -5.639932965095795e-15 1.4099832412739487e-15
    vertex 2.14942476920268 3.9296445311285955 0.0988151037617018
    vertex 2.8999999999999946 3.9000000000000887 2.8199664825478975e-15
  endloop
endfacet
facet normal -0.13052619222005196 -6.143785038307087e-16 -0.9914448613738104
  outer loop
    vertex 2.14942476920268 3.9296445311285955 0.0988151037617018
    vertex 2.8999999999999893 -5.639932965095795e-15 1.4099832412739487e-15
    vertex 2.1494247692026685 0.0 0.09881510376171027
  endloop
endfacet
facet normal -0.3826834323650973 -4.9835945504046376e-17 -0.9238795325112837
  outer loop
    vertex 2.1494247692026685 0.0 0.09881510376171027
    vertex 1.4499999999999804 4.016557898707625 0.3885263290251411
    vertex 2.14942476920268 3.9296445311285955 0.0988151037617018
  endloop
endfacet
facet normal -0.3826834323650973 -4.9835945504046376e-17 -0.9238795325112837
  outer loop
    vertex 1.4499999999999804 4.016557898707625 0.3885263290251411
    vertex 2.1494247692026685 0.0 0.09881510376171027
    vertex 1.449999999999986 0.0 0.38852632902513545
  endloop
endfacet
facet normal -0.6087614290087128 4.4260105640690927e-17 -0.7933533402912412
  outer loop
    vertex 0.8493903345589984 -5.639932965095795e-15 0.849390334559011
    vertex 1.4499999999999804 4.016557898707625 0.3885263290251411
    vertex 1.449999999999986 0.0 0.38852632902513545
  endloop
endfacet
facet normal -0.6087614290087128 4.4260105640690927e-17 -0.7933533402912412
  outer loop
    vertex 1.4499999999999804 4.016557898707625 0.3885263290251411
    vertex 0.8493903345589984 -5.639932965095795e-15 0.849390334559011
    vertex 0.8493903345589927 4.154817100367778 0.8493903345590146
  endloop
endfacet
facet normal -0.7933533402912357 -6.451730178719128e-17 -0.6087614290087199
  outer loop
    vertex 0.3885263290251115 4.335000000000064 1.450000000000003
    vertex 0.8493903345589984 -5.639932965095795e-15 0.849390334559011
    vertex 0.3885263290251115 -5.639932965095795e-15 1.4500000000000002
  endloop
endfacet
facet normal -0.7933533402912357 -6.451730178719128e-17 -0.6087614290087199
  outer loop
    vertex 0.8493903345589984 -5.639932965095795e-15 0.849390334559011
    vertex 0.3885263290251115 4.335000000000064 1.450000000000003
    vertex 0.8493903345589927 4.154817100367778 0.8493903345590146
  endloop
endfacet
facet normal -0.9238795325112892 1.5085616832032198e-16 -0.3826834323650839
  outer loop
    vertex 0.09881510376168912 4.544827430760858 2.1494247692026933
    vertex 0.3885263290251115 -5.639932965095795e-15 1.4500000000000002
    vertex 0.09881510376168912 -1.127986593019159e-14 2.1494247692026924
  endloop
endfacet
facet normal -0.9238795325112892 1.5085616832032198e-16 -0.3826834323650839
  outer loop
    vertex 0.3885263290251115 -5.639932965095795e-15 1.4500000000000002
    vertex 0.09881510376168912 4.544827430760858 2.1494247692026933
    vertex 0.3885263290251115 4.335000000000064 1.450000000000003
  endloop
endfacet
facet normal -2.196459749335683e-16 7.953751617442601e-15 -1.0
  outer loop
    vertex 43.40000000000018 7.895906151134113e-14 -3.665956427312267e-14
    vertex 40.100000000000186 1.5705771365940924 6.485922909860164e-14
    vertex 43.40000000000018 3.9000000000000887 2.3969715101657127e-14
  endloop
endfacet
facet normal -2.196459749335683e-16 7.953751617442601e-15 -1.0
  outer loop
    vertex 40.100000000000186 1.5705771365940924 6.485922909860164e-14
    vertex 43.40000000000018 7.895906151134113e-14 -3.665956427312267e-14
    vertex 39.88293714059245 1.4806667563399245 6.34492458573277e-14
  endloop
endfacet
facet normal -2.196459749335683e-16 7.953751617442601e-15 -1.0
  outer loop
    vertex 39.88293714059245 1.4806667563399245 6.34492458573277e-14
    vertex 43.40000000000018 7.895906151134113e-14 -3.665956427312267e-14
    vertex 39.65000000000018 1.4500000000000877 6.203926261605374e-14
  endloop
endfacet
facet normal -2.196459749335683e-16 7.953751617442601e-15 -1.0
  outer loop
    vertex 39.65000000000018 1.4500000000000877 6.203926261605374e-14
    vertex 43.40000000000018 7.895906151134113e-14 -3.665956427312267e-14
    vertex 2.8999999999999893 -5.639932965095795e-15 1.4099832412739487e-15
  endloop
endfacet
facet normal -2.196459749335683e-16 7.953751617442601e-15 -1.0
  outer loop
    vertex 43.40000000000018 3.9000000000000887 2.3969715101657127e-14
    vertex 40.100000000000186 1.5705771365940924 6.485922909860164e-14
    vertex 40.28639610306808 1.7136038969321938 6.767919558114953e-14
  endloop
endfacet
facet normal -2.196459749335683e-16 7.953751617442601e-15 -1.0
  outer loop
    vertex 43.40000000000018 3.9000000000000887 2.3969715101657127e-14
    vertex 40.28639610306808 1.7136038969321938 6.767919558114953e-14
    vertex 40.42942286340618 1.9000000000000867 7.049916206369744e-14
  endloop
endfacet
facet normal -2.196459749335683e-16 7.953751617442601e-15 -1.0
  outer loop
    vertex 43.40000000000018 3.9000000000000887 2.3969715101657127e-14
    vertex 40.42942286340618 1.9000000000000867 7.049916206369744e-14
    vertex 40.51933324366035 2.1170628594078167 7.472911178751928e-14
  endloop
endfacet
facet normal -2.196459749335683e-16 7.953751617442601e-15 -1.0
  outer loop
    vertex 43.40000000000018 3.9000000000000887 2.3969715101657127e-14
    vertex 40.51933324366035 2.1170628594078167 7.472911178751928e-14
    vertex 40.55000000000018 2.350000000000086 7.895906151134113e-14
  endloop
endfacet
facet normal -2.196459749335683e-16 7.953751617442601e-15 -1.0
  outer loop
    vertex 39.65000000000018 1.4500000000000877 6.203926261605374e-14
    vertex 2.8999999999999893 -5.639932965095795e-15 1.4099832412739487e-15
    vertex 39.41706285940792 1.4806667563399245 6.203926261605374e-14
  endloop
endfacet
facet normal -2.196459749335683e-16 7.953751617442601e-15 -1.0
  outer loop
    vertex 39.41706285940792 1.4806667563399245 6.203926261605374e-14
    vertex 2.8999999999999893 -5.639932965095795e-15 1.4099832412739487e-15
    vertex 39.20000000000019 1.5705771365940924 6.485922909860164e-14
  endloop
endfacet
facet normal -2.196459749335683e-16 7.953751617442601e-15 -1.0
  outer loop
    vertex 39.20000000000019 1.5705771365940924 6.485922909860164e-14
    vertex 2.8999999999999893 -5.639932965095795e-15 1.4099832412739487e-15
    vertex 39.013603896932295 1.7136038969321938 6.767919558114953e-14
  endloop
endfacet
facet normal -2.196459749335683e-16 7.953751617442601e-15 -1.0
  outer loop
    vertex 39.013603896932295 1.7136038969321938 6.767919558114953e-14
    vertex 2.8999999999999893 -5.639932965095795e-15 1.4099832412739487e-15
    vertex 38.870577136594186 1.9000000000000867 7.049916206369744e-14
  endloop
endfacet
facet normal -2.196459749335683e-16 7.953751617442601e-15 -1.0
  outer loop
    vertex 38.870577136594186 1.9000000000000867 7.049916206369744e-14
    vertex 2.8999999999999893 -5.639932965095795e-15 1.4099832412739487e-15
    vertex 38.780666756340025 2.1170628594078167 7.331912854624534e-14
  endloop
endfacet
facet normal -2.196459749335683e-16 7.953751617442601e-15 -1.0
  outer loop
    vertex 38.780666756340025 2.1170628594078167 7.331912854624534e-14
    vertex 2.8999999999999893 -5.639932965095795e-15 1.4099832412739487e-15
    vertex 38.75000000000019 2.350000000000086 7.754907827006718e-14
  endloop
endfacet
facet normal -2.196459749335683e-16 7.953751617442601e-15 -1.0
  outer loop
    vertex 38.75000000000019 2.350000000000086 7.754907827006718e-14
    vertex 2.8999999999999893 -5.639932965095795e-15 1.4099832412739487e-15
    vertex 6.882937140592257 1.4806667563399245 1.4099832412739487e-15
  endloop
endfacet
facet normal -2.196459749335683e-16 7.953751617442601e-15 -1.0
  outer loop
    vertex 38.75000000000019 2.350000000000086 7.754907827006718e-14
    vertex 6.882937140592257 1.4806667563399245 1.4099832412739487e-15
    vertex 7.099999999999987 1.5705771365940924 2.8199664825478975e-15
  endloop
endfacet
facet normal -2.196459749335683e-16 7.953751617442601e-15 -1.0
  outer loop
    vertex 38.75000000000019 2.350000000000086 7.754907827006718e-14
    vertex 7.099999999999987 1.5705771365940924 2.8199664825478975e-15
    vertex 7.28639610306788 1.7136038969321938 5.639932965095795e-15
  endloop
endfacet
facet normal -2.196459749335683e-16 7.953751617442601e-15 -1.0
  outer loop
    vertex 38.75000000000019 2.350000000000086 7.754907827006718e-14
    vertex 7.28639610306788 1.7136038969321938 5.639932965095795e-15
    vertex 7.429422863405981 1.9000000000000867 8.459899447643692e-15
  endloop
endfacet
facet normal -2.196459749335683e-16 7.953751617442601e-15 -1.0
  outer loop
    vertex 38.75000000000019 2.350000000000086 7.754907827006718e-14
    vertex 7.429422863405981 1.9000000000000867 8.459899447643692e-15
    vertex 7.519333243660149 2.1170628594078167 1.2689849171465539e-14
  endloop
endfacet
facet normal -2.196459749335683e-16 7.953751617442601e-15 -1.0
  outer loop
    vertex 38.75000000000019 2.350000000000086 7.754907827006718e-14
    vertex 7.519333243660149 2.1170628594078167 1.2689849171465539e-14
    vertex 7.5499999999999865 2.350000000000086 1.5509815654013436e-14
  endloop
endfacet
facet normal -2.196459749335683e-16 7.953751617442601e-15 -1.0
  outer loop
    vertex 6.882937140592257 1.4806667563399245 1.4099832412739487e-15
    vertex 2.8999999999999893 -5.639932965095795e-15 1.4099832412739487e-15
    vertex 6.649999999999988 1.4500000000000877 1.4099832412739487e-15
  endloop
endfacet
facet normal -2.196459749335683e-16 7.953751617442601e-15 -1.0
  outer loop
    vertex 6.649999999999988 1.4500000000000877 1.4099832412739487e-15
    vertex 2.8999999999999893 -5.639932965095795e-15 1.4099832412739487e-15
    vertex 6.417062859407719 1.4806667563399245 1.4099832412739487e-15
  endloop
endfacet
facet normal -2.196459749335683e-16 7.953751617442601e-15 -1.0
  outer loop
    vertex 6.417062859407719 1.4806667563399245 1.4099832412739487e-15
    vertex 2.8999999999999893 -5.639932965095795e-15 1.4099832412739487e-15
    vertex 6.199999999999989 1.5705771365940924 2.8199664825478975e-15
  endloop
endfacet
facet normal -2.196459749335683e-16 7.953751617442601e-15 -1.0
  outer loop
    vertex 6.199999999999989 1.5705771365940924 2.8199664825478975e-15
    vertex 2.8999999999999893 -5.639932965095795e-15 1.4099832412739487e-15
    vertex 6.0136038969320955 1.7136038969321938 4.229949723821846e-15
  endloop
endfacet
facet normal -2.196459749335683e-16 7.953751617442601e-15 -1.0
  outer loop
    vertex 6.0136038969320955 1.7136038969321938 4.229949723821846e-15
    vertex 2.8999999999999893 -5.639932965095795e-15 1.4099832412739487e-15
    vertex 5.870577136593994 1.9000000000000867 7.049916206369744e-15
  endloop
endfacet
facet normal -2.196459749335683e-16 7.953751617442601e-15 -1.0
  outer loop
    vertex 5.870577136593994 1.9000000000000867 7.049916206369744e-15
    vertex 2.8999999999999893 -5.639932965095795e-15 1.4099832412739487e-15
    vertex 5.780666756339826 2.1170628594078167 1.127986593019159e-14
  endloop
endfacet
facet normal -2.196459749335683e-16 7.953751617442601e-15 -1.0
  outer loop
    vertex 5.780666756339826 2.1170628594078167 1.127986593019159e-14
    vertex 2.8999999999999893 -5.639932965095795e-15 1.4099832412739487e-15
    vertex 5.749999999999989 2.350000000000086 1.5509815654013436e-14
  endloop
endfacet
facet normal -2.196459749335683e-16 7.953751617442601e-15 -1.0
  outer loop
    vertex 5.749999999999989 2.350000000000086 1.5509815654013436e-14
    vertex 2.8999999999999893 -5.639932965095795e-15 1.4099832412739487e-15
    vertex 2.8999999999999946 3.9000000000000887 2.8199664825478975e-15
  endloop
endfacet
facet normal -2.196459749335683e-16 7.953751617442601e-15 -1.0
  outer loop
    vertex 43.40000000000018 3.9000000000000887 2.3969715101657127e-14
    vertex 39.65000000000018 3.2500000000000844 9.164891068280667e-14
    vertex 2.8999999999999946 3.9000000000000887 2.8199664825478975e-15
  endloop
endfacet
facet normal -2.196459749335683e-16 7.953751617442601e-15 -1.0
  outer loop
    vertex 39.65000000000018 3.2500000000000844 9.164891068280667e-14
    vertex 43.40000000000018 3.9000000000000887 2.3969715101657127e-14
    vertex 39.88293714059245 3.2193332436602473 9.164891068280667e-14
  endloop
endfacet
facet normal -2.196459749335683e-16 7.953751617442601e-15 -1.0
  outer loop
    vertex 39.88293714059245 3.2193332436602473 9.164891068280667e-14
    vertex 43.40000000000018 3.9000000000000887 2.3969715101657127e-14
    vertex 40.100000000000186 3.1294228634060794 9.023892744153272e-14
  endloop
endfacet
facet normal -2.196459749335683e-16 7.953751617442601e-15 -1.0
  outer loop
    vertex 40.100000000000186 3.1294228634060794 9.023892744153272e-14
    vertex 43.40000000000018 3.9000000000000887 2.3969715101657127e-14
    vertex 40.28639610306808 2.986396103067978 8.882894420025876e-14
  endloop
endfacet
facet normal -2.196459749335683e-16 7.953751617442601e-15 -1.0
  outer loop
    vertex 40.28639610306808 2.986396103067978 8.882894420025876e-14
    vertex 43.40000000000018 3.9000000000000887 2.3969715101657127e-14
    vertex 40.42942286340618 2.800000000000085 8.600897771771087e-14
  endloop
endfacet
facet normal -2.196459749335683e-16 7.953751617442601e-15 -1.0
  outer loop
    vertex 40.42942286340618 2.800000000000085 8.600897771771087e-14
    vertex 43.40000000000018 3.9000000000000887 2.3969715101657127e-14
    vertex 40.51933324366035 2.5829371405923554 8.177902799388902e-14
  endloop
endfacet
facet normal -2.196459749335683e-16 7.953751617442601e-15 -1.0
  outer loop
    vertex 40.51933324366035 2.5829371405923554 8.177902799388902e-14
    vertex 43.40000000000018 3.9000000000000887 2.3969715101657127e-14
    vertex 40.55000000000018 2.350000000000086 7.895906151134113e-14
  endloop
endfacet
facet normal -2.196459749335683e-16 7.953751617442601e-15 -1.0
  outer loop
    vertex 2.8999999999999946 3.9000000000000887 2.8199664825478975e-15
    vertex 39.65000000000018 3.2500000000000844 9.164891068280667e-14
    vertex 39.41706285940792 3.2193332436602473 9.164891068280667e-14
  endloop
endfacet
facet normal -2.196459749335683e-16 7.953751617442601e-15 -1.0
  outer loop
    vertex 2.8999999999999946 3.9000000000000887 2.8199664825478975e-15
    vertex 39.41706285940792 3.2193332436602473 9.164891068280667e-14
    vertex 39.20000000000019 3.1294228634060794 9.023892744153272e-14
  endloop
endfacet
facet normal -2.196459749335683e-16 7.953751617442601e-15 -1.0
  outer loop
    vertex 2.8999999999999946 3.9000000000000887 2.8199664825478975e-15
    vertex 39.20000000000019 3.1294228634060794 9.023892744153272e-14
    vertex 39.013603896932295 2.986396103067978 8.882894420025876e-14
  endloop
endfacet
facet normal -2.196459749335683e-16 7.953751617442601e-15 -1.0
  outer loop
    vertex 2.8999999999999946 3.9000000000000887 2.8199664825478975e-15
    vertex 39.013603896932295 2.986396103067978 8.882894420025876e-14
    vertex 38.870577136594186 2.800000000000085 8.459899447643693e-14
  endloop
endfacet
facet normal -2.196459749335683e-16 7.953751617442601e-15 -1.0
  outer loop
    vertex 2.8999999999999946 3.9000000000000887 2.8199664825478975e-15
    vertex 38.870577136594186 2.800000000000085 8.459899447643693e-14
    vertex 38.780666756340025 2.5829371405923554 8.177902799388902e-14
  endloop
endfacet
facet normal -2.196459749335683e-16 7.953751617442601e-15 -1.0
  outer loop
    vertex 2.8999999999999946 3.9000000000000887 2.8199664825478975e-15
    vertex 38.780666756340025 2.5829371405923554 8.177902799388902e-14
    vertex 38.75000000000019 2.350000000000086 7.754907827006718e-14
  endloop
endfacet
facet normal -2.196459749335683e-16 7.953751617442601e-15 -1.0
  outer loop
    vertex 2.8999999999999946 3.9000000000000887 2.8199664825478975e-15
    vertex 38.75000000000019 2.350000000000086 7.754907827006718e-14
    vertex 6.882937140592257 3.2193332436602473 3.101963130802687e-14
  endloop
endfacet
facet normal -2.196459749335683e-16 7.953751617442601e-15 -1.0
  outer loop
    vertex 6.882937140592257 3.2193332436602473 3.101963130802687e-14
    vertex 38.75000000000019 2.350000000000086 7.754907827006718e-14
    vertex 7.099999999999987 3.1294228634060794 2.8199664825478976e-14
  endloop
endfacet
facet normal -2.196459749335683e-16 7.953751617442601e-15 -1.0
  outer loop
    vertex 7.099999999999987 3.1294228634060794 2.8199664825478976e-14
    vertex 38.75000000000019 2.350000000000086 7.754907827006718e-14
    vertex 7.28639610306788 2.986396103067978 2.6789681584205025e-14
  endloop
endfacet
facet normal -2.196459749335683e-16 7.953751617442601e-15 -1.0
  outer loop
    vertex 7.28639610306788 2.986396103067978 2.6789681584205025e-14
    vertex 38.75000000000019 2.350000000000086 7.754907827006718e-14
    vertex 7.429422863405981 2.800000000000085 2.3969715101657127e-14
  endloop
endfacet
facet normal -2.196459749335683e-16 7.953751617442601e-15 -1.0
  outer loop
    vertex 7.429422863405981 2.800000000000085 2.3969715101657127e-14
    vertex 38.75000000000019 2.350000000000086 7.754907827006718e-14
    vertex 7.519333243660149 2.5829371405923554 1.973976537783528e-14
  endloop
endfacet
facet normal -2.196459749335683e-16 7.953751617442601e-15 -1.0
  outer loop
    vertex 7.519333243660149 2.5829371405923554 1.973976537783528e-14
    vertex 38.75000000000019 2.350000000000086 7.754907827006718e-14
    vertex 7.5499999999999865 2.350000000000086 1.5509815654013436e-14
  endloop
endfacet
facet normal -2.196459749335683e-16 7.953751617442601e-15 -1.0
  outer loop
    vertex 2.8999999999999946 3.9000000000000887 2.8199664825478975e-15
    vertex 6.882937140592257 3.2193332436602473 3.101963130802687e-14
    vertex 6.649999999999988 3.2500000000000844 3.101963130802687e-14
  endloop
endfacet
facet normal -2.196459749335683e-16 7.953751617442601e-15 -1.0
  outer loop
    vertex 2.8999999999999946 3.9000000000000887 2.8199664825478975e-15
    vertex 6.649999999999988 3.2500000000000844 3.101963130802687e-14
    vertex 6.417062859407719 3.2193332436602473 2.9609648066752924e-14
  endloop
endfacet
facet normal -2.196459749335683e-16 7.953751617442601e-15 -1.0
  outer loop
    vertex 2.8999999999999946 3.9000000000000887 2.8199664825478975e-15
    vertex 6.417062859407719 3.2193332436602473 2.9609648066752924e-14
    vertex 6.199999999999989 3.1294228634060794 2.8199664825478976e-14
  endloop
endfacet
facet normal -2.196459749335683e-16 7.953751617442601e-15 -1.0
  outer loop
    vertex 2.8999999999999946 3.9000000000000887 2.8199664825478975e-15
    vertex 6.199999999999989 3.1294228634060794 2.8199664825478976e-14
    vertex 6.0136038969320955 2.986396103067978 2.5379698342931078e-14
  endloop
endfacet
facet normal -2.196459749335683e-16 7.953751617442601e-15 -1.0
  outer loop
    vertex 2.8999999999999946 3.9000000000000887 2.8199664825478975e-15
    vertex 6.0136038969320955 2.986396103067978 2.5379698342931078e-14
    vertex 5.870577136593994 2.800000000000085 2.255973186038318e-14
  endloop
endfacet
facet normal -2.196459749335683e-16 7.953751617442601e-15 -1.0
  outer loop
    vertex 2.8999999999999946 3.9000000000000887 2.8199664825478975e-15
    vertex 5.870577136593994 2.800000000000085 2.255973186038318e-14
    vertex 5.780666756339826 2.5829371405923554 1.8329782136561334e-14
  endloop
endfacet
facet normal -2.196459749335683e-16 7.953751617442601e-15 -1.0
  outer loop
    vertex 2.8999999999999946 3.9000000000000887 2.8199664825478975e-15
    vertex 5.780666756339826 2.5829371405923554 1.8329782136561334e-14
    vertex 5.749999999999989 2.350000000000086 1.5509815654013436e-14
  endloop
endfacet
facet normal 1.7375456836284915e-15 -1.0 -4.860465148424416e-15
  outer loop
    vertex -1.127986593019159e-14 -1.127986593019159e-14 2.900000000000004
    vertex 43.400000000000084 -1.127986593019159e-14 5.999999999999964
    vertex -5.639932965095795e-15 -1.127986593019159e-14 6.0000000000000036
  endloop
endfacet
facet normal 1.7375456836284915e-15 -1.0 -4.860465148424416e-15
  outer loop
    vertex 43.400000000000084 -1.127986593019159e-14 5.999999999999964
    vertex -1.127986593019159e-14 -1.127986593019159e-14 2.900000000000004
    vertex 46.30000000000019 8.459899447643693e-14 5.999999999999944
  endloop
endfacet
facet normal 1.7375456836284915e-15 -1.0 -4.860465148424416e-15
  outer loop
    vertex 46.30000000000019 8.459899447643693e-14 5.999999999999944
    vertex -1.127986593019159e-14 -1.127986593019159e-14 2.900000000000004
    vertex 46.30000000000019 8.459899447643693e-14 2.899999999999961
  endloop
endfacet
facet normal 1.7375456836284915e-15 -1.0 -4.860465148424416e-15
  outer loop
    vertex 46.30000000000019 8.459899447643693e-14 2.899999999999961
    vertex -1.127986593019159e-14 -1.127986593019159e-14 2.900000000000004
    vertex 0.09881510376168912 -1.127986593019159e-14 2.1494247692026924
  endloop
endfacet
facet normal 1.7375456836284915e-15 -1.0 -4.860465148424416e-15
  outer loop
    vertex 46.30000000000019 8.459899447643693e-14 2.899999999999961
    vertex 0.09881510376168912 -1.127986593019159e-14 2.1494247692026924
    vertex 46.20118489623849 7.331912854624534e-14 2.1494247692026516
  endloop
endfacet
facet normal 1.7375456836284915e-15 -1.0 -4.860465148424416e-15
  outer loop
    vertex 46.20118489623849 7.331912854624534e-14 2.1494247692026516
    vertex 0.09881510376168912 -1.127986593019159e-14 2.1494247692026924
    vertex 45.911473670975056 7.331912854624534e-14 1.4499999999999649
  endloop
endfacet
facet normal 1.7375456836284915e-15 -1.0 -4.860465148424416e-15
  outer loop
    vertex 45.911473670975056 7.331912854624534e-14 1.4499999999999649
    vertex 0.09881510376168912 -1.127986593019159e-14 2.1494247692026924
    vertex 0.3885263290251115 -5.639932965095795e-15 1.4500000000000002
  endloop
endfacet
facet normal 1.7375456836284915e-15 -1.0 -4.860465148424416e-15
  outer loop
    vertex 45.911473670975056 7.331912854624534e-14 1.4499999999999649
    vertex 0.3885263290251115 -5.639932965095795e-15 1.4500000000000002
    vertex 45.45060966544118 7.895906151134113e-14 0.8493903345589737
  endloop
endfacet
facet normal 1.7375456836284915e-15 -1.0 -4.860465148424416e-15
  outer loop
    vertex 45.45060966544118 7.895906151134113e-14 0.8493903345589737
    vertex 0.3885263290251115 -5.639932965095795e-15 1.4500000000000002
    vertex 0.8493903345589984 -5.639932965095795e-15 0.849390334559011
  endloop
endfacet
facet normal 1.7375456836284915e-15 -1.0 -4.860465148424416e-15
  outer loop
    vertex 45.45060966544118 7.895906151134113e-14 0.8493903345589737
    vertex 0.8493903345589984 -5.639932965095795e-15 0.849390334559011
    vertex 44.850000000000186 7.895906151134113e-14 0.38852632902508966
  endloop
endfacet
facet normal 1.7375456836284915e-15 -1.0 -4.860465148424416e-15
  outer loop
    vertex 44.850000000000186 7.895906151134113e-14 0.38852632902508966
    vertex 0.8493903345589984 -5.639932965095795e-15 0.849390334559011
    vertex 1.449999999999986 0.0 0.38852632902513545
  endloop
endfacet
facet normal 1.7375456836284915e-15 -1.0 -4.860465148424416e-15
  outer loop
    vertex 44.850000000000186 7.895906151134113e-14 0.38852632902508966
    vertex 1.449999999999986 0.0 0.38852632902513545
    vertex 2.1494247692026685 0.0 0.09881510376171027
  endloop
endfacet
facet normal 1.7375456836284915e-15 -1.0 -4.860465148424416e-15
  outer loop
    vertex 44.850000000000186 7.895906151134113e-14 0.38852632902508966
    vertex 2.1494247692026685 0.0 0.09881510376171027
    vertex 44.15057523079749 7.895906151134113e-14 0.09881510376166373
  endloop
endfacet
facet normal 1.7375456836284915e-15 -1.0 -4.860465148424416e-15
  outer loop
    vertex 44.15057523079749 7.895906151134113e-14 0.09881510376166373
    vertex 2.1494247692026685 0.0 0.09881510376171027
    vertex 2.8999999999999893 -5.639932965095795e-15 1.4099832412739487e-15
  endloop
endfacet
facet normal 1.7375456836284915e-15 -1.0 -4.860465148424416e-15
  outer loop
    vertex 44.15057523079749 7.895906151134113e-14 0.09881510376166373
    vertex 2.8999999999999893 -5.639932965095795e-15 1.4099832412739487e-15
    vertex 43.40000000000018 7.895906151134113e-14 -3.665956427312267e-14
  endloop
endfacet
facet normal -1.1174635296329682e-15 0.7682212795973736 0.6401843996644828
  outer loop
    vertex 46.30000000000018 5.9499999999999895 6.000000000000089
    vertex 0.4999999999999878 5.44999999999999 6.600000000000003
    vertex 45.80000000000018 5.44999999999999 6.600000000000088
  endloop
endfacet
facet normal -1.1174635296329682e-15 0.7682212795973736 0.6401843996644828
  outer loop
    vertex 0.4999999999999878 5.44999999999999 6.600000000000003
    vertex 46.30000000000018 5.9499999999999895 6.000000000000089
    vertex -1.127986593019159e-14 5.9499999999999895 6.000000000000013
  endloop
endfacet
facet normal 0.7682212795973754 4.270244988854356e-16 0.6401843996644804
  outer loop
    vertex 46.30000000000018 5.9499999999999895 6.000000000000089
    vertex 45.80000000000018 4.649999999999986 6.600000000000088
    vertex 46.30000000000018 4.149999999999987 6.000000000000091
  endloop
endfacet
facet normal 0.7682212795973754 4.270244988854356e-16 0.6401843996644804
  outer loop
    vertex 45.80000000000018 4.649999999999986 6.600000000000088
    vertex 46.30000000000018 5.9499999999999895 6.000000000000089
    vertex 45.80000000000018 5.44999999999999 6.600000000000088
  endloop
endfacet
facet normal -0.7682212795973737 -2.9314654788351628e-15 0.6401843996644826
  outer loop
    vertex 0.4999999999999878 4.649999999999986 6.600000000000003
    vertex -1.127986593019159e-14 5.9499999999999895 6.000000000000013
    vertex -1.127986593019159e-14 4.149999999999987 6.0000000000000036
  endloop
endfacet
facet normal -0.7682212795973737 -2.9314654788351628e-15 0.6401843996644826
  outer loop
    vertex -1.127986593019159e-14 5.9499999999999895 6.000000000000013
    vertex 0.4999999999999878 4.649999999999986 6.600000000000003
    vertex 0.4999999999999878 5.44999999999999 6.600000000000003
  endloop
endfacet
facet normal -1.1973799312020692e-15 -0.7682212795973756 0.6401843996644802
  outer loop
    vertex 0.4999999999999878 4.649999999999986 6.600000000000003
    vertex 46.30000000000018 4.149999999999987 6.000000000000091
    vertex 45.80000000000018 4.649999999999986 6.600000000000088
  endloop
endfacet
facet normal -1.1973799312020692e-15 -0.7682212795973756 0.6401843996644802
  outer loop
    vertex 46.30000000000018 4.149999999999987 6.000000000000091
    vertex 0.4999999999999878 4.649999999999986 6.600000000000003
    vertex -1.127986593019159e-14 4.149999999999987 6.0000000000000036
  endloop
endfacet
facet normal -1.0 -6.329655466978439e-16 8.068834946366543e-16
  outer loop
    vertex -1.127986593019159e-14 4.149999999999987 6.0000000000000036
    vertex -1.127986593019159e-14 -1.127986593019159e-14 2.900000000000004
    vertex -5.639932965095795e-15 -1.127986593019159e-14 6.0000000000000036
  endloop
endfacet
facet normal -1.0 -6.329655466978439e-16 8.068834946366543e-16
  outer loop
    vertex -1.127986593019159e-14 -1.127986593019159e-14 2.900000000000004
    vertex -1.127986593019159e-14 4.149999999999987 6.0000000000000036
    vertex -1.127986593019159e-14 4.7700000000000395 2.900000000000004
  endloop
endfacet
facet normal -1.0 -6.329655466978439e-16 8.068834946366543e-16
  outer loop
    vertex -1.127986593019159e-14 4.7700000000000395 2.900000000000004
    vertex -1.127986593019159e-14 4.149999999999987 6.0000000000000036
    vertex -1.127986593019159e-14 5.9499999999999895 6.000000000000013
  endloop
endfacet
facet normal -1.6394650764020497e-15 -2.0250404764234004e-14 1.0
  outer loop
    vertex 46.30000000000018 4.149999999999987 6.000000000000091
    vertex 43.400000000000084 -1.127986593019159e-14 5.999999999999964
    vertex 46.30000000000019 8.459899447643693e-14 5.999999999999944
  endloop
endfacet
facet normal -1.6394650764020497e-15 -2.0250404764234004e-14 1.0
  outer loop
    vertex 43.400000000000084 -1.127986593019159e-14 5.999999999999964
    vertex 46.30000000000018 4.149999999999987 6.000000000000091
    vertex 40.28639610306807 2.9863961030678823 6.000000000000089
  endloop
endfacet
facet normal -1.6394650764020497e-15 -2.0250404764234004e-14 1.0
  outer loop
    vertex 40.28639610306807 2.9863961030678823 6.000000000000089
    vertex 46.30000000000018 4.149999999999987 6.000000000000091
    vertex 40.10000000000018 3.1294228634059835 6.0000000000000915
  endloop
endfacet
facet normal -1.6394650764020497e-15 -2.0250404764234004e-14 1.0
  outer loop
    vertex 40.10000000000018 3.1294228634059835 6.0000000000000915
    vertex 46.30000000000018 4.149999999999987 6.000000000000091
    vertex 39.88293714059245 3.2193332436601514 6.000000000000092
  endloop
endfacet
facet normal -1.6394650764020497e-15 -2.0250404764234004e-14 1.0
  outer loop
    vertex 39.88293714059245 3.2193332436601514 6.000000000000092
    vertex 46.30000000000018 4.149999999999987 6.000000000000091
    vertex 39.65000000000018 3.2499999999999885 6.000000000000095
  endloop
endfacet
facet normal -1.6394650764020497e-15 -2.0250404764234004e-14 1.0
  outer loop
    vertex 39.65000000000018 3.2499999999999885 6.000000000000095
    vertex 46.30000000000018 4.149999999999987 6.000000000000091
    vertex -1.127986593019159e-14 4.149999999999987 6.0000000000000036
  endloop
endfacet
facet normal -1.6394650764020497e-15 -2.0250404764234004e-14 1.0
  outer loop
    vertex 43.400000000000084 -1.127986593019159e-14 5.999999999999964
    vertex 40.28639610306807 2.9863961030678823 6.000000000000089
    vertex 40.429422863406174 2.799999999999989 6.000000000000089
  endloop
endfacet
facet normal -1.6394650764020497e-15 -2.0250404764234004e-14 1.0
  outer loop
    vertex 43.400000000000084 -1.127986593019159e-14 5.999999999999964
    vertex 40.429422863406174 2.799999999999989 6.000000000000089
    vertex 40.51933324366034 2.5829371405922537 6.000000000000082
  endloop
endfacet
facet normal -1.6394650764020497e-15 -2.0250404764234004e-14 1.0
  outer loop
    vertex 43.400000000000084 -1.127986593019159e-14 5.999999999999964
    vertex 40.51933324366034 2.5829371405922537 6.000000000000082
    vertex 40.55000000000018 2.34999999999999 6.000000000000079
  endloop
endfacet
facet normal -1.6394650764020497e-15 -2.0250404764234004e-14 1.0
  outer loop
    vertex 39.65000000000018 3.2499999999999885 6.000000000000095
    vertex -1.127986593019159e-14 4.149999999999987 6.0000000000000036
    vertex 39.41706285940792 3.2193332436601514 6.000000000000092
  endloop
endfacet
facet normal -1.6394650764020497e-15 -2.0250404764234004e-14 1.0
  outer loop
    vertex 39.41706285940792 3.2193332436601514 6.000000000000092
    vertex -1.127986593019159e-14 4.149999999999987 6.0000000000000036
    vertex 39.20000000000018 3.1294228634059835 6.000000000000091
  endloop
endfacet
facet normal -1.6394650764020497e-15 -2.0250404764234004e-14 1.0
  outer loop
    vertex 39.20000000000018 3.1294228634059835 6.000000000000091
    vertex -1.127986593019159e-14 4.149999999999987 6.0000000000000036
    vertex 39.01360389693229 2.9863961030678823 6.000000000000089
  endloop
endfacet
facet normal -1.6394650764020497e-15 -2.0250404764234004e-14 1.0
  outer loop
    vertex 39.01360389693229 2.9863961030678823 6.000000000000089
    vertex -1.127986593019159e-14 4.149999999999987 6.0000000000000036
    vertex 38.870577136594186 2.799999999999989 6.000000000000088
  endloop
endfacet
facet normal -1.6394650764020497e-15 -2.0250404764234004e-14 1.0
  outer loop
    vertex 38.870577136594186 2.799999999999989 6.000000000000088
    vertex -1.127986593019159e-14 4.149999999999987 6.0000000000000036
    vertex 38.78066675634002 2.5829371405922537 6.000000000000082
  endloop
endfacet
facet normal -1.6394650764020497e-15 -2.0250404764234004e-14 1.0
  outer loop
    vertex 38.78066675634002 2.5829371405922537 6.000000000000082
    vertex -1.127986593019159e-14 4.149999999999987 6.0000000000000036
    vertex 38.750000000000185 2.34999999999999 6.000000000000078
  endloop
endfacet
facet normal -1.6394650764020497e-15 -2.0250404764234004e-14 1.0
  outer loop
    vertex 38.750000000000185 2.34999999999999 6.000000000000078
    vertex -1.127986593019159e-14 4.149999999999987 6.0000000000000036
    vertex 6.882937140592257 3.2193332436601514 6.00000000000003
  endloop
endfacet
facet normal -1.6394650764020497e-15 -2.0250404764234004e-14 1.0
  outer loop
    vertex 38.750000000000185 2.34999999999999 6.000000000000078
    vertex 6.882937140592257 3.2193332436601514 6.00000000000003
    vertex 7.099999999999987 3.1294228634059835 6.000000000000029
  endloop
endfacet
facet normal -1.6394650764020497e-15 -2.0250404764234004e-14 1.0
  outer loop
    vertex 38.750000000000185 2.34999999999999 6.000000000000078
    vertex 7.099999999999987 3.1294228634059835 6.000000000000029
    vertex 7.28639610306788 2.9863961030678823 6.000000000000027
  endloop
endfacet
facet normal -1.6394650764020497e-15 -2.0250404764234004e-14 1.0
  outer loop
    vertex 38.750000000000185 2.34999999999999 6.000000000000078
    vertex 7.28639610306788 2.9863961030678823 6.000000000000027
    vertex 7.429422863405981 2.799999999999989 6.000000000000024
  endloop
endfacet
facet normal -1.6394650764020497e-15 -2.0250404764234004e-14 1.0
  outer loop
    vertex 38.750000000000185 2.34999999999999 6.000000000000078
    vertex 7.429422863405981 2.799999999999989 6.000000000000024
    vertex 7.519333243660149 2.5829371405922537 6.00000000000002
  endloop
endfacet
facet normal -1.6394650764020497e-15 -2.0250404764234004e-14 1.0
  outer loop
    vertex 38.750000000000185 2.34999999999999 6.000000000000078
    vertex 7.519333243660149 2.5829371405922537 6.00000000000002
    vertex 7.5499999999999865 2.34999999999999 6.000000000000017
  endloop
endfacet
facet normal -1.6394650764020497e-15 -2.0250404764234004e-14 1.0
  outer loop
    vertex 6.882937140592257 3.2193332436601514 6.00000000000003
    vertex -1.127986593019159e-14 4.149999999999987 6.0000000000000036
    vertex 6.649999999999988 3.2499999999999885 6.000000000000031
  endloop
endfacet
facet normal -1.6394650764020497e-15 -2.0250404764234004e-14 1.0
  outer loop
    vertex 6.649999999999988 3.2499999999999885 6.000000000000031
    vertex -1.127986593019159e-14 4.149999999999987 6.0000000000000036
    vertex 6.417062859407719 3.2193332436601514 6.00000000000003
  endloop
endfacet
facet normal -1.6394650764020497e-15 -2.0250404764234004e-14 1.0
  outer loop
    vertex 6.417062859407719 3.2193332436601514 6.00000000000003
    vertex -1.127986593019159e-14 4.149999999999987 6.0000000000000036
    vertex 6.199999999999989 3.1294228634059835 6.000000000000028
  endloop
endfacet
facet normal -1.6394650764020497e-15 -2.0250404764234004e-14 1.0
  outer loop
    vertex 6.199999999999989 3.1294228634059835 6.000000000000028
    vertex -1.127986593019159e-14 4.149999999999987 6.0000000000000036
    vertex 6.0136038969320955 2.9863961030678823 6.000000000000027
  endloop
endfacet
facet normal -1.6394650764020497e-15 -2.0250404764234004e-14 1.0
  outer loop
    vertex 6.0136038969320955 2.9863961030678823 6.000000000000027
    vertex -1.127986593019159e-14 4.149999999999987 6.0000000000000036
    vertex 5.870577136593994 2.799999999999989 6.000000000000023
  endloop
endfacet
facet normal -1.6394650764020497e-15 -2.0250404764234004e-14 1.0
  outer loop
    vertex 5.870577136593994 2.799999999999989 6.000000000000023
    vertex -1.127986593019159e-14 4.149999999999987 6.0000000000000036
    vertex 5.780666756339826 2.5829371405922537 6.000000000000022
  endloop
endfacet
facet normal -1.6394650764020497e-15 -2.0250404764234004e-14 1.0
  outer loop
    vertex 5.780666756339826 2.5829371405922537 6.000000000000022
    vertex -1.127986593019159e-14 4.149999999999987 6.0000000000000036
    vertex 5.749999999999989 2.34999999999999 6.000000000000016
  endloop
endfacet
facet normal -1.6394650764020497e-15 -2.0250404764234004e-14 1.0
  outer loop
    vertex 5.749999999999989 2.34999999999999 6.000000000000016
    vertex -1.127986593019159e-14 4.149999999999987 6.0000000000000036
    vertex -5.639932965095795e-15 -1.127986593019159e-14 6.0000000000000036
  endloop
endfacet
facet normal -1.6394650764020497e-15 -2.0250404764234004e-14 1.0
  outer loop
    vertex 43.400000000000084 -1.127986593019159e-14 5.999999999999964
    vertex 39.65000000000018 1.449999999999986 6.000000000000066
    vertex -5.639932965095795e-15 -1.127986593019159e-14 6.0000000000000036
  endloop
endfacet
facet normal -1.6394650764020497e-15 -2.0250404764234004e-14 1.0
  outer loop
    vertex 39.65000000000018 1.449999999999986 6.000000000000066
    vertex 43.400000000000084 -1.127986593019159e-14 5.999999999999964
    vertex 39.88293714059245 1.4806667563398286 6.000000000000064
  endloop
endfacet
facet normal -1.6394650764020497e-15 -2.0250404764234004e-14 1.0
  outer loop
    vertex 39.88293714059245 1.4806667563398286 6.000000000000064
    vertex 43.400000000000084 -1.127986593019159e-14 5.999999999999964
    vertex 40.10000000000018 1.570577136593991 6.000000000000065
  endloop
endfacet
facet normal -1.6394650764020497e-15 -2.0250404764234004e-14 1.0
  outer loop
    vertex 40.10000000000018 1.570577136593991 6.000000000000065
    vertex 43.400000000000084 -1.127986593019159e-14 5.999999999999964
    vertex 40.28639610306807 1.7136038969320924 6.000000000000068
  endloop
endfacet
facet normal -1.6394650764020497e-15 -2.0250404764234004e-14 1.0
  outer loop
    vertex 40.28639610306807 1.7136038969320924 6.000000000000068
    vertex 43.400000000000084 -1.127986593019159e-14 5.999999999999964
    vertex 40.429422863406174 1.8999999999999853 6.000000000000074
  endloop
endfacet
facet normal -1.6394650764020497e-15 -2.0250404764234004e-14 1.0
  outer loop
    vertex 40.429422863406174 1.8999999999999853 6.000000000000074
    vertex 43.400000000000084 -1.127986593019159e-14 5.999999999999964
    vertex 40.51933324366034 2.1170628594077208 6.000000000000075
  endloop
endfacet
facet normal -1.6394650764020497e-15 -2.0250404764234004e-14 1.0
  outer loop
    vertex 40.51933324366034 2.1170628594077208 6.000000000000075
    vertex 43.400000000000084 -1.127986593019159e-14 5.999999999999964
    vertex 40.55000000000018 2.34999999999999 6.000000000000079
  endloop
endfacet
facet normal -1.6394650764020497e-15 -2.0250404764234004e-14 1.0
  outer loop
    vertex -5.639932965095795e-15 -1.127986593019159e-14 6.0000000000000036
    vertex 39.65000000000018 1.449999999999986 6.000000000000066
    vertex 39.41706285940791 1.4806667563398286 6.000000000000064
  endloop
endfacet
facet normal -1.6394650764020497e-15 -2.0250404764234004e-14 1.0
  outer loop
    vertex -5.639932965095795e-15 -1.127986593019159e-14 6.0000000000000036
    vertex 39.41706285940791 1.4806667563398286 6.000000000000064
    vertex 39.20000000000018 1.570577136593991 6.000000000000065
  endloop
endfacet
facet normal -1.6394650764020497e-15 -2.0250404764234004e-14 1.0
  outer loop
    vertex -5.639932965095795e-15 -1.127986593019159e-14 6.0000000000000036
    vertex 39.20000000000018 1.570577136593991 6.000000000000065
    vertex 39.01360389693229 1.7136038969320924 6.000000000000068
  endloop
endfacet
facet normal -1.6394650764020497e-15 -2.0250404764234004e-14 1.0
  outer loop
    vertex -5.639932965095795e-15 -1.127986593019159e-14 6.0000000000000036
    vertex 39.01360389693229 1.7136038969320924 6.000000000000068
    vertex 38.870577136594186 1.8999999999999853 6.000000000000073
  endloop
endfacet
facet normal -1.6394650764020497e-15 -2.0250404764234004e-14 1.0
  outer loop
    vertex -5.639932965095795e-15 -1.127986593019159e-14 6.0000000000000036
    vertex 38.870577136594186 1.8999999999999853 6.000000000000073
    vertex 38.78066675634002 2.1170628594077208 6.000000000000074
  endloop
endfacet
facet normal -1.6394650764020497e-15 -2.0250404764234004e-14 1.0
  outer loop
    vertex -5.639932965095795e-15 -1.127986593019159e-14 6.0000000000000036
    vertex 38.78066675634002 2.1170628594077208 6.000000000000074
    vertex 38.750000000000185 2.34999999999999 6.000000000000078
  endloop
endfacet
facet normal -1.6394650764020497e-15 -2.0250404764234004e-14 1.0
  outer loop
    vertex -5.639932965095795e-15 -1.127986593019159e-14 6.0000000000000036
    vertex 38.750000000000185 2.34999999999999 6.000000000000078
    vertex 6.882937140592257 1.4806667563398286 6.000000000000002
  endloop
endfacet
facet normal -1.6394650764020497e-15 -2.0250404764234004e-14 1.0
  outer loop
    vertex 6.882937140592257 1.4806667563398286 6.000000000000002
    vertex 38.750000000000185 2.34999999999999 6.000000000000078
    vertex 7.099999999999987 1.570577136593991 6.000000000000003
  endloop
endfacet
facet normal -1.6394650764020497e-15 -2.0250404764234004e-14 1.0
  outer loop
    vertex 7.099999999999987 1.570577136593991 6.000000000000003
    vertex 38.750000000000185 2.34999999999999 6.000000000000078
    vertex 7.28639610306788 1.7136038969320924 6.000000000000006
  endloop
endfacet
facet normal -1.6394650764020497e-15 -2.0250404764234004e-14 1.0
  outer loop
    vertex 7.28639610306788 1.7136038969320924 6.000000000000006
    vertex 38.750000000000185 2.34999999999999 6.000000000000078
    vertex 7.429422863405981 1.8999999999999853 6.000000000000009
  endloop
endfacet
facet normal -1.6394650764020497e-15 -2.0250404764234004e-14 1.0
  outer loop
    vertex 7.429422863405981 1.8999999999999853 6.000000000000009
    vertex 38.750000000000185 2.34999999999999 6.000000000000078
    vertex 7.519333243660149 2.1170628594077208 6.000000000000013
  endloop
endfacet
facet normal -1.6394650764020497e-15 -2.0250404764234004e-14 1.0
  outer loop
    vertex 7.519333243660149 2.1170628594077208 6.000000000000013
    vertex 38.750000000000185 2.34999999999999 6.000000000000078
    vertex 7.5499999999999865 2.34999999999999 6.000000000000017
  endloop
endfacet
facet normal -1.6394650764020497e-15 -2.0250404764234004e-14 1.0
  outer loop
    vertex -5.639932965095795e-15 -1.127986593019159e-14 6.0000000000000036
    vertex 6.882937140592257 1.4806667563398286 6.000000000000002
    vertex 6.649999999999988 1.449999999999986 6.000000000000002
  endloop
endfacet
facet normal -1.6394650764020497e-15 -2.0250404764234004e-14 1.0
  outer loop
    vertex -5.639932965095795e-15 -1.127986593019159e-14 6.0000000000000036
    vertex 6.649999999999988 1.449999999999986 6.000000000000002
    vertex 6.417062859407719 1.4806667563398286 6.000000000000002
  endloop
endfacet
facet normal -1.6394650764020497e-15 -2.0250404764234004e-14 1.0
  outer loop
    vertex -5.639932965095795e-15 -1.127986593019159e-14 6.0000000000000036
    vertex 6.417062859407719 1.4806667563398286 6.000000000000002
    vertex 6.199999999999989 1.570577136593991 6.000000000000003
  endloop
endfacet
facet normal -1.6394650764020497e-15 -2.0250404764234004e-14 1.0
  outer loop
    vertex -5.639932965095795e-15 -1.127986593019159e-14 6.0000000000000036
    vertex 6.199999999999989 1.570577136593991 6.000000000000003
    vertex 6.0136038969320955 1.7136038969320924 6.000000000000005
  endloop
endfacet
facet normal -1.6394650764020497e-15 -2.0250404764234004e-14 1.0
  outer loop
    vertex -5.639932965095795e-15 -1.127986593019159e-14 6.0000000000000036
    vertex 6.0136038969320955 1.7136038969320924 6.000000000000005
    vertex 5.870577136593994 1.8999999999999853 6.000000000000009
  endloop
endfacet
facet normal -1.6394650764020497e-15 -2.0250404764234004e-14 1.0
  outer loop
    vertex -5.639932965095795e-15 -1.127986593019159e-14 6.0000000000000036
    vertex 5.870577136593994 1.8999999999999853 6.000000000000009
    vertex 5.780666756339826 2.1170628594077208 6.000000000000014
  endloop
endfacet
facet normal -1.6394650764020497e-15 -2.0250404764234004e-14 1.0
  outer loop
    vertex -5.639932965095795e-15 -1.127986593019159e-14 6.0000000000000036
    vertex 5.780666756339826 2.1170628594077208 6.000000000000014
    vertex 5.749999999999989 2.34999999999999 6.000000000000016
  endloop
endfacet
facet normal 4.163330847015033e-16 0.9578262852211566 -0.28734788556632845
  outer loop
    vertex 46.30000000000019 4.7700000000000005 2.899999999999961
    vertex 0.09881510376168912 4.544827430760858 2.1494247692026933
    vertex -1.127986593019159e-14 4.7700000000000395 2.900000000000004
  endloop
endfacet
facet normal 4.163330847015033e-16 0.9578262852211566 -0.28734788556632845
  outer loop
    vertex 0.09881510376168912 4.544827430760858 2.1494247692026933
    vertex 46.30000000000019 4.7700000000000005 2.899999999999961
    vertex 46.20118489623849 4.544827430760824 2.1494247692026502
  endloop
endfacet
facet normal 4.163330847015033e-16 0.9578262852211566 -0.28734788556632845
  outer loop
    vertex 0.09881510376168912 4.544827430760858 2.1494247692026933
    vertex 46.20118489623849 4.544827430760824 2.1494247692026502
    vertex 0.3885263290251115 4.335000000000064 1.450000000000003
  endloop
endfacet
facet normal 4.163330847015033e-16 0.9578262852211566 -0.28734788556632845
  outer loop
    vertex 0.3885263290251115 4.335000000000064 1.450000000000003
    vertex 46.20118489623849 4.544827430760824 2.1494247692026502
    vertex 45.911473670975056 4.33500000000003 1.4499999999999642
  endloop
endfacet
facet normal 4.163330847015033e-16 0.9578262852211566 -0.28734788556632845
  outer loop
    vertex 0.3885263290251115 4.335000000000064 1.450000000000003
    vertex 45.911473670975056 4.33500000000003 1.4499999999999642
    vertex 45.45060966544118 4.154817100367744 0.849390334558973
  endloop
endfacet
facet normal 4.163330847015033e-16 0.9578262852211566 -0.28734788556632845
  outer loop
    vertex 0.3885263290251115 4.335000000000064 1.450000000000003
    vertex 45.45060966544118 4.154817100367744 0.849390334558973
    vertex 0.8493903345589927 4.154817100367778 0.8493903345590146
  endloop
endfacet
facet normal 4.163330847015033e-16 0.9578262852211566 -0.28734788556632845
  outer loop
    vertex 0.8493903345589927 4.154817100367778 0.8493903345590146
    vertex 45.45060966544118 4.154817100367744 0.849390334558973
    vertex 1.4499999999999804 4.016557898707625 0.3885263290251411
  endloop
endfacet
facet normal 4.163330847015033e-16 0.9578262852211566 -0.28734788556632845
  outer loop
    vertex 1.4499999999999804 4.016557898707625 0.3885263290251411
    vertex 45.45060966544118 4.154817100367744 0.849390334558973
    vertex 44.850000000000186 4.016557898707591 0.3885263290250904
  endloop
endfacet
facet normal 4.163330847015033e-16 0.9578262852211566 -0.28734788556632845
  outer loop
    vertex 1.4499999999999804 4.016557898707625 0.3885263290251411
    vertex 44.850000000000186 4.016557898707591 0.3885263290250904
    vertex 2.14942476920268 3.9296445311285955 0.0988151037617018
  endloop
endfacet
facet normal 4.163330847015033e-16 0.9578262852211566 -0.28734788556632845
  outer loop
    vertex 2.14942476920268 3.9296445311285955 0.0988151037617018
    vertex 44.850000000000186 4.016557898707591 0.3885263290250904
    vertex 44.1505752307975 3.9296445311285675 0.09881510376166514
  endloop
endfacet
facet normal 4.163330847015033e-16 0.9578262852211566 -0.28734788556632845
  outer loop
    vertex 2.14942476920268 3.9296445311285955 0.0988151037617018
    vertex 44.1505752307975 3.9296445311285675 0.09881510376166514
    vertex 43.40000000000018 3.9000000000000887 2.3969715101657127e-14
  endloop
endfacet
facet normal 4.163330847015033e-16 0.9578262852211566 -0.28734788556632845
  outer loop
    vertex 2.14942476920268 3.9296445311285955 0.0988151037617018
    vertex 43.40000000000018 3.9000000000000887 2.3969715101657127e-14
    vertex 2.8999999999999946 3.9000000000000887 2.8199664825478975e-15
  endloop
endfacet
facet normal 5.226785918650462e-16 0.9345832192186171 -0.3557445802186824
  outer loop
    vertex 46.30000000000019 4.7700000000000005 2.899999999999961
    vertex -1.127986593019159e-14 5.9499999999999895 6.000000000000013
    vertex 46.30000000000018 5.9499999999999895 6.000000000000089
  endloop
endfacet
facet normal 5.226785918650462e-16 0.9345832192186171 -0.3557445802186824
  outer loop
    vertex -1.127986593019159e-14 5.9499999999999895 6.000000000000013
    vertex 46.30000000000019 4.7700000000000005 2.899999999999961
    vertex -1.127986593019159e-14 4.7700000000000395 2.900000000000004
  endloop
endfacet
facet normal 1.0 1.2659310933957092e-15 2.0556622527374755e-16
  outer loop
    vertex 46.30000000000019 4.7700000000000005 2.899999999999961
    vertex 46.30000000000019 8.459899447643693e-14 5.999999999999944
    vertex 46.30000000000019 8.459899447643693e-14 2.899999999999961
  endloop
endfacet
facet normal 1.0 1.2659310933957092e-15 2.0556622527374755e-16
  outer loop
    vertex 46.30000000000019 8.459899447643693e-14 5.999999999999944
    vertex 46.30000000000019 4.7700000000000005 2.899999999999961
    vertex 46.30000000000018 4.149999999999987 6.000000000000091
  endloop
endfacet
facet normal 1.0 1.2659310933957092e-15 2.0556622527374755e-16
  outer loop
    vertex 46.30000000000018 4.149999999999987 6.000000000000091
    vertex 46.30000000000019 4.7700000000000005 2.899999999999961
    vertex 46.30000000000018 5.9499999999999895 6.000000000000089
  endloop
endfacet
endsolid SIOST-KBHood
