%TF.GenerationSoftware,KiCad,Pcbnew,(5.1.7)-1*%
%TF.CreationDate,2023-11-14T09:03:03-07:00*%
%TF.ProjectId,SIOST,53494f53-542e-46b6-9963-61645f706362,rev?*%
%TF.SameCoordinates,PX6a95280PY5a1c5c0*%
%TF.FileFunction,Legend,Bot*%
%TF.FilePolarity,Positive*%
%FSLAX46Y46*%
G04 Gerber Fmt 4.6, Leading zero omitted, Abs format (unit mm)*
G04 Created by KiCad (PCBNEW (5.1.7)-1) date 2023-11-14 09:03:03*
%MOMM*%
%LPD*%
G01*
G04 APERTURE LIST*
%ADD10C,0.150000*%
%ADD11C,0.120000*%
G04 APERTURE END LIST*
D10*
X51362952Y3341620D02*
X51029619Y2341620D01*
X50696285Y3341620D01*
X49982000Y2389239D02*
X50077238Y2341620D01*
X50267714Y2341620D01*
X50362952Y2389239D01*
X50410571Y2484477D01*
X50410571Y2865429D01*
X50362952Y2960667D01*
X50267714Y3008286D01*
X50077238Y3008286D01*
X49982000Y2960667D01*
X49934380Y2865429D01*
X49934380Y2770191D01*
X50410571Y2674953D01*
X49505809Y2341620D02*
X49505809Y3008286D01*
X49505809Y2817810D02*
X49458190Y2913048D01*
X49410571Y2960667D01*
X49315333Y3008286D01*
X49220095Y3008286D01*
X48934380Y2389239D02*
X48839142Y2341620D01*
X48648666Y2341620D01*
X48553428Y2389239D01*
X48505809Y2484477D01*
X48505809Y2532096D01*
X48553428Y2627334D01*
X48648666Y2674953D01*
X48791523Y2674953D01*
X48886761Y2722572D01*
X48934380Y2817810D01*
X48934380Y2865429D01*
X48886761Y2960667D01*
X48791523Y3008286D01*
X48648666Y3008286D01*
X48553428Y2960667D01*
X48077238Y2341620D02*
X48077238Y3008286D01*
X48077238Y3341620D02*
X48124857Y3294000D01*
X48077238Y3246381D01*
X48029619Y3294000D01*
X48077238Y3341620D01*
X48077238Y3246381D01*
X47458190Y2341620D02*
X47553428Y2389239D01*
X47601047Y2436858D01*
X47648666Y2532096D01*
X47648666Y2817810D01*
X47601047Y2913048D01*
X47553428Y2960667D01*
X47458190Y3008286D01*
X47315333Y3008286D01*
X47220095Y2960667D01*
X47172476Y2913048D01*
X47124857Y2817810D01*
X47124857Y2532096D01*
X47172476Y2436858D01*
X47220095Y2389239D01*
X47315333Y2341620D01*
X47458190Y2341620D01*
X46696285Y3008286D02*
X46696285Y2341620D01*
X46696285Y2913048D02*
X46648666Y2960667D01*
X46553428Y3008286D01*
X46410571Y3008286D01*
X46315333Y2960667D01*
X46267714Y2865429D01*
X46267714Y2341620D01*
X45077238Y3246381D02*
X45029619Y3294000D01*
X44934380Y3341620D01*
X44696285Y3341620D01*
X44601047Y3294000D01*
X44553428Y3246381D01*
X44505809Y3151143D01*
X44505809Y3055905D01*
X44553428Y2913048D01*
X45124857Y2341620D01*
X44505809Y2341620D01*
X44172476Y3341620D02*
X43553428Y3341620D01*
X43886761Y2960667D01*
X43743904Y2960667D01*
X43648666Y2913048D01*
X43601047Y2865429D01*
X43553428Y2770191D01*
X43553428Y2532096D01*
X43601047Y2436858D01*
X43648666Y2389239D01*
X43743904Y2341620D01*
X44029619Y2341620D01*
X44124857Y2389239D01*
X44172476Y2436858D01*
X42791523Y2865429D02*
X42648666Y2817810D01*
X42601047Y2770191D01*
X42553428Y2674953D01*
X42553428Y2532096D01*
X42601047Y2436858D01*
X42648666Y2389239D01*
X42743904Y2341620D01*
X43124857Y2341620D01*
X43124857Y3341620D01*
X42791523Y3341620D01*
X42696285Y3294000D01*
X42648666Y3246381D01*
X42601047Y3151143D01*
X42601047Y3055905D01*
X42648666Y2960667D01*
X42696285Y2913048D01*
X42791523Y2865429D01*
X43124857Y2865429D01*
X41791523Y2865429D02*
X42124857Y2865429D01*
X42124857Y2341620D02*
X42124857Y3341620D01*
X41648666Y3341620D01*
X50609047Y6897620D02*
X50037619Y6897620D01*
X50323333Y5897620D02*
X50323333Y6897620D01*
X49180476Y6850000D02*
X49275714Y6897620D01*
X49418571Y6897620D01*
X49561428Y6850000D01*
X49656666Y6754762D01*
X49704285Y6659524D01*
X49751904Y6469048D01*
X49751904Y6326191D01*
X49704285Y6135715D01*
X49656666Y6040477D01*
X49561428Y5945239D01*
X49418571Y5897620D01*
X49323333Y5897620D01*
X49180476Y5945239D01*
X49132857Y5992858D01*
X49132857Y6326191D01*
X49323333Y6326191D01*
X48704285Y5897620D02*
X48704285Y6564286D01*
X48704285Y6897620D02*
X48751904Y6850000D01*
X48704285Y6802381D01*
X48656666Y6850000D01*
X48704285Y6897620D01*
X48704285Y6802381D01*
X48370952Y6564286D02*
X47990000Y6564286D01*
X48228095Y6897620D02*
X48228095Y6040477D01*
X48180476Y5945239D01*
X48085238Y5897620D01*
X47990000Y5897620D01*
X47656666Y6278572D02*
X46894761Y6278572D01*
X46561428Y6897620D02*
X45990000Y6897620D01*
X46275714Y5897620D02*
X46275714Y6897620D01*
X45275714Y5945239D02*
X45370952Y5897620D01*
X45561428Y5897620D01*
X45656666Y5945239D01*
X45704285Y6040477D01*
X45704285Y6421429D01*
X45656666Y6516667D01*
X45561428Y6564286D01*
X45370952Y6564286D01*
X45275714Y6516667D01*
X45228095Y6421429D01*
X45228095Y6326191D01*
X45704285Y6230953D01*
X44370952Y5945239D02*
X44466190Y5897620D01*
X44656666Y5897620D01*
X44751904Y5945239D01*
X44799523Y5992858D01*
X44847142Y6088096D01*
X44847142Y6373810D01*
X44799523Y6469048D01*
X44751904Y6516667D01*
X44656666Y6564286D01*
X44466190Y6564286D01*
X44370952Y6516667D01*
X43942380Y5897620D02*
X43942380Y6897620D01*
X43513809Y5897620D02*
X43513809Y6421429D01*
X43561428Y6516667D01*
X43656666Y6564286D01*
X43799523Y6564286D01*
X43894761Y6516667D01*
X43942380Y6469048D01*
X53021714Y4119620D02*
X53021714Y5119620D01*
X52355047Y5119620D02*
X52164571Y5119620D01*
X52069333Y5072000D01*
X51974095Y4976762D01*
X51926476Y4786286D01*
X51926476Y4452953D01*
X51974095Y4262477D01*
X52069333Y4167239D01*
X52164571Y4119620D01*
X52355047Y4119620D01*
X52450285Y4167239D01*
X52545523Y4262477D01*
X52593142Y4452953D01*
X52593142Y4786286D01*
X52545523Y4976762D01*
X52450285Y5072000D01*
X52355047Y5119620D01*
X51497904Y4500572D02*
X50736000Y4500572D01*
X50307428Y4405334D02*
X49831238Y4405334D01*
X50402666Y4119620D02*
X50069333Y5119620D01*
X49736000Y4119620D01*
X48831238Y4214858D02*
X48878857Y4167239D01*
X49021714Y4119620D01*
X49116952Y4119620D01*
X49259809Y4167239D01*
X49355047Y4262477D01*
X49402666Y4357715D01*
X49450285Y4548191D01*
X49450285Y4691048D01*
X49402666Y4881524D01*
X49355047Y4976762D01*
X49259809Y5072000D01*
X49116952Y5119620D01*
X49021714Y5119620D01*
X48878857Y5072000D01*
X48831238Y5024381D01*
X47831238Y4214858D02*
X47878857Y4167239D01*
X48021714Y4119620D01*
X48116952Y4119620D01*
X48259809Y4167239D01*
X48355047Y4262477D01*
X48402666Y4357715D01*
X48450285Y4548191D01*
X48450285Y4691048D01*
X48402666Y4881524D01*
X48355047Y4976762D01*
X48259809Y5072000D01*
X48116952Y5119620D01*
X48021714Y5119620D01*
X47878857Y5072000D01*
X47831238Y5024381D01*
X47402666Y4643429D02*
X47069333Y4643429D01*
X46926476Y4119620D02*
X47402666Y4119620D01*
X47402666Y5119620D01*
X46926476Y5119620D01*
X46545523Y4167239D02*
X46402666Y4119620D01*
X46164571Y4119620D01*
X46069333Y4167239D01*
X46021714Y4214858D01*
X45974095Y4310096D01*
X45974095Y4405334D01*
X46021714Y4500572D01*
X46069333Y4548191D01*
X46164571Y4595810D01*
X46355047Y4643429D01*
X46450285Y4691048D01*
X46497904Y4738667D01*
X46545523Y4833905D01*
X46545523Y4929143D01*
X46497904Y5024381D01*
X46450285Y5072000D01*
X46355047Y5119620D01*
X46116952Y5119620D01*
X45974095Y5072000D01*
X45593142Y4167239D02*
X45450285Y4119620D01*
X45212190Y4119620D01*
X45116952Y4167239D01*
X45069333Y4214858D01*
X45021714Y4310096D01*
X45021714Y4405334D01*
X45069333Y4500572D01*
X45116952Y4548191D01*
X45212190Y4595810D01*
X45402666Y4643429D01*
X45497904Y4691048D01*
X45545523Y4738667D01*
X45593142Y4833905D01*
X45593142Y4929143D01*
X45545523Y5024381D01*
X45497904Y5072000D01*
X45402666Y5119620D01*
X45164571Y5119620D01*
X45021714Y5072000D01*
X43259809Y4214858D02*
X43307428Y4167239D01*
X43450285Y4119620D01*
X43545523Y4119620D01*
X43688380Y4167239D01*
X43783619Y4262477D01*
X43831238Y4357715D01*
X43878857Y4548191D01*
X43878857Y4691048D01*
X43831238Y4881524D01*
X43783619Y4976762D01*
X43688380Y5072000D01*
X43545523Y5119620D01*
X43450285Y5119620D01*
X43307428Y5072000D01*
X43259809Y5024381D01*
X42878857Y4405334D02*
X42402666Y4405334D01*
X42974095Y4119620D02*
X42640761Y5119620D01*
X42307428Y4119620D01*
X41402666Y4119620D02*
X41736000Y4595810D01*
X41974095Y4119620D02*
X41974095Y5119620D01*
X41593142Y5119620D01*
X41497904Y5072000D01*
X41450285Y5024381D01*
X41402666Y4929143D01*
X41402666Y4786286D01*
X41450285Y4691048D01*
X41497904Y4643429D01*
X41593142Y4595810D01*
X41974095Y4595810D01*
X40974095Y4119620D02*
X40974095Y5119620D01*
X40736000Y5119620D01*
X40593142Y5072000D01*
X40497904Y4976762D01*
X40450285Y4881524D01*
X40402666Y4691048D01*
X40402666Y4548191D01*
X40450285Y4357715D01*
X40497904Y4262477D01*
X40593142Y4167239D01*
X40736000Y4119620D01*
X40974095Y4119620D01*
D11*
X6350000Y61468000D02*
X6350000Y1016000D01*
D10*
X13239714Y2500286D02*
X13239714Y1833620D01*
X13477809Y2881239D02*
X13715904Y2166953D01*
X13096857Y2166953D01*
X12287333Y2833620D02*
X12477809Y2833620D01*
X12573047Y2786000D01*
X12620666Y2738381D01*
X12715904Y2595524D01*
X12763523Y2405048D01*
X12763523Y2024096D01*
X12715904Y1928858D01*
X12668285Y1881239D01*
X12573047Y1833620D01*
X12382571Y1833620D01*
X12287333Y1881239D01*
X12239714Y1928858D01*
X12192095Y2024096D01*
X12192095Y2262191D01*
X12239714Y2357429D01*
X12287333Y2405048D01*
X12382571Y2452667D01*
X12573047Y2452667D01*
X12668285Y2405048D01*
X12715904Y2357429D01*
X12763523Y2262191D01*
X13239714Y5040286D02*
X13239714Y4373620D01*
X13477809Y5421239D02*
X13715904Y4706953D01*
X13096857Y4706953D01*
X12287333Y5040286D02*
X12287333Y4373620D01*
X12525428Y5421239D02*
X12763523Y4706953D01*
X12144476Y4706953D01*
X13239714Y7580286D02*
X13239714Y6913620D01*
X13477809Y7961239D02*
X13715904Y7246953D01*
X13096857Y7246953D01*
X12763523Y7818381D02*
X12715904Y7866000D01*
X12620666Y7913620D01*
X12382571Y7913620D01*
X12287333Y7866000D01*
X12239714Y7818381D01*
X12192095Y7723143D01*
X12192095Y7627905D01*
X12239714Y7485048D01*
X12811142Y6913620D01*
X12192095Y6913620D01*
X13239714Y10120286D02*
X13239714Y9453620D01*
X13477809Y10501239D02*
X13715904Y9786953D01*
X13096857Y9786953D01*
X12525428Y10453620D02*
X12430190Y10453620D01*
X12334952Y10406000D01*
X12287333Y10358381D01*
X12239714Y10263143D01*
X12192095Y10072667D01*
X12192095Y9834572D01*
X12239714Y9644096D01*
X12287333Y9548858D01*
X12334952Y9501239D01*
X12430190Y9453620D01*
X12525428Y9453620D01*
X12620666Y9501239D01*
X12668285Y9548858D01*
X12715904Y9644096D01*
X12763523Y9834572D01*
X12763523Y10072667D01*
X12715904Y10263143D01*
X12668285Y10358381D01*
X12620666Y10406000D01*
X12525428Y10453620D01*
X13763523Y12993620D02*
X13144476Y12993620D01*
X13477809Y12612667D01*
X13334952Y12612667D01*
X13239714Y12565048D01*
X13192095Y12517429D01*
X13144476Y12422191D01*
X13144476Y12184096D01*
X13192095Y12088858D01*
X13239714Y12041239D01*
X13334952Y11993620D01*
X13620666Y11993620D01*
X13715904Y12041239D01*
X13763523Y12088858D01*
X12573047Y12565048D02*
X12668285Y12612667D01*
X12715904Y12660286D01*
X12763523Y12755524D01*
X12763523Y12803143D01*
X12715904Y12898381D01*
X12668285Y12946000D01*
X12573047Y12993620D01*
X12382571Y12993620D01*
X12287333Y12946000D01*
X12239714Y12898381D01*
X12192095Y12803143D01*
X12192095Y12755524D01*
X12239714Y12660286D01*
X12287333Y12612667D01*
X12382571Y12565048D01*
X12573047Y12565048D01*
X12668285Y12517429D01*
X12715904Y12469810D01*
X12763523Y12374572D01*
X12763523Y12184096D01*
X12715904Y12088858D01*
X12668285Y12041239D01*
X12573047Y11993620D01*
X12382571Y11993620D01*
X12287333Y12041239D01*
X12239714Y12088858D01*
X12192095Y12184096D01*
X12192095Y12374572D01*
X12239714Y12469810D01*
X12287333Y12517429D01*
X12382571Y12565048D01*
X13763523Y15533620D02*
X13144476Y15533620D01*
X13477809Y15152667D01*
X13334952Y15152667D01*
X13239714Y15105048D01*
X13192095Y15057429D01*
X13144476Y14962191D01*
X13144476Y14724096D01*
X13192095Y14628858D01*
X13239714Y14581239D01*
X13334952Y14533620D01*
X13620666Y14533620D01*
X13715904Y14581239D01*
X13763523Y14628858D01*
X12287333Y15533620D02*
X12477809Y15533620D01*
X12573047Y15486000D01*
X12620666Y15438381D01*
X12715904Y15295524D01*
X12763523Y15105048D01*
X12763523Y14724096D01*
X12715904Y14628858D01*
X12668285Y14581239D01*
X12573047Y14533620D01*
X12382571Y14533620D01*
X12287333Y14581239D01*
X12239714Y14628858D01*
X12192095Y14724096D01*
X12192095Y14962191D01*
X12239714Y15057429D01*
X12287333Y15105048D01*
X12382571Y15152667D01*
X12573047Y15152667D01*
X12668285Y15105048D01*
X12715904Y15057429D01*
X12763523Y14962191D01*
X13763523Y18073620D02*
X13144476Y18073620D01*
X13477809Y17692667D01*
X13334952Y17692667D01*
X13239714Y17645048D01*
X13192095Y17597429D01*
X13144476Y17502191D01*
X13144476Y17264096D01*
X13192095Y17168858D01*
X13239714Y17121239D01*
X13334952Y17073620D01*
X13620666Y17073620D01*
X13715904Y17121239D01*
X13763523Y17168858D01*
X12287333Y17740286D02*
X12287333Y17073620D01*
X12525428Y18121239D02*
X12763523Y17406953D01*
X12144476Y17406953D01*
X13763523Y20613620D02*
X13144476Y20613620D01*
X13477809Y20232667D01*
X13334952Y20232667D01*
X13239714Y20185048D01*
X13192095Y20137429D01*
X13144476Y20042191D01*
X13144476Y19804096D01*
X13192095Y19708858D01*
X13239714Y19661239D01*
X13334952Y19613620D01*
X13620666Y19613620D01*
X13715904Y19661239D01*
X13763523Y19708858D01*
X12763523Y20518381D02*
X12715904Y20566000D01*
X12620666Y20613620D01*
X12382571Y20613620D01*
X12287333Y20566000D01*
X12239714Y20518381D01*
X12192095Y20423143D01*
X12192095Y20327905D01*
X12239714Y20185048D01*
X12811142Y19613620D01*
X12192095Y19613620D01*
X13763523Y23153620D02*
X13144476Y23153620D01*
X13477809Y22772667D01*
X13334952Y22772667D01*
X13239714Y22725048D01*
X13192095Y22677429D01*
X13144476Y22582191D01*
X13144476Y22344096D01*
X13192095Y22248858D01*
X13239714Y22201239D01*
X13334952Y22153620D01*
X13620666Y22153620D01*
X13715904Y22201239D01*
X13763523Y22248858D01*
X12525428Y23153620D02*
X12430190Y23153620D01*
X12334952Y23106000D01*
X12287333Y23058381D01*
X12239714Y22963143D01*
X12192095Y22772667D01*
X12192095Y22534572D01*
X12239714Y22344096D01*
X12287333Y22248858D01*
X12334952Y22201239D01*
X12430190Y22153620D01*
X12525428Y22153620D01*
X12620666Y22201239D01*
X12668285Y22248858D01*
X12715904Y22344096D01*
X12763523Y22534572D01*
X12763523Y22772667D01*
X12715904Y22963143D01*
X12668285Y23058381D01*
X12620666Y23106000D01*
X12525428Y23153620D01*
X13715904Y25598381D02*
X13668285Y25646000D01*
X13573047Y25693620D01*
X13334952Y25693620D01*
X13239714Y25646000D01*
X13192095Y25598381D01*
X13144476Y25503143D01*
X13144476Y25407905D01*
X13192095Y25265048D01*
X13763523Y24693620D01*
X13144476Y24693620D01*
X12573047Y25265048D02*
X12668285Y25312667D01*
X12715904Y25360286D01*
X12763523Y25455524D01*
X12763523Y25503143D01*
X12715904Y25598381D01*
X12668285Y25646000D01*
X12573047Y25693620D01*
X12382571Y25693620D01*
X12287333Y25646000D01*
X12239714Y25598381D01*
X12192095Y25503143D01*
X12192095Y25455524D01*
X12239714Y25360286D01*
X12287333Y25312667D01*
X12382571Y25265048D01*
X12573047Y25265048D01*
X12668285Y25217429D01*
X12715904Y25169810D01*
X12763523Y25074572D01*
X12763523Y24884096D01*
X12715904Y24788858D01*
X12668285Y24741239D01*
X12573047Y24693620D01*
X12382571Y24693620D01*
X12287333Y24741239D01*
X12239714Y24788858D01*
X12192095Y24884096D01*
X12192095Y25074572D01*
X12239714Y25169810D01*
X12287333Y25217429D01*
X12382571Y25265048D01*
X13715904Y28138381D02*
X13668285Y28186000D01*
X13573047Y28233620D01*
X13334952Y28233620D01*
X13239714Y28186000D01*
X13192095Y28138381D01*
X13144476Y28043143D01*
X13144476Y27947905D01*
X13192095Y27805048D01*
X13763523Y27233620D01*
X13144476Y27233620D01*
X12287333Y28233620D02*
X12477809Y28233620D01*
X12573047Y28186000D01*
X12620666Y28138381D01*
X12715904Y27995524D01*
X12763523Y27805048D01*
X12763523Y27424096D01*
X12715904Y27328858D01*
X12668285Y27281239D01*
X12573047Y27233620D01*
X12382571Y27233620D01*
X12287333Y27281239D01*
X12239714Y27328858D01*
X12192095Y27424096D01*
X12192095Y27662191D01*
X12239714Y27757429D01*
X12287333Y27805048D01*
X12382571Y27852667D01*
X12573047Y27852667D01*
X12668285Y27805048D01*
X12715904Y27757429D01*
X12763523Y27662191D01*
X13715904Y30678381D02*
X13668285Y30726000D01*
X13573047Y30773620D01*
X13334952Y30773620D01*
X13239714Y30726000D01*
X13192095Y30678381D01*
X13144476Y30583143D01*
X13144476Y30487905D01*
X13192095Y30345048D01*
X13763523Y29773620D01*
X13144476Y29773620D01*
X12287333Y30440286D02*
X12287333Y29773620D01*
X12525428Y30821239D02*
X12763523Y30106953D01*
X12144476Y30106953D01*
X13715904Y33218381D02*
X13668285Y33266000D01*
X13573047Y33313620D01*
X13334952Y33313620D01*
X13239714Y33266000D01*
X13192095Y33218381D01*
X13144476Y33123143D01*
X13144476Y33027905D01*
X13192095Y32885048D01*
X13763523Y32313620D01*
X13144476Y32313620D01*
X12763523Y33218381D02*
X12715904Y33266000D01*
X12620666Y33313620D01*
X12382571Y33313620D01*
X12287333Y33266000D01*
X12239714Y33218381D01*
X12192095Y33123143D01*
X12192095Y33027905D01*
X12239714Y32885048D01*
X12811142Y32313620D01*
X12192095Y32313620D01*
X13715904Y35758381D02*
X13668285Y35806000D01*
X13573047Y35853620D01*
X13334952Y35853620D01*
X13239714Y35806000D01*
X13192095Y35758381D01*
X13144476Y35663143D01*
X13144476Y35567905D01*
X13192095Y35425048D01*
X13763523Y34853620D01*
X13144476Y34853620D01*
X12525428Y35853620D02*
X12430190Y35853620D01*
X12334952Y35806000D01*
X12287333Y35758381D01*
X12239714Y35663143D01*
X12192095Y35472667D01*
X12192095Y35234572D01*
X12239714Y35044096D01*
X12287333Y34948858D01*
X12334952Y34901239D01*
X12430190Y34853620D01*
X12525428Y34853620D01*
X12620666Y34901239D01*
X12668285Y34948858D01*
X12715904Y35044096D01*
X12763523Y35234572D01*
X12763523Y35472667D01*
X12715904Y35663143D01*
X12668285Y35758381D01*
X12620666Y35806000D01*
X12525428Y35853620D01*
X13144476Y37393620D02*
X13715904Y37393620D01*
X13430190Y37393620D02*
X13430190Y38393620D01*
X13525428Y38250762D01*
X13620666Y38155524D01*
X13715904Y38107905D01*
X12573047Y37965048D02*
X12668285Y38012667D01*
X12715904Y38060286D01*
X12763523Y38155524D01*
X12763523Y38203143D01*
X12715904Y38298381D01*
X12668285Y38346000D01*
X12573047Y38393620D01*
X12382571Y38393620D01*
X12287333Y38346000D01*
X12239714Y38298381D01*
X12192095Y38203143D01*
X12192095Y38155524D01*
X12239714Y38060286D01*
X12287333Y38012667D01*
X12382571Y37965048D01*
X12573047Y37965048D01*
X12668285Y37917429D01*
X12715904Y37869810D01*
X12763523Y37774572D01*
X12763523Y37584096D01*
X12715904Y37488858D01*
X12668285Y37441239D01*
X12573047Y37393620D01*
X12382571Y37393620D01*
X12287333Y37441239D01*
X12239714Y37488858D01*
X12192095Y37584096D01*
X12192095Y37774572D01*
X12239714Y37869810D01*
X12287333Y37917429D01*
X12382571Y37965048D01*
X14144476Y40219334D02*
X13668285Y40219334D01*
X14239714Y39933620D02*
X13906380Y40933620D01*
X13573047Y39933620D01*
X12715904Y39933620D02*
X13287333Y39933620D01*
X13001619Y39933620D02*
X13001619Y40933620D01*
X13096857Y40790762D01*
X13192095Y40695524D01*
X13287333Y40647905D01*
X11858761Y40600286D02*
X11858761Y39933620D01*
X12096857Y40981239D02*
X12334952Y40266953D01*
X11715904Y40266953D01*
X14144476Y42759334D02*
X13668285Y42759334D01*
X14239714Y42473620D02*
X13906380Y43473620D01*
X13573047Y42473620D01*
X12715904Y42473620D02*
X13287333Y42473620D01*
X13001619Y42473620D02*
X13001619Y43473620D01*
X13096857Y43330762D01*
X13192095Y43235524D01*
X13287333Y43187905D01*
X12334952Y43378381D02*
X12287333Y43426000D01*
X12192095Y43473620D01*
X11954000Y43473620D01*
X11858761Y43426000D01*
X11811142Y43378381D01*
X11763523Y43283143D01*
X11763523Y43187905D01*
X11811142Y43045048D01*
X12382571Y42473620D01*
X11763523Y42473620D01*
X14144476Y45299334D02*
X13668285Y45299334D01*
X14239714Y45013620D02*
X13906380Y46013620D01*
X13573047Y45013620D01*
X12715904Y45013620D02*
X13287333Y45013620D01*
X13001619Y45013620D02*
X13001619Y46013620D01*
X13096857Y45870762D01*
X13192095Y45775524D01*
X13287333Y45727905D01*
X12096857Y46013620D02*
X12001619Y46013620D01*
X11906380Y45966000D01*
X11858761Y45918381D01*
X11811142Y45823143D01*
X11763523Y45632667D01*
X11763523Y45394572D01*
X11811142Y45204096D01*
X11858761Y45108858D01*
X11906380Y45061239D01*
X12001619Y45013620D01*
X12096857Y45013620D01*
X12192095Y45061239D01*
X12239714Y45108858D01*
X12287333Y45204096D01*
X12334952Y45394572D01*
X12334952Y45632667D01*
X12287333Y45823143D01*
X12239714Y45918381D01*
X12192095Y45966000D01*
X12096857Y46013620D01*
X13668285Y47839334D02*
X13192095Y47839334D01*
X13763523Y47553620D02*
X13430190Y48553620D01*
X13096857Y47553620D01*
X12620666Y48125048D02*
X12715904Y48172667D01*
X12763523Y48220286D01*
X12811142Y48315524D01*
X12811142Y48363143D01*
X12763523Y48458381D01*
X12715904Y48506000D01*
X12620666Y48553620D01*
X12430190Y48553620D01*
X12334952Y48506000D01*
X12287333Y48458381D01*
X12239714Y48363143D01*
X12239714Y48315524D01*
X12287333Y48220286D01*
X12334952Y48172667D01*
X12430190Y48125048D01*
X12620666Y48125048D01*
X12715904Y48077429D01*
X12763523Y48029810D01*
X12811142Y47934572D01*
X12811142Y47744096D01*
X12763523Y47648858D01*
X12715904Y47601239D01*
X12620666Y47553620D01*
X12430190Y47553620D01*
X12334952Y47601239D01*
X12287333Y47648858D01*
X12239714Y47744096D01*
X12239714Y47934572D01*
X12287333Y48029810D01*
X12334952Y48077429D01*
X12430190Y48125048D01*
X13668285Y50379334D02*
X13192095Y50379334D01*
X13763523Y50093620D02*
X13430190Y51093620D01*
X13096857Y50093620D01*
X12334952Y51093620D02*
X12525428Y51093620D01*
X12620666Y51046000D01*
X12668285Y50998381D01*
X12763523Y50855524D01*
X12811142Y50665048D01*
X12811142Y50284096D01*
X12763523Y50188858D01*
X12715904Y50141239D01*
X12620666Y50093620D01*
X12430190Y50093620D01*
X12334952Y50141239D01*
X12287333Y50188858D01*
X12239714Y50284096D01*
X12239714Y50522191D01*
X12287333Y50617429D01*
X12334952Y50665048D01*
X12430190Y50712667D01*
X12620666Y50712667D01*
X12715904Y50665048D01*
X12763523Y50617429D01*
X12811142Y50522191D01*
X13668285Y52919334D02*
X13192095Y52919334D01*
X13763523Y52633620D02*
X13430190Y53633620D01*
X13096857Y52633620D01*
X12334952Y53300286D02*
X12334952Y52633620D01*
X12573047Y53681239D02*
X12811142Y52966953D01*
X12192095Y52966953D01*
X13668285Y55459334D02*
X13192095Y55459334D01*
X13763523Y55173620D02*
X13430190Y56173620D01*
X13096857Y55173620D01*
X12811142Y56078381D02*
X12763523Y56126000D01*
X12668285Y56173620D01*
X12430190Y56173620D01*
X12334952Y56126000D01*
X12287333Y56078381D01*
X12239714Y55983143D01*
X12239714Y55887905D01*
X12287333Y55745048D01*
X12858761Y55173620D01*
X12239714Y55173620D01*
X2730476Y61253620D02*
X3206666Y61253620D01*
X3254285Y60777429D01*
X3206666Y60825048D01*
X3111428Y60872667D01*
X2873333Y60872667D01*
X2778095Y60825048D01*
X2730476Y60777429D01*
X2682857Y60682191D01*
X2682857Y60444096D01*
X2730476Y60348858D01*
X2778095Y60301239D01*
X2873333Y60253620D01*
X3111428Y60253620D01*
X3206666Y60301239D01*
X3254285Y60348858D01*
X2397142Y61253620D02*
X2063809Y60253620D01*
X1730476Y61253620D01*
X5318095Y61206000D02*
X5413333Y61253620D01*
X5556190Y61253620D01*
X5699047Y61206000D01*
X5794285Y61110762D01*
X5841904Y61015524D01*
X5889523Y60825048D01*
X5889523Y60682191D01*
X5841904Y60491715D01*
X5794285Y60396477D01*
X5699047Y60301239D01*
X5556190Y60253620D01*
X5460952Y60253620D01*
X5318095Y60301239D01*
X5270476Y60348858D01*
X5270476Y60682191D01*
X5460952Y60682191D01*
X4841904Y60253620D02*
X4841904Y61253620D01*
X4603809Y61253620D01*
X4460952Y61206000D01*
X4365714Y61110762D01*
X4318095Y61015524D01*
X4270476Y60825048D01*
X4270476Y60682191D01*
X4318095Y60491715D01*
X4365714Y60396477D01*
X4460952Y60301239D01*
X4603809Y60253620D01*
X4841904Y60253620D01*
X8334285Y60539334D02*
X7858095Y60539334D01*
X8429523Y60253620D02*
X8096190Y61253620D01*
X7762857Y60253620D01*
X6905714Y60253620D02*
X7477142Y60253620D01*
X7191428Y60253620D02*
X7191428Y61253620D01*
X7286666Y61110762D01*
X7381904Y61015524D01*
X7477142Y60967905D01*
X13668285Y57999334D02*
X13192095Y57999334D01*
X13763523Y57713620D02*
X13430190Y58713620D01*
X13096857Y57713620D01*
X12573047Y58713620D02*
X12477809Y58713620D01*
X12382571Y58666000D01*
X12334952Y58618381D01*
X12287333Y58523143D01*
X12239714Y58332667D01*
X12239714Y58094572D01*
X12287333Y57904096D01*
X12334952Y57808858D01*
X12382571Y57761239D01*
X12477809Y57713620D01*
X12573047Y57713620D01*
X12668285Y57761239D01*
X12715904Y57808858D01*
X12763523Y57904096D01*
X12811142Y58094572D01*
X12811142Y58332667D01*
X12763523Y58523143D01*
X12715904Y58618381D01*
X12668285Y58666000D01*
X12573047Y58713620D01*
M02*
