M48
; DRILL file {KiCad (5.1.7)-1} date 11/14/23 09:03:11
; FORMAT={-:-/ absolute / metric / decimal}
; #@! TF.CreationDate,2023-11-14T09:03:11-07:00
; #@! TF.GenerationSoftware,Kicad,Pcbnew,(5.1.7)-1
; #@! TF.FileFunction,Plated,1,2,PTH
FMAT,2
METRIC
T1C1.000
T2C2.700
%
G90
G05
T1
X23.876Y26.416
X23.876Y23.876
X23.876Y21.336
X23.876Y18.796
X23.876Y16.256
X23.876Y13.716
X23.876Y11.176
X26.416Y26.416
X26.416Y23.876
X26.416Y21.336
X26.416Y18.796
X26.416Y16.256
X26.416Y13.716
X26.416Y11.176
X56.896Y49.276
X56.896Y46.736
X56.896Y44.196
X56.896Y41.656
X56.896Y39.116
X56.896Y36.576
X56.896Y34.036
X56.896Y31.496
X56.896Y28.956
X56.896Y26.416
X56.896Y23.876
X56.896Y21.336
X56.896Y18.796
X56.896Y16.256
X56.896Y13.716
X56.896Y11.176
X59.436Y49.276
X59.436Y46.736
X59.436Y44.196
X59.436Y41.656
X59.436Y39.116
X59.436Y36.576
X59.436Y34.036
X59.436Y31.496
X59.436Y28.956
X59.436Y26.416
X59.436Y23.876
X59.436Y21.336
X59.436Y18.796
X59.436Y16.256
X59.436Y13.716
X59.436Y11.176
X23.876Y61.976
X23.876Y59.436
X23.876Y56.896
X23.876Y54.356
X23.876Y51.816
X7.62Y58.166
X7.62Y55.626
X7.62Y53.086
X7.62Y50.546
X7.62Y48.006
X7.62Y45.466
X7.62Y42.926
X7.62Y40.386
X7.62Y37.846
X7.62Y35.306
X7.62Y32.766
X7.62Y30.226
X7.62Y27.686
X7.62Y25.146
X7.62Y22.606
X7.62Y20.066
X7.62Y17.526
X7.62Y14.986
X7.62Y12.446
X7.62Y9.906
X7.62Y7.366
X7.62Y4.826
X7.62Y2.286
X10.16Y58.166
X10.16Y55.626
X10.16Y53.086
X10.16Y50.546
X10.16Y48.006
X10.16Y45.466
X10.16Y42.926
X10.16Y40.386
X10.16Y37.846
X10.16Y35.306
X10.16Y32.766
X10.16Y30.226
X10.16Y27.686
X10.16Y25.146
X10.16Y22.606
X10.16Y20.066
X10.16Y17.526
X10.16Y14.986
X10.16Y12.446
X10.16Y9.906
X10.16Y7.366
X10.16Y4.826
X10.16Y2.286
X2.54Y58.166
X2.54Y55.626
X2.54Y53.086
X2.54Y50.546
X2.54Y48.006
X2.54Y45.466
X2.54Y42.926
X2.54Y40.386
X2.54Y37.846
X2.54Y35.306
X2.54Y32.766
X2.54Y30.226
X2.54Y27.686
X2.54Y25.146
X2.54Y22.606
X2.54Y20.066
X2.54Y17.526
X2.54Y14.986
X2.54Y12.446
X2.54Y9.906
X2.54Y7.366
X2.54Y4.826
X2.54Y2.286
X5.08Y58.166
X5.08Y55.626
X5.08Y53.086
X5.08Y50.546
X5.08Y48.006
X5.08Y45.466
X5.08Y42.926
X5.08Y40.386
X5.08Y37.846
X5.08Y35.306
X5.08Y32.766
X5.08Y30.226
X5.08Y27.686
X5.08Y25.146
X5.08Y22.606
X5.08Y20.066
X5.08Y17.526
X5.08Y14.986
X5.08Y12.446
X5.08Y9.906
X5.08Y7.366
X5.08Y4.826
X5.08Y2.286
T2
X51.816Y54.864
X64.262Y37.338
X19.05Y19.812
X51.816Y19.812
X19.05Y54.864
X19.05Y37.338
T0
M30
