M48
; DRILL file {KiCad (5.1.7)-1} date 01/17/22 02:10:12
; FORMAT={-:-/ absolute / metric / decimal}
; #@! TF.CreationDate,2022-01-17T02:10:12-07:00
; #@! TF.GenerationSoftware,Kicad,Pcbnew,(5.1.7)-1
; #@! TF.FileFunction,Plated,1,2,PTH
FMAT,2
METRIC
T1C1.000
T2C1.020
T3C1.300
T4C2.700
T5C8.130
%
G90
G05
T1
X64.008Y33.782
X17.018Y5.334
X22.098Y5.334
X28.702Y22.86
X31.242Y22.86
X33.782Y22.86
X36.322Y22.86
X38.862Y22.86
X41.402Y22.86
X44.958Y5.334
X47.498Y5.334
X50.038Y5.334
X64.008Y36.322
X64.008Y31.242
X64.008Y28.702
X64.008Y26.162
X64.008Y23.622
X64.008Y21.082
X64.008Y18.542
X64.008Y16.002
X64.008Y13.462
X19.558Y5.334
T2
X8.89Y43.688
X8.89Y26.162
X48.514Y43.688
X48.514Y26.162
T3
X3.81Y9.144
X8.89Y9.144
X16.002Y9.144
X21.082Y9.144
X26.162Y9.144
X31.242Y9.144
X36.322Y9.144
X41.402Y9.144
X46.482Y9.144
X51.562Y9.144
T4
X53.34Y24.638
X3.81Y24.638
T5
X22.352Y35.052
T0
M30
