solid IOSTB-Lift.24B7
facet normal 0.0 -1.0 0.0
  outer loop
    vertex 6.249999999999999 14.779999999999998 11.100000000000012
    vertex 0.0 14.779999999999998 9.600000000000012
    vertex 6.249999999999999 14.779999999999998 9.600000000000012
  endloop
endfacet
facet normal 0.0 -1.0 0.0
  outer loop
    vertex 0.0 14.779999999999998 9.600000000000012
    vertex 6.249999999999999 14.779999999999998 11.100000000000012
    vertex 0.0 14.779999999999998 11.100000000000012
  endloop
endfacet
facet normal 0.0 1.0 0.0
  outer loop
    vertex 6.249999999999999 7.999999999999999 9.600000000000012
    vertex 12.999999999999988 7.999999999999999 2.0918946359527563e-15
    vertex 6.249999999999999 7.999999999999999 2.0918946359527563e-15
  endloop
endfacet
facet normal 0.0 1.0 0.0
  outer loop
    vertex 12.999999999999988 7.999999999999999 2.0918946359527563e-15
    vertex 6.249999999999999 7.999999999999999 9.600000000000012
    vertex 12.999999999999988 7.999999999999999 9.600000000000012
  endloop
endfacet
facet normal 0.0 0.0 1.0
  outer loop
    vertex 12.999999999999988 7.999999999999999 9.600000000000012
    vertex 6.249999999999999 7.999999999999999 9.600000000000012
    vertex 12.999999999999988 7.0 9.600000000000012
  endloop
endfacet
facet normal 0.0 0.0 1.0
  outer loop
    vertex 0.0 14.779999999999998 9.600000000000012
    vertex 3.2000000000000006 12.585640646055102 9.600000000000012
    vertex 6.249999999999999 14.779999999999998 9.600000000000012
  endloop
endfacet
facet normal 0.0 0.0 1.0
  outer loop
    vertex 3.2000000000000006 12.585640646055102 9.600000000000012
    vertex 0.0 14.779999999999998 9.600000000000012
    vertex 2.8686291501015235 12.331370849898477 9.600000000000012
  endloop
endfacet
facet normal 0.0 0.0 1.0
  outer loop
    vertex 2.8686291501015235 12.331370849898477 9.600000000000012
    vertex 0.0 14.779999999999998 9.600000000000012
    vertex 2.614359353944898 12.0 9.600000000000012
  endloop
endfacet
facet normal 0.0 0.0 1.0
  outer loop
    vertex 2.614359353944898 12.0 9.600000000000012
    vertex 0.0 14.779999999999998 9.600000000000012
    vertex 2.4545186779374903 11.614110472164034 9.600000000000012
  endloop
endfacet
facet normal 0.0 0.0 1.0
  outer loop
    vertex 2.4545186779374903 11.614110472164034 9.600000000000012
    vertex 0.0 14.779999999999998 9.600000000000012
    vertex 2.3999999999999995 11.2 9.600000000000012
  endloop
endfacet
facet normal 0.0 0.0 1.0
  outer loop
    vertex 6.249999999999999 14.779999999999998 9.600000000000012
    vertex 3.2000000000000006 12.585640646055102 9.600000000000012
    vertex 3.5858895278359673 12.74548132206251 9.600000000000012
  endloop
endfacet
facet normal 0.0 0.0 1.0
  outer loop
    vertex 6.249999999999999 14.779999999999998 9.600000000000012
    vertex 3.5858895278359673 12.74548132206251 9.600000000000012
    vertex 3.9999999999999996 12.799999999999999 9.600000000000012
  endloop
endfacet
facet normal 0.0 0.0 1.0
  outer loop
    vertex 6.249999999999999 14.779999999999998 9.600000000000012
    vertex 3.9999999999999996 12.799999999999999 9.600000000000012
    vertex 4.414110472164034 12.74548132206251 9.600000000000012
  endloop
endfacet
facet normal 0.0 0.0 1.0
  outer loop
    vertex 6.249999999999999 14.779999999999998 9.600000000000012
    vertex 4.414110472164034 12.74548132206251 9.600000000000012
    vertex 4.800000000000001 12.5856406460551 9.600000000000012
  endloop
endfacet
facet normal 0.0 0.0 1.0
  outer loop
    vertex 6.249999999999999 14.779999999999998 9.600000000000012
    vertex 4.800000000000001 12.5856406460551 9.600000000000012
    vertex 5.1313708498984765 12.331370849898475 9.600000000000012
  endloop
endfacet
facet normal 0.0 0.0 1.0
  outer loop
    vertex 6.249999999999999 14.779999999999998 9.600000000000012
    vertex 5.1313708498984765 12.331370849898475 9.600000000000012
    vertex 5.385640646055102 12.0 9.600000000000012
  endloop
endfacet
facet normal 0.0 0.0 1.0
  outer loop
    vertex 6.249999999999999 14.779999999999998 9.600000000000012
    vertex 5.385640646055102 12.0 9.600000000000012
    vertex 5.54548132206251 11.61411047216403 9.600000000000012
  endloop
endfacet
facet normal 0.0 0.0 1.0
  outer loop
    vertex 6.249999999999999 14.779999999999998 9.600000000000012
    vertex 5.54548132206251 11.61411047216403 9.600000000000012
    vertex 5.6 11.2 9.600000000000012
  endloop
endfacet
facet normal 0.0 0.0 1.0
  outer loop
    vertex 6.249999999999999 14.779999999999998 9.600000000000012
    vertex 5.6 11.2 9.600000000000012
    vertex 6.249999999999999 7.999999999999999 9.600000000000012
  endloop
endfacet
facet normal 0.0 0.0 1.0
  outer loop
    vertex 0.0 6.0 9.600000000000012
    vertex 2.6143593539448973 10.399999999999999 9.600000000000012
    vertex 0.0 14.779999999999998 9.600000000000012
  endloop
endfacet
facet normal 0.0 0.0 1.0
  outer loop
    vertex 2.6143593539448973 10.399999999999999 9.600000000000012
    vertex 0.0 6.0 9.600000000000012
    vertex 2.8686291501015235 10.068629150101522 9.600000000000012
  endloop
endfacet
facet normal 0.0 0.0 1.0
  outer loop
    vertex 2.8686291501015235 10.068629150101522 9.600000000000012
    vertex 0.0 6.0 9.600000000000012
    vertex 3.1999999999999997 9.814359353944898 9.600000000000012
  endloop
endfacet
facet normal 0.0 0.0 1.0
  outer loop
    vertex 3.1999999999999997 9.814359353944898 9.600000000000012
    vertex 0.0 6.0 9.600000000000012
    vertex 6.249999999999999 7.999999999999999 9.600000000000012
  endloop
endfacet
facet normal 0.0 0.0 1.0
  outer loop
    vertex 6.249999999999999 7.999999999999999 9.600000000000012
    vertex 0.0 6.0 9.600000000000012
    vertex 12.999999999999988 7.0 9.600000000000012
  endloop
endfacet
facet normal 0.0 0.0 1.0
  outer loop
    vertex 12.999999999999988 7.0 9.600000000000012
    vertex 0.0 6.0 9.600000000000012
    vertex 57.49999999999999 6.0 9.600000000000012
  endloop
endfacet
facet normal 0.0 0.0 1.0
  outer loop
    vertex 0.0 14.779999999999998 9.600000000000012
    vertex 2.6143593539448973 10.399999999999999 9.600000000000012
    vertex 2.4545186779374903 10.785889527835966 9.600000000000012
  endloop
endfacet
facet normal 0.0 0.0 1.0
  outer loop
    vertex 0.0 14.779999999999998 9.600000000000012
    vertex 2.4545186779374903 10.785889527835966 9.600000000000012
    vertex 2.3999999999999995 11.2 9.600000000000012
  endloop
endfacet
facet normal 0.0 0.0 1.0
  outer loop
    vertex 3.1999999999999997 9.814359353944898 9.600000000000012
    vertex 6.249999999999999 7.999999999999999 9.600000000000012
    vertex 3.5858895278359664 9.65451867793749 9.600000000000012
  endloop
endfacet
facet normal 0.0 0.0 1.0
  outer loop
    vertex 3.5858895278359664 9.65451867793749 9.600000000000012
    vertex 6.249999999999999 7.999999999999999 9.600000000000012
    vertex 3.9999999999999996 9.6 9.600000000000012
  endloop
endfacet
facet normal 0.0 0.0 1.0
  outer loop
    vertex 3.9999999999999996 9.6 9.600000000000012
    vertex 6.249999999999999 7.999999999999999 9.600000000000012
    vertex 4.414110472164033 9.654518677937489 9.600000000000012
  endloop
endfacet
facet normal 0.0 0.0 1.0
  outer loop
    vertex 4.414110472164033 9.654518677937489 9.600000000000012
    vertex 6.249999999999999 7.999999999999999 9.600000000000012
    vertex 4.8 9.814359353944898 9.600000000000012
  endloop
endfacet
facet normal 0.0 0.0 1.0
  outer loop
    vertex 4.8 9.814359353944898 9.600000000000012
    vertex 6.249999999999999 7.999999999999999 9.600000000000012
    vertex 5.131370849898476 10.068629150101522 9.600000000000012
  endloop
endfacet
facet normal 0.0 0.0 1.0
  outer loop
    vertex 5.131370849898476 10.068629150101522 9.600000000000012
    vertex 6.249999999999999 7.999999999999999 9.600000000000012
    vertex 5.385640646055101 10.399999999999999 9.600000000000012
  endloop
endfacet
facet normal 0.0 0.0 1.0
  outer loop
    vertex 5.385640646055101 10.399999999999999 9.600000000000012
    vertex 6.249999999999999 7.999999999999999 9.600000000000012
    vertex 5.54548132206251 10.785889527835966 9.600000000000012
  endloop
endfacet
facet normal 0.0 0.0 1.0
  outer loop
    vertex 5.54548132206251 10.785889527835966 9.600000000000012
    vertex 6.249999999999999 7.999999999999999 9.600000000000012
    vertex 5.6 11.2 9.600000000000012
  endloop
endfacet
facet normal 0.0 0.0 1.0
  outer loop
    vertex 12.999999999999988 7.0 9.600000000000012
    vertex 57.49999999999999 6.0 9.600000000000012
    vertex 31.5 7.0 9.600000000000012
  endloop
endfacet
facet normal 0.0 0.0 1.0
  outer loop
    vertex 31.5 7.0 9.600000000000012
    vertex 57.49999999999999 6.0 9.600000000000012
    vertex 31.5 7.999999999999999 9.600000000000012
  endloop
endfacet
facet normal 0.0 0.0 1.0
  outer loop
    vertex 31.5 7.999999999999999 9.600000000000012
    vertex 57.49999999999999 6.0 9.600000000000012
    vertex 51.24999999999999 7.999999999999999 9.600000000000012
  endloop
endfacet
facet normal 0.0 0.0 1.0
  outer loop
    vertex 51.24999999999999 7.999999999999999 9.600000000000012
    vertex 57.49999999999999 6.0 9.600000000000012
    vertex 52.36862915010152 10.068629150101527 9.600000000000012
  endloop
endfacet
facet normal 0.0 0.0 1.0
  outer loop
    vertex 51.24999999999999 7.999999999999999 9.600000000000012
    vertex 52.36862915010152 10.068629150101527 9.600000000000012
    vertex 52.1143593539449 10.4 9.600000000000012
  endloop
endfacet
facet normal 0.0 0.0 1.0
  outer loop
    vertex 51.24999999999999 7.999999999999999 9.600000000000012
    vertex 52.1143593539449 10.4 9.600000000000012
    vertex 51.95451867793749 10.785889527835968 9.600000000000012
  endloop
endfacet
facet normal 0.0 0.0 1.0
  outer loop
    vertex 51.24999999999999 7.999999999999999 9.600000000000012
    vertex 51.95451867793749 10.785889527835968 9.600000000000012
    vertex 51.24999999999999 14.779999999999994 9.600000000000012
  endloop
endfacet
facet normal 0.0 0.0 1.0
  outer loop
    vertex 51.24999999999999 14.779999999999994 9.600000000000012
    vertex 51.95451867793749 10.785889527835968 9.600000000000012
    vertex 51.9 11.2 9.600000000000012
  endloop
endfacet
facet normal 0.0 0.0 1.0
  outer loop
    vertex 52.36862915010152 10.068629150101527 9.600000000000012
    vertex 57.49999999999999 6.0 9.600000000000012
    vertex 52.699999999999996 9.8143593539449 9.600000000000012
  endloop
endfacet
facet normal 0.0 0.0 1.0
  outer loop
    vertex 52.699999999999996 9.8143593539449 9.600000000000012
    vertex 57.49999999999999 6.0 9.600000000000012
    vertex 53.08588952783596 9.654518677937494 9.600000000000012
  endloop
endfacet
facet normal 0.0 0.0 1.0
  outer loop
    vertex 53.08588952783596 9.654518677937494 9.600000000000012
    vertex 57.49999999999999 6.0 9.600000000000012
    vertex 53.49999999999999 9.600000000000001 9.600000000000012
  endloop
endfacet
facet normal 0.0 0.0 1.0
  outer loop
    vertex 53.49999999999999 9.600000000000001 9.600000000000012
    vertex 57.49999999999999 6.0 9.600000000000012
    vertex 53.914110472164026 9.654518677937492 9.600000000000012
  endloop
endfacet
facet normal 0.0 0.0 1.0
  outer loop
    vertex 53.914110472164026 9.654518677937492 9.600000000000012
    vertex 57.49999999999999 6.0 9.600000000000012
    vertex 54.29999999999999 9.8143593539449 9.600000000000012
  endloop
endfacet
facet normal 0.0 0.0 1.0
  outer loop
    vertex 54.29999999999999 9.8143593539449 9.600000000000012
    vertex 57.49999999999999 6.0 9.600000000000012
    vertex 54.63137084989846 10.068629150101525 9.600000000000012
  endloop
endfacet
facet normal 0.0 0.0 1.0
  outer loop
    vertex 54.63137084989846 10.068629150101525 9.600000000000012
    vertex 57.49999999999999 6.0 9.600000000000012
    vertex 54.88564064605509 10.4 9.600000000000012
  endloop
endfacet
facet normal 0.0 0.0 1.0
  outer loop
    vertex 54.88564064605509 10.4 9.600000000000012
    vertex 57.49999999999999 6.0 9.600000000000012
    vertex 55.04548132206249 10.785889527835966 9.600000000000012
  endloop
endfacet
facet normal 0.0 0.0 1.0
  outer loop
    vertex 55.04548132206249 10.785889527835966 9.600000000000012
    vertex 57.49999999999999 6.0 9.600000000000012
    vertex 55.09999999999999 11.2 9.600000000000012
  endloop
endfacet
facet normal 0.0 0.0 1.0
  outer loop
    vertex 51.24999999999999 14.779999999999994 9.600000000000012
    vertex 52.699999999999996 12.585640646055097 9.600000000000012
    vertex 57.49999999999999 14.779999999999994 9.600000000000012
  endloop
endfacet
facet normal 0.0 0.0 1.0
  outer loop
    vertex 52.699999999999996 12.585640646055097 9.600000000000012
    vertex 51.24999999999999 14.779999999999994 9.600000000000012
    vertex 52.36862915010152 12.331370849898473 9.600000000000012
  endloop
endfacet
facet normal 0.0 0.0 1.0
  outer loop
    vertex 52.36862915010152 12.331370849898473 9.600000000000012
    vertex 51.24999999999999 14.779999999999994 9.600000000000012
    vertex 52.1143593539449 11.999999999999998 9.600000000000012
  endloop
endfacet
facet normal 0.0 0.0 1.0
  outer loop
    vertex 52.1143593539449 11.999999999999998 9.600000000000012
    vertex 51.24999999999999 14.779999999999994 9.600000000000012
    vertex 51.95451867793749 11.614110472164032 9.600000000000012
  endloop
endfacet
facet normal 0.0 0.0 1.0
  outer loop
    vertex 51.95451867793749 11.614110472164032 9.600000000000012
    vertex 51.24999999999999 14.779999999999994 9.600000000000012
    vertex 51.9 11.2 9.600000000000012
  endloop
endfacet
facet normal 0.0 0.0 1.0
  outer loop
    vertex 57.49999999999999 14.779999999999994 9.600000000000012
    vertex 52.699999999999996 12.585640646055097 9.600000000000012
    vertex 53.08588952783596 12.745481322062506 9.600000000000012
  endloop
endfacet
facet normal 0.0 0.0 1.0
  outer loop
    vertex 57.49999999999999 14.779999999999994 9.600000000000012
    vertex 53.08588952783596 12.745481322062506 9.600000000000012
    vertex 53.49999999999999 12.799999999999997 9.600000000000012
  endloop
endfacet
facet normal 0.0 0.0 1.0
  outer loop
    vertex 57.49999999999999 14.779999999999994 9.600000000000012
    vertex 53.49999999999999 12.799999999999997 9.600000000000012
    vertex 53.914110472164026 12.745481322062506 9.600000000000012
  endloop
endfacet
facet normal 0.0 0.0 1.0
  outer loop
    vertex 57.49999999999999 14.779999999999994 9.600000000000012
    vertex 53.914110472164026 12.745481322062506 9.600000000000012
    vertex 54.29999999999999 12.585640646055097 9.600000000000012
  endloop
endfacet
facet normal 0.0 0.0 1.0
  outer loop
    vertex 57.49999999999999 14.779999999999994 9.600000000000012
    vertex 54.29999999999999 12.585640646055097 9.600000000000012
    vertex 54.63137084989846 12.331370849898473 9.600000000000012
  endloop
endfacet
facet normal 0.0 0.0 1.0
  outer loop
    vertex 57.49999999999999 14.779999999999994 9.600000000000012
    vertex 54.63137084989846 12.331370849898473 9.600000000000012
    vertex 54.88564064605509 11.999999999999998 9.600000000000012
  endloop
endfacet
facet normal 0.0 0.0 1.0
  outer loop
    vertex 57.49999999999999 14.779999999999994 9.600000000000012
    vertex 54.88564064605509 11.999999999999998 9.600000000000012
    vertex 55.04548132206249 11.61411047216403 9.600000000000012
  endloop
endfacet
facet normal 0.0 0.0 1.0
  outer loop
    vertex 57.49999999999999 14.779999999999994 9.600000000000012
    vertex 55.04548132206249 11.61411047216403 9.600000000000012
    vertex 55.09999999999999 11.2 9.600000000000012
  endloop
endfacet
facet normal 0.0 0.0 1.0
  outer loop
    vertex 57.49999999999999 14.779999999999994 9.600000000000012
    vertex 55.09999999999999 11.2 9.600000000000012
    vertex 57.49999999999999 6.0 9.600000000000012
  endloop
endfacet
facet normal 0.0 -1.0 0.0
  outer loop
    vertex 57.49999999999999 0.0 9.600000000000001
    vertex 0.0 0.0 2.0918946359527563e-15
    vertex 57.49999999999999 0.0 2.0918946359527563e-15
  endloop
endfacet
facet normal 0.0 -1.0 0.0
  outer loop
    vertex 0.0 0.0 2.0918946359527563e-15
    vertex 57.49999999999999 0.0 9.600000000000001
    vertex 0.0 0.0 9.600000000000001
  endloop
endfacet
facet normal 0.0 0.0 1.0
  outer loop
    vertex 57.49999999999999 0.0 9.600000000000001
    vertex 0.0 1.9999999999999998 9.600000000000001
    vertex 0.0 0.0 9.600000000000001
  endloop
endfacet
facet normal 0.0 0.0 1.0
  outer loop
    vertex 0.0 1.9999999999999998 9.600000000000001
    vertex 57.49999999999999 0.0 9.600000000000001
    vertex 57.49999999999999 1.9999999999999998 9.600000000000001
  endloop
endfacet
facet normal 0.0 1.0 0.0
  outer loop
    vertex 0.0 1.9999999999999998 9.600000000000001
    vertex 57.49999999999999 1.9999999999999998 5.600000000000001
    vertex 0.0 1.9999999999999998 5.600000000000001
  endloop
endfacet
facet normal 0.0 1.0 0.0
  outer loop
    vertex 57.49999999999999 1.9999999999999998 5.600000000000001
    vertex 0.0 1.9999999999999998 9.600000000000001
    vertex 57.49999999999999 1.9999999999999998 9.600000000000001
  endloop
endfacet
facet normal 1.0 0.0 0.0
  outer loop
    vertex 12.999999999999988 7.999999999999999 2.0918946359527563e-15
    vertex 12.999999999999988 7.0 9.600000000000012
    vertex 12.999999999999988 7.0 2.0918946359527563e-15
  endloop
endfacet
facet normal 1.0 0.0 0.0
  outer loop
    vertex 12.999999999999988 7.0 9.600000000000012
    vertex 12.999999999999988 7.999999999999999 2.0918946359527563e-15
    vertex 12.999999999999988 7.999999999999999 9.600000000000012
  endloop
endfacet
facet normal 0.0 1.0 0.0
  outer loop
    vertex 12.999999999999988 7.0 9.600000000000012
    vertex 31.5 7.0 2.0918946359527563e-15
    vertex 12.999999999999988 7.0 2.0918946359527563e-15
  endloop
endfacet
facet normal 0.0 1.0 0.0
  outer loop
    vertex 31.5 7.0 2.0918946359527563e-15
    vertex 12.999999999999988 7.0 9.600000000000012
    vertex 31.5 7.0 9.600000000000012
  endloop
endfacet
facet normal -1.0 0.0 0.0
  outer loop
    vertex 31.5 7.999999999999999 9.600000000000012
    vertex 31.5 7.0 2.0918946359527563e-15
    vertex 31.5 7.0 9.600000000000012
  endloop
endfacet
facet normal -1.0 0.0 0.0
  outer loop
    vertex 31.5 7.0 2.0918946359527563e-15
    vertex 31.5 7.999999999999999 9.600000000000012
    vertex 31.5 7.999999999999999 2.0918946359527563e-15
  endloop
endfacet
facet normal 0.0 -1.0 0.0
  outer loop
    vertex 57.49999999999999 6.0 9.600000000000012
    vertex 0.0 6.0 5.600000000000001
    vertex 57.49999999999999 6.0 5.600000000000001
  endloop
endfacet
facet normal 0.0 -1.0 0.0
  outer loop
    vertex 0.0 6.0 5.600000000000001
    vertex 57.49999999999999 6.0 9.600000000000012
    vertex 0.0 6.0 9.600000000000012
  endloop
endfacet
facet normal 0.0 0.0 1.0
  outer loop
    vertex 57.49999999999999 1.9999999999999998 5.600000000000001
    vertex 0.0 6.0 5.600000000000001
    vertex 0.0 1.9999999999999998 5.600000000000001
  endloop
endfacet
facet normal 0.0 0.0 1.0
  outer loop
    vertex 0.0 6.0 5.600000000000001
    vertex 57.49999999999999 1.9999999999999998 5.600000000000001
    vertex 57.49999999999999 6.0 5.600000000000001
  endloop
endfacet
facet normal -0.38268343236508956 0.9238795325112867 0.0
  outer loop
    vertex 53.914110472164026 9.654518677937492 9.600000000000012
    vertex 54.29999999999999 9.8143593539449 2.0918946359527563e-15
    vertex 53.914110472164026 9.654518677937492 2.0918946359527563e-15
  endloop
endfacet
facet normal -0.38268343236508956 0.9238795325112867 0.0
  outer loop
    vertex 54.29999999999999 9.8143593539449 2.0918946359527563e-15
    vertex 53.914110472164026 9.654518677937492 9.600000000000012
    vertex 54.29999999999999 9.8143593539449 9.600000000000012
  endloop
endfacet
facet normal -0.13052619222004952 0.9914448613738108 0.0
  outer loop
    vertex 53.49999999999999 9.600000000000001 9.600000000000012
    vertex 53.914110472164026 9.654518677937492 2.0918946359527563e-15
    vertex 53.49999999999999 9.600000000000001 2.0918946359527563e-15
  endloop
endfacet
facet normal -0.13052619222004952 0.9914448613738108 0.0
  outer loop
    vertex 53.914110472164026 9.654518677937492 2.0918946359527563e-15
    vertex 53.49999999999999 9.600000000000001 9.600000000000012
    vertex 53.914110472164026 9.654518677937492 9.600000000000012
  endloop
endfacet
facet normal -0.7933533402912344 -0.6087614290087217 -0.0
  outer loop
    vertex 54.63137084989846 12.331370849898473 9.600000000000012
    vertex 54.88564064605509 11.999999999999998 2.0918946359527563e-15
    vertex 54.88564064605509 11.999999999999998 9.600000000000012
  endloop
endfacet
facet normal -0.7933533402912344 -0.6087614290087217 -0.0
  outer loop
    vertex 54.88564064605509 11.999999999999998 2.0918946359527563e-15
    vertex 54.63137084989846 12.331370849898473 9.600000000000012
    vertex 54.63137084989846 12.331370849898473 2.0918946359527563e-15
  endloop
endfacet
facet normal -0.9238795325112881 -0.3826834323650867 -0.0
  outer loop
    vertex 54.88564064605509 11.999999999999998 9.600000000000012
    vertex 55.04548132206249 11.61411047216403 2.0918946359527563e-15
    vertex 55.04548132206249 11.61411047216403 9.600000000000012
  endloop
endfacet
facet normal -0.9238795325112881 -0.3826834323650867 -0.0
  outer loop
    vertex 55.04548132206249 11.61411047216403 2.0918946359527563e-15
    vertex 54.88564064605509 11.999999999999998 9.600000000000012
    vertex 54.88564064605509 11.999999999999998 2.0918946359527563e-15
  endloop
endfacet
facet normal -0.7933533402912344 0.6087614290087217 0.0
  outer loop
    vertex 54.88564064605509 10.4 9.600000000000012
    vertex 54.63137084989846 10.068629150101525 2.0918946359527563e-15
    vertex 54.63137084989846 10.068629150101525 9.600000000000012
  endloop
endfacet
facet normal -0.7933533402912344 0.6087614290087217 0.0
  outer loop
    vertex 54.63137084989846 10.068629150101525 2.0918946359527563e-15
    vertex 54.88564064605509 10.4 9.600000000000012
    vertex 54.88564064605509 10.4 2.0918946359527563e-15
  endloop
endfacet
facet normal 0.13052619222005282 0.9914448613738104 0.0
  outer loop
    vertex 53.08588952783596 9.654518677937494 9.600000000000012
    vertex 53.49999999999999 9.600000000000001 2.0918946359527563e-15
    vertex 53.08588952783596 9.654518677937494 2.0918946359527563e-15
  endloop
endfacet
facet normal 0.13052619222005282 0.9914448613738104 0.0
  outer loop
    vertex 53.49999999999999 9.600000000000001 2.0918946359527563e-15
    vertex 53.08588952783596 9.654518677937494 9.600000000000012
    vertex 53.49999999999999 9.600000000000001 9.600000000000012
  endloop
endfacet
facet normal 0.38268343236508956 0.9238795325112867 0.0
  outer loop
    vertex 52.699999999999996 9.8143593539449 9.600000000000012
    vertex 53.08588952783596 9.654518677937494 2.0918946359527563e-15
    vertex 52.699999999999996 9.8143593539449 2.0918946359527563e-15
  endloop
endfacet
facet normal 0.38268343236508956 0.9238795325112867 0.0
  outer loop
    vertex 53.08588952783596 9.654518677937494 2.0918946359527563e-15
    vertex 52.699999999999996 9.8143593539449 9.600000000000012
    vertex 53.08588952783596 9.654518677937494 9.600000000000012
  endloop
endfacet
facet normal 0.6087614290087265 0.7933533402912306 0.0
  outer loop
    vertex 52.36862915010152 10.068629150101527 9.600000000000012
    vertex 52.699999999999996 9.8143593539449 2.0918946359527563e-15
    vertex 52.36862915010152 10.068629150101527 2.0918946359527563e-15
  endloop
endfacet
facet normal 0.6087614290087265 0.7933533402912306 0.0
  outer loop
    vertex 52.699999999999996 9.8143593539449 2.0918946359527563e-15
    vertex 52.36862915010152 10.068629150101527 9.600000000000012
    vertex 52.699999999999996 9.8143593539449 9.600000000000012
  endloop
endfacet
facet normal -0.991444861373809 0.13052619222006231 0.0
  outer loop
    vertex 55.09999999999999 11.2 9.600000000000012
    vertex 55.04548132206249 10.785889527835966 2.0918946359527563e-15
    vertex 55.04548132206249 10.785889527835966 9.600000000000012
  endloop
endfacet
facet normal -0.991444861373809 0.13052619222006231 0.0
  outer loop
    vertex 55.04548132206249 10.785889527835966 2.0918946359527563e-15
    vertex 55.09999999999999 11.2 9.600000000000012
    vertex 55.09999999999999 11.2 2.0918946359527563e-15
  endloop
endfacet
facet normal -0.9238795325112875 0.38268343236508784 0.0
  outer loop
    vertex 55.04548132206249 10.785889527835966 9.600000000000012
    vertex 54.88564064605509 10.4 2.0918946359527563e-15
    vertex 54.88564064605509 10.4 9.600000000000012
  endloop
endfacet
facet normal -0.9238795325112875 0.38268343236508784 0.0
  outer loop
    vertex 54.88564064605509 10.4 2.0918946359527563e-15
    vertex 55.04548132206249 10.785889527835966 9.600000000000012
    vertex 55.04548132206249 10.785889527835966 2.0918946359527563e-15
  endloop
endfacet
facet normal -0.991444861373809 -0.1305261922200628 -0.0
  outer loop
    vertex 55.04548132206249 11.61411047216403 9.600000000000012
    vertex 55.09999999999999 11.2 2.0918946359527563e-15
    vertex 55.09999999999999 11.2 9.600000000000012
  endloop
endfacet
facet normal -0.991444861373809 -0.1305261922200628 -0.0
  outer loop
    vertex 55.09999999999999 11.2 2.0918946359527563e-15
    vertex 55.04548132206249 11.61411047216403 9.600000000000012
    vertex 55.04548132206249 11.61411047216403 2.0918946359527563e-15
  endloop
endfacet
facet normal -0.6087614290087265 0.7933533402912306 0.0
  outer loop
    vertex 54.29999999999999 9.8143593539449 9.600000000000012
    vertex 54.63137084989846 10.068629150101525 2.0918946359527563e-15
    vertex 54.29999999999999 9.8143593539449 2.0918946359527563e-15
  endloop
endfacet
facet normal -0.6087614290087265 0.7933533402912306 0.0
  outer loop
    vertex 54.63137084989846 10.068629150101525 2.0918946359527563e-15
    vertex 54.29999999999999 9.8143593539449 9.600000000000012
    vertex 54.63137084989846 10.068629150101525 9.600000000000012
  endloop
endfacet
facet normal 0.7933533402912333 0.6087614290087233 0.0
  outer loop
    vertex 52.1143593539449 10.4 2.0918946359527563e-15
    vertex 52.36862915010152 10.068629150101527 9.600000000000012
    vertex 52.36862915010152 10.068629150101527 2.0918946359527563e-15
  endloop
endfacet
facet normal 0.7933533402912333 0.6087614290087233 0.0
  outer loop
    vertex 52.36862915010152 10.068629150101527 9.600000000000012
    vertex 52.1143593539449 10.4 2.0918946359527563e-15
    vertex 52.1143593539449 10.4 9.600000000000012
  endloop
endfacet
facet normal 0.991444861373809 -0.13052619222006231 0.0
  outer loop
    vertex 51.95451867793749 11.614110472164032 2.0918946359527563e-15
    vertex 51.9 11.2 9.600000000000012
    vertex 51.9 11.2 2.0918946359527563e-15
  endloop
endfacet
facet normal 0.991444861373809 -0.13052619222006231 0.0
  outer loop
    vertex 51.9 11.2 9.600000000000012
    vertex 51.95451867793749 11.614110472164032 2.0918946359527563e-15
    vertex 51.95451867793749 11.614110472164032 9.600000000000012
  endloop
endfacet
facet normal 0.9238795325112875 -0.38268343236508784 0.0
  outer loop
    vertex 52.1143593539449 11.999999999999998 2.0918946359527563e-15
    vertex 51.95451867793749 11.614110472164032 9.600000000000012
    vertex 51.95451867793749 11.614110472164032 2.0918946359527563e-15
  endloop
endfacet
facet normal 0.9238795325112875 -0.38268343236508784 0.0
  outer loop
    vertex 51.95451867793749 11.614110472164032 9.600000000000012
    vertex 52.1143593539449 11.999999999999998 2.0918946359527563e-15
    vertex 52.1143593539449 11.999999999999998 9.600000000000012
  endloop
endfacet
facet normal 0.9238795325112881 0.3826834323650867 0.0
  outer loop
    vertex 51.95451867793749 10.785889527835968 2.0918946359527563e-15
    vertex 52.1143593539449 10.4 9.600000000000012
    vertex 52.1143593539449 10.4 2.0918946359527563e-15
  endloop
endfacet
facet normal 0.9238795325112881 0.3826834323650867 0.0
  outer loop
    vertex 52.1143593539449 10.4 9.600000000000012
    vertex 51.95451867793749 10.785889527835968 2.0918946359527563e-15
    vertex 51.95451867793749 10.785889527835968 9.600000000000012
  endloop
endfacet
facet normal 0.13052619222004952 -0.9914448613738108 0.0
  outer loop
    vertex 53.49999999999999 12.799999999999997 9.600000000000012
    vertex 53.08588952783596 12.745481322062506 2.0918946359527563e-15
    vertex 53.49999999999999 12.799999999999997 2.0918946359527563e-15
  endloop
endfacet
facet normal 0.13052619222004952 -0.9914448613738108 0.0
  outer loop
    vertex 53.08588952783596 12.745481322062506 2.0918946359527563e-15
    vertex 53.49999999999999 12.799999999999997 9.600000000000012
    vertex 53.08588952783596 12.745481322062506 9.600000000000012
  endloop
endfacet
facet normal -0.38268343236509245 -0.9238795325112856 -0.0
  outer loop
    vertex 54.29999999999999 12.585640646055097 9.600000000000012
    vertex 53.914110472164026 12.745481322062506 2.0918946359527563e-15
    vertex 54.29999999999999 12.585640646055097 2.0918946359527563e-15
  endloop
endfacet
facet normal -0.38268343236509245 -0.9238795325112856 -0.0
  outer loop
    vertex 53.914110472164026 12.745481322062506 2.0918946359527563e-15
    vertex 54.29999999999999 12.585640646055097 9.600000000000012
    vertex 53.914110472164026 12.745481322062506 9.600000000000012
  endloop
endfacet
facet normal 0.7933533402912344 -0.6087614290087217 0.0
  outer loop
    vertex 52.36862915010152 12.331370849898473 2.0918946359527563e-15
    vertex 52.1143593539449 11.999999999999998 9.600000000000012
    vertex 52.1143593539449 11.999999999999998 2.0918946359527563e-15
  endloop
endfacet
facet normal 0.7933533402912344 -0.6087614290087217 0.0
  outer loop
    vertex 52.1143593539449 11.999999999999998 9.600000000000012
    vertex 52.36862915010152 12.331370849898473 2.0918946359527563e-15
    vertex 52.36862915010152 12.331370849898473 9.600000000000012
  endloop
endfacet
facet normal 0.991444861373809 0.1305261922200628 0.0
  outer loop
    vertex 51.9 11.2 2.0918946359527563e-15
    vertex 51.95451867793749 10.785889527835968 9.600000000000012
    vertex 51.95451867793749 10.785889527835968 2.0918946359527563e-15
  endloop
endfacet
facet normal 0.991444861373809 0.1305261922200628 0.0
  outer loop
    vertex 51.95451867793749 10.785889527835968 9.600000000000012
    vertex 51.9 11.2 2.0918946359527563e-15
    vertex 51.9 11.2 9.600000000000012
  endloop
endfacet
facet normal 0.6087614290087244 -0.7933533402912323 0.0
  outer loop
    vertex 52.699999999999996 12.585640646055097 9.600000000000012
    vertex 52.36862915010152 12.331370849898473 2.0918946359527563e-15
    vertex 52.699999999999996 12.585640646055097 2.0918946359527563e-15
  endloop
endfacet
facet normal 0.6087614290087244 -0.7933533402912323 0.0
  outer loop
    vertex 52.36862915010152 12.331370849898473 2.0918946359527563e-15
    vertex 52.699999999999996 12.585640646055097 9.600000000000012
    vertex 52.36862915010152 12.331370849898473 9.600000000000012
  endloop
endfacet
facet normal 0.38268343236509245 -0.9238795325112856 0.0
  outer loop
    vertex 53.08588952783596 12.745481322062506 9.600000000000012
    vertex 52.699999999999996 12.585640646055097 2.0918946359527563e-15
    vertex 53.08588952783596 12.745481322062506 2.0918946359527563e-15
  endloop
endfacet
facet normal 0.38268343236509245 -0.9238795325112856 0.0
  outer loop
    vertex 52.699999999999996 12.585640646055097 2.0918946359527563e-15
    vertex 53.08588952783596 12.745481322062506 9.600000000000012
    vertex 52.699999999999996 12.585640646055097 9.600000000000012
  endloop
endfacet
facet normal -0.13052619222004952 -0.9914448613738108 -0.0
  outer loop
    vertex 53.914110472164026 12.745481322062506 9.600000000000012
    vertex 53.49999999999999 12.799999999999997 2.0918946359527563e-15
    vertex 53.914110472164026 12.745481322062506 2.0918946359527563e-15
  endloop
endfacet
facet normal -0.13052619222004952 -0.9914448613738108 -0.0
  outer loop
    vertex 53.49999999999999 12.799999999999997 2.0918946359527563e-15
    vertex 53.914110472164026 12.745481322062506 9.600000000000012
    vertex 53.49999999999999 12.799999999999997 9.600000000000012
  endloop
endfacet
facet normal -0.6087614290087244 -0.7933533402912323 -0.0
  outer loop
    vertex 54.63137084989846 12.331370849898473 9.600000000000012
    vertex 54.29999999999999 12.585640646055097 2.0918946359527563e-15
    vertex 54.63137084989846 12.331370849898473 2.0918946359527563e-15
  endloop
endfacet
facet normal -0.6087614290087244 -0.7933533402912323 -0.0
  outer loop
    vertex 54.29999999999999 12.585640646055097 2.0918946359527563e-15
    vertex 54.63137084989846 12.331370849898473 9.600000000000012
    vertex 54.29999999999999 12.585640646055097 9.600000000000012
  endloop
endfacet
facet normal 0.9914448613738104 0.13052619222005155 0.0
  outer loop
    vertex 2.3999999999999995 11.2 2.0918946359527563e-15
    vertex 2.4545186779374903 10.785889527835966 9.600000000000012
    vertex 2.4545186779374903 10.785889527835966 2.0918946359527563e-15
  endloop
endfacet
facet normal 0.9914448613738104 0.13052619222005155 0.0
  outer loop
    vertex 2.4545186779374903 10.785889527835966 9.600000000000012
    vertex 2.3999999999999995 11.2 2.0918946359527563e-15
    vertex 2.3999999999999995 11.2 9.600000000000012
  endloop
endfacet
facet normal -0.6087614290087187 0.7933533402912366 0.0
  outer loop
    vertex 4.8 9.814359353944898 9.600000000000012
    vertex 5.131370849898476 10.068629150101522 2.0918946359527563e-15
    vertex 4.8 9.814359353944898 2.0918946359527563e-15
  endloop
endfacet
facet normal -0.6087614290087187 0.7933533402912366 0.0
  outer loop
    vertex 5.131370849898476 10.068629150101522 2.0918946359527563e-15
    vertex 4.8 9.814359353944898 9.600000000000012
    vertex 5.131370849898476 10.068629150101522 9.600000000000012
  endloop
endfacet
facet normal 0.6087614290087187 0.7933533402912366 0.0
  outer loop
    vertex 2.8686291501015235 10.068629150101522 9.600000000000012
    vertex 3.1999999999999997 9.814359353944898 2.0918946359527563e-15
    vertex 2.8686291501015235 10.068629150101522 2.0918946359527563e-15
  endloop
endfacet
facet normal 0.6087614290087187 0.7933533402912366 0.0
  outer loop
    vertex 3.1999999999999997 9.814359353944898 2.0918946359527563e-15
    vertex 2.8686291501015235 10.068629150101522 9.600000000000012
    vertex 3.1999999999999997 9.814359353944898 9.600000000000012
  endloop
endfacet
facet normal -0.9238795325112873 -0.3826834323650884 -0.0
  outer loop
    vertex 5.385640646055102 12.0 9.600000000000012
    vertex 5.54548132206251 11.61411047216403 2.0918946359527563e-15
    vertex 5.54548132206251 11.61411047216403 9.600000000000012
  endloop
endfacet
facet normal -0.9238795325112873 -0.3826834323650884 -0.0
  outer loop
    vertex 5.54548132206251 11.61411047216403 2.0918946359527563e-15
    vertex 5.385640646055102 12.0 9.600000000000012
    vertex 5.385640646055102 12.0 2.0918946359527563e-15
  endloop
endfacet
facet normal 0.9238795325112865 -0.3826834323650903 0.0
  outer loop
    vertex 2.614359353944898 12.0 2.0918946359527563e-15
    vertex 2.4545186779374903 11.614110472164034 9.600000000000012
    vertex 2.4545186779374903 11.614110472164034 2.0918946359527563e-15
  endloop
endfacet
facet normal 0.9238795325112865 -0.3826834323650903 0.0
  outer loop
    vertex 2.4545186779374903 11.614110472164034 9.600000000000012
    vertex 2.614359353944898 12.0 2.0918946359527563e-15
    vertex 2.614359353944898 12.0 9.600000000000012
  endloop
endfacet
facet normal -0.7933533402912352 0.6087614290087205 0.0
  outer loop
    vertex 5.385640646055101 10.399999999999999 9.600000000000012
    vertex 5.131370849898476 10.068629150101522 2.0918946359527563e-15
    vertex 5.131370849898476 10.068629150101522 9.600000000000012
  endloop
endfacet
facet normal -0.7933533402912352 0.6087614290087205 0.0
  outer loop
    vertex 5.131370849898476 10.068629150101522 2.0918946359527563e-15
    vertex 5.385640646055101 10.399999999999999 9.600000000000012
    vertex 5.385640646055101 10.399999999999999 2.0918946359527563e-15
  endloop
endfacet
facet normal 0.9914448613738104 -0.13052619222005193 0.0
  outer loop
    vertex 2.4545186779374903 11.614110472164034 2.0918946359527563e-15
    vertex 2.3999999999999995 11.2 9.600000000000012
    vertex 2.3999999999999995 11.2 2.0918946359527563e-15
  endloop
endfacet
facet normal 0.9914448613738104 -0.13052619222005193 0.0
  outer loop
    vertex 2.3999999999999995 11.2 9.600000000000012
    vertex 2.4545186779374903 11.614110472164034 2.0918946359527563e-15
    vertex 2.4545186779374903 11.614110472164034 9.600000000000012
  endloop
endfacet
facet normal -0.7933533402912352 -0.6087614290087205 -0.0
  outer loop
    vertex 5.1313708498984765 12.331370849898475 9.600000000000012
    vertex 5.385640646055102 12.0 2.0918946359527563e-15
    vertex 5.385640646055102 12.0 9.600000000000012
  endloop
endfacet
facet normal -0.7933533402912352 -0.6087614290087205 -0.0
  outer loop
    vertex 5.385640646055102 12.0 2.0918946359527563e-15
    vertex 5.1313708498984765 12.331370849898475 9.600000000000012
    vertex 5.1313708498984765 12.331370849898475 2.0918946359527563e-15
  endloop
endfacet
facet normal -0.6087614290087209 -0.7933533402912352 -0.0
  outer loop
    vertex 5.1313708498984765 12.331370849898475 9.600000000000012
    vertex 4.800000000000001 12.5856406460551 2.0918946359527563e-15
    vertex 5.1313708498984765 12.331370849898475 2.0918946359527563e-15
  endloop
endfacet
facet normal -0.6087614290087209 -0.7933533402912352 -0.0
  outer loop
    vertex 4.800000000000001 12.5856406460551 2.0918946359527563e-15
    vertex 5.1313708498984765 12.331370849898475 9.600000000000012
    vertex 4.800000000000001 12.5856406460551 9.600000000000012
  endloop
endfacet
facet normal 0.7933533402912352 -0.6087614290087205 0.0
  outer loop
    vertex 2.8686291501015235 12.331370849898477 2.0918946359527563e-15
    vertex 2.614359353944898 12.0 9.600000000000012
    vertex 2.614359353944898 12.0 2.0918946359527563e-15
  endloop
endfacet
facet normal 0.7933533402912352 -0.6087614290087205 0.0
  outer loop
    vertex 2.614359353944898 12.0 9.600000000000012
    vertex 2.8686291501015235 12.331370849898477 2.0918946359527563e-15
    vertex 2.8686291501015235 12.331370849898477 9.600000000000012
  endloop
endfacet
facet normal -0.38268343236509306 -0.9238795325112854 -0.0
  outer loop
    vertex 4.800000000000001 12.5856406460551 9.600000000000012
    vertex 4.414110472164034 12.74548132206251 2.0918946359527563e-15
    vertex 4.800000000000001 12.5856406460551 2.0918946359527563e-15
  endloop
endfacet
facet normal -0.38268343236509306 -0.9238795325112854 -0.0
  outer loop
    vertex 4.414110472164034 12.74548132206251 2.0918946359527563e-15
    vertex 4.800000000000001 12.5856406460551 9.600000000000012
    vertex 4.414110472164034 12.74548132206251 9.600000000000012
  endloop
endfacet
facet normal -0.38268343236509245 0.9238795325112856 0.0
  outer loop
    vertex 4.414110472164033 9.654518677937489 9.600000000000012
    vertex 4.8 9.814359353944898 2.0918946359527563e-15
    vertex 4.414110472164033 9.654518677937489 2.0918946359527563e-15
  endloop
endfacet
facet normal -0.38268343236509245 0.9238795325112856 0.0
  outer loop
    vertex 4.8 9.814359353944898 2.0918946359527563e-15
    vertex 4.414110472164033 9.654518677937489 9.600000000000012
    vertex 4.8 9.814359353944898 9.600000000000012
  endloop
endfacet
facet normal 0.13052619222004927 -0.9914448613738108 0.0
  outer loop
    vertex 3.9999999999999996 12.799999999999999 9.600000000000012
    vertex 3.5858895278359673 12.74548132206251 2.0918946359527563e-15
    vertex 3.9999999999999996 12.799999999999999 2.0918946359527563e-15
  endloop
endfacet
facet normal 0.13052619222004927 -0.9914448613738108 0.0
  outer loop
    vertex 3.5858895278359673 12.74548132206251 2.0918946359527563e-15
    vertex 3.9999999999999996 12.799999999999999 9.600000000000012
    vertex 3.5858895278359673 12.74548132206251 9.600000000000012
  endloop
endfacet
facet normal 0.60876142900872 -0.7933533402912356 0.0
  outer loop
    vertex 3.2000000000000006 12.585640646055102 9.600000000000012
    vertex 2.8686291501015235 12.331370849898477 2.0918946359527563e-15
    vertex 3.2000000000000006 12.585640646055102 2.0918946359527563e-15
  endloop
endfacet
facet normal 0.60876142900872 -0.7933533402912356 0.0
  outer loop
    vertex 2.8686291501015235 12.331370849898477 2.0918946359527563e-15
    vertex 3.2000000000000006 12.585640646055102 9.600000000000012
    vertex 2.8686291501015235 12.331370849898477 9.600000000000012
  endloop
endfacet
facet normal 0.38268343236508956 -0.9238795325112867 0.0
  outer loop
    vertex 3.5858895278359673 12.74548132206251 9.600000000000012
    vertex 3.2000000000000006 12.585640646055102 2.0918946359527563e-15
    vertex 3.5858895278359673 12.74548132206251 2.0918946359527563e-15
  endloop
endfacet
facet normal 0.38268343236508956 -0.9238795325112867 0.0
  outer loop
    vertex 3.2000000000000006 12.585640646055102 2.0918946359527563e-15
    vertex 3.5858895278359673 12.74548132206251 9.600000000000012
    vertex 3.2000000000000006 12.585640646055102 9.600000000000012
  endloop
endfacet
facet normal -0.9914448613738106 -0.13052619222005116 -0.0
  outer loop
    vertex 5.54548132206251 11.61411047216403 9.600000000000012
    vertex 5.6 11.2 2.0918946359527563e-15
    vertex 5.6 11.2 9.600000000000012
  endloop
endfacet
facet normal -0.9914448613738106 -0.13052619222005116 -0.0
  outer loop
    vertex 5.6 11.2 2.0918946359527563e-15
    vertex 5.54548132206251 11.61411047216403 9.600000000000012
    vertex 5.54548132206251 11.61411047216403 2.0918946359527563e-15
  endloop
endfacet
facet normal -0.9238795325112867 0.38268343236508984 0.0
  outer loop
    vertex 5.54548132206251 10.785889527835966 9.600000000000012
    vertex 5.385640646055101 10.399999999999999 2.0918946359527563e-15
    vertex 5.385640646055101 10.399999999999999 9.600000000000012
  endloop
endfacet
facet normal -0.9238795325112867 0.38268343236508984 0.0
  outer loop
    vertex 5.385640646055101 10.399999999999999 2.0918946359527563e-15
    vertex 5.54548132206251 10.785889527835966 9.600000000000012
    vertex 5.54548132206251 10.785889527835966 2.0918946359527563e-15
  endloop
endfacet
facet normal -0.13052619222004908 0.9914448613738108 0.0
  outer loop
    vertex 3.9999999999999996 9.6 9.600000000000012
    vertex 4.414110472164033 9.654518677937489 2.0918946359527563e-15
    vertex 3.9999999999999996 9.6 2.0918946359527563e-15
  endloop
endfacet
facet normal -0.13052619222004908 0.9914448613738108 0.0
  outer loop
    vertex 4.414110472164033 9.654518677937489 2.0918946359527563e-15
    vertex 3.9999999999999996 9.6 9.600000000000012
    vertex 4.414110472164033 9.654518677937489 9.600000000000012
  endloop
endfacet
facet normal 0.13052619222005238 0.9914448613738104 0.0
  outer loop
    vertex 3.5858895278359664 9.65451867793749 9.600000000000012
    vertex 3.9999999999999996 9.6 2.0918946359527563e-15
    vertex 3.5858895278359664 9.65451867793749 2.0918946359527563e-15
  endloop
endfacet
facet normal 0.13052619222005238 0.9914448613738104 0.0
  outer loop
    vertex 3.9999999999999996 9.6 2.0918946359527563e-15
    vertex 3.5858895278359664 9.65451867793749 9.600000000000012
    vertex 3.9999999999999996 9.6 9.600000000000012
  endloop
endfacet
facet normal 0.38268343236508956 0.9238795325112867 0.0
  outer loop
    vertex 3.1999999999999997 9.814359353944898 9.600000000000012
    vertex 3.5858895278359664 9.65451867793749 2.0918946359527563e-15
    vertex 3.1999999999999997 9.814359353944898 2.0918946359527563e-15
  endloop
endfacet
facet normal 0.38268343236508956 0.9238795325112867 0.0
  outer loop
    vertex 3.5858895278359664 9.65451867793749 2.0918946359527563e-15
    vertex 3.1999999999999997 9.814359353944898 9.600000000000012
    vertex 3.5858895278359664 9.65451867793749 9.600000000000012
  endloop
endfacet
facet normal -0.13052619222004863 -0.9914448613738108 -0.0
  outer loop
    vertex 4.414110472164034 12.74548132206251 9.600000000000012
    vertex 3.9999999999999996 12.799999999999999 2.0918946359527563e-15
    vertex 4.414110472164034 12.74548132206251 2.0918946359527563e-15
  endloop
endfacet
facet normal -0.13052619222004863 -0.9914448613738108 -0.0
  outer loop
    vertex 3.9999999999999996 12.799999999999999 2.0918946359527563e-15
    vertex 4.414110472164034 12.74548132206251 9.600000000000012
    vertex 3.9999999999999996 12.799999999999999 9.600000000000012
  endloop
endfacet
facet normal -0.9914448613738106 0.1305261922200507 0.0
  outer loop
    vertex 5.6 11.2 9.600000000000012
    vertex 5.54548132206251 10.785889527835966 2.0918946359527563e-15
    vertex 5.54548132206251 10.785889527835966 9.600000000000012
  endloop
endfacet
facet normal -0.9914448613738106 0.1305261922200507 0.0
  outer loop
    vertex 5.54548132206251 10.785889527835966 2.0918946359527563e-15
    vertex 5.6 11.2 9.600000000000012
    vertex 5.6 11.2 2.0918946359527563e-15
  endloop
endfacet
facet normal 0.7933533402912356 0.60876142900872 0.0
  outer loop
    vertex 2.6143593539448973 10.399999999999999 2.0918946359527563e-15
    vertex 2.8686291501015235 10.068629150101522 9.600000000000012
    vertex 2.8686291501015235 10.068629150101522 2.0918946359527563e-15
  endloop
endfacet
facet normal 0.7933533402912356 0.60876142900872 0.0
  outer loop
    vertex 2.8686291501015235 10.068629150101522 9.600000000000012
    vertex 2.6143593539448973 10.399999999999999 2.0918946359527563e-15
    vertex 2.6143593539448973 10.399999999999999 9.600000000000012
  endloop
endfacet
facet normal 0.9238795325112867 0.38268343236508956 0.0
  outer loop
    vertex 2.4545186779374903 10.785889527835966 2.0918946359527563e-15
    vertex 2.6143593539448973 10.399999999999999 9.600000000000012
    vertex 2.6143593539448973 10.399999999999999 2.0918946359527563e-15
  endloop
endfacet
facet normal 0.9238795325112867 0.38268343236508956 0.0
  outer loop
    vertex 2.6143593539448973 10.399999999999999 9.600000000000012
    vertex 2.4545186779374903 10.785889527835966 2.0918946359527563e-15
    vertex 2.4545186779374903 10.785889527835966 9.600000000000012
  endloop
endfacet
facet normal 0.0 1.0 0.0
  outer loop
    vertex 31.5 7.999999999999999 9.600000000000012
    vertex 51.24999999999999 7.999999999999999 2.0918946359527563e-15
    vertex 31.5 7.999999999999999 2.0918946359527563e-15
  endloop
endfacet
facet normal 0.0 1.0 0.0
  outer loop
    vertex 51.24999999999999 7.999999999999999 2.0918946359527563e-15
    vertex 31.5 7.999999999999999 9.600000000000012
    vertex 51.24999999999999 7.999999999999999 9.600000000000012
  endloop
endfacet
facet normal -2.363921738339316e-17 -2.405678287304944e-18 -1.0
  outer loop
    vertex 51.24999999999999 7.999999999999999 2.0918946359527563e-15
    vertex 31.5 7.0 2.0918946359527563e-15
    vertex 31.5 7.999999999999999 2.0918946359527563e-15
  endloop
endfacet
facet normal -2.363921738339316e-17 -2.405678287304944e-18 -1.0
  outer loop
    vertex 0.0 33.4 4.911861118500654e-15
    vertex 6.249999999999999 32.39999999999999 2.0918946359527563e-15
    vertex 0.0 0.0 2.0918946359527563e-15
  endloop
endfacet
facet normal -2.363921738339316e-17 -2.405678287304944e-18 -1.0
  outer loop
    vertex 6.249999999999999 32.39999999999999 2.0918946359527563e-15
    vertex 0.0 33.4 4.911861118500654e-15
    vertex 57.49999999999999 33.4 4.911861118500654e-15
  endloop
endfacet
facet normal -2.363921738339316e-17 -2.405678287304944e-18 -1.0
  outer loop
    vertex 0.0 0.0 2.0918946359527563e-15
    vertex 6.249999999999999 32.39999999999999 2.0918946359527563e-15
    vertex 2.4545186779374903 11.614110472164034 2.0918946359527563e-15
  endloop
endfacet
facet normal -2.363921738339316e-17 -2.405678287304944e-18 -1.0
  outer loop
    vertex 0.0 0.0 2.0918946359527563e-15
    vertex 2.4545186779374903 11.614110472164034 2.0918946359527563e-15
    vertex 2.3999999999999995 11.2 2.0918946359527563e-15
  endloop
endfacet
facet normal -2.363921738339316e-17 -2.405678287304944e-18 -1.0
  outer loop
    vertex 2.4545186779374903 11.614110472164034 2.0918946359527563e-15
    vertex 6.249999999999999 32.39999999999999 2.0918946359527563e-15
    vertex 2.614359353944898 12.0 2.0918946359527563e-15
  endloop
endfacet
facet normal -2.363921738339316e-17 -2.405678287304944e-18 -1.0
  outer loop
    vertex 2.614359353944898 12.0 2.0918946359527563e-15
    vertex 6.249999999999999 32.39999999999999 2.0918946359527563e-15
    vertex 2.8686291501015235 12.331370849898477 2.0918946359527563e-15
  endloop
endfacet
facet normal -2.363921738339316e-17 -2.405678287304944e-18 -1.0
  outer loop
    vertex 2.8686291501015235 12.331370849898477 2.0918946359527563e-15
    vertex 6.249999999999999 32.39999999999999 2.0918946359527563e-15
    vertex 3.2000000000000006 12.585640646055102 2.0918946359527563e-15
  endloop
endfacet
facet normal -2.363921738339316e-17 -2.405678287304944e-18 -1.0
  outer loop
    vertex 3.2000000000000006 12.585640646055102 2.0918946359527563e-15
    vertex 6.249999999999999 32.39999999999999 2.0918946359527563e-15
    vertex 3.5858895278359673 12.74548132206251 2.0918946359527563e-15
  endloop
endfacet
facet normal -2.363921738339316e-17 -2.405678287304944e-18 -1.0
  outer loop
    vertex 3.5858895278359673 12.74548132206251 2.0918946359527563e-15
    vertex 6.249999999999999 32.39999999999999 2.0918946359527563e-15
    vertex 3.9999999999999996 12.799999999999999 2.0918946359527563e-15
  endloop
endfacet
facet normal -2.363921738339316e-17 -2.405678287304944e-18 -1.0
  outer loop
    vertex 3.9999999999999996 12.799999999999999 2.0918946359527563e-15
    vertex 6.249999999999999 32.39999999999999 2.0918946359527563e-15
    vertex 4.414110472164034 12.74548132206251 2.0918946359527563e-15
  endloop
endfacet
facet normal -2.363921738339316e-17 -2.405678287304944e-18 -1.0
  outer loop
    vertex 4.414110472164034 12.74548132206251 2.0918946359527563e-15
    vertex 6.249999999999999 32.39999999999999 2.0918946359527563e-15
    vertex 4.800000000000001 12.5856406460551 2.0918946359527563e-15
  endloop
endfacet
facet normal -2.363921738339316e-17 -2.405678287304944e-18 -1.0
  outer loop
    vertex 4.800000000000001 12.5856406460551 2.0918946359527563e-15
    vertex 6.249999999999999 32.39999999999999 2.0918946359527563e-15
    vertex 5.1313708498984765 12.331370849898475 2.0918946359527563e-15
  endloop
endfacet
facet normal -2.363921738339316e-17 -2.405678287304944e-18 -1.0
  outer loop
    vertex 5.1313708498984765 12.331370849898475 2.0918946359527563e-15
    vertex 6.249999999999999 32.39999999999999 2.0918946359527563e-15
    vertex 5.385640646055102 12.0 2.0918946359527563e-15
  endloop
endfacet
facet normal -2.363921738339316e-17 -2.405678287304944e-18 -1.0
  outer loop
    vertex 5.385640646055102 12.0 2.0918946359527563e-15
    vertex 6.249999999999999 32.39999999999999 2.0918946359527563e-15
    vertex 5.54548132206251 11.61411047216403 2.0918946359527563e-15
  endloop
endfacet
facet normal -2.363921738339316e-17 -2.405678287304944e-18 -1.0
  outer loop
    vertex 5.54548132206251 11.61411047216403 2.0918946359527563e-15
    vertex 6.249999999999999 32.39999999999999 2.0918946359527563e-15
    vertex 5.6 11.2 2.0918946359527563e-15
  endloop
endfacet
facet normal -2.363921738339316e-17 -2.405678287304944e-18 -1.0
  outer loop
    vertex 6.249999999999999 32.39999999999999 2.0918946359527563e-15
    vertex 57.49999999999999 33.4 4.911861118500654e-15
    vertex 51.24999999999999 32.400000000000006 0.0
  endloop
endfacet
facet normal -2.363921738339316e-17 -2.405678287304944e-18 -1.0
  outer loop
    vertex 51.24999999999999 32.400000000000006 0.0
    vertex 57.49999999999999 33.4 4.911861118500654e-15
    vertex 51.95451867793749 11.614110472164032 2.0918946359527563e-15
  endloop
endfacet
facet normal -2.363921738339316e-17 -2.405678287304944e-18 -1.0
  outer loop
    vertex 51.24999999999999 32.400000000000006 0.0
    vertex 51.95451867793749 11.614110472164032 2.0918946359527563e-15
    vertex 51.24999999999999 7.999999999999999 2.0918946359527563e-15
  endloop
endfacet
facet normal -2.363921738339316e-17 -2.405678287304944e-18 -1.0
  outer loop
    vertex 51.24999999999999 7.999999999999999 2.0918946359527563e-15
    vertex 51.95451867793749 11.614110472164032 2.0918946359527563e-15
    vertex 51.9 11.2 2.0918946359527563e-15
  endloop
endfacet
facet normal -2.363921738339316e-17 -2.405678287304944e-18 -1.0
  outer loop
    vertex 51.95451867793749 11.614110472164032 2.0918946359527563e-15
    vertex 57.49999999999999 33.4 4.911861118500654e-15
    vertex 52.1143593539449 11.999999999999998 2.0918946359527563e-15
  endloop
endfacet
facet normal -2.363921738339316e-17 -2.405678287304944e-18 -1.0
  outer loop
    vertex 52.1143593539449 11.999999999999998 2.0918946359527563e-15
    vertex 57.49999999999999 33.4 4.911861118500654e-15
    vertex 52.36862915010152 12.331370849898473 2.0918946359527563e-15
  endloop
endfacet
facet normal -2.363921738339316e-17 -2.405678287304944e-18 -1.0
  outer loop
    vertex 52.36862915010152 12.331370849898473 2.0918946359527563e-15
    vertex 57.49999999999999 33.4 4.911861118500654e-15
    vertex 52.699999999999996 12.585640646055097 2.0918946359527563e-15
  endloop
endfacet
facet normal -2.363921738339316e-17 -2.405678287304944e-18 -1.0
  outer loop
    vertex 52.699999999999996 12.585640646055097 2.0918946359527563e-15
    vertex 57.49999999999999 33.4 4.911861118500654e-15
    vertex 53.08588952783596 12.745481322062506 2.0918946359527563e-15
  endloop
endfacet
facet normal -2.363921738339316e-17 -2.405678287304944e-18 -1.0
  outer loop
    vertex 53.08588952783596 12.745481322062506 2.0918946359527563e-15
    vertex 57.49999999999999 33.4 4.911861118500654e-15
    vertex 53.49999999999999 12.799999999999997 2.0918946359527563e-15
  endloop
endfacet
facet normal -2.363921738339316e-17 -2.405678287304944e-18 -1.0
  outer loop
    vertex 53.49999999999999 12.799999999999997 2.0918946359527563e-15
    vertex 57.49999999999999 33.4 4.911861118500654e-15
    vertex 53.914110472164026 12.745481322062506 2.0918946359527563e-15
  endloop
endfacet
facet normal -2.363921738339316e-17 -2.405678287304944e-18 -1.0
  outer loop
    vertex 53.914110472164026 12.745481322062506 2.0918946359527563e-15
    vertex 57.49999999999999 33.4 4.911861118500654e-15
    vertex 54.29999999999999 12.585640646055097 2.0918946359527563e-15
  endloop
endfacet
facet normal -2.363921738339316e-17 -2.405678287304944e-18 -1.0
  outer loop
    vertex 54.29999999999999 12.585640646055097 2.0918946359527563e-15
    vertex 57.49999999999999 33.4 4.911861118500654e-15
    vertex 54.63137084989846 12.331370849898473 2.0918946359527563e-15
  endloop
endfacet
facet normal -2.363921738339316e-17 -2.405678287304944e-18 -1.0
  outer loop
    vertex 54.63137084989846 12.331370849898473 2.0918946359527563e-15
    vertex 57.49999999999999 33.4 4.911861118500654e-15
    vertex 54.88564064605509 11.999999999999998 2.0918946359527563e-15
  endloop
endfacet
facet normal -2.363921738339316e-17 -2.405678287304944e-18 -1.0
  outer loop
    vertex 54.88564064605509 11.999999999999998 2.0918946359527563e-15
    vertex 57.49999999999999 33.4 4.911861118500654e-15
    vertex 55.04548132206249 11.61411047216403 2.0918946359527563e-15
  endloop
endfacet
facet normal -2.363921738339316e-17 -2.405678287304944e-18 -1.0
  outer loop
    vertex 55.04548132206249 11.61411047216403 2.0918946359527563e-15
    vertex 57.49999999999999 33.4 4.911861118500654e-15
    vertex 55.09999999999999 11.2 2.0918946359527563e-15
  endloop
endfacet
facet normal -2.363921738339316e-17 -2.405678287304944e-18 -1.0
  outer loop
    vertex 0.0 0.0 2.0918946359527563e-15
    vertex 6.249999999999999 7.999999999999999 2.0918946359527563e-15
    vertex 57.49999999999999 0.0 2.0918946359527563e-15
  endloop
endfacet
facet normal -2.363921738339316e-17 -2.405678287304944e-18 -1.0
  outer loop
    vertex 6.249999999999999 7.999999999999999 2.0918946359527563e-15
    vertex 0.0 0.0 2.0918946359527563e-15
    vertex 3.1999999999999997 9.814359353944898 2.0918946359527563e-15
  endloop
endfacet
facet normal -2.363921738339316e-17 -2.405678287304944e-18 -1.0
  outer loop
    vertex 3.1999999999999997 9.814359353944898 2.0918946359527563e-15
    vertex 0.0 0.0 2.0918946359527563e-15
    vertex 2.8686291501015235 10.068629150101522 2.0918946359527563e-15
  endloop
endfacet
facet normal -2.363921738339316e-17 -2.405678287304944e-18 -1.0
  outer loop
    vertex 2.8686291501015235 10.068629150101522 2.0918946359527563e-15
    vertex 0.0 0.0 2.0918946359527563e-15
    vertex 2.6143593539448973 10.399999999999999 2.0918946359527563e-15
  endloop
endfacet
facet normal -2.363921738339316e-17 -2.405678287304944e-18 -1.0
  outer loop
    vertex 2.6143593539448973 10.399999999999999 2.0918946359527563e-15
    vertex 0.0 0.0 2.0918946359527563e-15
    vertex 2.4545186779374903 10.785889527835966 2.0918946359527563e-15
  endloop
endfacet
facet normal -2.363921738339316e-17 -2.405678287304944e-18 -1.0
  outer loop
    vertex 2.4545186779374903 10.785889527835966 2.0918946359527563e-15
    vertex 0.0 0.0 2.0918946359527563e-15
    vertex 2.3999999999999995 11.2 2.0918946359527563e-15
  endloop
endfacet
facet normal -2.363921738339316e-17 -2.405678287304944e-18 -1.0
  outer loop
    vertex 6.249999999999999 7.999999999999999 2.0918946359527563e-15
    vertex 3.1999999999999997 9.814359353944898 2.0918946359527563e-15
    vertex 3.5858895278359664 9.65451867793749 2.0918946359527563e-15
  endloop
endfacet
facet normal -2.363921738339316e-17 -2.405678287304944e-18 -1.0
  outer loop
    vertex 6.249999999999999 7.999999999999999 2.0918946359527563e-15
    vertex 3.5858895278359664 9.65451867793749 2.0918946359527563e-15
    vertex 3.9999999999999996 9.6 2.0918946359527563e-15
  endloop
endfacet
facet normal -2.363921738339316e-17 -2.405678287304944e-18 -1.0
  outer loop
    vertex 6.249999999999999 7.999999999999999 2.0918946359527563e-15
    vertex 3.9999999999999996 9.6 2.0918946359527563e-15
    vertex 4.414110472164033 9.654518677937489 2.0918946359527563e-15
  endloop
endfacet
facet normal -2.363921738339316e-17 -2.405678287304944e-18 -1.0
  outer loop
    vertex 6.249999999999999 7.999999999999999 2.0918946359527563e-15
    vertex 4.414110472164033 9.654518677937489 2.0918946359527563e-15
    vertex 4.8 9.814359353944898 2.0918946359527563e-15
  endloop
endfacet
facet normal -2.363921738339316e-17 -2.405678287304944e-18 -1.0
  outer loop
    vertex 6.249999999999999 7.999999999999999 2.0918946359527563e-15
    vertex 4.8 9.814359353944898 2.0918946359527563e-15
    vertex 5.131370849898476 10.068629150101522 2.0918946359527563e-15
  endloop
endfacet
facet normal -2.363921738339316e-17 -2.405678287304944e-18 -1.0
  outer loop
    vertex 6.249999999999999 7.999999999999999 2.0918946359527563e-15
    vertex 5.131370849898476 10.068629150101522 2.0918946359527563e-15
    vertex 5.385640646055101 10.399999999999999 2.0918946359527563e-15
  endloop
endfacet
facet normal -2.363921738339316e-17 -2.405678287304944e-18 -1.0
  outer loop
    vertex 6.249999999999999 7.999999999999999 2.0918946359527563e-15
    vertex 5.385640646055101 10.399999999999999 2.0918946359527563e-15
    vertex 5.54548132206251 10.785889527835966 2.0918946359527563e-15
  endloop
endfacet
facet normal -2.363921738339316e-17 -2.405678287304944e-18 -1.0
  outer loop
    vertex 6.249999999999999 7.999999999999999 2.0918946359527563e-15
    vertex 5.54548132206251 10.785889527835966 2.0918946359527563e-15
    vertex 5.6 11.2 2.0918946359527563e-15
  endloop
endfacet
facet normal -2.363921738339316e-17 -2.405678287304944e-18 -1.0
  outer loop
    vertex 6.249999999999999 7.999999999999999 2.0918946359527563e-15
    vertex 5.6 11.2 2.0918946359527563e-15
    vertex 6.249999999999999 32.39999999999999 2.0918946359527563e-15
  endloop
endfacet
facet normal -2.363921738339316e-17 -2.405678287304944e-18 -1.0
  outer loop
    vertex 57.49999999999999 0.0 2.0918946359527563e-15
    vertex 6.249999999999999 7.999999999999999 2.0918946359527563e-15
    vertex 12.999999999999988 7.0 2.0918946359527563e-15
  endloop
endfacet
facet normal -2.363921738339316e-17 -2.405678287304944e-18 -1.0
  outer loop
    vertex 12.999999999999988 7.0 2.0918946359527563e-15
    vertex 6.249999999999999 7.999999999999999 2.0918946359527563e-15
    vertex 12.999999999999988 7.999999999999999 2.0918946359527563e-15
  endloop
endfacet
facet normal -2.363921738339316e-17 -2.405678287304944e-18 -1.0
  outer loop
    vertex 57.49999999999999 0.0 2.0918946359527563e-15
    vertex 12.999999999999988 7.0 2.0918946359527563e-15
    vertex 31.5 7.0 2.0918946359527563e-15
  endloop
endfacet
facet normal -2.363921738339316e-17 -2.405678287304944e-18 -1.0
  outer loop
    vertex 57.49999999999999 0.0 2.0918946359527563e-15
    vertex 31.5 7.0 2.0918946359527563e-15
    vertex 51.24999999999999 7.999999999999999 2.0918946359527563e-15
  endloop
endfacet
facet normal -2.363921738339316e-17 -2.405678287304944e-18 -1.0
  outer loop
    vertex 57.49999999999999 0.0 2.0918946359527563e-15
    vertex 51.24999999999999 7.999999999999999 2.0918946359527563e-15
    vertex 52.1143593539449 10.4 2.0918946359527563e-15
  endloop
endfacet
facet normal -2.363921738339316e-17 -2.405678287304944e-18 -1.0
  outer loop
    vertex 52.1143593539449 10.4 2.0918946359527563e-15
    vertex 51.24999999999999 7.999999999999999 2.0918946359527563e-15
    vertex 51.95451867793749 10.785889527835968 2.0918946359527563e-15
  endloop
endfacet
facet normal -2.363921738339316e-17 -2.405678287304944e-18 -1.0
  outer loop
    vertex 51.95451867793749 10.785889527835968 2.0918946359527563e-15
    vertex 51.24999999999999 7.999999999999999 2.0918946359527563e-15
    vertex 51.9 11.2 2.0918946359527563e-15
  endloop
endfacet
facet normal -2.363921738339316e-17 -2.405678287304944e-18 -1.0
  outer loop
    vertex 57.49999999999999 0.0 2.0918946359527563e-15
    vertex 52.1143593539449 10.4 2.0918946359527563e-15
    vertex 52.36862915010152 10.068629150101527 2.0918946359527563e-15
  endloop
endfacet
facet normal -2.363921738339316e-17 -2.405678287304944e-18 -1.0
  outer loop
    vertex 57.49999999999999 0.0 2.0918946359527563e-15
    vertex 52.36862915010152 10.068629150101527 2.0918946359527563e-15
    vertex 52.699999999999996 9.8143593539449 2.0918946359527563e-15
  endloop
endfacet
facet normal -2.363921738339316e-17 -2.405678287304944e-18 -1.0
  outer loop
    vertex 57.49999999999999 0.0 2.0918946359527563e-15
    vertex 52.699999999999996 9.8143593539449 2.0918946359527563e-15
    vertex 53.08588952783596 9.654518677937494 2.0918946359527563e-15
  endloop
endfacet
facet normal -2.363921738339316e-17 -2.405678287304944e-18 -1.0
  outer loop
    vertex 57.49999999999999 0.0 2.0918946359527563e-15
    vertex 53.08588952783596 9.654518677937494 2.0918946359527563e-15
    vertex 53.49999999999999 9.600000000000001 2.0918946359527563e-15
  endloop
endfacet
facet normal -2.363921738339316e-17 -2.405678287304944e-18 -1.0
  outer loop
    vertex 57.49999999999999 0.0 2.0918946359527563e-15
    vertex 53.49999999999999 9.600000000000001 2.0918946359527563e-15
    vertex 53.914110472164026 9.654518677937492 2.0918946359527563e-15
  endloop
endfacet
facet normal -2.363921738339316e-17 -2.405678287304944e-18 -1.0
  outer loop
    vertex 57.49999999999999 0.0 2.0918946359527563e-15
    vertex 53.914110472164026 9.654518677937492 2.0918946359527563e-15
    vertex 54.29999999999999 9.8143593539449 2.0918946359527563e-15
  endloop
endfacet
facet normal -2.363921738339316e-17 -2.405678287304944e-18 -1.0
  outer loop
    vertex 57.49999999999999 0.0 2.0918946359527563e-15
    vertex 54.29999999999999 9.8143593539449 2.0918946359527563e-15
    vertex 54.63137084989846 10.068629150101525 2.0918946359527563e-15
  endloop
endfacet
facet normal -2.363921738339316e-17 -2.405678287304944e-18 -1.0
  outer loop
    vertex 57.49999999999999 0.0 2.0918946359527563e-15
    vertex 54.63137084989846 10.068629150101525 2.0918946359527563e-15
    vertex 54.88564064605509 10.4 2.0918946359527563e-15
  endloop
endfacet
facet normal -2.363921738339316e-17 -2.405678287304944e-18 -1.0
  outer loop
    vertex 57.49999999999999 0.0 2.0918946359527563e-15
    vertex 54.88564064605509 10.4 2.0918946359527563e-15
    vertex 55.04548132206249 10.785889527835966 2.0918946359527563e-15
  endloop
endfacet
facet normal -2.363921738339316e-17 -2.405678287304944e-18 -1.0
  outer loop
    vertex 57.49999999999999 0.0 2.0918946359527563e-15
    vertex 55.04548132206249 10.785889527835966 2.0918946359527563e-15
    vertex 55.09999999999999 11.2 2.0918946359527563e-15
  endloop
endfacet
facet normal -2.363921738339316e-17 -2.405678287304944e-18 -1.0
  outer loop
    vertex 57.49999999999999 0.0 2.0918946359527563e-15
    vertex 55.09999999999999 11.2 2.0918946359527563e-15
    vertex 57.49999999999999 33.4 4.911861118500654e-15
  endloop
endfacet
facet normal 1.8799776550319318e-16 -1.0 -7.62153103391323e-16
  outer loop
    vertex 51.24999999999999 32.39999999999999 11.100000000000012
    vertex 6.249999999999999 32.39999999999999 2.0918946359527563e-15
    vertex 51.24999999999999 32.400000000000006 0.0
  endloop
endfacet
facet normal 1.8799776550319318e-16 -1.0 -7.62153103391323e-16
  outer loop
    vertex 6.249999999999999 32.39999999999999 2.0918946359527563e-15
    vertex 51.24999999999999 32.39999999999999 11.100000000000012
    vertex 6.249999999999999 32.39999999999999 11.100000000000012
  endloop
endfacet
facet normal -1.0 0.0 0.0
  outer loop
    vertex 51.24999999999999 32.39999999999999 11.100000000000012
    vertex 51.24999999999999 14.779999999999994 9.600000000000012
    vertex 51.24999999999999 14.779999999999994 11.100000000000012
  endloop
endfacet
facet normal -1.0 0.0 0.0
  outer loop
    vertex 51.24999999999999 14.779999999999994 9.600000000000012
    vertex 51.24999999999999 7.999999999999999 2.0918946359527563e-15
    vertex 51.24999999999999 7.999999999999999 9.600000000000012
  endloop
endfacet
facet normal -1.0 0.0 0.0
  outer loop
    vertex 51.24999999999999 7.999999999999999 2.0918946359527563e-15
    vertex 51.24999999999999 14.779999999999994 9.600000000000012
    vertex 51.24999999999999 32.400000000000006 0.0
  endloop
endfacet
facet normal -1.0 0.0 0.0
  outer loop
    vertex 51.24999999999999 32.400000000000006 0.0
    vertex 51.24999999999999 14.779999999999994 9.600000000000012
    vertex 51.24999999999999 32.39999999999999 11.100000000000012
  endloop
endfacet
facet normal 0.0 -1.0 0.0
  outer loop
    vertex 57.49999999999999 14.779999999999994 11.100000000000012
    vertex 51.24999999999999 14.779999999999994 9.600000000000012
    vertex 57.49999999999999 14.779999999999994 9.600000000000012
  endloop
endfacet
facet normal 0.0 -1.0 0.0
  outer loop
    vertex 51.24999999999999 14.779999999999994 9.600000000000012
    vertex 57.49999999999999 14.779999999999994 11.100000000000012
    vertex 51.24999999999999 14.779999999999994 11.100000000000012
  endloop
endfacet
facet normal 1.0 0.0 0.0
  outer loop
    vertex 6.249999999999999 32.39999999999999 2.0918946359527563e-15
    vertex 6.249999999999999 7.999999999999999 9.600000000000012
    vertex 6.249999999999999 7.999999999999999 2.0918946359527563e-15
  endloop
endfacet
facet normal 1.0 0.0 0.0
  outer loop
    vertex 6.249999999999999 7.999999999999999 9.600000000000012
    vertex 6.249999999999999 32.39999999999999 2.0918946359527563e-15
    vertex 6.249999999999999 14.779999999999998 9.600000000000012
  endloop
endfacet
facet normal 1.0 0.0 0.0
  outer loop
    vertex 6.249999999999999 14.779999999999998 9.600000000000012
    vertex 6.249999999999999 32.39999999999999 2.0918946359527563e-15
    vertex 6.249999999999999 14.779999999999998 11.100000000000012
  endloop
endfacet
facet normal 1.0 0.0 0.0
  outer loop
    vertex 6.249999999999999 14.779999999999998 11.100000000000012
    vertex 6.249999999999999 32.39999999999999 2.0918946359527563e-15
    vertex 6.249999999999999 32.39999999999999 11.100000000000012
  endloop
endfacet
facet normal -1.0 0.0 0.0
  outer loop
    vertex 0.0 14.779999999999998 9.600000000000012
    vertex 0.0 6.0 5.600000000000001
    vertex 0.0 6.0 9.600000000000012
  endloop
endfacet
facet normal -1.0 0.0 0.0
  outer loop
    vertex 0.0 33.4 11.100000000000012
    vertex 0.0 14.779999999999998 9.600000000000012
    vertex 0.0 14.779999999999998 11.100000000000012
  endloop
endfacet
facet normal -1.0 0.0 0.0
  outer loop
    vertex 0.0 1.9999999999999998 9.600000000000001
    vertex 0.0 0.0 2.0918946359527563e-15
    vertex 0.0 0.0 9.600000000000001
  endloop
endfacet
facet normal -1.0 0.0 0.0
  outer loop
    vertex 0.0 0.0 2.0918946359527563e-15
    vertex 0.0 1.9999999999999998 9.600000000000001
    vertex 0.0 1.9999999999999998 5.600000000000001
  endloop
endfacet
facet normal -1.0 0.0 0.0
  outer loop
    vertex 0.0 0.0 2.0918946359527563e-15
    vertex 0.0 1.9999999999999998 5.600000000000001
    vertex 0.0 33.4 4.911861118500654e-15
  endloop
endfacet
facet normal -1.0 0.0 0.0
  outer loop
    vertex 0.0 33.4 4.911861118500654e-15
    vertex 0.0 1.9999999999999998 5.600000000000001
    vertex 0.0 6.0 5.600000000000001
  endloop
endfacet
facet normal -1.0 0.0 0.0
  outer loop
    vertex 0.0 33.4 4.911861118500654e-15
    vertex 0.0 6.0 5.600000000000001
    vertex 0.0 14.779999999999998 9.600000000000012
  endloop
endfacet
facet normal -1.0 0.0 0.0
  outer loop
    vertex 0.0 33.4 4.911861118500654e-15
    vertex 0.0 14.779999999999998 9.600000000000012
    vertex 0.0 33.4 11.100000000000012
  endloop
endfacet
facet normal 1.0 0.0 0.0
  outer loop
    vertex 57.49999999999999 0.0 2.0918946359527563e-15
    vertex 57.49999999999999 1.9999999999999998 5.600000000000001
    vertex 57.49999999999999 0.0 9.600000000000001
  endloop
endfacet
facet normal 1.0 0.0 0.0
  outer loop
    vertex 57.49999999999999 1.9999999999999998 5.600000000000001
    vertex 57.49999999999999 0.0 2.0918946359527563e-15
    vertex 57.49999999999999 33.4 4.911861118500654e-15
  endloop
endfacet
facet normal 1.0 0.0 0.0
  outer loop
    vertex 57.49999999999999 1.9999999999999998 5.600000000000001
    vertex 57.49999999999999 33.4 4.911861118500654e-15
    vertex 57.49999999999999 6.0 5.600000000000001
  endloop
endfacet
facet normal 1.0 0.0 0.0
  outer loop
    vertex 57.49999999999999 6.0 5.600000000000001
    vertex 57.49999999999999 33.4 4.911861118500654e-15
    vertex 57.49999999999999 6.0 9.600000000000012
  endloop
endfacet
facet normal 1.0 0.0 0.0
  outer loop
    vertex 57.49999999999999 6.0 9.600000000000012
    vertex 57.49999999999999 33.4 4.911861118500654e-15
    vertex 57.49999999999999 14.779999999999994 9.600000000000012
  endloop
endfacet
facet normal 1.0 0.0 0.0
  outer loop
    vertex 57.49999999999999 14.779999999999994 9.600000000000012
    vertex 57.49999999999999 33.4 4.911861118500654e-15
    vertex 57.49999999999999 14.779999999999994 11.100000000000012
  endloop
endfacet
facet normal 1.0 0.0 0.0
  outer loop
    vertex 57.49999999999999 14.779999999999994 11.100000000000012
    vertex 57.49999999999999 33.4 4.911861118500654e-15
    vertex 57.49999999999999 33.4 11.100000000000012
  endloop
endfacet
facet normal 1.0 0.0 0.0
  outer loop
    vertex 57.49999999999999 1.9999999999999998 9.600000000000001
    vertex 57.49999999999999 0.0 9.600000000000001
    vertex 57.49999999999999 1.9999999999999998 5.600000000000001
  endloop
endfacet
facet normal 0.0 1.0 0.0
  outer loop
    vertex 0.0 33.4 11.100000000000012
    vertex 57.49999999999999 33.4 4.911861118500654e-15
    vertex 0.0 33.4 4.911861118500654e-15
  endloop
endfacet
facet normal 0.0 1.0 0.0
  outer loop
    vertex 57.49999999999999 33.4 4.911861118500654e-15
    vertex 0.0 33.4 11.100000000000012
    vertex 57.49999999999999 33.4 11.100000000000012
  endloop
endfacet
facet normal 0.0 0.0 1.0
  outer loop
    vertex 57.49999999999999 14.779999999999994 11.100000000000012
    vertex 51.24999999999999 32.39999999999999 11.100000000000012
    vertex 51.24999999999999 14.779999999999994 11.100000000000012
  endloop
endfacet
facet normal 0.0 0.0 1.0
  outer loop
    vertex 6.249999999999999 14.779999999999998 11.100000000000012
    vertex 0.0 33.4 11.100000000000012
    vertex 0.0 14.779999999999998 11.100000000000012
  endloop
endfacet
facet normal 0.0 0.0 1.0
  outer loop
    vertex 0.0 33.4 11.100000000000012
    vertex 6.249999999999999 14.779999999999998 11.100000000000012
    vertex 6.249999999999999 32.39999999999999 11.100000000000012
  endloop
endfacet
facet normal 0.0 0.0 1.0
  outer loop
    vertex 0.0 33.4 11.100000000000012
    vertex 6.249999999999999 32.39999999999999 11.100000000000012
    vertex 57.49999999999999 33.4 11.100000000000012
  endloop
endfacet
facet normal 0.0 0.0 1.0
  outer loop
    vertex 57.49999999999999 33.4 11.100000000000012
    vertex 6.249999999999999 32.39999999999999 11.100000000000012
    vertex 51.24999999999999 32.39999999999999 11.100000000000012
  endloop
endfacet
facet normal 0.0 0.0 1.0
  outer loop
    vertex 57.49999999999999 33.4 11.100000000000012
    vertex 51.24999999999999 32.39999999999999 11.100000000000012
    vertex 57.49999999999999 14.779999999999994 11.100000000000012
  endloop
endfacet
endsolid IOSTB-Lift.24B7
