%TF.GenerationSoftware,KiCad,Pcbnew,(5.1.7)-1*%
%TF.CreationDate,2022-01-17T02:10:00-07:00*%
%TF.ProjectId,SIOST,53494f53-542e-46b6-9963-61645f706362,rev?*%
%TF.SameCoordinates,PX32de760PY48ab840*%
%TF.FileFunction,Copper,L1,Top*%
%TF.FilePolarity,Positive*%
%FSLAX46Y46*%
G04 Gerber Fmt 4.6, Leading zero omitted, Abs format (unit mm)*
G04 Created by KiCad (PCBNEW (5.1.7)-1) date 2022-01-17 02:10:00*
%MOMM*%
%LPD*%
G01*
G04 APERTURE LIST*
%TA.AperFunction,ComponentPad*%
%ADD10O,1.700000X1.700000*%
%TD*%
%TA.AperFunction,ComponentPad*%
%ADD11R,1.700000X1.700000*%
%TD*%
%TA.AperFunction,ComponentPad*%
%ADD12C,4.700000*%
%TD*%
%TA.AperFunction,ComponentPad*%
%ADD13C,2.600000*%
%TD*%
%TA.AperFunction,ComponentPad*%
%ADD14R,2.600000X2.600000*%
%TD*%
%TA.AperFunction,ComponentPad*%
%ADD15R,2.540000X2.540000*%
%TD*%
%TA.AperFunction,ComponentPad*%
%ADD16C,2.540000*%
%TD*%
%TA.AperFunction,ComponentPad*%
%ADD17C,15.240000*%
%TD*%
%TA.AperFunction,Conductor*%
%ADD18C,0.600000*%
%TD*%
%TA.AperFunction,Conductor*%
%ADD19C,1.000000*%
%TD*%
G04 APERTURE END LIST*
D10*
%TO.P,J7,3*%
%TO.N,/GND*%
X50038000Y5334000D03*
%TO.P,J7,2*%
%TO.N,/5V*%
X47498000Y5334000D03*
D11*
%TO.P,J7,1*%
%TO.N,/D33*%
X44958000Y5334000D03*
%TD*%
D10*
%TO.P,J8,3*%
%TO.N,/GND*%
X22098000Y5334000D03*
%TO.P,J8,2*%
%TO.N,/5V*%
X19558000Y5334000D03*
D11*
%TO.P,J8,1*%
%TO.N,/A11*%
X17018000Y5334000D03*
%TD*%
D12*
%TO.P,REF\u002A\u002A,1*%
%TO.N,N/C*%
X53340000Y24638000D03*
%TD*%
%TO.P,REF\u002A\u002A,1*%
%TO.N,N/C*%
X3810000Y24638000D03*
%TD*%
D10*
%TO.P,J3,6*%
%TO.N,/A9*%
X28702000Y22860000D03*
%TO.P,J3,5*%
%TO.N,/A7*%
X31242000Y22860000D03*
%TO.P,J3,4*%
%TO.N,/A5*%
X33782000Y22860000D03*
%TO.P,J3,3*%
%TO.N,/A3*%
X36322000Y22860000D03*
%TO.P,J3,2*%
%TO.N,/5V*%
X38862000Y22860000D03*
D11*
%TO.P,J3,1*%
%TO.N,/GND*%
X41402000Y22860000D03*
%TD*%
D13*
%TO.P,J5,8*%
%TO.N,/D45*%
X51562000Y9144000D03*
%TO.P,J5,7*%
%TO.N,/D33*%
X46482000Y9144000D03*
%TO.P,J5,6*%
%TO.N,/5V*%
X41402000Y9144000D03*
%TO.P,J5,5*%
%TO.N,/GND*%
X36322000Y9144000D03*
%TO.P,J5,4*%
%TO.N,/A13*%
X31242000Y9144000D03*
%TO.P,J5,3*%
%TO.N,/GND*%
X26162000Y9144000D03*
%TO.P,J5,2*%
%TO.N,/5V*%
X21082000Y9144000D03*
D14*
%TO.P,J5,1*%
%TO.N,/A11*%
X16002000Y9144000D03*
%TD*%
D13*
%TO.P,J6,2*%
%TO.N,/GND*%
X8890000Y9144000D03*
D14*
%TO.P,J6,1*%
%TO.N,/VIN*%
X3810000Y9144000D03*
%TD*%
D15*
%TO.P,T1,4*%
%TO.N,/5V*%
X8890000Y43688000D03*
%TO.P,T1,3*%
%TO.N,/GND*%
X8890000Y26162000D03*
D16*
%TO.P,T1,2*%
%TO.N,/VIN*%
X48514000Y43688000D03*
%TO.P,T1,1*%
%TO.N,/GND*%
X48514000Y26162000D03*
D17*
%TO.P,T1,*%
%TO.N,*%
X22352000Y35052000D03*
%TD*%
D10*
%TO.P,J1,10*%
%TO.N,/D45*%
X64008000Y13462000D03*
%TO.P,J1,9*%
%TO.N,/D33*%
X64008000Y16002000D03*
%TO.P,J1,8*%
%TO.N,/A13*%
X64008000Y18542000D03*
%TO.P,J1,7*%
%TO.N,/A11*%
X64008000Y21082000D03*
%TO.P,J1,6*%
%TO.N,/A9*%
X64008000Y23622000D03*
%TO.P,J1,5*%
%TO.N,/A7*%
X64008000Y26162000D03*
%TO.P,J1,4*%
%TO.N,/A5*%
X64008000Y28702000D03*
%TO.P,J1,3*%
%TO.N,/A3*%
X64008000Y31242000D03*
%TO.P,J1,2*%
%TO.N,/GND*%
X64008000Y33782000D03*
D11*
%TO.P,J1,1*%
%TO.N,/5V*%
X64008000Y36322000D03*
%TD*%
D18*
%TO.N,/D45*%
X61468000Y13462000D02*
X52324000Y13462000D01*
X51562000Y12700000D02*
X51562000Y9144000D01*
X52324000Y13462000D02*
X51562000Y12700000D01*
X61468000Y13462000D02*
X64008000Y13462000D01*
%TO.N,/D33*%
X44958000Y7620000D02*
X46482000Y9144000D01*
X44958000Y5334000D02*
X44958000Y7620000D01*
X61468000Y16002000D02*
X48006000Y16002000D01*
X46482000Y14478000D02*
X46482000Y9144000D01*
X48006000Y16002000D02*
X46482000Y14478000D01*
X61468000Y16002000D02*
X64008000Y16002000D01*
%TO.N,/A13*%
X31242000Y14986000D02*
X31242000Y9144000D01*
X33765949Y17509949D02*
X31242000Y14986000D01*
X59927949Y17509949D02*
X33765949Y17509949D01*
X60960000Y18542000D02*
X59927949Y17509949D01*
X64008000Y18542000D02*
X60960000Y18542000D01*
%TO.N,/A11*%
X17018000Y8128000D02*
X16002000Y9144000D01*
X17018000Y5334000D02*
X17018000Y8128000D01*
X16002000Y16256000D02*
X16002000Y9144000D01*
X18055959Y18309959D02*
X16002000Y16256000D01*
X57933959Y18309959D02*
X18055959Y18309959D01*
X60706000Y21082000D02*
X57933959Y18309959D01*
X64008000Y21082000D02*
X60706000Y21082000D01*
%TO.N,/A9*%
X62114616Y23622000D02*
X64008000Y23622000D01*
X57602585Y19109969D02*
X62114616Y23622000D01*
X29912031Y19109969D02*
X57602585Y19109969D01*
X28702000Y20320000D02*
X29912031Y19109969D01*
X28702000Y22860000D02*
X28702000Y20320000D01*
%TO.N,/A7*%
X61976000Y26162000D02*
X64008000Y26162000D01*
X61214000Y25400000D02*
X61976000Y26162000D01*
X61214000Y23852768D02*
X61214000Y25400000D01*
X57271211Y19909979D02*
X61214000Y23852768D01*
X31906021Y19909979D02*
X57271211Y19909979D01*
X31242000Y20574000D02*
X31906021Y19909979D01*
X31242000Y22860000D02*
X31242000Y20574000D01*
%TO.N,/A5*%
X33782000Y21082000D02*
X33782000Y22860000D01*
X34154011Y20709989D02*
X33782000Y21082000D01*
X56939837Y20709989D02*
X34154011Y20709989D01*
X60413990Y24184142D02*
X56939837Y20709989D01*
X60413990Y27940000D02*
X60413990Y24184142D01*
X61175990Y28702000D02*
X60413990Y27940000D01*
X64008000Y28702000D02*
X61175990Y28702000D01*
%TO.N,/A3*%
X56608463Y21509999D02*
X36322000Y21509999D01*
X59613980Y24561980D02*
X56608463Y21556463D01*
X36322000Y21509999D02*
X36322000Y22860000D01*
X59613980Y30403980D02*
X59613980Y24561980D01*
X56608463Y21556463D02*
X56608463Y21509999D01*
X60452000Y31242000D02*
X59613980Y30403980D01*
X64008000Y31242000D02*
X60452000Y31242000D01*
D19*
%TO.N,/GND*%
X22098000Y5334000D02*
X22352000Y5334000D01*
X22098000Y4974849D02*
X22098000Y5334000D01*
X8890000Y26162000D02*
X8890000Y9144000D01*
X8890000Y3810000D02*
X8890000Y9144000D01*
X11106010Y1593990D02*
X8890000Y3810000D01*
X21405990Y1593990D02*
X11106010Y1593990D01*
X22098000Y2286000D02*
X21405990Y1593990D01*
X22098000Y5334000D02*
X22098000Y2286000D01*
X37776010Y1593990D02*
X48837990Y1593990D01*
X36322000Y3048000D02*
X37776010Y1593990D01*
X50038000Y2794000D02*
X50038000Y5334000D01*
X48837990Y1593990D02*
X50038000Y2794000D01*
X36322000Y5334000D02*
X36322000Y3048000D01*
X36322000Y9144000D02*
X36322000Y5334000D01*
X26162000Y5588000D02*
X26416000Y5334000D01*
X26162000Y9144000D02*
X26162000Y5588000D01*
X26416000Y5334000D02*
X36322000Y5334000D01*
X22098000Y5334000D02*
X26416000Y5334000D01*
X41402000Y32766000D02*
X41402000Y22860000D01*
X42418000Y33782000D02*
X41402000Y32766000D01*
X48514000Y33528000D02*
X48768000Y33782000D01*
X48514000Y26162000D02*
X48514000Y33528000D01*
X48768000Y33782000D02*
X42418000Y33782000D01*
X61468000Y33782000D02*
X48768000Y33782000D01*
X61468000Y33782000D02*
X64008000Y33782000D01*
%TO.N,/5V*%
X8890000Y43688000D02*
X8890000Y44580002D01*
X19558000Y7620000D02*
X21082000Y9144000D01*
X19558000Y5334000D02*
X19558000Y7620000D01*
X19558000Y5334000D02*
X19558000Y3302000D01*
X19558000Y3302000D02*
X19050000Y2794000D01*
X19050000Y2794000D02*
X12446000Y2794000D01*
X12446000Y2794000D02*
X12446000Y43180000D01*
X41402000Y3302000D02*
X41402000Y9144000D01*
X46990000Y2794000D02*
X41910000Y2794000D01*
X47498000Y3302000D02*
X46990000Y2794000D01*
X41910000Y2794000D02*
X41402000Y3302000D01*
X47498000Y5334000D02*
X47498000Y3302000D01*
X21082000Y9144000D02*
X21082000Y11430000D01*
X21082000Y11430000D02*
X21082000Y11684000D01*
X21082000Y11684000D02*
X21590000Y12192000D01*
X21590000Y12192000D02*
X27686000Y12192000D01*
X27686000Y12192000D02*
X28702000Y11176000D01*
X28702000Y6604000D02*
X28771990Y6534010D01*
X28702000Y11176000D02*
X28702000Y6604000D01*
X28771990Y6534010D02*
X29210000Y6534010D01*
X41402000Y11430000D02*
X41402000Y9144000D01*
X40640000Y12192000D02*
X41402000Y11430000D01*
X35052000Y12192000D02*
X40640000Y12192000D01*
X33782000Y10922000D02*
X35052000Y12192000D01*
X33782000Y7112000D02*
X33782000Y10922000D01*
X33204010Y6534010D02*
X33782000Y7112000D01*
X28771990Y6534010D02*
X33204010Y6534010D01*
X38862000Y34798000D02*
X38862000Y22860000D01*
X34290000Y43688000D02*
X38862000Y39116000D01*
X39116000Y36322000D02*
X38862000Y36576000D01*
X61468000Y36322000D02*
X39116000Y36322000D01*
X38862000Y36576000D02*
X38862000Y34798000D01*
X38862000Y39116000D02*
X38862000Y36576000D01*
X12446000Y43180000D02*
X12446000Y43688000D01*
X12446000Y43688000D02*
X34290000Y43688000D01*
X8890000Y43688000D02*
X12446000Y43688000D01*
X61468000Y36322000D02*
X64008000Y36322000D01*
%TO.N,/VIN*%
X47945988Y45780012D02*
X48514000Y45212000D01*
X7182010Y45780012D02*
X47945988Y45780012D01*
X6860001Y45458003D02*
X7182010Y45780012D01*
X6860001Y17782001D02*
X6860001Y45458003D01*
X3810000Y14732000D02*
X6860001Y17782001D01*
X48514000Y45212000D02*
X48514000Y43688000D01*
X3810000Y9144000D02*
X3810000Y14732000D01*
%TD*%
M02*
