%TF.GenerationSoftware,KiCad,Pcbnew,(5.1.7)-1*%
%TF.CreationDate,2023-11-14T09:03:03-07:00*%
%TF.ProjectId,SIOST,53494f53-542e-46b6-9963-61645f706362,rev?*%
%TF.SameCoordinates,PX6a95280PY5a1c5c0*%
%TF.FileFunction,Copper,L1,Top*%
%TF.FilePolarity,Positive*%
%FSLAX46Y46*%
G04 Gerber Fmt 4.6, Leading zero omitted, Abs format (unit mm)*
G04 Created by KiCad (PCBNEW (5.1.7)-1) date 2023-11-14 09:03:03*
%MOMM*%
%LPD*%
G01*
G04 APERTURE LIST*
%TA.AperFunction,ComponentPad*%
%ADD10O,1.700000X1.700000*%
%TD*%
%TA.AperFunction,ComponentPad*%
%ADD11R,1.700000X1.700000*%
%TD*%
%TA.AperFunction,ComponentPad*%
%ADD12C,4.700000*%
%TD*%
%TA.AperFunction,Conductor*%
%ADD13C,0.400000*%
%TD*%
%TA.AperFunction,Conductor*%
%ADD14C,1.200000*%
%TD*%
G04 APERTURE END LIST*
D10*
%TO.P,J4,14*%
%TO.N,/D31*%
X23876000Y11176000D03*
%TO.P,J4,13*%
%TO.N,/D30*%
X26416000Y11176000D03*
%TO.P,J4,12*%
%TO.N,/D29*%
X23876000Y13716000D03*
%TO.P,J4,11*%
%TO.N,/D28*%
X26416000Y13716000D03*
%TO.P,J4,10*%
%TO.N,/D27*%
X23876000Y16256000D03*
%TO.P,J4,9*%
%TO.N,/D26*%
X26416000Y16256000D03*
%TO.P,J4,8*%
%TO.N,/D25*%
X23876000Y18796000D03*
%TO.P,J4,7*%
%TO.N,/D24*%
X26416000Y18796000D03*
%TO.P,J4,6*%
%TO.N,/D23*%
X23876000Y21336000D03*
%TO.P,J4,5*%
%TO.N,/D22*%
X26416000Y21336000D03*
%TO.P,J4,4*%
%TO.N,/D21*%
X23876000Y23876000D03*
%TO.P,J4,3*%
%TO.N,/D20*%
X26416000Y23876000D03*
%TO.P,J4,2*%
%TO.N,/D19*%
X23876000Y26416000D03*
D11*
%TO.P,J4,1*%
%TO.N,/D18*%
X26416000Y26416000D03*
%TD*%
D12*
%TO.P,REF\u002A\u002A,1*%
%TO.N,N/C*%
X64262000Y37338000D03*
%TD*%
%TO.P,REF\u002A\u002A,1*%
%TO.N,N/C*%
X51816000Y19812000D03*
%TD*%
%TO.P,REF\u002A\u002A,1*%
%TO.N,N/C*%
X19050000Y54864000D03*
%TD*%
%TO.P,REF\u002A\u002A,1*%
%TO.N,N/C*%
X19050000Y37338000D03*
%TD*%
%TO.P,REF\u002A\u002A,1*%
%TO.N,N/C*%
X51816000Y54864000D03*
%TD*%
D10*
%TO.P,J2,46*%
%TO.N,/5V*%
X2540000Y2286000D03*
%TO.P,J2,45*%
%TO.N,/GND*%
X5080000Y2286000D03*
%TO.P,J2,44*%
%TO.N,/5V*%
X2540000Y4826000D03*
%TO.P,J2,43*%
%TO.N,/GND*%
X5080000Y4826000D03*
%TO.P,J2,42*%
%TO.N,/5V*%
X2540000Y7366000D03*
%TO.P,J2,41*%
%TO.N,/GND*%
X5080000Y7366000D03*
%TO.P,J2,40*%
%TO.N,/5V*%
X2540000Y9906000D03*
%TO.P,J2,39*%
%TO.N,/GND*%
X5080000Y9906000D03*
%TO.P,J2,38*%
%TO.N,/5V*%
X2540000Y12446000D03*
%TO.P,J2,37*%
%TO.N,/GND*%
X5080000Y12446000D03*
%TO.P,J2,36*%
%TO.N,/5V*%
X2540000Y14986000D03*
%TO.P,J2,35*%
%TO.N,/GND*%
X5080000Y14986000D03*
%TO.P,J2,34*%
%TO.N,/5V*%
X2540000Y17526000D03*
%TO.P,J2,33*%
%TO.N,/GND*%
X5080000Y17526000D03*
%TO.P,J2,32*%
%TO.N,/5V*%
X2540000Y20066000D03*
%TO.P,J2,31*%
%TO.N,/GND*%
X5080000Y20066000D03*
%TO.P,J2,30*%
%TO.N,/5V*%
X2540000Y22606000D03*
%TO.P,J2,29*%
%TO.N,/GND*%
X5080000Y22606000D03*
%TO.P,J2,28*%
%TO.N,/5V*%
X2540000Y25146000D03*
%TO.P,J2,27*%
%TO.N,/GND*%
X5080000Y25146000D03*
%TO.P,J2,26*%
%TO.N,/5V*%
X2540000Y27686000D03*
%TO.P,J2,25*%
%TO.N,/GND*%
X5080000Y27686000D03*
%TO.P,J2,24*%
%TO.N,/5V*%
X2540000Y30226000D03*
%TO.P,J2,23*%
%TO.N,/GND*%
X5080000Y30226000D03*
%TO.P,J2,22*%
%TO.N,/5V*%
X2540000Y32766000D03*
%TO.P,J2,21*%
%TO.N,/GND*%
X5080000Y32766000D03*
%TO.P,J2,20*%
%TO.N,/5V*%
X2540000Y35306000D03*
%TO.P,J2,19*%
%TO.N,/GND*%
X5080000Y35306000D03*
%TO.P,J2,18*%
%TO.N,/5V*%
X2540000Y37846000D03*
%TO.P,J2,17*%
%TO.N,/GND*%
X5080000Y37846000D03*
%TO.P,J2,16*%
%TO.N,/5V*%
X2540000Y40386000D03*
%TO.P,J2,15*%
%TO.N,/GND*%
X5080000Y40386000D03*
%TO.P,J2,14*%
%TO.N,/5V*%
X2540000Y42926000D03*
%TO.P,J2,13*%
%TO.N,/GND*%
X5080000Y42926000D03*
%TO.P,J2,12*%
%TO.N,/5V*%
X2540000Y45466000D03*
%TO.P,J2,11*%
%TO.N,/GND*%
X5080000Y45466000D03*
%TO.P,J2,10*%
%TO.N,/5V*%
X2540000Y48006000D03*
%TO.P,J2,9*%
%TO.N,/GND*%
X5080000Y48006000D03*
%TO.P,J2,8*%
%TO.N,/5V*%
X2540000Y50546000D03*
%TO.P,J2,7*%
%TO.N,/GND*%
X5080000Y50546000D03*
%TO.P,J2,6*%
%TO.N,/5V*%
X2540000Y53086000D03*
%TO.P,J2,5*%
%TO.N,/GND*%
X5080000Y53086000D03*
%TO.P,J2,4*%
%TO.N,/5V*%
X2540000Y55626000D03*
%TO.P,J2,3*%
%TO.N,/GND*%
X5080000Y55626000D03*
%TO.P,J2,2*%
%TO.N,/5V*%
X2540000Y58166000D03*
D11*
%TO.P,J2,1*%
%TO.N,/GND*%
X5080000Y58166000D03*
%TD*%
D10*
%TO.P,J5,32*%
%TO.N,/D47*%
X56896000Y11176000D03*
%TO.P,J5,31*%
%TO.N,/D46*%
X59436000Y11176000D03*
%TO.P,J5,30*%
%TO.N,/D45*%
X56896000Y13716000D03*
%TO.P,J5,29*%
%TO.N,/D44*%
X59436000Y13716000D03*
%TO.P,J5,28*%
%TO.N,/D43*%
X56896000Y16256000D03*
%TO.P,J5,27*%
%TO.N,/D42*%
X59436000Y16256000D03*
%TO.P,J5,26*%
%TO.N,/D41*%
X56896000Y18796000D03*
%TO.P,J5,25*%
%TO.N,/D40*%
X59436000Y18796000D03*
%TO.P,J5,24*%
%TO.N,/D39*%
X56896000Y21336000D03*
%TO.P,J5,23*%
%TO.N,/D38*%
X59436000Y21336000D03*
%TO.P,J5,22*%
%TO.N,/D37*%
X56896000Y23876000D03*
%TO.P,J5,21*%
%TO.N,/D36*%
X59436000Y23876000D03*
%TO.P,J5,20*%
%TO.N,/D35*%
X56896000Y26416000D03*
%TO.P,J5,19*%
%TO.N,/D34*%
X59436000Y26416000D03*
%TO.P,J5,18*%
%TO.N,/D33*%
X56896000Y28956000D03*
%TO.P,J5,17*%
%TO.N,/D32*%
X59436000Y28956000D03*
%TO.P,J5,16*%
%TO.N,/A15*%
X56896000Y31496000D03*
%TO.P,J5,15*%
%TO.N,/A14*%
X59436000Y31496000D03*
%TO.P,J5,14*%
%TO.N,/A13*%
X56896000Y34036000D03*
%TO.P,J5,13*%
%TO.N,/A12*%
X59436000Y34036000D03*
%TO.P,J5,12*%
%TO.N,/A11*%
X56896000Y36576000D03*
%TO.P,J5,11*%
%TO.N,/A10*%
X59436000Y36576000D03*
%TO.P,J5,10*%
%TO.N,/A9*%
X56896000Y39116000D03*
%TO.P,J5,9*%
%TO.N,/A8*%
X59436000Y39116000D03*
%TO.P,J5,8*%
%TO.N,/A7*%
X56896000Y41656000D03*
%TO.P,J5,7*%
%TO.N,/A6*%
X59436000Y41656000D03*
%TO.P,J5,6*%
%TO.N,/A5*%
X56896000Y44196000D03*
%TO.P,J5,5*%
%TO.N,/A4*%
X59436000Y44196000D03*
%TO.P,J5,4*%
%TO.N,/A3*%
X56896000Y46736000D03*
%TO.P,J5,3*%
%TO.N,/A2*%
X59436000Y46736000D03*
%TO.P,J5,2*%
%TO.N,/A1*%
X56896000Y49276000D03*
D11*
%TO.P,J5,1*%
%TO.N,/A0*%
X59436000Y49276000D03*
%TD*%
D10*
%TO.P,J3,46*%
%TO.N,/D47*%
X7620000Y2286000D03*
%TO.P,J3,45*%
%TO.N,/D46*%
X10160000Y2286000D03*
%TO.P,J3,44*%
%TO.N,/D45*%
X7620000Y4826000D03*
%TO.P,J3,43*%
%TO.N,/D44*%
X10160000Y4826000D03*
%TO.P,J3,42*%
%TO.N,/D43*%
X7620000Y7366000D03*
%TO.P,J3,41*%
%TO.N,/D42*%
X10160000Y7366000D03*
%TO.P,J3,40*%
%TO.N,/D41*%
X7620000Y9906000D03*
%TO.P,J3,39*%
%TO.N,/D40*%
X10160000Y9906000D03*
%TO.P,J3,38*%
%TO.N,/D39*%
X7620000Y12446000D03*
%TO.P,J3,37*%
%TO.N,/D38*%
X10160000Y12446000D03*
%TO.P,J3,36*%
%TO.N,/D37*%
X7620000Y14986000D03*
%TO.P,J3,35*%
%TO.N,/D36*%
X10160000Y14986000D03*
%TO.P,J3,34*%
%TO.N,/D35*%
X7620000Y17526000D03*
%TO.P,J3,33*%
%TO.N,/D34*%
X10160000Y17526000D03*
%TO.P,J3,32*%
%TO.N,/D33*%
X7620000Y20066000D03*
%TO.P,J3,31*%
%TO.N,/D32*%
X10160000Y20066000D03*
%TO.P,J3,30*%
%TO.N,/D31*%
X7620000Y22606000D03*
%TO.P,J3,29*%
%TO.N,/D30*%
X10160000Y22606000D03*
%TO.P,J3,28*%
%TO.N,/D29*%
X7620000Y25146000D03*
%TO.P,J3,27*%
%TO.N,/D28*%
X10160000Y25146000D03*
%TO.P,J3,26*%
%TO.N,/D27*%
X7620000Y27686000D03*
%TO.P,J3,25*%
%TO.N,/D26*%
X10160000Y27686000D03*
%TO.P,J3,24*%
%TO.N,/D25*%
X7620000Y30226000D03*
%TO.P,J3,23*%
%TO.N,/D24*%
X10160000Y30226000D03*
%TO.P,J3,22*%
%TO.N,/D23*%
X7620000Y32766000D03*
%TO.P,J3,21*%
%TO.N,/D22*%
X10160000Y32766000D03*
%TO.P,J3,20*%
%TO.N,/D21*%
X7620000Y35306000D03*
%TO.P,J3,19*%
%TO.N,/D20*%
X10160000Y35306000D03*
%TO.P,J3,18*%
%TO.N,/D19*%
X7620000Y37846000D03*
%TO.P,J3,17*%
%TO.N,/D18*%
X10160000Y37846000D03*
%TO.P,J3,16*%
%TO.N,/A15*%
X7620000Y40386000D03*
%TO.P,J3,15*%
%TO.N,/A14*%
X10160000Y40386000D03*
%TO.P,J3,14*%
%TO.N,/A13*%
X7620000Y42926000D03*
%TO.P,J3,13*%
%TO.N,/A12*%
X10160000Y42926000D03*
%TO.P,J3,12*%
%TO.N,/A11*%
X7620000Y45466000D03*
%TO.P,J3,11*%
%TO.N,/A10*%
X10160000Y45466000D03*
%TO.P,J3,10*%
%TO.N,/A9*%
X7620000Y48006000D03*
%TO.P,J3,9*%
%TO.N,/A8*%
X10160000Y48006000D03*
%TO.P,J3,8*%
%TO.N,/A7*%
X7620000Y50546000D03*
%TO.P,J3,7*%
%TO.N,/A6*%
X10160000Y50546000D03*
%TO.P,J3,6*%
%TO.N,/A5*%
X7620000Y53086000D03*
%TO.P,J3,5*%
%TO.N,/A4*%
X10160000Y53086000D03*
%TO.P,J3,4*%
%TO.N,/A3*%
X7620000Y55626000D03*
%TO.P,J3,3*%
%TO.N,/A2*%
X10160000Y55626000D03*
%TO.P,J3,2*%
%TO.N,/A1*%
X7620000Y58166000D03*
D11*
%TO.P,J3,1*%
%TO.N,/A0*%
X10160000Y58166000D03*
%TD*%
D12*
%TO.P,REF\u002A\u002A,1*%
%TO.N,N/C*%
X19050000Y19812000D03*
%TD*%
D11*
%TO.P,J1,1*%
%TO.N,Net-(J1-Pad1)*%
X23876000Y61976000D03*
D10*
%TO.P,J1,2*%
%TO.N,/GND*%
X23876000Y59436000D03*
%TO.P,J1,3*%
%TO.N,/5V*%
X23876000Y56896000D03*
%TO.P,J1,4*%
%TO.N,Net-(J1-Pad4)*%
X23876000Y54356000D03*
%TO.P,J1,5*%
%TO.N,Net-(J1-Pad5)*%
X23876000Y51816000D03*
%TD*%
D13*
%TO.N,/D45*%
X15133699Y3536001D02*
X8909999Y3536001D01*
X32166917Y2125869D02*
X16543831Y2125869D01*
X43757048Y13716000D02*
X32166917Y2125869D01*
X8909999Y3536001D02*
X7620000Y4826000D01*
X16543831Y2125869D02*
X15133699Y3536001D01*
X43757048Y13716000D02*
X56896000Y13716000D01*
%TO.N,/D33*%
X8909999Y18776001D02*
X7620000Y20066000D01*
X11195999Y18776001D02*
X8909999Y18776001D01*
X12055936Y17916064D02*
X11195999Y18776001D01*
X12055937Y16796267D02*
X12055936Y17916064D01*
X29184533Y9325989D02*
X19526215Y9325989D01*
X19526215Y9325989D02*
X12055937Y16796267D01*
X48814544Y28956000D02*
X29184533Y9325989D01*
X48814544Y28956000D02*
X56896000Y28956000D01*
%TO.N,/A13*%
X57404000Y34036000D02*
X56896000Y34036000D01*
X14385990Y36344346D02*
X14443168Y36287168D01*
X14385990Y39629468D02*
X14385990Y36344346D01*
X12339459Y41675999D02*
X14385990Y39629468D01*
X8870001Y41675999D02*
X12339459Y41675999D01*
X7620000Y42926000D02*
X8870001Y41675999D01*
X18034316Y32696020D02*
X14443168Y36287168D01*
X56896000Y34036000D02*
X55458542Y34036000D01*
X55458542Y34036000D02*
X54118562Y32696020D01*
X53917980Y32696020D02*
X18034316Y32696020D01*
X54118562Y32696020D02*
X53917980Y32696020D01*
%TO.N,/A11*%
X57063458Y36576000D02*
X57404000Y36576000D01*
X15696290Y41096290D02*
X15748000Y41148000D01*
X12616579Y44176001D02*
X15696290Y41096290D01*
X8909999Y44176001D02*
X12616579Y44176001D01*
X7620000Y45466000D02*
X8909999Y44176001D01*
X55372000Y36576000D02*
X50800000Y41148000D01*
X56896000Y36576000D02*
X55372000Y36576000D01*
X15748000Y41148000D02*
X50800000Y41148000D01*
%TO.N,/A9*%
X57404000Y39116000D02*
X57404000Y39370000D01*
X8890000Y46736000D02*
X7620000Y48006000D01*
X11753664Y46736000D02*
X8890000Y46736000D01*
X16141644Y42348020D02*
X11753664Y46736000D01*
X56896000Y39116000D02*
X54529084Y39116000D01*
X51297064Y42348020D02*
X51123980Y42348020D01*
X54529084Y39116000D02*
X51297064Y42348020D01*
X51123980Y42348020D02*
X16141644Y42348020D01*
%TO.N,/A7*%
X8309998Y50546000D02*
X9599997Y49256001D01*
X7620000Y50546000D02*
X8309998Y50546000D01*
X10960622Y49256001D02*
X10941999Y49256001D01*
X57404000Y41656000D02*
X56734168Y41656000D01*
X16668583Y43548040D02*
X10960622Y49256001D01*
X9599997Y49256001D02*
X10941999Y49256001D01*
X56896000Y41656000D02*
X53686168Y41656000D01*
X51794128Y43548040D02*
X51676040Y43548040D01*
X51676040Y43548040D02*
X16668583Y43548040D01*
X53686168Y41656000D02*
X51794128Y43548040D01*
%TO.N,/A5*%
X8890000Y51816000D02*
X7620000Y53086000D01*
X10740002Y51816000D02*
X8890000Y51816000D01*
X17165647Y44748060D02*
X12033853Y49879854D01*
X12033853Y50522149D02*
X10740002Y51816000D01*
X12033853Y49879854D02*
X12033853Y50522149D01*
X52291192Y44748060D02*
X52114060Y44748060D01*
X52843252Y44196000D02*
X52291192Y44748060D01*
X56896000Y44196000D02*
X52843252Y44196000D01*
X52114060Y44748060D02*
X17165647Y44748060D01*
%TO.N,/A3*%
X55259538Y45948080D02*
X17662711Y45948080D01*
X17662711Y45948080D02*
X13233873Y50376918D01*
X13233873Y50376918D02*
X13233873Y52806127D01*
X8870001Y54375999D02*
X7620000Y55626000D01*
X11664001Y54375999D02*
X8870001Y54375999D01*
X13233873Y52806127D02*
X11664001Y54375999D01*
X56047458Y46736000D02*
X55259538Y45948080D01*
X56896000Y46736000D02*
X56047458Y46736000D01*
D14*
%TO.N,/GND*%
X5080000Y58166000D02*
X5080000Y55626000D01*
X5080000Y55626000D02*
X5080000Y53086000D01*
X5080000Y53086000D02*
X5080000Y50546000D01*
X5080000Y50546000D02*
X5080000Y48006000D01*
X5080000Y48006000D02*
X5080000Y45466000D01*
X5080000Y45466000D02*
X5080000Y42926000D01*
X5080000Y42926000D02*
X5080000Y40386000D01*
X5080000Y40386000D02*
X5080000Y37846000D01*
X5080000Y37846000D02*
X5080000Y35306000D01*
X5080000Y35306000D02*
X5080000Y32766000D01*
X5080000Y32766000D02*
X5080000Y30226000D01*
X5080000Y30226000D02*
X5080000Y27686000D01*
X5080000Y27686000D02*
X5080000Y25146000D01*
X5080000Y25146000D02*
X5080000Y22606000D01*
X5080000Y22606000D02*
X5080000Y20066000D01*
X5080000Y20066000D02*
X5080000Y17526000D01*
X5080000Y17526000D02*
X5080000Y14986000D01*
X5080000Y14986000D02*
X5080000Y12446000D01*
X5080000Y12446000D02*
X5080000Y9906000D01*
X5080000Y9906000D02*
X5080000Y7366000D01*
X5080000Y7366000D02*
X5080000Y4826000D01*
X5080000Y4826000D02*
X5080000Y2286000D01*
X21844000Y59436000D02*
X23876000Y59436000D01*
X18227020Y63052980D02*
X21844000Y59436000D01*
X5842000Y63052980D02*
X18227020Y63052980D01*
X5080000Y62290980D02*
X5842000Y63052980D01*
X5080000Y58166000D02*
X5080000Y62290980D01*
%TO.N,/5V*%
X2540000Y58166000D02*
X2540000Y55626000D01*
X2540000Y55626000D02*
X2540000Y53086000D01*
X2540000Y53086000D02*
X2540000Y50546000D01*
X2540000Y50546000D02*
X2540000Y48006000D01*
X2540000Y48006000D02*
X2540000Y45466000D01*
X2540000Y45466000D02*
X2540000Y42926000D01*
X2540000Y42926000D02*
X2540000Y40386000D01*
X2540000Y40386000D02*
X2540000Y37846000D01*
X2540000Y37846000D02*
X2540000Y35306000D01*
X2540000Y35306000D02*
X2540000Y32766000D01*
X2540000Y32766000D02*
X2540000Y30226000D01*
X2540000Y30226000D02*
X2540000Y27686000D01*
X2540000Y27686000D02*
X2540000Y25146000D01*
X2540000Y25146000D02*
X2540000Y22606000D01*
X2540000Y22606000D02*
X2540000Y20066000D01*
X2540000Y20066000D02*
X2540000Y17526000D01*
X2540000Y17526000D02*
X2540000Y14986000D01*
X2540000Y14986000D02*
X2540000Y12446000D01*
X2540000Y12446000D02*
X2540000Y9906000D01*
X2540000Y9906000D02*
X2540000Y7366000D01*
X2540000Y7366000D02*
X2540000Y4826000D01*
X2540000Y4826000D02*
X2540000Y2286000D01*
X25654000Y56896000D02*
X23876000Y56896000D01*
X26416000Y57658000D02*
X25654000Y56896000D01*
X26416000Y64262000D02*
X26416000Y57658000D01*
X26225010Y64452990D02*
X26416000Y64262000D01*
X3746990Y64452990D02*
X26225010Y64452990D01*
X2540000Y63246000D02*
X3746990Y64452990D01*
X2540000Y58166000D02*
X2540000Y63246000D01*
D13*
%TO.N,/A0*%
X15033901Y51122516D02*
X18408307Y47748110D01*
X15033901Y53551723D02*
X15033901Y51122516D01*
X10419626Y58166000D02*
X15033901Y53551723D01*
X10160000Y58166000D02*
X10419626Y58166000D01*
X59436000Y49276000D02*
X59436000Y49784000D01*
X59436000Y49784000D02*
X58420000Y50800000D01*
X53518108Y47748110D02*
X53343890Y47748110D01*
X56569998Y50800000D02*
X53518108Y47748110D01*
X58420000Y50800000D02*
X56569998Y50800000D01*
X18408307Y47748110D02*
X53343890Y47748110D01*
%TO.N,/A1*%
X57404000Y49276000D02*
X56890374Y49276000D01*
X7739998Y58166000D02*
X7620000Y58166000D01*
X10841084Y56896000D02*
X9009998Y56896000D01*
X14433892Y53303192D02*
X10841084Y56896000D01*
X9009998Y56896000D02*
X7739998Y58166000D01*
X14433893Y50873982D02*
X14433892Y53303192D01*
X18159775Y47148100D02*
X14433893Y50873982D01*
X54100422Y47148100D02*
X18159775Y47148100D01*
X56228322Y49276000D02*
X54100422Y47148100D01*
X56896000Y49276000D02*
X56228322Y49276000D01*
%TO.N,/A2*%
X10160000Y55626000D02*
X11262542Y55626000D01*
X11262542Y55626000D02*
X13833883Y53054659D01*
X13833883Y53054659D02*
X13833883Y50625450D01*
X13833883Y50625450D02*
X17911243Y46548090D01*
X56235821Y47986001D02*
X54797910Y46548090D01*
X58185999Y47986001D02*
X56235821Y47986001D01*
X59436000Y46736000D02*
X58185999Y47986001D01*
X17911243Y46548090D02*
X54797910Y46548090D01*
%TO.N,/A4*%
X59254002Y44196000D02*
X59944000Y44196000D01*
X11362081Y53086000D02*
X10160000Y53086000D01*
X12633863Y51814218D02*
X11362081Y53086000D01*
X12633863Y50128386D02*
X12633863Y51814218D01*
X17414179Y45348070D02*
X12633863Y50128386D01*
X55508070Y45348070D02*
X17414179Y45348070D01*
X55606001Y45446001D02*
X55508070Y45348070D01*
X58185999Y45446001D02*
X55606001Y45446001D01*
X59436000Y44196000D02*
X58185999Y45446001D01*
%TO.N,/A6*%
X10160000Y50546000D02*
X10489290Y50546000D01*
X10519165Y50546000D02*
X10160000Y50546000D01*
X16917115Y44148050D02*
X10519165Y50546000D01*
X52042660Y44148050D02*
X51863950Y44148050D01*
X53284709Y42906001D02*
X52042660Y44148050D01*
X58185999Y42906001D02*
X53284709Y42906001D01*
X59436000Y41656000D02*
X58185999Y42906001D01*
X51863950Y44148050D02*
X16917115Y44148050D01*
%TO.N,/A8*%
X11362081Y48006000D02*
X10160000Y48006000D01*
X16390176Y42977905D02*
X11362081Y48006000D01*
X16390176Y42948030D02*
X16390176Y42977905D01*
X58185999Y40366001D02*
X54127625Y40366001D01*
X59436000Y39116000D02*
X58185999Y40366001D01*
X51545596Y42948030D02*
X51330030Y42948030D01*
X54127625Y40366001D02*
X51545596Y42948030D01*
X51330030Y42948030D02*
X16390176Y42948030D01*
%TO.N,/A10*%
X12175122Y45466000D02*
X15893112Y41748010D01*
X10160000Y45466000D02*
X12175122Y45466000D01*
X58185999Y37826001D02*
X54970541Y37826001D01*
X59436000Y36576000D02*
X58185999Y37826001D01*
X51048532Y41748010D02*
X50961990Y41748010D01*
X54970541Y37826001D02*
X51048532Y41748010D01*
X15893112Y41748010D02*
X50961990Y41748010D01*
%TO.N,/A12*%
X10160000Y42926000D02*
X10318544Y42926000D01*
X15121439Y36457439D02*
X15375439Y36203439D01*
X15375439Y36203439D02*
X18282848Y33296030D01*
X14986000Y36592878D02*
X15375439Y36203439D01*
X10160000Y42926000D02*
X11938000Y42926000D01*
X11938000Y42926000D02*
X14986000Y39878000D01*
X14986000Y39878000D02*
X14986000Y36592878D01*
X58185999Y35286001D02*
X55860001Y35286001D01*
X59436000Y34036000D02*
X58185999Y35286001D01*
X55860001Y35286001D02*
X53870030Y33296030D01*
X53870030Y33296030D02*
X53825970Y33296030D01*
X18282848Y33296030D02*
X53825970Y33296030D01*
%TO.N,/A14*%
X10160000Y40386000D02*
X12780916Y40386000D01*
X12780916Y40386000D02*
X13785980Y39380936D01*
X13785980Y36095814D02*
X13891897Y35989897D01*
X13785980Y39380936D02*
X13785980Y36095814D01*
X13891897Y35989897D02*
X17785784Y32096010D01*
X59436000Y31496000D02*
X58166000Y32766000D01*
X54367094Y32096010D02*
X54263990Y32096010D01*
X58166000Y32766000D02*
X55037084Y32766000D01*
X55037084Y32766000D02*
X54367094Y32096010D01*
X17785784Y32096010D02*
X54263990Y32096010D01*
%TO.N,/A15*%
X17537252Y31496000D02*
X56896000Y31496000D01*
X13185970Y35847282D02*
X17537252Y31496000D01*
X13185970Y38884030D02*
X13185970Y35847282D01*
X12934001Y39135999D02*
X13185970Y38884030D01*
X8870001Y39135999D02*
X12934001Y39135999D01*
X7620000Y40386000D02*
X8870001Y39135999D01*
%TO.N,/D32*%
X10160000Y20066000D02*
X10414000Y20066000D01*
X10160000Y20066000D02*
X12147945Y20066000D01*
X12655946Y19557999D02*
X12655946Y17044800D01*
X12147945Y20066000D02*
X12655946Y19557999D01*
X19774747Y9925999D02*
X28936001Y9925999D01*
X12655946Y17044800D02*
X19774747Y9925999D01*
X49256001Y30245999D02*
X28936001Y9925999D01*
X58146001Y30245999D02*
X59436000Y28956000D01*
X49256001Y30245999D02*
X58146001Y30245999D01*
%TO.N,/D34*%
X11455928Y17432153D02*
X11362081Y17526000D01*
X11455928Y16547734D02*
X11455928Y17432153D01*
X19277683Y8725979D02*
X11455928Y16547734D01*
X11362081Y17526000D02*
X10160000Y17526000D01*
X29433065Y8725979D02*
X19277683Y8725979D01*
X48413085Y27705999D02*
X29433065Y8725979D01*
X58146001Y27705999D02*
X59436000Y26416000D01*
X48413085Y27705999D02*
X58146001Y27705999D01*
%TO.N,/D35*%
X8870001Y16275999D02*
X7620000Y17526000D01*
X10879121Y16275999D02*
X8870001Y16275999D01*
X19029151Y8125969D02*
X10879121Y16275999D01*
X29681597Y8125969D02*
X19029151Y8125969D01*
X47971628Y26416000D02*
X29681597Y8125969D01*
X47971628Y26416000D02*
X56896000Y26416000D01*
%TO.N,/D36*%
X11320578Y14986000D02*
X10160000Y14986000D01*
X18780619Y7525959D02*
X11320578Y14986000D01*
X47530171Y25126001D02*
X29930129Y7525959D01*
X29930129Y7525959D02*
X18780619Y7525959D01*
X58166000Y25146000D02*
X59436000Y23876000D01*
X56315998Y25146000D02*
X58166000Y25146000D01*
X56295999Y25126001D02*
X56315998Y25146000D01*
X47530171Y25126001D02*
X56295999Y25126001D01*
%TO.N,/D37*%
X30178661Y6925949D02*
X47128712Y23876000D01*
X18532087Y6925949D02*
X30178661Y6925949D01*
X11722037Y13735999D02*
X18532087Y6925949D01*
X8870001Y13735999D02*
X11722037Y13735999D01*
X7620000Y14986000D02*
X8870001Y13735999D01*
X47128712Y23876000D02*
X56896000Y23876000D01*
%TO.N,/D38*%
X58146001Y22625999D02*
X59436000Y21336000D01*
X47377244Y23275990D02*
X55718010Y23275990D01*
X55718010Y23275990D02*
X56368001Y22625999D01*
X30427193Y6325939D02*
X47377244Y23275990D01*
X18283555Y6325939D02*
X30427193Y6325939D01*
X56368001Y22625999D02*
X58146001Y22625999D01*
X12163494Y12446000D02*
X18283555Y6325939D01*
X10160000Y12446000D02*
X12163494Y12446000D01*
%TO.N,/D39*%
X8870001Y11195999D02*
X7620000Y12446000D01*
X12564953Y11195999D02*
X8870001Y11195999D01*
X18035023Y5725929D02*
X12564953Y11195999D01*
X30675725Y5725929D02*
X18035023Y5725929D01*
X55215478Y22675980D02*
X47625776Y22675980D01*
X47625776Y22675980D02*
X30675725Y5725929D01*
X57404000Y21336000D02*
X57150000Y21336000D01*
X56555458Y21336000D02*
X56896000Y21336000D01*
X55215478Y22675980D02*
X56555458Y21336000D01*
%TO.N,/D31*%
X12426001Y21355999D02*
X13255954Y20526046D01*
X8870001Y21355999D02*
X12426001Y21355999D01*
X7620000Y22606000D02*
X8870001Y21355999D01*
X13255954Y20526046D02*
X13255955Y17293333D01*
X19373288Y11176000D02*
X23876000Y11176000D01*
X13255955Y17293333D02*
X19373288Y11176000D01*
%TO.N,/D30*%
X13855964Y21843999D02*
X13093963Y22606000D01*
X13855964Y17541866D02*
X13855964Y21843999D01*
X18971829Y12426001D02*
X13855964Y17541866D01*
X25165999Y12426001D02*
X18971829Y12426001D01*
X13093963Y22606000D02*
X10160000Y22606000D01*
X26416000Y11176000D02*
X25165999Y12426001D01*
%TO.N,/D29*%
X8870001Y23895999D02*
X7620000Y25146000D01*
X14198375Y23895999D02*
X8870001Y23895999D01*
X14455972Y23638402D02*
X14198375Y23895999D01*
X14455973Y17790399D02*
X14455972Y23638402D01*
X18530372Y13716000D02*
X14455973Y17790399D01*
X23876000Y13716000D02*
X18530372Y13716000D01*
%TO.N,/D28*%
X13796916Y25146000D02*
X10160000Y25146000D01*
X15055982Y18038932D02*
X15055982Y23886934D01*
X18128913Y14966001D02*
X15055982Y18038932D01*
X15055982Y23886934D02*
X13796916Y25146000D01*
X25165999Y14966001D02*
X18128913Y14966001D01*
X26416000Y13716000D02*
X25165999Y14966001D01*
%TO.N,/D27*%
X8870001Y26435999D02*
X7620000Y27686000D01*
X13355459Y26435999D02*
X8870001Y26435999D01*
X15655990Y24135468D02*
X13355459Y26435999D01*
X18377445Y15566011D02*
X15655991Y18287465D01*
X21916011Y15566011D02*
X18377445Y15566011D01*
X15655991Y18287465D02*
X15655990Y24135468D01*
X22606000Y16256000D02*
X21916011Y15566011D01*
X23876000Y16256000D02*
X22606000Y16256000D01*
%TO.N,/D26*%
X10160000Y27686000D02*
X10318544Y27686000D01*
X12954000Y27686000D02*
X10160000Y27686000D01*
X16256000Y24384000D02*
X12954000Y27686000D01*
X16256000Y18535998D02*
X16256000Y24384000D01*
X21667479Y16166021D02*
X18625977Y16166021D01*
X23007459Y17506001D02*
X21667479Y16166021D01*
X25165999Y17506001D02*
X23007459Y17506001D01*
X18625977Y16166021D02*
X16256000Y18535998D01*
X26416000Y16256000D02*
X25165999Y17506001D01*
%TO.N,/D25*%
X8870001Y28975999D02*
X13176750Y28975999D01*
X7620000Y30226000D02*
X8870001Y28975999D01*
X18412815Y23739935D02*
X19353523Y23739935D01*
X13176750Y28975999D02*
X18412815Y23739935D01*
X23717456Y18796000D02*
X23876000Y18796000D01*
X22025990Y20487466D02*
X23717456Y18796000D01*
X22025989Y21067469D02*
X22025990Y20487466D01*
X19353523Y23739935D02*
X22025989Y21067469D01*
%TO.N,/D24*%
X10160000Y30226000D02*
X12775290Y30226000D01*
X12775290Y30226000D02*
X18661347Y24339945D01*
X25165999Y20046001D02*
X26416000Y18796000D01*
X23315997Y20046001D02*
X25165999Y20046001D01*
X22625999Y20735999D02*
X23315997Y20046001D01*
X22625999Y21316001D02*
X22625999Y20735999D01*
X19602055Y24339945D02*
X22625999Y21316001D01*
X18661347Y24339945D02*
X19602055Y24339945D01*
%TO.N,/D23*%
X23876000Y21336000D02*
X23622000Y21336000D01*
X23622000Y21336000D02*
X20018047Y24939953D01*
X20018047Y24939953D02*
X18909878Y24939954D01*
X8870001Y31515999D02*
X7620000Y32766000D01*
X12333833Y31515999D02*
X8870001Y31515999D01*
X18909878Y24939954D02*
X12333833Y31515999D01*
%TO.N,/D22*%
X11932374Y32766000D02*
X10160000Y32766000D01*
X19158411Y25539963D02*
X11932374Y32766000D01*
X25165999Y22586001D02*
X23220541Y22586001D01*
X26416000Y21336000D02*
X25165999Y22586001D01*
X20266578Y25539962D02*
X19158410Y25539963D01*
X23220541Y22586001D02*
X20266578Y25539962D01*
%TO.N,/D21*%
X11530915Y34016001D02*
X8909999Y34016001D01*
X19406944Y26139972D02*
X11530915Y34016001D01*
X8909999Y34016001D02*
X7620000Y35306000D01*
X23876000Y23876000D02*
X22779082Y23876000D01*
X20515110Y26139972D02*
X19406944Y26139972D01*
X22779082Y23876000D02*
X20515110Y26139972D01*
%TO.N,/D20*%
X11089458Y35306000D02*
X10160000Y35306000D01*
X19655478Y26739982D02*
X11089458Y35306000D01*
X25165999Y25126001D02*
X22377623Y25126001D01*
X26416000Y23876000D02*
X25165999Y25126001D01*
X20763642Y26739982D02*
X19655478Y26739982D01*
X22377623Y25126001D02*
X20763642Y26739982D01*
%TO.N,/D19*%
X23529990Y26762010D02*
X23876000Y26416000D01*
X8870001Y36595999D02*
X7620000Y37846000D01*
X10648001Y36595999D02*
X8870001Y36595999D01*
X23876000Y26416000D02*
X22952010Y27339990D01*
X22952010Y27339990D02*
X19904009Y27339991D01*
X19904009Y27339991D02*
X10648001Y36595999D01*
%TO.N,/D18*%
X20152542Y27940000D02*
X24892000Y27940000D01*
X24892000Y27940000D02*
X26416000Y26416000D01*
X10414000Y37678542D02*
X20152542Y27940000D01*
X10414000Y37846000D02*
X10414000Y37678542D01*
X10160000Y37846000D02*
X10414000Y37846000D01*
%TO.N,/D47*%
X8980151Y925849D02*
X7620000Y2286000D01*
X42914132Y11176000D02*
X32663981Y925849D01*
X32663981Y925849D02*
X8980151Y925849D01*
X42914132Y11176000D02*
X56896000Y11176000D01*
%TO.N,/D46*%
X58185999Y12426001D02*
X59436000Y11176000D01*
X43315591Y12426001D02*
X58185999Y12426001D01*
X32415449Y1525859D02*
X43315591Y12426001D01*
X16295299Y1525859D02*
X32415449Y1525859D01*
X15535158Y2286000D02*
X16295299Y1525859D01*
X10160000Y2286000D02*
X15535158Y2286000D01*
%TO.N,/D44*%
X31918385Y2725879D02*
X16792363Y2725879D01*
X43854465Y14661959D02*
X31918385Y2725879D01*
X54130129Y14661959D02*
X43854465Y14661959D01*
X14692242Y4826000D02*
X10160000Y4826000D01*
X16792363Y2725879D02*
X14692242Y4826000D01*
X54454170Y14986000D02*
X54130129Y14661959D01*
X58166000Y14986000D02*
X59436000Y13716000D01*
X54454170Y14986000D02*
X58166000Y14986000D01*
%TO.N,/D43*%
X8870001Y6115999D02*
X7620000Y7366000D01*
X14250785Y6115999D02*
X8870001Y6115999D01*
X17040895Y3325889D02*
X14250785Y6115999D01*
X31669853Y3325889D02*
X17040895Y3325889D01*
X43605933Y15261969D02*
X31669853Y3325889D01*
X53881597Y15261969D02*
X43605933Y15261969D01*
X54875628Y16256000D02*
X53881597Y15261969D01*
X54875628Y16256000D02*
X56896000Y16256000D01*
%TO.N,/D42*%
X13849326Y7366000D02*
X10160000Y7366000D01*
X17289427Y3925899D02*
X13849326Y7366000D01*
X31421321Y3925899D02*
X17289427Y3925899D01*
X43357401Y15861979D02*
X31421321Y3925899D01*
X53633065Y15861979D02*
X43357401Y15861979D01*
X55317085Y17545999D02*
X53633065Y15861979D01*
X58146001Y17545999D02*
X59436000Y16256000D01*
X55317085Y17545999D02*
X58146001Y17545999D01*
%TO.N,/D41*%
X8909999Y8616001D02*
X13447867Y8616001D01*
X7620000Y9906000D02*
X8909999Y8616001D01*
X13447867Y8616001D02*
X17537959Y4525909D01*
X55718544Y18796000D02*
X53384533Y16461989D01*
X53384533Y16461989D02*
X43108869Y16461989D01*
X43108869Y16461989D02*
X31172789Y4525909D01*
X31172789Y4525909D02*
X28748091Y4525909D01*
X28748091Y4525909D02*
X28956000Y4525909D01*
X17537959Y4525909D02*
X28748091Y4525909D01*
X55718544Y18796000D02*
X56896000Y18796000D01*
%TO.N,/D40*%
X17786491Y5125919D02*
X13006410Y9906000D01*
X30924257Y5125919D02*
X17786491Y5125919D01*
X42860337Y17061999D02*
X30924257Y5125919D01*
X53136001Y17061999D02*
X42860337Y17061999D01*
X13006410Y9906000D02*
X10160000Y9906000D01*
X56160001Y20085999D02*
X53136001Y17061999D01*
X58146001Y20085999D02*
X59436000Y18796000D01*
X56160001Y20085999D02*
X58146001Y20085999D01*
%TD*%
M02*
