solid PoleMountAntennaBracket
facet normal -1.0 0.0 2.2559731860383176e-16
  outer loop
    vertex 5.639932965095795e-15 119.99999999999999 25.0
    vertex 0.0 0.0 0.0
    vertex 5.639932965095795e-15 0.0 25.0
  endloop
endfacet
facet normal -1.0 0.0 2.2559731860383176e-16
  outer loop
    vertex 0.0 0.0 0.0
    vertex 5.639932965095795e-15 119.99999999999999 25.0
    vertex 2.255973186038318e-14 103.37499999999997 15.314582562299433
  endloop
endfacet
facet normal -1.0 0.0 2.2559731860383176e-16
  outer loop
    vertex 0.0 0.0 0.0
    vertex 2.255973186038318e-14 103.37499999999997 15.314582562299433
    vertex 2.255973186038318e-14 102.70190296114372 14.798097038856286
  endloop
endfacet
facet normal -1.0 0.0 2.2559731860383176e-16
  outer loop
    vertex 0.0 0.0 0.0
    vertex 2.255973186038318e-14 102.70190296114372 14.798097038856286
    vertex 2.255973186038318e-14 102.18541743770056 14.125000000000005
  endloop
endfacet
facet normal -1.0 0.0 2.2559731860383176e-16
  outer loop
    vertex 0.0 0.0 0.0
    vertex 2.255973186038318e-14 102.18541743770056 14.125000000000005
    vertex 2.255973186038318e-14 101.8607410645605 13.341161896583198
  endloop
endfacet
facet normal -1.0 0.0 2.2559731860383176e-16
  outer loop
    vertex 0.0 0.0 0.0
    vertex 2.255973186038318e-14 101.8607410645605 13.341161896583198
    vertex 2.255973186038318e-14 101.74999999999999 12.499999999999995
  endloop
endfacet
facet normal -1.0 0.0 2.2559731860383176e-16
  outer loop
    vertex 2.255973186038318e-14 103.37499999999997 15.314582562299433
    vertex 5.639932965095795e-15 119.99999999999999 25.0
    vertex 2.255973186038318e-14 104.1588381034168 15.639258935439479
  endloop
endfacet
facet normal -1.0 0.0 2.2559731860383176e-16
  outer loop
    vertex 2.255973186038318e-14 104.1588381034168 15.639258935439479
    vertex 5.639932965095795e-15 119.99999999999999 25.0
    vertex 2.255973186038318e-14 104.99999999999999 15.750000000000007
  endloop
endfacet
facet normal -1.0 0.0 2.2559731860383176e-16
  outer loop
    vertex 2.255973186038318e-14 104.99999999999999 15.750000000000007
    vertex 5.639932965095795e-15 119.99999999999999 25.0
    vertex 2.255973186038318e-14 105.84116189658317 15.639258935439479
  endloop
endfacet
facet normal -1.0 0.0 2.2559731860383176e-16
  outer loop
    vertex 2.255973186038318e-14 105.84116189658317 15.639258935439479
    vertex 5.639932965095795e-15 119.99999999999999 25.0
    vertex 2.255973186038318e-14 106.62499999999999 15.314582562299428
  endloop
endfacet
facet normal -1.0 0.0 2.2559731860383176e-16
  outer loop
    vertex 2.255973186038318e-14 106.62499999999999 15.314582562299428
    vertex 5.639932965095795e-15 119.99999999999999 25.0
    vertex 0.0 107.29809703885626 14.798097038856287
  endloop
endfacet
facet normal -1.0 0.0 2.2559731860383176e-16
  outer loop
    vertex 0.0 107.29809703885626 14.798097038856287
    vertex 5.639932965095795e-15 119.99999999999999 25.0
    vertex 0.0 107.8145825622994 14.125000000000005
  endloop
endfacet
facet normal -1.0 0.0 2.2559731860383176e-16
  outer loop
    vertex 0.0 107.8145825622994 14.125000000000005
    vertex 5.639932965095795e-15 119.99999999999999 25.0
    vertex 0.0 108.13925893543947 13.341161896583204
  endloop
endfacet
facet normal -1.0 0.0 2.2559731860383176e-16
  outer loop
    vertex 0.0 108.13925893543947 13.341161896583204
    vertex 5.639932965095795e-15 119.99999999999999 25.0
    vertex 2.255973186038318e-14 108.25 12.499999999999995
  endloop
endfacet
facet normal -1.0 0.0 2.2559731860383176e-16
  outer loop
    vertex 0.0 0.0 0.0
    vertex 2.255973186038318e-14 103.375 9.685417437700563
    vertex 0.0 119.99999999999999 0.0
  endloop
endfacet
facet normal -1.0 0.0 2.2559731860383176e-16
  outer loop
    vertex 2.255973186038318e-14 103.375 9.685417437700563
    vertex 0.0 0.0 0.0
    vertex 2.255973186038318e-14 102.70190296114372 10.201902961143713
  endloop
endfacet
facet normal -1.0 0.0 2.2559731860383176e-16
  outer loop
    vertex 2.255973186038318e-14 102.70190296114372 10.201902961143713
    vertex 0.0 0.0 0.0
    vertex 2.255973186038318e-14 102.18541743770056 10.874999999999995
  endloop
endfacet
facet normal -1.0 0.0 2.2559731860383176e-16
  outer loop
    vertex 2.255973186038318e-14 102.18541743770056 10.874999999999995
    vertex 0.0 0.0 0.0
    vertex 2.255973186038318e-14 101.8607410645605 11.6588381034168
  endloop
endfacet
facet normal -1.0 0.0 2.2559731860383176e-16
  outer loop
    vertex 2.255973186038318e-14 101.8607410645605 11.6588381034168
    vertex 0.0 0.0 0.0
    vertex 2.255973186038318e-14 101.74999999999999 12.499999999999995
  endloop
endfacet
facet normal -1.0 0.0 2.2559731860383176e-16
  outer loop
    vertex 0.0 119.99999999999999 0.0
    vertex 2.255973186038318e-14 103.375 9.685417437700563
    vertex 2.255973186038318e-14 104.1588381034168 9.360741064560514
  endloop
endfacet
facet normal -1.0 0.0 2.2559731860383176e-16
  outer loop
    vertex 0.0 119.99999999999999 0.0
    vertex 2.255973186038318e-14 104.1588381034168 9.360741064560514
    vertex 0.0 104.99999999999999 9.249999999999991
  endloop
endfacet
facet normal -1.0 0.0 2.2559731860383176e-16
  outer loop
    vertex 0.0 119.99999999999999 0.0
    vertex 0.0 104.99999999999999 9.249999999999991
    vertex 2.255973186038318e-14 105.84116189658317 9.360741064560514
  endloop
endfacet
facet normal -1.0 0.0 2.2559731860383176e-16
  outer loop
    vertex 0.0 119.99999999999999 0.0
    vertex 2.255973186038318e-14 105.84116189658317 9.360741064560514
    vertex 2.255973186038318e-14 106.625 9.685417437700563
  endloop
endfacet
facet normal -1.0 0.0 2.2559731860383176e-16
  outer loop
    vertex 0.0 119.99999999999999 0.0
    vertex 2.255973186038318e-14 106.625 9.685417437700563
    vertex 2.255973186038318e-14 107.29809703885626 10.201902961143713
  endloop
endfacet
facet normal -1.0 0.0 2.2559731860383176e-16
  outer loop
    vertex 0.0 119.99999999999999 0.0
    vertex 2.255973186038318e-14 107.29809703885626 10.201902961143713
    vertex 2.255973186038318e-14 107.8145825622994 10.874999999999996
  endloop
endfacet
facet normal -1.0 0.0 2.2559731860383176e-16
  outer loop
    vertex 0.0 119.99999999999999 0.0
    vertex 2.255973186038318e-14 107.8145825622994 10.874999999999996
    vertex 2.255973186038318e-14 108.13925893543947 11.6588381034168
  endloop
endfacet
facet normal -1.0 0.0 2.2559731860383176e-16
  outer loop
    vertex 0.0 119.99999999999999 0.0
    vertex 2.255973186038318e-14 108.13925893543947 11.6588381034168
    vertex 2.255973186038318e-14 108.25 12.499999999999995
  endloop
endfacet
facet normal -1.0 0.0 2.2559731860383176e-16
  outer loop
    vertex 0.0 119.99999999999999 0.0
    vertex 2.255973186038318e-14 108.25 12.499999999999995
    vertex 5.639932965095795e-15 119.99999999999999 25.0
  endloop
endfacet
facet normal 3.313364220371419e-16 1.810304831364734e-18 1.0
  outer loop
    vertex 5.639932965095795e-15 0.0 25.0
    vertex 5.000000000000005 5.0 24.999999999999993
    vertex 5.639932965095795e-15 119.99999999999999 25.0
  endloop
endfacet
facet normal 3.313364220371419e-16 1.810304831364734e-18 1.0
  outer loop
    vertex 5.000000000000005 5.0 24.999999999999993
    vertex 5.639932965095795e-15 0.0 25.0
    vertex 80.00000000000003 0.0 24.99999999999997
  endloop
endfacet
facet normal 3.313364220371419e-16 1.810304831364734e-18 1.0
  outer loop
    vertex 5.000000000000005 5.0 24.999999999999993
    vertex 80.00000000000003 0.0 24.99999999999997
    vertex 80.00000000000003 5.0 24.99999999999997
  endloop
endfacet
facet normal 3.313364220371419e-16 1.810304831364734e-18 1.0
  outer loop
    vertex 5.000000000000005 119.99999999999999 24.999999999999993
    vertex 5.639932965095795e-15 119.99999999999999 25.0
    vertex 5.000000000000005 5.0 24.999999999999993
  endloop
endfacet
facet normal -0.0 1.0 -0.0
  outer loop
    vertex 5.639932965095795e-15 119.99999999999999 25.0
    vertex 5.000000000000005 119.99999999999999 0.0
    vertex 0.0 119.99999999999999 0.0
  endloop
endfacet
facet normal -0.0 1.0 -0.0
  outer loop
    vertex 5.000000000000005 119.99999999999999 0.0
    vertex 5.639932965095795e-15 119.99999999999999 25.0
    vertex 5.000000000000005 119.99999999999999 24.999999999999993
  endloop
endfacet
facet normal -7.129150828104575e-17 1.941461137539077e-18 -1.0
  outer loop
    vertex 5.000000000000005 119.99999999999999 0.0
    vertex 0.0 0.0 0.0
    vertex 0.0 119.99999999999999 0.0
  endloop
endfacet
facet normal -7.129150828104575e-17 1.941461137539077e-18 -1.0
  outer loop
    vertex 0.0 0.0 0.0
    vertex 5.000000000000005 119.99999999999999 0.0
    vertex 5.000000000000005 89.99999999999999 0.0
  endloop
endfacet
facet normal -7.129150828104575e-17 1.941461137539077e-18 -1.0
  outer loop
    vertex 0.0 0.0 0.0
    vertex 5.000000000000005 89.99999999999999 0.0
    vertex 79.99999999999997 0.0 -5.639932965095795e-15
  endloop
endfacet
facet normal -7.129150828104575e-17 1.941461137539077e-18 -1.0
  outer loop
    vertex 79.99999999999997 0.0 -5.639932965095795e-15
    vertex 5.000000000000005 89.99999999999999 0.0
    vertex 79.99999999999997 5.0 -5.639932965095795e-15
  endloop
endfacet
facet normal 0.0 -1.0 0.0
  outer loop
    vertex 79.99999999999997 0.0 -5.639932965095795e-15
    vertex 55.711752374031946 0.0 9.84370397770502
    vertex 0.0 0.0 0.0
  endloop
endfacet
facet normal 0.0 -1.0 0.0
  outer loop
    vertex 55.711752374031946 0.0 9.84370397770502
    vertex 79.99999999999997 0.0 -5.639932965095795e-15
    vertex 56.37500000000001 0.0 10.118430139592768
  endloop
endfacet
facet normal 0.0 -1.0 0.0
  outer loop
    vertex 56.37500000000001 0.0 10.118430139592768
    vertex 79.99999999999997 0.0 -5.639932965095795e-15
    vertex 80.00000000000003 0.0 24.99999999999997
  endloop
endfacet
facet normal 0.0 -1.0 0.0
  outer loop
    vertex 0.0 0.0 0.0
    vertex 55.711752374031946 0.0 9.84370397770502
    vertex 55.00000000000002 0.0 9.749999999999972
  endloop
endfacet
facet normal 0.0 -1.0 0.0
  outer loop
    vertex 56.37500000000001 0.0 10.118430139592768
    vertex 80.00000000000003 0.0 24.99999999999997
    vertex 56.944543648263 0.0 10.55545635173695
  endloop
endfacet
facet normal 0.0 -1.0 0.0
  outer loop
    vertex 56.944543648263 0.0 10.55545635173695
    vertex 80.00000000000003 0.0 24.99999999999997
    vertex 57.381569860407225 0.0 11.12499999999998
  endloop
endfacet
facet normal 0.0 -1.0 0.0
  outer loop
    vertex 57.381569860407225 0.0 11.12499999999998
    vertex 80.00000000000003 0.0 24.99999999999997
    vertex 57.656296022294946 0.0 11.788247625968031
  endloop
endfacet
facet normal 0.0 -1.0 0.0
  outer loop
    vertex 57.656296022294946 0.0 11.788247625968031
    vertex 80.00000000000003 0.0 24.99999999999997
    vertex 57.75000000000001 0.0 12.499999999999982
  endloop
endfacet
facet normal 0.0 -1.0 0.0
  outer loop
    vertex 57.75000000000001 0.0 12.499999999999982
    vertex 80.00000000000003 0.0 24.99999999999997
    vertex 57.656296022294946 0.0 13.211752374031901
  endloop
endfacet
facet normal 0.0 -1.0 0.0
  outer loop
    vertex 57.656296022294946 0.0 13.211752374031901
    vertex 80.00000000000003 0.0 24.99999999999997
    vertex 57.381569860407225 0.0 13.87499999999997
  endloop
endfacet
facet normal 0.0 -1.0 0.0
  outer loop
    vertex 57.381569860407225 0.0 13.87499999999997
    vertex 80.00000000000003 0.0 24.99999999999997
    vertex 56.94454364826302 0.0 14.444543648262982
  endloop
endfacet
facet normal 0.0 -1.0 0.0
  outer loop
    vertex 56.94454364826302 0.0 14.444543648262982
    vertex 80.00000000000003 0.0 24.99999999999997
    vertex 56.37500000000001 0.0 14.881569860407168
  endloop
endfacet
facet normal 0.0 -1.0 0.0
  outer loop
    vertex 56.37500000000001 0.0 14.881569860407168
    vertex 80.00000000000003 0.0 24.99999999999997
    vertex 55.711752374031946 0.0 15.156296022294912
  endloop
endfacet
facet normal 0.0 -1.0 0.0
  outer loop
    vertex 55.711752374031946 0.0 15.156296022294912
    vertex 80.00000000000003 0.0 24.99999999999997
    vertex 55.0 0.0 15.249999999999961
  endloop
endfacet
facet normal 0.0 -1.0 0.0
  outer loop
    vertex 55.0 0.0 15.249999999999961
    vertex 80.00000000000003 0.0 24.99999999999997
    vertex 29.99999999999998 -2.8199664825478975e-15 15.249999999999972
  endloop
endfacet
facet normal 0.0 -1.0 0.0
  outer loop
    vertex 0.0 0.0 0.0
    vertex 28.624999999999975 -2.8199664825478975e-15 10.118430139592773
    vertex 5.639932965095795e-15 0.0 25.0
  endloop
endfacet
facet normal 0.0 -1.0 0.0
  outer loop
    vertex 28.624999999999975 -2.8199664825478975e-15 10.118430139592773
    vertex 0.0 0.0 0.0
    vertex 29.288247625968054 -2.8199664825478975e-15 9.843703977705045
  endloop
endfacet
facet normal 0.0 -1.0 0.0
  outer loop
    vertex 29.288247625968054 -2.8199664825478975e-15 9.843703977705045
    vertex 0.0 0.0 0.0
    vertex 29.99999999999998 -2.8199664825478975e-15 9.749999999999986
  endloop
endfacet
facet normal 0.0 -1.0 0.0
  outer loop
    vertex 29.99999999999998 -2.8199664825478975e-15 9.749999999999986
    vertex 0.0 0.0 0.0
    vertex 55.00000000000002 0.0 9.749999999999972
  endloop
endfacet
facet normal 0.0 -1.0 0.0
  outer loop
    vertex 5.639932965095795e-15 0.0 25.0
    vertex 28.624999999999975 -2.8199664825478975e-15 10.118430139592773
    vertex 28.055456351737003 -2.8199664825478975e-15 10.555456351736966
  endloop
endfacet
facet normal 0.0 -1.0 0.0
  outer loop
    vertex 5.639932965095795e-15 0.0 25.0
    vertex 28.055456351737003 -2.8199664825478975e-15 10.555456351736966
    vertex 27.6184301395928 -2.8199664825478975e-15 11.124999999999963
  endloop
endfacet
facet normal 0.0 -1.0 0.0
  outer loop
    vertex 5.639932965095795e-15 0.0 25.0
    vertex 27.6184301395928 -2.8199664825478975e-15 11.124999999999963
    vertex 27.343703977705054 -2.8199664825478975e-15 11.788247625968042
  endloop
endfacet
facet normal 0.0 -1.0 0.0
  outer loop
    vertex 5.639932965095795e-15 0.0 25.0
    vertex 27.343703977705054 -2.8199664825478975e-15 11.788247625968042
    vertex 27.249999999999996 -2.8199664825478975e-15 12.499999999999963
  endloop
endfacet
facet normal 0.0 -1.0 0.0
  outer loop
    vertex 5.639932965095795e-15 0.0 25.0
    vertex 27.249999999999996 -2.8199664825478975e-15 12.499999999999963
    vertex 27.343703977705054 -2.8199664825478975e-15 13.211752374031898
  endloop
endfacet
facet normal 0.0 -1.0 0.0
  outer loop
    vertex 5.639932965095795e-15 0.0 25.0
    vertex 27.343703977705054 -2.8199664825478975e-15 13.211752374031898
    vertex 27.6184301395928 -2.8199664825478975e-15 13.874999999999966
  endloop
endfacet
facet normal 0.0 -1.0 0.0
  outer loop
    vertex 5.639932965095795e-15 0.0 25.0
    vertex 27.6184301395928 -2.8199664825478975e-15 13.874999999999966
    vertex 28.05545635173698 -2.8199664825478975e-15 14.444543648262979
  endloop
endfacet
facet normal 0.0 -1.0 0.0
  outer loop
    vertex 5.639932965095795e-15 0.0 25.0
    vertex 28.05545635173698 -2.8199664825478975e-15 14.444543648262979
    vertex 28.625 -2.8199664825478975e-15 14.88156986040718
  endloop
endfacet
facet normal 0.0 -1.0 0.0
  outer loop
    vertex 5.639932965095795e-15 0.0 25.0
    vertex 28.625 -2.8199664825478975e-15 14.88156986040718
    vertex 29.288247625968054 -2.8199664825478975e-15 15.156296022294903
  endloop
endfacet
facet normal 0.0 -1.0 0.0
  outer loop
    vertex 5.639932965095795e-15 0.0 25.0
    vertex 29.288247625968054 -2.8199664825478975e-15 15.156296022294903
    vertex 29.99999999999998 -2.8199664825478975e-15 15.249999999999972
  endloop
endfacet
facet normal 0.0 -1.0 0.0
  outer loop
    vertex 5.639932965095795e-15 0.0 25.0
    vertex 29.99999999999998 -2.8199664825478975e-15 15.249999999999972
    vertex 80.00000000000003 0.0 24.99999999999997
  endloop
endfacet
facet normal 0.0 -1.0 0.0
  outer loop
    vertex 54.288247625968076 0.0 9.843703977705031
    vertex 29.99999999999998 -2.8199664825478975e-15 9.749999999999986
    vertex 55.00000000000002 0.0 9.749999999999972
  endloop
endfacet
facet normal 0.0 -1.0 0.0
  outer loop
    vertex 29.99999999999998 -2.8199664825478975e-15 9.749999999999986
    vertex 54.288247625968076 0.0 9.843703977705031
    vertex 30.711752374031903 -2.8199664825478975e-15 9.84370397770505
  endloop
endfacet
facet normal 0.0 -1.0 0.0
  outer loop
    vertex 30.711752374031903 -2.8199664825478975e-15 9.84370397770505
    vertex 54.288247625968076 0.0 9.843703977705031
    vertex 53.625 0.0 10.118430139592773
  endloop
endfacet
facet normal 0.0 -1.0 0.0
  outer loop
    vertex 30.711752374031903 -2.8199664825478975e-15 9.84370397770505
    vertex 53.625 0.0 10.118430139592773
    vertex 31.374999999999982 -2.8199664825478975e-15 10.118430139592776
  endloop
endfacet
facet normal 0.0 -1.0 0.0
  outer loop
    vertex 31.374999999999982 -2.8199664825478975e-15 10.118430139592776
    vertex 53.625 0.0 10.118430139592773
    vertex 53.05545635173698 0.0 10.555456351736945
  endloop
endfacet
facet normal 0.0 -1.0 0.0
  outer loop
    vertex 31.374999999999982 -2.8199664825478975e-15 10.118430139592776
    vertex 53.05545635173698 0.0 10.555456351736945
    vertex 31.94454364826298 -2.8199664825478975e-15 10.55545635173699
  endloop
endfacet
facet normal 0.0 -1.0 0.0
  outer loop
    vertex 31.94454364826298 -2.8199664825478975e-15 10.55545635173699
    vertex 53.05545635173698 0.0 10.555456351736945
    vertex 52.618430139592796 0.0 11.124999999999986
  endloop
endfacet
facet normal 0.0 -1.0 0.0
  outer loop
    vertex 31.94454364826298 -2.8199664825478975e-15 10.55545635173699
    vertex 52.618430139592796 0.0 11.124999999999986
    vertex 32.38156986040718 -2.8199664825478975e-15 11.124999999999988
  endloop
endfacet
facet normal 0.0 -1.0 0.0
  outer loop
    vertex 32.38156986040718 -2.8199664825478975e-15 11.124999999999988
    vertex 52.618430139592796 0.0 11.124999999999986
    vertex 52.343703977705076 0.0 11.788247625968026
  endloop
endfacet
facet normal 0.0 -1.0 0.0
  outer loop
    vertex 32.38156986040718 -2.8199664825478975e-15 11.124999999999988
    vertex 52.343703977705076 0.0 11.788247625968026
    vertex 32.656296022294924 -2.8199664825478975e-15 11.78824762596806
  endloop
endfacet
facet normal 0.0 -1.0 0.0
  outer loop
    vertex 32.656296022294924 -2.8199664825478975e-15 11.78824762596806
    vertex 52.343703977705076 0.0 11.788247625968026
    vertex 52.250000000000014 0.0 12.499999999999972
  endloop
endfacet
facet normal 0.0 -1.0 0.0
  outer loop
    vertex 32.656296022294924 -2.8199664825478975e-15 11.78824762596806
    vertex 52.250000000000014 0.0 12.499999999999972
    vertex 32.749999999999986 -2.8199664825478975e-15 12.499999999999977
  endloop
endfacet
facet normal 0.0 -1.0 0.0
  outer loop
    vertex 32.749999999999986 -2.8199664825478975e-15 12.499999999999977
    vertex 52.250000000000014 0.0 12.499999999999972
    vertex 52.343703977705076 0.0 13.211752374031901
  endloop
endfacet
facet normal 0.0 -1.0 0.0
  outer loop
    vertex 32.749999999999986 -2.8199664825478975e-15 12.499999999999977
    vertex 52.343703977705076 0.0 13.211752374031901
    vertex 32.656296022294924 -2.8199664825478975e-15 13.211752374031908
  endloop
endfacet
facet normal 0.0 -1.0 0.0
  outer loop
    vertex 32.656296022294924 -2.8199664825478975e-15 13.211752374031908
    vertex 52.343703977705076 0.0 13.211752374031901
    vertex 52.618430139592796 0.0 13.874999999999975
  endloop
endfacet
facet normal 0.0 -1.0 0.0
  outer loop
    vertex 32.656296022294924 -2.8199664825478975e-15 13.211752374031908
    vertex 52.618430139592796 0.0 13.874999999999975
    vertex 32.381569860407204 -2.8199664825478975e-15 13.87499999999997
  endloop
endfacet
facet normal 0.0 -1.0 0.0
  outer loop
    vertex 32.381569860407204 -2.8199664825478975e-15 13.87499999999997
    vertex 52.618430139592796 0.0 13.874999999999975
    vertex 31.944543648263 -2.8199664825478975e-15 14.444543648262973
  endloop
endfacet
facet normal 0.0 -1.0 0.0
  outer loop
    vertex 31.944543648263 -2.8199664825478975e-15 14.444543648262973
    vertex 52.618430139592796 0.0 13.874999999999975
    vertex 53.055456351737 0.0 14.444543648262977
  endloop
endfacet
facet normal 0.0 -1.0 0.0
  outer loop
    vertex 31.944543648263 -2.8199664825478975e-15 14.444543648262973
    vertex 53.055456351737 0.0 14.444543648262977
    vertex 31.374999999999993 -2.8199664825478975e-15 14.881569860407172
  endloop
endfacet
facet normal 0.0 -1.0 0.0
  outer loop
    vertex 31.374999999999993 -2.8199664825478975e-15 14.881569860407172
    vertex 53.055456351737 0.0 14.444543648262977
    vertex 53.625 0.0 14.88156986040718
  endloop
endfacet
facet normal 0.0 -1.0 0.0
  outer loop
    vertex 31.374999999999993 -2.8199664825478975e-15 14.881569860407172
    vertex 53.625 0.0 14.88156986040718
    vertex 30.711752374031924 -2.8199664825478975e-15 15.156296022294914
  endloop
endfacet
facet normal 0.0 -1.0 0.0
  outer loop
    vertex 30.711752374031924 -2.8199664825478975e-15 15.156296022294914
    vertex 53.625 0.0 14.88156986040718
    vertex 54.288247625968076 0.0 15.156296022294905
  endloop
endfacet
facet normal 0.0 -1.0 0.0
  outer loop
    vertex 30.711752374031924 -2.8199664825478975e-15 15.156296022294914
    vertex 54.288247625968076 0.0 15.156296022294905
    vertex 55.0 0.0 15.249999999999961
  endloop
endfacet
facet normal 0.0 -1.0 0.0
  outer loop
    vertex 30.711752374031924 -2.8199664825478975e-15 15.156296022294914
    vertex 55.0 0.0 15.249999999999961
    vertex 29.99999999999998 -2.8199664825478975e-15 15.249999999999972
  endloop
endfacet
facet normal 1.0 -2.270161696642335e-15 -1.5323591452335745e-15
  outer loop
    vertex 79.99999999999997 5.0 -5.639932965095795e-15
    vertex 80.00000000000003 0.0 24.99999999999997
    vertex 79.99999999999997 0.0 -5.639932965095795e-15
  endloop
endfacet
facet normal 1.0 -2.270161696642335e-15 -1.5323591452335745e-15
  outer loop
    vertex 80.00000000000003 0.0 24.99999999999997
    vertex 79.99999999999997 5.0 -5.639932965095795e-15
    vertex 80.00000000000003 5.0 24.99999999999997
  endloop
endfacet
facet normal 1.0 -2.270161696642335e-15 -1.5323591452335745e-15
  outer loop
    vertex 80.00000000000003 5.0 24.99999999999997
    vertex 79.99999999999997 5.0 -5.639932965095795e-15
    vertex 80.00000000000003 5.0 4.999999999999957
  endloop
endfacet
facet normal 0.13052619222004364 0.0 -0.9914448613738116
  outer loop
    vertex 55.0 5.0 15.249999999999961
    vertex 54.288247625968076 0.0 15.156296022294905
    vertex 54.288247625968076 5.0 15.156296022294905
  endloop
endfacet
facet normal 0.13052619222004364 0.0 -0.9914448613738116
  outer loop
    vertex 54.288247625968076 0.0 15.156296022294905
    vertex 55.0 5.0 15.249999999999961
    vertex 55.0 0.0 15.249999999999961
  endloop
endfacet
facet normal -0.13052619222003187 0.0 -0.9914448613738132
  outer loop
    vertex 55.711752374031946 5.0 15.156296022294912
    vertex 55.0 0.0 15.249999999999961
    vertex 55.0 5.0 15.249999999999961
  endloop
endfacet
facet normal -0.13052619222003187 0.0 -0.9914448613738132
  outer loop
    vertex 55.0 0.0 15.249999999999961
    vertex 55.711752374031946 5.0 15.156296022294912
    vertex 55.711752374031946 0.0 15.156296022294912
  endloop
endfacet
facet normal -0.38268343236510743 0.0 -0.9238795325112795
  outer loop
    vertex 56.37500000000001 5.0 14.881569860407168
    vertex 55.711752374031946 0.0 15.156296022294912
    vertex 55.711752374031946 5.0 15.156296022294912
  endloop
endfacet
facet normal -0.38268343236510743 0.0 -0.9238795325112795
  outer loop
    vertex 55.711752374031946 0.0 15.156296022294912
    vertex 56.37500000000001 5.0 14.881569860407168
    vertex 56.37500000000001 0.0 14.881569860407168
  endloop
endfacet
facet normal -0.6087614290087003 0.0 -0.7933533402912509
  outer loop
    vertex 56.94454364826302 5.0 14.444543648262982
    vertex 56.37500000000001 0.0 14.881569860407168
    vertex 56.37500000000001 5.0 14.881569860407168
  endloop
endfacet
facet normal -0.6087614290087003 0.0 -0.7933533402912509
  outer loop
    vertex 56.37500000000001 0.0 14.881569860407168
    vertex 56.94454364826302 5.0 14.444543648262982
    vertex 56.94454364826302 0.0 14.444543648262982
  endloop
endfacet
facet normal -0.7933533402912365 0.0 -0.6087614290087189
  outer loop
    vertex 56.94454364826302 5.0 14.444543648262982
    vertex 57.381569860407225 0.0 13.87499999999997
    vertex 56.94454364826302 0.0 14.444543648262982
  endloop
endfacet
facet normal -0.7933533402912365 0.0 -0.6087614290087189
  outer loop
    vertex 57.381569860407225 0.0 13.87499999999997
    vertex 56.94454364826302 5.0 14.444543648262982
    vertex 57.381569860407225 5.0 13.87499999999997
  endloop
endfacet
facet normal -0.923879532511293 0.0 -0.38268343236507507
  outer loop
    vertex 57.381569860407225 5.0 13.87499999999997
    vertex 57.656296022294946 0.0 13.211752374031901
    vertex 57.381569860407225 0.0 13.87499999999997
  endloop
endfacet
facet normal -0.923879532511293 0.0 -0.38268343236507507
  outer loop
    vertex 57.656296022294946 0.0 13.211752374031901
    vertex 57.381569860407225 5.0 13.87499999999997
    vertex 57.656296022294946 5.0 13.211752374031901
  endloop
endfacet
facet normal -0.9914448613738105 0.0 -0.13052619222005238
  outer loop
    vertex 57.656296022294946 5.0 13.211752374031901
    vertex 57.75000000000001 0.0 12.499999999999982
    vertex 57.656296022294946 0.0 13.211752374031901
  endloop
endfacet
facet normal -0.9914448613738105 0.0 -0.13052619222005238
  outer loop
    vertex 57.75000000000001 0.0 12.499999999999982
    vertex 57.656296022294946 5.0 13.211752374031901
    vertex 57.75000000000001 5.0 12.499999999999982
  endloop
endfacet
facet normal -0.9914448613738112 0.0 0.1305261922200463
  outer loop
    vertex 57.75000000000001 5.0 12.499999999999982
    vertex 57.656296022294946 0.0 11.788247625968031
    vertex 57.75000000000001 0.0 12.499999999999982
  endloop
endfacet
facet normal -0.9914448613738112 0.0 0.1305261922200463
  outer loop
    vertex 57.656296022294946 0.0 11.788247625968031
    vertex 57.75000000000001 5.0 12.499999999999982
    vertex 57.656296022294946 5.0 11.788247625968031
  endloop
endfacet
facet normal -0.9238795325112894 0.0 0.38268343236508334
  outer loop
    vertex 57.656296022294946 5.0 11.788247625968031
    vertex 57.381569860407225 0.0 11.12499999999998
    vertex 57.656296022294946 0.0 11.788247625968031
  endloop
endfacet
facet normal -0.9238795325112894 0.0 0.38268343236508334
  outer loop
    vertex 57.381569860407225 0.0 11.12499999999998
    vertex 57.656296022294946 5.0 11.788247625968031
    vertex 57.381569860407225 5.0 11.12499999999998
  endloop
endfacet
facet normal -0.7933533402912301 0.0 0.6087614290087273
  outer loop
    vertex 57.381569860407225 5.0 11.12499999999998
    vertex 56.944543648263 0.0 10.55545635173695
    vertex 57.381569860407225 0.0 11.12499999999998
  endloop
endfacet
facet normal -0.7933533402912301 0.0 0.6087614290087273
  outer loop
    vertex 56.944543648263 0.0 10.55545635173695
    vertex 57.381569860407225 5.0 11.12499999999998
    vertex 56.944543648263 5.0 10.55545635173695
  endloop
endfacet
facet normal -0.6087614290087106 -0.0 0.7933533402912429
  outer loop
    vertex 56.944543648263 0.0 10.55545635173695
    vertex 56.37500000000001 5.0 10.118430139592768
    vertex 56.37500000000001 0.0 10.118430139592768
  endloop
endfacet
facet normal -0.6087614290087106 -0.0 0.7933533402912429
  outer loop
    vertex 56.37500000000001 5.0 10.118430139592768
    vertex 56.944543648263 0.0 10.55545635173695
    vertex 56.944543648263 5.0 10.55545635173695
  endloop
endfacet
facet normal -0.3826834323651141 -0.0 0.9238795325112766
  outer loop
    vertex 56.37500000000001 0.0 10.118430139592768
    vertex 55.711752374031946 5.0 9.84370397770502
    vertex 55.711752374031946 0.0 9.84370397770502
  endloop
endfacet
facet normal -0.3826834323651141 -0.0 0.9238795325112766
  outer loop
    vertex 55.711752374031946 5.0 9.84370397770502
    vertex 56.37500000000001 0.0 10.118430139592768
    vertex 56.37500000000001 5.0 10.118430139592768
  endloop
endfacet
facet normal -0.13052619222003595 -0.0 0.9914448613738125
  outer loop
    vertex 55.711752374031946 0.0 9.84370397770502
    vertex 55.00000000000002 5.0 9.749999999999972
    vertex 55.00000000000002 0.0 9.749999999999972
  endloop
endfacet
facet normal -0.13052619222003595 -0.0 0.9914448613738125
  outer loop
    vertex 55.00000000000002 5.0 9.749999999999972
    vertex 55.711752374031946 0.0 9.84370397770502
    vertex 55.711752374031946 5.0 9.84370397770502
  endloop
endfacet
facet normal 0.1305261922200473 -0.0 0.9914448613738109
  outer loop
    vertex 55.00000000000002 0.0 9.749999999999972
    vertex 54.288247625968076 5.0 9.843703977705031
    vertex 54.288247625968076 0.0 9.843703977705031
  endloop
endfacet
facet normal 0.1305261922200473 -0.0 0.9914448613738109
  outer loop
    vertex 54.288247625968076 5.0 9.843703977705031
    vertex 55.00000000000002 0.0 9.749999999999972
    vertex 55.00000000000002 5.0 9.749999999999972
  endloop
endfacet
facet normal 0.3826834323650963 -0.0 0.9238795325112841
  outer loop
    vertex 54.288247625968076 0.0 9.843703977705031
    vertex 53.625 5.0 10.118430139592773
    vertex 53.625 0.0 10.118430139592773
  endloop
endfacet
facet normal 0.3826834323650963 -0.0 0.9238795325112841
  outer loop
    vertex 53.625 5.0 10.118430139592773
    vertex 54.288247625968076 0.0 9.843703977705031
    vertex 54.288247625968076 5.0 9.843703977705031
  endloop
endfacet
facet normal 0.6087614290086855 -0.0 0.7933533402912623
  outer loop
    vertex 53.625 0.0 10.118430139592773
    vertex 53.05545635173698 5.0 10.555456351736945
    vertex 53.05545635173698 0.0 10.555456351736945
  endloop
endfacet
facet normal 0.6087614290086855 -0.0 0.7933533402912623
  outer loop
    vertex 53.05545635173698 5.0 10.555456351736945
    vertex 53.625 0.0 10.118430139592773
    vertex 53.625 5.0 10.118430139592773
  endloop
endfacet
facet normal 0.7933533402912663 -0.0 0.6087614290086802
  outer loop
    vertex 53.05545635173698 5.0 10.555456351736945
    vertex 52.618430139592796 0.0 11.124999999999986
    vertex 53.05545635173698 0.0 10.555456351736945
  endloop
endfacet
facet normal 0.7933533402912663 -0.0 0.6087614290086802
  outer loop
    vertex 52.618430139592796 0.0 11.124999999999986
    vertex 53.05545635173698 5.0 10.555456351736945
    vertex 52.618430139592796 5.0 11.124999999999986
  endloop
endfacet
facet normal 0.9238795325112871 -0.0 0.38268343236508895
  outer loop
    vertex 52.618430139592796 5.0 11.124999999999986
    vertex 52.343703977705076 0.0 11.788247625968026
    vertex 52.618430139592796 0.0 11.124999999999986
  endloop
endfacet
facet normal 0.9238795325112871 -0.0 0.38268343236508895
  outer loop
    vertex 52.343703977705076 0.0 11.788247625968026
    vertex 52.618430139592796 5.0 11.124999999999986
    vertex 52.343703977705076 5.0 11.788247625968026
  endloop
endfacet
facet normal 0.9914448613738109 -0.0 0.1305261922200473
  outer loop
    vertex 52.343703977705076 5.0 11.788247625968026
    vertex 52.250000000000014 0.0 12.499999999999972
    vertex 52.343703977705076 0.0 11.788247625968026
  endloop
endfacet
facet normal 0.9914448613738109 -0.0 0.1305261922200473
  outer loop
    vertex 52.250000000000014 0.0 12.499999999999972
    vertex 52.343703977705076 5.0 11.788247625968026
    vertex 52.250000000000014 5.0 12.499999999999972
  endloop
endfacet
facet normal 0.9914448613738107 -0.0 -0.13052619222005038
  outer loop
    vertex 52.250000000000014 5.0 12.499999999999972
    vertex 52.343703977705076 0.0 13.211752374031901
    vertex 52.250000000000014 0.0 12.499999999999972
  endloop
endfacet
facet normal 0.9914448613738107 -0.0 -0.13052619222005038
  outer loop
    vertex 52.343703977705076 0.0 13.211752374031901
    vertex 52.250000000000014 5.0 12.499999999999972
    vertex 52.343703977705076 5.0 13.211752374031901
  endloop
endfacet
facet normal 0.9238795325112941 -0.0 -0.3826834323650723
  outer loop
    vertex 52.343703977705076 5.0 13.211752374031901
    vertex 52.618430139592796 0.0 13.874999999999975
    vertex 52.343703977705076 0.0 13.211752374031901
  endloop
endfacet
facet normal 0.9238795325112941 -0.0 -0.3826834323650723
  outer loop
    vertex 52.618430139592796 0.0 13.874999999999975
    vertex 52.343703977705076 5.0 13.211752374031901
    vertex 52.618430139592796 5.0 13.874999999999975
  endloop
endfacet
facet normal 0.7933533402912306 -0.0 -0.6087614290087265
  outer loop
    vertex 52.618430139592796 5.0 13.874999999999975
    vertex 53.055456351737 0.0 14.444543648262977
    vertex 52.618430139592796 0.0 13.874999999999975
  endloop
endfacet
facet normal 0.7933533402912306 -0.0 -0.6087614290087265
  outer loop
    vertex 53.055456351737 0.0 14.444543648262977
    vertex 52.618430139592796 5.0 13.874999999999975
    vertex 53.055456351737 5.0 14.444543648262977
  endloop
endfacet
facet normal 0.6087614290087303 0.0 -0.7933533402912277
  outer loop
    vertex 53.625 5.0 14.88156986040718
    vertex 53.055456351737 0.0 14.444543648262977
    vertex 53.055456351737 5.0 14.444543648262977
  endloop
endfacet
facet normal 0.6087614290087303 0.0 -0.7933533402912277
  outer loop
    vertex 53.055456351737 0.0 14.444543648262977
    vertex 53.625 5.0 14.88156986040718
    vertex 53.625 0.0 14.88156986040718
  endloop
endfacet
facet normal 0.3826834323650761 0.0 -0.9238795325112924
  outer loop
    vertex 54.288247625968076 5.0 15.156296022294905
    vertex 53.625 0.0 14.88156986040718
    vertex 53.625 5.0 14.88156986040718
  endloop
endfacet
facet normal 0.3826834323650761 0.0 -0.9238795325112924
  outer loop
    vertex 53.625 0.0 14.88156986040718
    vertex 54.288247625968076 5.0 15.156296022294905
    vertex 54.288247625968076 0.0 15.156296022294905
  endloop
endfacet
facet normal 0.13052619222006295 0.0 -0.9914448613738089
  outer loop
    vertex 29.99999999999998 5.0 15.249999999999972
    vertex 29.288247625968054 -2.8199664825478975e-15 15.156296022294903
    vertex 29.288247625968054 5.0 15.156296022294903
  endloop
endfacet
facet normal 0.13052619222006295 0.0 -0.9914448613738089
  outer loop
    vertex 29.288247625968054 -2.8199664825478975e-15 15.156296022294903
    vertex 29.99999999999998 5.0 15.249999999999972
    vertex 29.99999999999998 -2.8199664825478975e-15 15.249999999999972
  endloop
endfacet
facet normal -0.1305261922200434 0.0 -0.9914448613738116
  outer loop
    vertex 30.711752374031924 5.0 15.156296022294914
    vertex 29.99999999999998 -2.8199664825478975e-15 15.249999999999972
    vertex 29.99999999999998 5.0 15.249999999999972
  endloop
endfacet
facet normal -0.1305261922200434 0.0 -0.9914448613738116
  outer loop
    vertex 29.99999999999998 -2.8199664825478975e-15 15.249999999999972
    vertex 30.711752374031924 5.0 15.156296022294914
    vertex 30.711752374031924 -2.8199664825478975e-15 15.156296022294914
  endloop
endfacet
facet normal -0.3826834323651019 0.0 -0.9238795325112817
  outer loop
    vertex 31.374999999999993 5.0 14.881569860407172
    vertex 30.711752374031924 -2.8199664825478975e-15 15.156296022294914
    vertex 30.711752374031924 5.0 15.156296022294914
  endloop
endfacet
facet normal -0.3826834323651019 0.0 -0.9238795325112817
  outer loop
    vertex 30.711752374031924 -2.8199664825478975e-15 15.156296022294914
    vertex 31.374999999999993 5.0 14.881569860407172
    vertex 31.374999999999993 -2.8199664825478975e-15 14.881569860407172
  endloop
endfacet
facet normal -0.6087614290087178 0.0 -0.7933533402912376
  outer loop
    vertex 31.944543648263 5.0 14.444543648262973
    vertex 31.374999999999993 -2.8199664825478975e-15 14.881569860407172
    vertex 31.374999999999993 5.0 14.881569860407172
  endloop
endfacet
facet normal -0.6087614290087178 0.0 -0.7933533402912376
  outer loop
    vertex 31.374999999999993 -2.8199664825478975e-15 14.881569860407172
    vertex 31.944543648263 5.0 14.444543648262973
    vertex 31.944543648263 -2.8199664825478975e-15 14.444543648262973
  endloop
endfacet
facet normal -0.7933533402912322 0.0 -0.6087614290087247
  outer loop
    vertex 31.944543648263 5.0 14.444543648262973
    vertex 32.381569860407204 -2.8199664825478975e-15 13.87499999999997
    vertex 31.944543648263 -2.8199664825478975e-15 14.444543648262973
  endloop
endfacet
facet normal -0.7933533402912322 0.0 -0.6087614290087247
  outer loop
    vertex 32.381569860407204 -2.8199664825478975e-15 13.87499999999997
    vertex 31.944543648263 5.0 14.444543648262973
    vertex 32.381569860407204 5.0 13.87499999999997
  endloop
endfacet
facet normal -0.9238795325112913 0.0 -0.3826834323650793
  outer loop
    vertex 32.381569860407204 5.0 13.87499999999997
    vertex 32.656296022294924 -2.8199664825478975e-15 13.211752374031908
    vertex 32.381569860407204 -2.8199664825478975e-15 13.87499999999997
  endloop
endfacet
facet normal -0.9238795325112913 0.0 -0.3826834323650793
  outer loop
    vertex 32.656296022294924 -2.8199664825478975e-15 13.211752374031908
    vertex 32.381569860407204 5.0 13.87499999999997
    vertex 32.656296022294924 5.0 13.211752374031908
  endloop
endfacet
facet normal -0.9914448613738107 0.0 -0.13052619222004982
  outer loop
    vertex 32.656296022294924 5.0 13.211752374031908
    vertex 32.749999999999986 -2.8199664825478975e-15 12.499999999999977
    vertex 32.656296022294924 -2.8199664825478975e-15 13.211752374031908
  endloop
endfacet
facet normal -0.9914448613738107 0.0 -0.13052619222004982
  outer loop
    vertex 32.749999999999986 -2.8199664825478975e-15 12.499999999999977
    vertex 32.656296022294924 5.0 13.211752374031908
    vertex 32.749999999999986 5.0 12.499999999999977
  endloop
endfacet
facet normal -0.9914448613738105 0.0 0.13052619222005238
  outer loop
    vertex 32.749999999999986 5.0 12.499999999999977
    vertex 32.656296022294924 -2.8199664825478975e-15 11.78824762596806
    vertex 32.749999999999986 -2.8199664825478975e-15 12.499999999999977
  endloop
endfacet
facet normal -0.9914448613738105 0.0 0.13052619222005238
  outer loop
    vertex 32.656296022294924 -2.8199664825478975e-15 11.78824762596806
    vertex 32.749999999999986 5.0 12.499999999999977
    vertex 32.656296022294924 5.0 11.78824762596806
  endloop
endfacet
facet normal -0.9238795325112823 0.0 0.3826834323651005
  outer loop
    vertex 32.656296022294924 5.0 11.78824762596806
    vertex 32.38156986040718 -2.8199664825478975e-15 11.124999999999988
    vertex 32.656296022294924 -2.8199664825478975e-15 11.78824762596806
  endloop
endfacet
facet normal -0.9238795325112823 0.0 0.3826834323651005
  outer loop
    vertex 32.38156986040718 -2.8199664825478975e-15 11.124999999999988
    vertex 32.656296022294924 5.0 11.78824762596806
    vertex 32.38156986040718 5.0 11.124999999999988
  endloop
endfacet
facet normal -0.7933533402912293 0.0 0.6087614290087283
  outer loop
    vertex 32.38156986040718 5.0 11.124999999999988
    vertex 31.94454364826298 -2.8199664825478975e-15 10.55545635173699
    vertex 32.38156986040718 -2.8199664825478975e-15 11.124999999999988
  endloop
endfacet
facet normal -0.7933533402912293 0.0 0.6087614290087283
  outer loop
    vertex 31.94454364826298 -2.8199664825478975e-15 10.55545635173699
    vertex 32.38156986040718 5.0 11.124999999999988
    vertex 31.94454364826298 5.0 10.55545635173699
  endloop
endfacet
facet normal -0.6087614290087378 -0.0 0.7933533402912221
  outer loop
    vertex 31.94454364826298 -2.8199664825478975e-15 10.55545635173699
    vertex 31.374999999999982 5.0 10.118430139592776
    vertex 31.374999999999982 -2.8199664825478975e-15 10.118430139592776
  endloop
endfacet
facet normal -0.6087614290087378 -0.0 0.7933533402912221
  outer loop
    vertex 31.374999999999982 5.0 10.118430139592776
    vertex 31.94454364826298 -2.8199664825478975e-15 10.55545635173699
    vertex 31.94454364826298 5.0 10.55545635173699
  endloop
endfacet
facet normal -0.3826834323650762 -0.0 0.9238795325112924
  outer loop
    vertex 31.374999999999982 -2.8199664825478975e-15 10.118430139592776
    vertex 30.711752374031903 5.0 9.84370397770505
    vertex 30.711752374031903 -2.8199664825478975e-15 9.84370397770505
  endloop
endfacet
facet normal -0.3826834323650762 -0.0 0.9238795325112924
  outer loop
    vertex 30.711752374031903 5.0 9.84370397770505
    vertex 31.374999999999982 -2.8199664825478975e-15 10.118430139592776
    vertex 31.374999999999982 5.0 10.118430139592776
  endloop
endfacet
facet normal -0.13052619222005912 -0.0 0.9914448613738096
  outer loop
    vertex 30.711752374031903 -2.8199664825478975e-15 9.84370397770505
    vertex 29.99999999999998 5.0 9.749999999999986
    vertex 29.99999999999998 -2.8199664825478975e-15 9.749999999999986
  endloop
endfacet
facet normal -0.13052619222005912 -0.0 0.9914448613738096
  outer loop
    vertex 29.99999999999998 5.0 9.749999999999986
    vertex 30.711752374031903 -2.8199664825478975e-15 9.84370397770505
    vertex 30.711752374031903 5.0 9.84370397770505
  endloop
endfacet
facet normal 0.13052619222005138 -0.0 0.9914448613738105
  outer loop
    vertex 29.99999999999998 -2.8199664825478975e-15 9.749999999999986
    vertex 29.288247625968054 5.0 9.843703977705045
    vertex 29.288247625968054 -2.8199664825478975e-15 9.843703977705045
  endloop
endfacet
facet normal 0.13052619222005138 -0.0 0.9914448613738105
  outer loop
    vertex 29.288247625968054 5.0 9.843703977705045
    vertex 29.99999999999998 -2.8199664825478975e-15 9.749999999999986
    vertex 29.99999999999998 5.0 9.749999999999986
  endloop
endfacet
facet normal 0.38268343236507957 -0.0 0.9238795325112911
  outer loop
    vertex 29.288247625968054 -2.8199664825478975e-15 9.843703977705045
    vertex 28.624999999999975 5.0 10.118430139592773
    vertex 28.624999999999975 -2.8199664825478975e-15 10.118430139592773
  endloop
endfacet
facet normal 0.38268343236507957 -0.0 0.9238795325112911
  outer loop
    vertex 28.624999999999975 5.0 10.118430139592773
    vertex 29.288247625968054 -2.8199664825478975e-15 9.843703977705045
    vertex 29.288247625968054 5.0 9.843703977705045
  endloop
endfacet
facet normal 0.6087614290087356 -0.0 0.7933533402912238
  outer loop
    vertex 28.624999999999975 -2.8199664825478975e-15 10.118430139592773
    vertex 28.055456351737003 5.0 10.555456351736966
    vertex 28.055456351737003 -2.8199664825478975e-15 10.555456351736966
  endloop
endfacet
facet normal 0.6087614290087356 -0.0 0.7933533402912238
  outer loop
    vertex 28.055456351737003 5.0 10.555456351736966
    vertex 28.624999999999975 -2.8199664825478975e-15 10.118430139592773
    vertex 28.624999999999975 5.0 10.118430139592773
  endloop
endfacet
facet normal 0.7933533402912277 -0.0 0.6087614290087303
  outer loop
    vertex 28.055456351737003 5.0 10.555456351736966
    vertex 27.6184301395928 -2.8199664825478975e-15 11.124999999999963
    vertex 28.055456351737003 -2.8199664825478975e-15 10.555456351736966
  endloop
endfacet
facet normal 0.7933533402912277 -0.0 0.6087614290087303
  outer loop
    vertex 27.6184301395928 -2.8199664825478975e-15 11.124999999999963
    vertex 28.055456351737003 5.0 10.555456351736966
    vertex 27.6184301395928 5.0 11.124999999999963
  endloop
endfacet
facet normal 0.9238795325112841 -0.0 0.3826834323650963
  outer loop
    vertex 27.6184301395928 5.0 11.124999999999963
    vertex 27.343703977705054 -2.8199664825478975e-15 11.788247625968042
    vertex 27.6184301395928 -2.8199664825478975e-15 11.124999999999963
  endloop
endfacet
facet normal 0.9238795325112841 -0.0 0.3826834323650963
  outer loop
    vertex 27.343703977705054 -2.8199664825478975e-15 11.788247625968042
    vertex 27.6184301395928 5.0 11.124999999999963
    vertex 27.343703977705054 5.0 11.788247625968042
  endloop
endfacet
facet normal 0.9914448613738105 -0.0 0.13052619222005185
  outer loop
    vertex 27.343703977705054 5.0 11.788247625968042
    vertex 27.249999999999996 -2.8199664825478975e-15 12.499999999999963
    vertex 27.343703977705054 -2.8199664825478975e-15 11.788247625968042
  endloop
endfacet
facet normal 0.9914448613738105 -0.0 0.13052619222005185
  outer loop
    vertex 27.249999999999996 -2.8199664825478975e-15 12.499999999999963
    vertex 27.343703977705054 5.0 11.788247625968042
    vertex 27.249999999999996 5.0 12.499999999999963
  endloop
endfacet
facet normal 0.9914448613738107 -0.0 -0.13052619222004933
  outer loop
    vertex 27.249999999999996 5.0 12.499999999999963
    vertex 27.343703977705054 -2.8199664825478975e-15 13.211752374031898
    vertex 27.249999999999996 -2.8199664825478975e-15 12.499999999999963
  endloop
endfacet
facet normal 0.9914448613738107 -0.0 -0.13052619222004933
  outer loop
    vertex 27.343703977705054 -2.8199664825478975e-15 13.211752374031898
    vertex 27.249999999999996 5.0 12.499999999999963
    vertex 27.343703977705054 5.0 13.211752374031898
  endloop
endfacet
facet normal 0.9238795325112817 -0.0 -0.3826834323651019
  outer loop
    vertex 27.343703977705054 5.0 13.211752374031898
    vertex 27.6184301395928 -2.8199664825478975e-15 13.874999999999966
    vertex 27.343703977705054 -2.8199664825478975e-15 13.211752374031898
  endloop
endfacet
facet normal 0.9238795325112817 -0.0 -0.3826834323651019
  outer loop
    vertex 27.6184301395928 -2.8199664825478975e-15 13.874999999999966
    vertex 27.343703977705054 5.0 13.211752374031898
    vertex 27.6184301395928 5.0 13.874999999999966
  endloop
endfacet
facet normal 0.7933533402912517 -0.0 -0.608761429008699
  outer loop
    vertex 27.6184301395928 5.0 13.874999999999966
    vertex 28.05545635173698 -2.8199664825478975e-15 14.444543648262979
    vertex 27.6184301395928 -2.8199664825478975e-15 13.874999999999966
  endloop
endfacet
facet normal 0.7933533402912517 -0.0 -0.608761429008699
  outer loop
    vertex 28.05545635173698 -2.8199664825478975e-15 14.444543648262979
    vertex 27.6184301395928 5.0 13.874999999999966
    vertex 28.05545635173698 5.0 14.444543648262979
  endloop
endfacet
facet normal 0.6087614290087126 0.0 -0.7933533402912414
  outer loop
    vertex 28.625 5.0 14.88156986040718
    vertex 28.05545635173698 -2.8199664825478975e-15 14.444543648262979
    vertex 28.05545635173698 5.0 14.444543648262979
  endloop
endfacet
facet normal 0.6087614290087126 0.0 -0.7933533402912414
  outer loop
    vertex 28.05545635173698 -2.8199664825478975e-15 14.444543648262979
    vertex 28.625 5.0 14.88156986040718
    vertex 28.625 -2.8199664825478975e-15 14.88156986040718
  endloop
endfacet
facet normal 0.38268343236508384 0.0 -0.9238795325112892
  outer loop
    vertex 29.288247625968054 5.0 15.156296022294903
    vertex 28.625 -2.8199664825478975e-15 14.88156986040718
    vertex 28.625 5.0 14.88156986040718
  endloop
endfacet
facet normal 0.38268343236508384 0.0 -0.9238795325112892
  outer loop
    vertex 28.625 -2.8199664825478975e-15 14.88156986040718
    vertex 29.288247625968054 5.0 15.156296022294903
    vertex 29.288247625968054 -2.8199664825478975e-15 15.156296022294903
  endloop
endfacet
facet normal 1.0 -0.0 -0.0
  outer loop
    vertex 5.000000000000005 89.99999999999999 0.0
    vertex 5.000000000000005 95.0 2.4999999999999964
    vertex 5.000000000000005 89.99999999999999 5.000000000000002
  endloop
endfacet
facet normal 1.0 -0.0 -0.0
  outer loop
    vertex 5.000000000000005 95.0 2.4999999999999964
    vertex 5.000000000000005 89.99999999999999 0.0
    vertex 5.000000000000005 119.99999999999999 0.0
  endloop
endfacet
facet normal 1.0 -0.0 -0.0
  outer loop
    vertex 5.000000000000005 95.0 2.4999999999999964
    vertex 5.000000000000005 119.99999999999999 0.0
    vertex 5.000000000000005 114.99999999999999 2.4999999999999964
  endloop
endfacet
facet normal 1.0 -0.0 -0.0
  outer loop
    vertex 5.000000000000005 114.99999999999999 2.4999999999999964
    vertex 5.000000000000005 119.99999999999999 0.0
    vertex 5.000000000000005 114.99999999999999 22.5
  endloop
endfacet
facet normal 1.0 -0.0 -0.0
  outer loop
    vertex 5.000000000000005 89.99999999999999 5.000000000000002
    vertex 5.000000000000005 5.0 24.999999999999993
    vertex 5.000000000000005 5.0 5.000000000000002
  endloop
endfacet
facet normal 1.0 -0.0 -0.0
  outer loop
    vertex 5.000000000000005 5.0 24.999999999999993
    vertex 5.000000000000005 89.99999999999999 5.000000000000002
    vertex 5.000000000000005 95.0 22.5
  endloop
endfacet
facet normal 1.0 -0.0 -0.0
  outer loop
    vertex 5.000000000000005 5.0 24.999999999999993
    vertex 5.000000000000005 95.0 22.5
    vertex 5.000000000000005 119.99999999999999 24.999999999999993
  endloop
endfacet
facet normal 1.0 -0.0 -0.0
  outer loop
    vertex 5.000000000000005 95.0 22.5
    vertex 5.000000000000005 89.99999999999999 5.000000000000002
    vertex 5.000000000000005 95.0 2.4999999999999964
  endloop
endfacet
facet normal 1.0 -0.0 -0.0
  outer loop
    vertex 5.000000000000005 119.99999999999999 24.999999999999993
    vertex 5.000000000000005 95.0 22.5
    vertex 5.000000000000005 114.99999999999999 22.5
  endloop
endfacet
facet normal 1.0 -0.0 -0.0
  outer loop
    vertex 5.000000000000005 119.99999999999999 24.999999999999993
    vertex 5.000000000000005 114.99999999999999 22.5
    vertex 5.000000000000005 119.99999999999999 0.0
  endloop
endfacet
facet normal -0.0 1.0 -0.0
  outer loop
    vertex 29.99999999999998 5.0 9.749999999999986
    vertex 54.288247625968076 5.0 9.843703977705031
    vertex 55.00000000000002 5.0 9.749999999999972
  endloop
endfacet
facet normal -0.0 1.0 -0.0
  outer loop
    vertex 54.288247625968076 5.0 9.843703977705031
    vertex 29.99999999999998 5.0 9.749999999999986
    vertex 30.711752374031903 5.0 9.84370397770505
  endloop
endfacet
facet normal -0.0 1.0 -0.0
  outer loop
    vertex 54.288247625968076 5.0 9.843703977705031
    vertex 30.711752374031903 5.0 9.84370397770505
    vertex 53.625 5.0 10.118430139592773
  endloop
endfacet
facet normal -0.0 1.0 -0.0
  outer loop
    vertex 53.625 5.0 10.118430139592773
    vertex 30.711752374031903 5.0 9.84370397770505
    vertex 31.374999999999982 5.0 10.118430139592776
  endloop
endfacet
facet normal -0.0 1.0 -0.0
  outer loop
    vertex 53.625 5.0 10.118430139592773
    vertex 31.374999999999982 5.0 10.118430139592776
    vertex 53.05545635173698 5.0 10.555456351736945
  endloop
endfacet
facet normal -0.0 1.0 -0.0
  outer loop
    vertex 53.05545635173698 5.0 10.555456351736945
    vertex 31.374999999999982 5.0 10.118430139592776
    vertex 31.94454364826298 5.0 10.55545635173699
  endloop
endfacet
facet normal -0.0 1.0 -0.0
  outer loop
    vertex 53.05545635173698 5.0 10.555456351736945
    vertex 31.94454364826298 5.0 10.55545635173699
    vertex 52.618430139592796 5.0 11.124999999999986
  endloop
endfacet
facet normal -0.0 1.0 -0.0
  outer loop
    vertex 52.618430139592796 5.0 11.124999999999986
    vertex 31.94454364826298 5.0 10.55545635173699
    vertex 32.38156986040718 5.0 11.124999999999988
  endloop
endfacet
facet normal -0.0 1.0 -0.0
  outer loop
    vertex 52.618430139592796 5.0 11.124999999999986
    vertex 32.38156986040718 5.0 11.124999999999988
    vertex 52.343703977705076 5.0 11.788247625968026
  endloop
endfacet
facet normal -0.0 1.0 -0.0
  outer loop
    vertex 52.343703977705076 5.0 11.788247625968026
    vertex 32.38156986040718 5.0 11.124999999999988
    vertex 32.656296022294924 5.0 11.78824762596806
  endloop
endfacet
facet normal -0.0 1.0 -0.0
  outer loop
    vertex 52.343703977705076 5.0 11.788247625968026
    vertex 32.656296022294924 5.0 11.78824762596806
    vertex 52.250000000000014 5.0 12.499999999999972
  endloop
endfacet
facet normal -0.0 1.0 -0.0
  outer loop
    vertex 52.250000000000014 5.0 12.499999999999972
    vertex 32.656296022294924 5.0 11.78824762596806
    vertex 32.749999999999986 5.0 12.499999999999977
  endloop
endfacet
facet normal -0.0 1.0 -0.0
  outer loop
    vertex 52.250000000000014 5.0 12.499999999999972
    vertex 32.749999999999986 5.0 12.499999999999977
    vertex 52.343703977705076 5.0 13.211752374031901
  endloop
endfacet
facet normal -0.0 1.0 -0.0
  outer loop
    vertex 52.343703977705076 5.0 13.211752374031901
    vertex 32.749999999999986 5.0 12.499999999999977
    vertex 32.656296022294924 5.0 13.211752374031908
  endloop
endfacet
facet normal -0.0 1.0 -0.0
  outer loop
    vertex 52.343703977705076 5.0 13.211752374031901
    vertex 32.656296022294924 5.0 13.211752374031908
    vertex 52.618430139592796 5.0 13.874999999999975
  endloop
endfacet
facet normal -0.0 1.0 -0.0
  outer loop
    vertex 52.618430139592796 5.0 13.874999999999975
    vertex 32.656296022294924 5.0 13.211752374031908
    vertex 32.381569860407204 5.0 13.87499999999997
  endloop
endfacet
facet normal -0.0 1.0 -0.0
  outer loop
    vertex 52.618430139592796 5.0 13.874999999999975
    vertex 32.381569860407204 5.0 13.87499999999997
    vertex 31.944543648263 5.0 14.444543648262973
  endloop
endfacet
facet normal -0.0 1.0 -0.0
  outer loop
    vertex 52.618430139592796 5.0 13.874999999999975
    vertex 31.944543648263 5.0 14.444543648262973
    vertex 53.055456351737 5.0 14.444543648262977
  endloop
endfacet
facet normal -0.0 1.0 -0.0
  outer loop
    vertex 53.055456351737 5.0 14.444543648262977
    vertex 31.944543648263 5.0 14.444543648262973
    vertex 31.374999999999993 5.0 14.881569860407172
  endloop
endfacet
facet normal -0.0 1.0 -0.0
  outer loop
    vertex 53.055456351737 5.0 14.444543648262977
    vertex 31.374999999999993 5.0 14.881569860407172
    vertex 53.625 5.0 14.88156986040718
  endloop
endfacet
facet normal -0.0 1.0 -0.0
  outer loop
    vertex 53.625 5.0 14.88156986040718
    vertex 31.374999999999993 5.0 14.881569860407172
    vertex 30.711752374031924 5.0 15.156296022294914
  endloop
endfacet
facet normal -0.0 1.0 -0.0
  outer loop
    vertex 53.625 5.0 14.88156986040718
    vertex 30.711752374031924 5.0 15.156296022294914
    vertex 54.288247625968076 5.0 15.156296022294905
  endloop
endfacet
facet normal -0.0 1.0 -0.0
  outer loop
    vertex 54.288247625968076 5.0 15.156296022294905
    vertex 30.711752374031924 5.0 15.156296022294914
    vertex 55.0 5.0 15.249999999999961
  endloop
endfacet
facet normal -0.0 1.0 -0.0
  outer loop
    vertex 55.0 5.0 15.249999999999961
    vertex 30.711752374031924 5.0 15.156296022294914
    vertex 29.99999999999998 5.0 15.249999999999972
  endloop
endfacet
facet normal -0.0 1.0 -0.0
  outer loop
    vertex 5.000000000000005 5.0 5.000000000000002
    vertex 29.99999999999998 5.0 9.749999999999986
    vertex 55.00000000000002 5.0 9.749999999999972
  endloop
endfacet
facet normal -0.0 1.0 -0.0
  outer loop
    vertex 29.99999999999998 5.0 9.749999999999986
    vertex 5.000000000000005 5.0 5.000000000000002
    vertex 29.288247625968054 5.0 9.843703977705045
  endloop
endfacet
facet normal -0.0 1.0 -0.0
  outer loop
    vertex 29.288247625968054 5.0 9.843703977705045
    vertex 5.000000000000005 5.0 5.000000000000002
    vertex 28.624999999999975 5.0 10.118430139592773
  endloop
endfacet
facet normal -0.0 1.0 -0.0
  outer loop
    vertex 28.624999999999975 5.0 10.118430139592773
    vertex 5.000000000000005 5.0 5.000000000000002
    vertex 5.000000000000005 5.0 24.999999999999993
  endloop
endfacet
facet normal -0.0 1.0 -0.0
  outer loop
    vertex 28.624999999999975 5.0 10.118430139592773
    vertex 5.000000000000005 5.0 24.999999999999993
    vertex 28.055456351737003 5.0 10.555456351736966
  endloop
endfacet
facet normal -0.0 1.0 -0.0
  outer loop
    vertex 28.055456351737003 5.0 10.555456351736966
    vertex 5.000000000000005 5.0 24.999999999999993
    vertex 27.6184301395928 5.0 11.124999999999963
  endloop
endfacet
facet normal -0.0 1.0 -0.0
  outer loop
    vertex 27.6184301395928 5.0 11.124999999999963
    vertex 5.000000000000005 5.0 24.999999999999993
    vertex 27.343703977705054 5.0 11.788247625968042
  endloop
endfacet
facet normal -0.0 1.0 -0.0
  outer loop
    vertex 27.343703977705054 5.0 11.788247625968042
    vertex 5.000000000000005 5.0 24.999999999999993
    vertex 27.249999999999996 5.0 12.499999999999963
  endloop
endfacet
facet normal -0.0 1.0 -0.0
  outer loop
    vertex 27.249999999999996 5.0 12.499999999999963
    vertex 5.000000000000005 5.0 24.999999999999993
    vertex 27.343703977705054 5.0 13.211752374031898
  endloop
endfacet
facet normal -0.0 1.0 -0.0
  outer loop
    vertex 27.343703977705054 5.0 13.211752374031898
    vertex 5.000000000000005 5.0 24.999999999999993
    vertex 27.6184301395928 5.0 13.874999999999966
  endloop
endfacet
facet normal -0.0 1.0 -0.0
  outer loop
    vertex 27.6184301395928 5.0 13.874999999999966
    vertex 5.000000000000005 5.0 24.999999999999993
    vertex 28.05545635173698 5.0 14.444543648262979
  endloop
endfacet
facet normal -0.0 1.0 -0.0
  outer loop
    vertex 28.05545635173698 5.0 14.444543648262979
    vertex 5.000000000000005 5.0 24.999999999999993
    vertex 28.625 5.0 14.88156986040718
  endloop
endfacet
facet normal -0.0 1.0 -0.0
  outer loop
    vertex 28.625 5.0 14.88156986040718
    vertex 5.000000000000005 5.0 24.999999999999993
    vertex 29.288247625968054 5.0 15.156296022294903
  endloop
endfacet
facet normal -0.0 1.0 -0.0
  outer loop
    vertex 29.288247625968054 5.0 15.156296022294903
    vertex 5.000000000000005 5.0 24.999999999999993
    vertex 29.99999999999998 5.0 15.249999999999972
  endloop
endfacet
facet normal -0.0 1.0 -0.0
  outer loop
    vertex 29.99999999999998 5.0 15.249999999999972
    vertex 5.000000000000005 5.0 24.999999999999993
    vertex 80.00000000000003 5.0 24.99999999999997
  endloop
endfacet
facet normal -0.0 1.0 -0.0
  outer loop
    vertex 80.00000000000003 5.0 4.999999999999957
    vertex 56.37500000000001 5.0 10.118430139592768
    vertex 80.00000000000003 5.0 24.99999999999997
  endloop
endfacet
facet normal -0.0 1.0 -0.0
  outer loop
    vertex 56.37500000000001 5.0 10.118430139592768
    vertex 80.00000000000003 5.0 4.999999999999957
    vertex 55.711752374031946 5.0 9.84370397770502
  endloop
endfacet
facet normal -0.0 1.0 -0.0
  outer loop
    vertex 55.711752374031946 5.0 9.84370397770502
    vertex 80.00000000000003 5.0 4.999999999999957
    vertex 55.00000000000002 5.0 9.749999999999972
  endloop
endfacet
facet normal -0.0 1.0 -0.0
  outer loop
    vertex 55.00000000000002 5.0 9.749999999999972
    vertex 80.00000000000003 5.0 4.999999999999957
    vertex 5.000000000000005 5.0 5.000000000000002
  endloop
endfacet
facet normal -0.0 1.0 -0.0
  outer loop
    vertex 80.00000000000003 5.0 24.99999999999997
    vertex 56.37500000000001 5.0 10.118430139592768
    vertex 56.944543648263 5.0 10.55545635173695
  endloop
endfacet
facet normal -0.0 1.0 -0.0
  outer loop
    vertex 80.00000000000003 5.0 24.99999999999997
    vertex 56.944543648263 5.0 10.55545635173695
    vertex 57.381569860407225 5.0 11.12499999999998
  endloop
endfacet
facet normal -0.0 1.0 -0.0
  outer loop
    vertex 80.00000000000003 5.0 24.99999999999997
    vertex 57.381569860407225 5.0 11.12499999999998
    vertex 57.656296022294946 5.0 11.788247625968031
  endloop
endfacet
facet normal -0.0 1.0 -0.0
  outer loop
    vertex 80.00000000000003 5.0 24.99999999999997
    vertex 57.656296022294946 5.0 11.788247625968031
    vertex 57.75000000000001 5.0 12.499999999999982
  endloop
endfacet
facet normal -0.0 1.0 -0.0
  outer loop
    vertex 80.00000000000003 5.0 24.99999999999997
    vertex 57.75000000000001 5.0 12.499999999999982
    vertex 57.656296022294946 5.0 13.211752374031901
  endloop
endfacet
facet normal -0.0 1.0 -0.0
  outer loop
    vertex 80.00000000000003 5.0 24.99999999999997
    vertex 57.656296022294946 5.0 13.211752374031901
    vertex 57.381569860407225 5.0 13.87499999999997
  endloop
endfacet
facet normal -0.0 1.0 -0.0
  outer loop
    vertex 80.00000000000003 5.0 24.99999999999997
    vertex 57.381569860407225 5.0 13.87499999999997
    vertex 56.94454364826302 5.0 14.444543648262982
  endloop
endfacet
facet normal -0.0 1.0 -0.0
  outer loop
    vertex 80.00000000000003 5.0 24.99999999999997
    vertex 56.94454364826302 5.0 14.444543648262982
    vertex 56.37500000000001 5.0 14.881569860407168
  endloop
endfacet
facet normal -0.0 1.0 -0.0
  outer loop
    vertex 80.00000000000003 5.0 24.99999999999997
    vertex 56.37500000000001 5.0 14.881569860407168
    vertex 55.711752374031946 5.0 15.156296022294912
  endloop
endfacet
facet normal -0.0 1.0 -0.0
  outer loop
    vertex 80.00000000000003 5.0 24.99999999999997
    vertex 55.711752374031946 5.0 15.156296022294912
    vertex 55.0 5.0 15.249999999999961
  endloop
endfacet
facet normal -0.0 1.0 -0.0
  outer loop
    vertex 80.00000000000003 5.0 24.99999999999997
    vertex 55.0 5.0 15.249999999999961
    vertex 29.99999999999998 5.0 15.249999999999972
  endloop
endfacet
facet normal 0.7498378553650925 0.6616216370868464 -3.6332388038158725e-15
  outer loop
    vertex 5.000000000000005 89.99999999999999 0.0
    vertex 80.00000000000003 5.0 4.999999999999957
    vertex 79.99999999999997 5.0 -5.639932965095795e-15
  endloop
endfacet
facet normal 0.7498378553650925 0.6616216370868464 -3.6332388038158725e-15
  outer loop
    vertex 80.00000000000003 5.0 4.999999999999957
    vertex 5.000000000000005 89.99999999999999 0.0
    vertex 5.000000000000005 89.99999999999999 5.000000000000002
  endloop
endfacet
facet normal 7.930911920003947e-16 -2.385220276473236e-17 1.0
  outer loop
    vertex 80.00000000000003 5.0 4.999999999999957
    vertex 5.000000000000005 89.99999999999999 5.000000000000002
    vertex 5.000000000000005 5.0 5.000000000000002
  endloop
endfacet
facet normal 6.112576455273991e-16 0.1305261922200455 0.9914448613738112
  outer loop
    vertex 2.255973186038318e-14 104.1588381034168 9.360741064560514
    vertex 2.499999999999994 104.99999999999999 9.249999999999996
    vertex 0.0 104.99999999999999 9.249999999999991
  endloop
endfacet
facet normal 6.112576455273991e-16 0.1305261922200455 0.9914448613738112
  outer loop
    vertex 2.499999999999994 104.99999999999999 9.249999999999996
    vertex 2.255973186038318e-14 104.1588381034168 9.360741064560514
    vertex 2.500000000000005 104.1588381034168 9.360741064560518
  endloop
endfacet
facet normal 8.029653728385229e-16 -0.1305261922200455 0.9914448613738112
  outer loop
    vertex 2.499999999999994 104.99999999999999 9.249999999999996
    vertex 2.255973186038318e-14 105.84116189658317 9.360741064560514
    vertex 0.0 104.99999999999999 9.249999999999991
  endloop
endfacet
facet normal 8.029653728385229e-16 -0.1305261922200455 0.9914448613738112
  outer loop
    vertex 2.255973186038318e-14 105.84116189658317 9.360741064560514
    vertex 2.499999999999994 104.99999999999999 9.249999999999996
    vertex 2.500000000000005 105.84116189658317 9.360741064560518
  endloop
endfacet
facet normal 9.399523369537318e-16 -0.3826834323650853 0.9238795325112887
  outer loop
    vertex 2.500000000000005 105.84116189658317 9.360741064560518
    vertex 2.255973186038318e-14 106.625 9.685417437700563
    vertex 2.255973186038318e-14 105.84116189658317 9.360741064560514
  endloop
endfacet
facet normal 9.399523369537318e-16 -0.3826834323650853 0.9238795325112887
  outer loop
    vertex 2.255973186038318e-14 106.625 9.685417437700563
    vertex 2.500000000000005 105.84116189658317 9.360741064560518
    vertex 2.500000000000005 106.625 9.685417437700567
  endloop
endfacet
facet normal 1.012883102650228e-15 -0.608761429008735 0.7933533402912242
  outer loop
    vertex 2.500000000000005 106.625 9.685417437700567
    vertex 2.255973186038318e-14 107.29809703885626 10.201902961143713
    vertex 2.255973186038318e-14 106.625 9.685417437700563
  endloop
endfacet
facet normal 1.012883102650228e-15 -0.608761429008735 0.7933533402912242
  outer loop
    vertex 2.255973186038318e-14 107.29809703885626 10.201902961143713
    vertex 2.500000000000005 106.625 9.685417437700567
    vertex 2.500000000000005 107.29809703885626 10.201902961143718
  endloop
endfacet
facet normal 1.0167875587695738e-15 -0.7933533402912369 0.6087614290087182
  outer loop
    vertex 2.500000000000005 107.29809703885626 10.201902961143718
    vertex 2.255973186038318e-14 107.8145825622994 10.874999999999996
    vertex 2.255973186038318e-14 107.29809703885626 10.201902961143713
  endloop
endfacet
facet normal 1.0167875587695738e-15 -0.7933533402912369 0.6087614290087182
  outer loop
    vertex 2.255973186038318e-14 107.8145825622994 10.874999999999996
    vertex 2.500000000000005 107.29809703885626 10.201902961143718
    vertex 2.500000000000005 107.8145825622994 10.875000000000002
  endloop
endfacet
facet normal 9.51399623079675e-16 -0.9238795325112773 0.38268343236511254
  outer loop
    vertex 2.500000000000005 107.8145825622994 10.875000000000002
    vertex 2.255973186038318e-14 108.13925893543947 11.6588381034168
    vertex 2.255973186038318e-14 107.8145825622994 10.874999999999996
  endloop
endfacet
facet normal 9.51399623079675e-16 -0.9238795325112773 0.38268343236511254
  outer loop
    vertex 2.255973186038318e-14 108.13925893543947 11.6588381034168
    vertex 2.500000000000005 107.8145825622994 10.875000000000002
    vertex 2.500000000000005 108.13925893543947 11.658838103416803
  endloop
endfacet
facet normal 8.211753753390871e-16 -0.991444861373812 0.13052619222003997
  outer loop
    vertex 2.500000000000005 108.13925893543947 11.658838103416803
    vertex 2.255973186038318e-14 108.25 12.499999999999995
    vertex 2.255973186038318e-14 108.13925893543947 11.6588381034168
  endloop
endfacet
facet normal 8.211753753390871e-16 -0.991444861373812 0.13052619222003997
  outer loop
    vertex 2.255973186038318e-14 108.25 12.499999999999995
    vertex 2.500000000000005 108.13925893543947 11.658838103416803
    vertex 2.500000000000005 108.25 12.499999999999998
  endloop
endfacet
facet normal 6.349893828256461e-16 -0.9914448613738122 -0.1305261922200378
  outer loop
    vertex 2.500000000000005 108.25 12.499999999999998
    vertex 0.0 108.13925893543947 13.341161896583204
    vertex 2.255973186038318e-14 108.25 12.499999999999995
  endloop
endfacet
facet normal 6.349893828256461e-16 -0.9914448613738122 -0.1305261922200378
  outer loop
    vertex 0.0 108.13925893543947 13.341161896583204
    vertex 2.500000000000005 108.25 12.499999999999998
    vertex 2.499999999999994 108.13925893543947 13.341161896583207
  endloop
endfacet
facet normal 4.055299132421562e-16 -0.9238795325112771 -0.3826834323651131
  outer loop
    vertex 2.499999999999994 108.13925893543947 13.341161896583207
    vertex 0.0 107.8145825622994 14.125000000000005
    vertex 0.0 108.13925893543947 13.341161896583204
  endloop
endfacet
facet normal 4.055299132421562e-16 -0.9238795325112771 -0.3826834323651131
  outer loop
    vertex 0.0 107.8145825622994 14.125000000000005
    vertex 2.499999999999994 108.13925893543947 13.341161896583207
    vertex 2.499999999999994 107.8145825622994 14.125000000000007
  endloop
endfacet
facet normal 1.4843425024114066e-16 -0.7933533402912364 -0.6087614290087191
  outer loop
    vertex 2.499999999999994 107.8145825622994 14.125000000000007
    vertex 0.0 107.29809703885626 14.798097038856287
    vertex 0.0 107.8145825622994 14.125000000000005
  endloop
endfacet
facet normal 1.4843425024114066e-16 -0.7933533402912364 -0.6087614290087191
  outer loop
    vertex 0.0 107.29809703885626 14.798097038856287
    vertex 2.499999999999994 107.8145825622994 14.125000000000007
    vertex 2.499999999999994 107.29809703885626 14.798097038856291
  endloop
endfacet
facet normal -1.1877696161464707e-16 -0.6087614290087149 -0.7933533402912397
  outer loop
    vertex 2.499999999999994 107.29809703885626 14.798097038856291
    vertex 2.255973186038318e-14 106.62499999999999 15.314582562299428
    vertex 0.0 107.29809703885626 14.798097038856287
  endloop
endfacet
facet normal -1.1877696161464707e-16 -0.6087614290087149 -0.7933533402912397
  outer loop
    vertex 2.255973186038318e-14 106.62499999999999 15.314582562299428
    vertex 2.499999999999994 107.29809703885626 14.798097038856291
    vertex 2.500000000000005 106.62499999999999 15.314582562299432
  endloop
endfacet
facet normal -3.7789371982458365e-16 -0.38268343236509605 -0.9238795325112842
  outer loop
    vertex 2.500000000000005 106.62499999999999 15.314582562299432
    vertex 2.255973186038318e-14 105.84116189658317 15.639258935439479
    vertex 2.255973186038318e-14 106.62499999999999 15.314582562299428
  endloop
endfacet
facet normal -3.7789371982458365e-16 -0.38268343236509605 -0.9238795325112842
  outer loop
    vertex 2.255973186038318e-14 105.84116189658317 15.639258935439479
    vertex 2.500000000000005 106.62499999999999 15.314582562299432
    vertex 2.5000000000000164 105.84116189658317 15.63925893543948
  endloop
endfacet
facet normal -6.112576455273923e-16 -0.13052619222005366 -0.9914448613738102
  outer loop
    vertex 2.5000000000000164 105.84116189658317 15.63925893543948
    vertex 2.255973186038318e-14 104.99999999999999 15.750000000000007
    vertex 2.255973186038318e-14 105.84116189658317 15.639258935439479
  endloop
endfacet
facet normal -6.112576455273923e-16 -0.13052619222005366 -0.9914448613738102
  outer loop
    vertex 2.255973186038318e-14 104.99999999999999 15.750000000000007
    vertex 2.5000000000000164 105.84116189658317 15.63925893543948
    vertex 2.5000000000000164 104.99999999999999 15.75000000000001
  endloop
endfacet
facet normal -8.029653728385283e-16 0.13052619222005366 -0.9914448613738102
  outer loop
    vertex 2.5000000000000164 104.99999999999999 15.75000000000001
    vertex 2.255973186038318e-14 104.1588381034168 15.639258935439479
    vertex 2.255973186038318e-14 104.99999999999999 15.750000000000007
  endloop
endfacet
facet normal -8.029653728385283e-16 0.13052619222005366 -0.9914448613738102
  outer loop
    vertex 2.255973186038318e-14 104.1588381034168 15.639258935439479
    vertex 2.5000000000000164 104.99999999999999 15.75000000000001
    vertex 2.5000000000000164 104.1588381034168 15.63925893543948
  endloop
endfacet
facet normal -9.3995233695373e-16 0.382683432365081 -0.9238795325112904
  outer loop
    vertex 2.5000000000000164 104.1588381034168 15.63925893543948
    vertex 2.255973186038318e-14 103.37499999999997 15.314582562299433
    vertex 2.255973186038318e-14 104.1588381034168 15.639258935439479
  endloop
endfacet
facet normal -9.3995233695373e-16 0.382683432365081 -0.9238795325112904
  outer loop
    vertex 2.255973186038318e-14 103.37499999999997 15.314582562299433
    vertex 2.5000000000000164 104.1588381034168 15.63925893543948
    vertex 2.500000000000005 103.37499999999997 15.314582562299437
  endloop
endfacet
facet normal -1.0128831026502277e-15 0.608761429008734 -0.793353340291225
  outer loop
    vertex 2.500000000000005 103.37499999999997 15.314582562299437
    vertex 2.255973186038318e-14 102.70190296114372 14.798097038856286
    vertex 2.255973186038318e-14 103.37499999999997 15.314582562299433
  endloop
endfacet
facet normal -1.0128831026502277e-15 0.608761429008734 -0.793353340291225
  outer loop
    vertex 2.255973186038318e-14 102.70190296114372 14.798097038856286
    vertex 2.500000000000005 103.37499999999997 15.314582562299437
    vertex 2.500000000000005 102.70190296114372 14.798097038856287
  endloop
endfacet
facet normal -1.0167875587695743e-15 0.7933533402912353 -0.6087614290087208
  outer loop
    vertex 2.255973186038318e-14 102.70190296114372 14.798097038856286
    vertex 2.500000000000005 102.18541743770056 14.125000000000007
    vertex 2.255973186038318e-14 102.18541743770056 14.125000000000005
  endloop
endfacet
facet normal -1.0167875587695743e-15 0.7933533402912353 -0.6087614290087208
  outer loop
    vertex 2.500000000000005 102.18541743770056 14.125000000000007
    vertex 2.255973186038318e-14 102.70190296114372 14.798097038856286
    vertex 2.500000000000005 102.70190296114372 14.798097038856287
  endloop
endfacet
facet normal -9.513996230796742e-16 0.9238795325112782 -0.38268343236511076
  outer loop
    vertex 2.255973186038318e-14 102.18541743770056 14.125000000000005
    vertex 2.500000000000005 101.8607410645605 13.341161896583202
    vertex 2.255973186038318e-14 101.8607410645605 13.341161896583198
  endloop
endfacet
facet normal -9.513996230796742e-16 0.9238795325112782 -0.38268343236511076
  outer loop
    vertex 2.500000000000005 101.8607410645605 13.341161896583202
    vertex 2.255973186038318e-14 102.18541743770056 14.125000000000005
    vertex 2.500000000000005 102.18541743770056 14.125000000000007
  endloop
endfacet
facet normal -8.211753753390861e-16 0.9914448613738122 -0.13052619222003867
  outer loop
    vertex 2.255973186038318e-14 101.8607410645605 13.341161896583198
    vertex 2.500000000000005 101.74999999999999 12.499999999999998
    vertex 2.255973186038318e-14 101.74999999999999 12.499999999999995
  endloop
endfacet
facet normal -8.211753753390861e-16 0.9914448613738122 -0.13052619222003867
  outer loop
    vertex 2.500000000000005 101.74999999999999 12.499999999999998
    vertex 2.255973186038318e-14 101.8607410645605 13.341161896583198
    vertex 2.500000000000005 101.8607410645605 13.341161896583202
  endloop
endfacet
facet normal -6.349893828256445e-16 0.991444861373812 0.13052619222003997
  outer loop
    vertex 2.255973186038318e-14 101.74999999999999 12.499999999999995
    vertex 2.500000000000005 101.8607410645605 11.658838103416803
    vertex 2.255973186038318e-14 101.8607410645605 11.6588381034168
  endloop
endfacet
facet normal -6.349893828256445e-16 0.991444861373812 0.13052619222003997
  outer loop
    vertex 2.500000000000005 101.8607410645605 11.658838103416803
    vertex 2.255973186038318e-14 101.74999999999999 12.499999999999995
    vertex 2.500000000000005 101.74999999999999 12.499999999999998
  endloop
endfacet
facet normal -4.0552991324215804e-16 0.9238795325112779 0.3826834323651113
  outer loop
    vertex 2.255973186038318e-14 101.8607410645605 11.6588381034168
    vertex 2.500000000000005 102.18541743770056 10.874999999999998
    vertex 2.255973186038318e-14 102.18541743770056 10.874999999999995
  endloop
endfacet
facet normal -4.0552991324215804e-16 0.9238795325112779 0.3826834323651113
  outer loop
    vertex 2.500000000000005 102.18541743770056 10.874999999999998
    vertex 2.255973186038318e-14 101.8607410645605 11.6588381034168
    vertex 2.500000000000005 101.8607410645605 11.658838103416803
  endloop
endfacet
facet normal -1.4843425024113957e-16 0.7933533402912359 0.6087614290087199
  outer loop
    vertex 2.255973186038318e-14 102.18541743770056 10.874999999999995
    vertex 2.500000000000005 102.70190296114372 10.201902961143718
    vertex 2.255973186038318e-14 102.70190296114372 10.201902961143713
  endloop
endfacet
facet normal -1.4843425024113957e-16 0.7933533402912359 0.6087614290087199
  outer loop
    vertex 2.500000000000005 102.70190296114372 10.201902961143718
    vertex 2.255973186038318e-14 102.18541743770056 10.874999999999995
    vertex 2.500000000000005 102.18541743770056 10.874999999999998
  endloop
endfacet
facet normal 1.1877696161463763e-16 0.6087614290087222 0.7933533402912339
  outer loop
    vertex 2.500000000000005 102.70190296114372 10.201902961143718
    vertex 2.255973186038318e-14 103.375 9.685417437700563
    vertex 2.255973186038318e-14 102.70190296114372 10.201902961143713
  endloop
endfacet
facet normal 1.1877696161463763e-16 0.6087614290087222 0.7933533402912339
  outer loop
    vertex 2.255973186038318e-14 103.375 9.685417437700563
    vertex 2.500000000000005 102.70190296114372 10.201902961143718
    vertex 2.500000000000005 103.375 9.685417437700567
  endloop
endfacet
facet normal 3.7789371982458513e-16 0.38268343236509467 0.9238795325112847
  outer loop
    vertex 2.500000000000005 103.375 9.685417437700567
    vertex 2.255973186038318e-14 104.1588381034168 9.360741064560514
    vertex 2.255973186038318e-14 103.375 9.685417437700563
  endloop
endfacet
facet normal 3.7789371982458513e-16 0.38268343236509467 0.9238795325112847
  outer loop
    vertex 2.255973186038318e-14 104.1588381034168 9.360741064560514
    vertex 2.500000000000005 103.375 9.685417437700567
    vertex 2.500000000000005 104.1588381034168 9.360741064560518
  endloop
endfacet
facet normal 1.0 0.0 0.0
  outer loop
    vertex 2.500000000000005 97.5 4.9999999999999964
    vertex 2.500000000000005 102.18541743770056 10.874999999999998
    vertex 2.500000000000005 97.5 19.999999999999996
  endloop
endfacet
facet normal 1.0 0.0 0.0
  outer loop
    vertex 2.500000000000005 102.18541743770056 10.874999999999998
    vertex 2.500000000000005 97.5 4.9999999999999964
    vertex 2.500000000000005 102.70190296114372 10.201902961143718
  endloop
endfacet
facet normal 1.0 0.0 0.0
  outer loop
    vertex 2.500000000000005 102.70190296114372 10.201902961143718
    vertex 2.500000000000005 97.5 4.9999999999999964
    vertex 2.500000000000005 103.375 9.685417437700567
  endloop
endfacet
facet normal 1.0 0.0 0.0
  outer loop
    vertex 2.500000000000005 103.375 9.685417437700567
    vertex 2.500000000000005 97.5 4.9999999999999964
    vertex 2.500000000000005 112.5 4.9999999999999964
  endloop
endfacet
facet normal 1.0 0.0 0.0
  outer loop
    vertex 2.500000000000005 97.5 19.999999999999996
    vertex 2.500000000000005 102.18541743770056 10.874999999999998
    vertex 2.500000000000005 101.8607410645605 11.658838103416803
  endloop
endfacet
facet normal 1.0 0.0 0.0
  outer loop
    vertex 2.500000000000005 97.5 19.999999999999996
    vertex 2.500000000000005 101.8607410645605 11.658838103416803
    vertex 2.500000000000005 101.74999999999999 12.499999999999998
  endloop
endfacet
facet normal 1.0 0.0 0.0
  outer loop
    vertex 2.500000000000005 103.375 9.685417437700567
    vertex 2.500000000000005 112.5 4.9999999999999964
    vertex 2.500000000000005 104.1588381034168 9.360741064560518
  endloop
endfacet
facet normal 1.0 0.0 0.0
  outer loop
    vertex 2.500000000000005 104.1588381034168 9.360741064560518
    vertex 2.500000000000005 112.5 4.9999999999999964
    vertex 2.499999999999994 104.99999999999999 9.249999999999996
  endloop
endfacet
facet normal 1.0 0.0 0.0
  outer loop
    vertex 2.499999999999994 104.99999999999999 9.249999999999996
    vertex 2.500000000000005 112.5 4.9999999999999964
    vertex 2.500000000000005 105.84116189658317 9.360741064560518
  endloop
endfacet
facet normal 1.0 0.0 0.0
  outer loop
    vertex 2.500000000000005 105.84116189658317 9.360741064560518
    vertex 2.500000000000005 112.5 4.9999999999999964
    vertex 2.500000000000005 106.625 9.685417437700567
  endloop
endfacet
facet normal 1.0 0.0 0.0
  outer loop
    vertex 2.500000000000005 106.625 9.685417437700567
    vertex 2.500000000000005 112.5 4.9999999999999964
    vertex 2.500000000000005 107.29809703885626 10.201902961143718
  endloop
endfacet
facet normal 1.0 0.0 0.0
  outer loop
    vertex 2.500000000000005 107.29809703885626 10.201902961143718
    vertex 2.500000000000005 112.5 4.9999999999999964
    vertex 2.500000000000005 107.8145825622994 10.875000000000002
  endloop
endfacet
facet normal 1.0 0.0 0.0
  outer loop
    vertex 2.500000000000005 107.8145825622994 10.875000000000002
    vertex 2.500000000000005 112.5 4.9999999999999964
    vertex 2.500000000000005 108.13925893543947 11.658838103416803
  endloop
endfacet
facet normal 1.0 0.0 0.0
  outer loop
    vertex 2.500000000000005 108.13925893543947 11.658838103416803
    vertex 2.500000000000005 112.5 4.9999999999999964
    vertex 2.500000000000005 108.25 12.499999999999998
  endloop
endfacet
facet normal 1.0 0.0 0.0
  outer loop
    vertex 2.500000000000005 97.5 19.999999999999996
    vertex 2.500000000000005 103.37499999999997 15.314582562299437
    vertex 2.500000000000005 112.5 19.999999999999996
  endloop
endfacet
facet normal 1.0 0.0 0.0
  outer loop
    vertex 2.500000000000005 103.37499999999997 15.314582562299437
    vertex 2.500000000000005 97.5 19.999999999999996
    vertex 2.500000000000005 102.70190296114372 14.798097038856287
  endloop
endfacet
facet normal 1.0 0.0 0.0
  outer loop
    vertex 2.500000000000005 102.70190296114372 14.798097038856287
    vertex 2.500000000000005 97.5 19.999999999999996
    vertex 2.500000000000005 102.18541743770056 14.125000000000007
  endloop
endfacet
facet normal 1.0 0.0 0.0
  outer loop
    vertex 2.500000000000005 102.18541743770056 14.125000000000007
    vertex 2.500000000000005 97.5 19.999999999999996
    vertex 2.500000000000005 101.8607410645605 13.341161896583202
  endloop
endfacet
facet normal 1.0 0.0 0.0
  outer loop
    vertex 2.500000000000005 101.8607410645605 13.341161896583202
    vertex 2.500000000000005 97.5 19.999999999999996
    vertex 2.500000000000005 101.74999999999999 12.499999999999998
  endloop
endfacet
facet normal 1.0 0.0 0.0
  outer loop
    vertex 2.500000000000005 112.5 19.999999999999996
    vertex 2.500000000000005 103.37499999999997 15.314582562299437
    vertex 2.5000000000000164 104.1588381034168 15.63925893543948
  endloop
endfacet
facet normal 1.0 0.0 0.0
  outer loop
    vertex 2.500000000000005 112.5 19.999999999999996
    vertex 2.5000000000000164 104.1588381034168 15.63925893543948
    vertex 2.5000000000000164 104.99999999999999 15.75000000000001
  endloop
endfacet
facet normal 1.0 0.0 0.0
  outer loop
    vertex 2.500000000000005 112.5 19.999999999999996
    vertex 2.5000000000000164 104.99999999999999 15.75000000000001
    vertex 2.5000000000000164 105.84116189658317 15.63925893543948
  endloop
endfacet
facet normal 1.0 0.0 0.0
  outer loop
    vertex 2.500000000000005 112.5 19.999999999999996
    vertex 2.5000000000000164 105.84116189658317 15.63925893543948
    vertex 2.500000000000005 106.62499999999999 15.314582562299432
  endloop
endfacet
facet normal 1.0 0.0 0.0
  outer loop
    vertex 2.500000000000005 112.5 19.999999999999996
    vertex 2.500000000000005 106.62499999999999 15.314582562299432
    vertex 2.499999999999994 107.29809703885626 14.798097038856291
  endloop
endfacet
facet normal 1.0 0.0 0.0
  outer loop
    vertex 2.500000000000005 112.5 19.999999999999996
    vertex 2.499999999999994 107.29809703885626 14.798097038856291
    vertex 2.499999999999994 107.8145825622994 14.125000000000007
  endloop
endfacet
facet normal 1.0 0.0 0.0
  outer loop
    vertex 2.500000000000005 112.5 19.999999999999996
    vertex 2.499999999999994 107.8145825622994 14.125000000000007
    vertex 2.499999999999994 108.13925893543947 13.341161896583207
  endloop
endfacet
facet normal 1.0 0.0 0.0
  outer loop
    vertex 2.500000000000005 112.5 19.999999999999996
    vertex 2.499999999999994 108.13925893543947 13.341161896583207
    vertex 2.500000000000005 108.25 12.499999999999998
  endloop
endfacet
facet normal 1.0 0.0 0.0
  outer loop
    vertex 2.500000000000005 112.5 19.999999999999996
    vertex 2.500000000000005 108.25 12.499999999999998
    vertex 2.500000000000005 112.5 4.9999999999999964
  endloop
endfacet
facet normal 0.7071067811865475 -3.582427685731778e-32 0.7071067811865476
  outer loop
    vertex 5.000000000000005 95.0 2.4999999999999964
    vertex 2.500000000000005 112.5 4.9999999999999964
    vertex 2.500000000000005 97.5 4.9999999999999964
  endloop
endfacet
facet normal 0.7071067811865475 -3.582427685731778e-32 0.7071067811865476
  outer loop
    vertex 2.500000000000005 112.5 4.9999999999999964
    vertex 5.000000000000005 95.0 2.4999999999999964
    vertex 5.000000000000005 114.99999999999999 2.4999999999999964
  endloop
endfacet
facet normal 0.707106781186547 0.7071067811865481 -3.654990493145306e-32
  outer loop
    vertex 2.500000000000005 97.5 4.9999999999999964
    vertex 5.000000000000005 95.0 22.5
    vertex 5.000000000000005 95.0 2.4999999999999964
  endloop
endfacet
facet normal 0.707106781186547 0.7071067811865481 -3.654990493145306e-32
  outer loop
    vertex 5.000000000000005 95.0 22.5
    vertex 2.500000000000005 97.5 4.9999999999999964
    vertex 2.500000000000005 97.5 19.999999999999996
  endloop
endfacet
facet normal 0.707106781186547 -0.7071067811865481 -3.654990493145306e-32
  outer loop
    vertex 5.000000000000005 114.99999999999999 22.5
    vertex 2.500000000000005 112.5 4.9999999999999964
    vertex 5.000000000000005 114.99999999999999 2.4999999999999964
  endloop
endfacet
facet normal 0.707106781186547 -0.7071067811865481 -3.654990493145306e-32
  outer loop
    vertex 2.500000000000005 112.5 4.9999999999999964
    vertex 5.000000000000005 114.99999999999999 22.5
    vertex 2.500000000000005 112.5 19.999999999999996
  endloop
endfacet
facet normal 0.7071067811865477 -7.597206379833209e-18 -0.7071067811865475
  outer loop
    vertex 2.500000000000005 97.5 19.999999999999996
    vertex 5.000000000000005 114.99999999999999 22.5
    vertex 5.000000000000005 95.0 22.5
  endloop
endfacet
facet normal 0.7071067811865477 -7.597206379833209e-18 -0.7071067811865475
  outer loop
    vertex 5.000000000000005 114.99999999999999 22.5
    vertex 2.500000000000005 97.5 19.999999999999996
    vertex 2.500000000000005 112.5 19.999999999999996
  endloop
endfacet
endsolid PoleMountAntennaBracket
